<svg width="902" height="579" viewBox="0 0 902 579" fill="none" xmlns="http://www.w3.org/2000/svg">
<g clip-path="url(#clip0_360_4830)">
<path d="M790.419 534.591C819.426 505.608 819.426 458.618 790.419 429.636C761.412 400.653 714.383 400.653 685.376 429.636C656.369 458.618 656.369 505.608 685.376 534.591C714.383 563.573 761.412 563.573 790.419 534.591Z" fill="#2F2E41"/>
<path d="M737.484 488.94C751.173 485.912 759.814 472.371 756.784 458.693C753.754 445.016 740.2 436.383 726.511 439.41C712.823 442.438 704.182 455.979 707.212 469.657C710.242 483.334 723.795 491.967 737.484 488.94Z" fill="white"/>
<path d="M723.543 465.88C728.106 464.87 730.986 460.356 729.976 455.797C728.966 451.238 724.448 448.36 719.886 449.37C715.323 450.379 712.442 454.893 713.452 459.452C714.462 464.011 718.98 466.889 723.543 465.88Z" fill="#3F3D56"/>
<path d="M734.963 431.941C704.586 431.885 683.262 426.463 683.313 398.966C683.363 371.468 708.03 349.222 738.407 349.278C768.784 349.334 793.368 371.671 793.317 399.169C793.266 426.667 765.34 431.997 734.963 431.941Z" fill="#FF7700"/>
<path d="M854.316 494.518C845.602 524.72 820.161 545.862 793.622 563.821C789.917 566.329 786.21 568.78 782.502 571.172C782.477 571.183 782.451 571.207 782.426 571.218C782.247 571.333 782.069 571.447 781.902 571.563C781.137 572.055 780.372 572.549 779.613 573.036L780.03 573.223C780.03 573.223 780.439 573.441 779.991 573.258C779.858 573.202 779.718 573.152 779.585 573.096C764.168 566.883 748.477 560.213 736.662 548.574C724.405 536.488 717.243 517.532 723.879 501.654C724.752 499.575 725.854 497.599 727.165 495.763C727.703 494.993 728.283 494.257 728.886 493.534C732.547 489.069 737.332 485.66 742.749 483.656C748.166 481.652 754.019 481.125 759.707 482.131C765.395 483.136 770.712 485.637 775.112 489.377C779.512 493.116 782.835 497.959 784.741 503.407C786.69 485.269 771.722 470.076 757.316 458.865C742.905 447.66 726.529 435.458 723.743 417.421C722.187 407.385 725.68 397.659 732.042 389.852C732.239 389.615 732.436 389.378 732.639 389.147C740.384 380.054 751.277 374.214 763.143 372.796C785.242 370.501 806.707 382.188 822.761 397.54C848.6 422.24 864.221 460.179 854.316 494.518Z" fill="#E6E6E6"/>
<path d="M812.779 455.015C817.02 461.608 820.276 468.784 822.444 476.315C824.278 483.047 825.094 490.015 824.866 496.989C824.274 511.337 820.243 525.334 813.11 537.802C807.737 547.261 801.19 556.003 793.623 563.821C789.917 566.329 786.21 568.78 782.503 571.172C782.477 571.183 782.452 571.207 782.426 571.218C782.248 571.333 782.069 571.447 781.903 571.563C781.138 572.055 780.372 572.549 779.613 573.036C779.613 573.036 780.439 573.441 779.991 573.258C779.858 573.202 779.719 573.152 779.586 573.096C780.967 561.777 779.614 550.292 775.638 539.603C771.662 528.914 765.18 519.333 756.735 511.662C748.27 504.109 738.138 498.661 727.165 495.763C727.703 494.993 728.283 494.257 728.887 493.534C733.125 494.721 737.249 496.281 741.212 498.194C755.379 504.991 766.979 516.165 774.295 530.062C780.86 542.681 783.685 556.909 782.439 571.077C783.073 570.503 783.707 569.917 784.322 569.337C796.038 558.424 806.443 545.897 813.485 531.44C819.595 519.197 822.598 505.641 822.229 491.966C821.655 477.054 815.708 463.242 807.099 451.218C797.663 438.39 786.516 426.912 773.967 417.101C761.321 406.981 747.483 398.445 732.761 391.683C732.429 391.528 732.169 391.252 732.036 390.911C731.902 390.57 731.904 390.191 732.043 389.852C732.141 389.548 732.355 389.294 732.639 389.147C732.785 389.084 732.944 389.055 733.103 389.062C733.262 389.068 733.417 389.111 733.557 389.186C735.375 390.022 737.18 390.87 738.971 391.754C753.884 399.119 767.824 408.306 780.47 419.106C792.686 429.511 804.186 441.4 812.779 455.015Z" fill="white"/>
<path d="M127.132 578.223C137.517 578.223 145.936 575.068 145.936 571.177C145.936 567.286 137.517 564.131 127.132 564.131C116.747 564.131 108.328 567.286 108.328 571.177C108.328 575.068 116.747 578.223 127.132 578.223Z" fill="#2F2E41"/>
<path d="M172.262 577.283C182.648 577.283 191.067 574.129 191.067 570.238C191.067 566.347 182.648 563.192 172.262 563.192C161.877 563.192 153.458 566.347 153.458 570.238C153.458 574.129 161.877 577.283 172.262 577.283Z" fill="#2F2E41"/>
<path d="M232.174 458.859C249.944 448.624 261.742 435.808 258.526 430.234C255.31 424.661 238.298 428.44 220.528 438.675C202.759 448.91 190.96 461.726 194.176 467.3C197.392 472.873 214.404 469.094 232.174 458.859Z" fill="#2F2E41"/>
<path d="M215.493 483.956C222.064 443.498 194.566 405.378 154.073 398.812C113.581 392.247 75.4288 419.722 68.8578 460.18C62.2868 500.639 89.7855 538.759 130.278 545.324C170.77 551.89 208.922 524.414 215.493 483.956Z" fill="#2F2E41"/>
<path d="M130.893 530.312H108.328V570.707H130.893V530.312Z" fill="#2F2E41"/>
<path d="M176.023 530.312H153.458V570.707H176.023V530.312Z" fill="#2F2E41"/>
<path d="M144.056 478.644C158.076 478.644 169.441 467.288 169.441 453.28C169.441 439.271 158.076 427.915 144.056 427.915C130.036 427.915 118.67 439.271 118.67 453.28C118.67 467.288 130.036 478.644 144.056 478.644Z" fill="white"/>
<path d="M144.056 461.735C148.729 461.735 152.518 457.949 152.518 453.28C152.518 448.61 148.729 444.825 144.056 444.825C139.382 444.825 135.594 448.61 135.594 453.28C135.594 457.949 139.382 461.735 144.056 461.735Z" fill="#3F3D56"/>
<path d="M70.1245 403.051C64.127 376.214 83.2986 349.096 112.946 342.482C142.592 335.868 171.488 352.262 177.485 379.099C183.483 405.935 163.835 415.833 134.188 422.448C104.541 429.062 76.1219 429.888 70.1245 403.051Z" fill="#E6E6E6"/>
<path d="M92.0706 453.534C94.8299 447.721 82.0434 435.889 63.5112 427.107C44.979 418.325 27.7188 415.918 24.9595 421.731C22.2002 427.544 34.9866 439.376 53.5189 448.158C72.0511 456.94 89.3113 459.347 92.0706 453.534Z" fill="#2F2E41"/>
<path d="M105.691 498.842C105.691 506.105 124.409 520.448 145.18 520.448C165.95 520.448 185.425 499.999 185.425 492.735C185.425 485.472 165.95 494.145 145.18 494.145C124.409 494.145 105.691 491.578 105.691 498.842Z" fill="white"/>
<path d="M401.172 578.223C411.558 578.223 419.977 575.068 419.977 571.177C419.977 567.286 411.558 564.131 401.172 564.131C390.787 564.131 382.368 567.286 382.368 571.177C382.368 575.068 390.787 578.223 401.172 578.223Z" fill="#2F2E41"/>
<path d="M356.042 577.283C366.427 577.283 374.846 574.129 374.846 570.238C374.846 566.347 366.427 563.192 356.042 563.192C345.657 563.192 337.238 566.347 337.238 570.238C337.238 574.129 345.657 577.283 356.042 577.283Z" fill="#2F2E41"/>
<path d="M334.128 467.299C337.344 461.726 325.545 448.91 307.776 438.675C290.006 428.439 272.994 424.661 269.778 430.234C266.562 435.808 278.36 448.624 296.13 458.859C313.9 469.094 330.912 472.873 334.128 467.299Z" fill="#2F2E41"/>
<path d="M385.5 546C426.093 546 459 512.869 459 472C459 431.131 426.093 398 385.5 398C344.907 398 312 431.131 312 472C312 512.869 344.907 546 385.5 546Z" fill="#2F2E41"/>
<path d="M419.977 530.312H397.412V570.707H419.977V530.312Z" fill="#2F2E41"/>
<path d="M374.846 530.312H352.281V570.707H374.846V530.312Z" fill="#2F2E41"/>
<path d="M368.727 478.644C382.747 478.644 394.112 467.288 394.112 453.28C394.112 439.271 382.747 427.915 368.727 427.915C354.706 427.915 343.341 439.271 343.341 453.28C343.341 467.288 354.706 478.644 368.727 478.644Z" fill="white"/>
<path d="M362.61 455.789C365.925 452.48 365.947 447.13 362.657 443.84C359.368 440.551 354.014 440.567 350.698 443.877C347.383 447.187 347.361 452.537 350.651 455.826C353.94 459.116 359.294 459.099 362.61 455.789Z" fill="#3F3D56"/>
<path d="M394.117 422.448C364.47 415.833 344.822 405.935 350.819 379.098C356.817 352.261 385.712 335.868 415.359 342.482C445.006 349.096 464.178 376.214 458.18 403.051C452.183 429.888 423.763 429.062 394.117 422.448Z" fill="#FF7700"/>
<path d="M463.801 528.639C470.024 526.988 470.801 509.592 465.536 489.785C460.27 469.978 450.957 455.26 444.734 456.912C438.511 458.563 437.734 475.959 442.999 495.766C448.265 515.573 457.578 530.291 463.801 528.639Z" fill="#2F2E41"/>
<path d="M369.301 494.146C355.665 494.146 342.879 485.473 342.879 492.737C342.879 500 355.665 520.449 369.301 520.449C382.938 520.449 395.227 506.106 395.227 498.843C395.227 491.579 382.938 494.146 369.301 494.146Z" fill="white"/>
<path d="M273.311 349.018H266.714C260.805 349.012 255.14 346.663 250.962 342.488C246.784 338.314 244.433 332.653 244.427 326.749V321.216C244.427 307.511 247.026 296.036 252.152 287.11C258.364 276.726 265.611 266.997 273.782 258.071C279.207 252.62 284.13 246.692 288.49 240.358C291.618 235.438 293.233 229.708 293.135 223.88C293.135 210.132 284.171 203.449 265.729 203.449C255.499 203.564 245.334 205.089 235.521 207.979C231.737 209.058 227.753 209.245 223.884 208.525C220.015 207.805 216.367 206.198 213.225 203.829C210.083 201.461 207.534 198.397 205.779 194.877C204.024 191.358 203.111 187.479 203.111 183.547V172.346C203.089 167.524 204.468 162.799 207.079 158.745C209.691 154.69 213.424 151.48 217.826 149.502C235.157 142.112 253.847 138.439 272.687 138.719C292.425 138.719 310.243 142.031 325.647 148.563C341.079 155.11 353.271 164.342 361.884 176.003C370.471 187.582 375.036 201.648 374.882 216.058C374.882 231.533 370.653 245.01 362.314 256.117C354.067 267.111 342.243 279.146 327.173 291.891C319.232 298.489 311.708 305.572 304.643 313.098C300.079 318.009 296.854 324.009 295.276 330.522C294.396 335.703 291.707 340.405 287.685 343.792C283.663 347.178 278.57 349.03 273.311 349.018Z" fill="#FF7700"/>
<path d="M269.643 453.74H268.773C257.822 453.733 247.322 449.382 239.582 441.642C231.841 433.903 227.492 423.409 227.492 412.467C227.492 401.526 231.841 391.032 239.582 383.292C247.322 375.553 257.822 371.202 268.773 371.194H269.643C275.07 371.191 280.444 372.256 285.459 374.329C290.474 376.401 295.031 379.441 298.869 383.274C302.708 387.107 305.753 391.658 307.831 396.667C309.908 401.676 310.978 407.045 310.978 412.467C310.978 417.89 309.908 423.259 307.831 428.268C305.753 433.277 302.708 437.828 298.869 441.661C295.031 445.494 290.474 448.534 285.459 450.606C280.444 452.679 275.07 453.744 269.643 453.74Z" fill="#FF7700"/>
<path d="M538.096 579H1.72467C1.26726 579 0.828605 578.818 0.505168 578.495C0.18173 578.172 0 577.734 0 577.277C0 576.82 0.18173 576.381 0.505168 576.058C0.828605 575.735 1.26726 575.554 1.72467 575.554H538.096C538.553 575.554 538.992 575.735 539.315 576.058C539.638 576.381 539.82 576.82 539.82 577.277C539.82 577.734 539.638 578.172 539.315 578.495C538.992 578.818 538.553 579 538.096 579Z" fill="#CCCCCC"/>
<path d="M900.275 579H613.981C613.524 579 613.085 578.818 612.762 578.495C612.438 578.172 612.256 577.734 612.256 577.277C612.256 576.82 612.438 576.381 612.762 576.058C613.085 575.735 613.524 575.554 613.981 575.554H900.275C900.733 575.554 901.172 575.735 901.495 576.058C901.818 576.381 902 576.82 902 577.277C902 577.734 901.818 578.172 901.495 578.495C901.172 578.818 900.733 579 900.275 579Z" fill="#CCCCCC"/>
<path d="M722.584 528.665C743.091 528.265 759.614 522.725 759.488 516.293C759.362 509.861 742.635 504.971 722.128 505.372C701.621 505.772 685.099 511.312 685.225 517.744C685.351 524.176 702.077 529.066 722.584 528.665Z" fill="#2F2E41"/>
<path d="M703.942 256.759H659.101C656.815 256.756 654.623 255.848 653.006 254.232C651.389 252.617 650.48 250.427 650.478 248.143V203.339C650.48 201.055 651.389 198.865 653.006 197.25C654.623 195.634 656.815 194.726 659.101 194.723H703.942C706.228 194.726 708.42 195.634 710.037 197.25C711.653 198.865 712.563 201.055 712.565 203.339V248.143C712.563 250.427 711.653 252.617 710.037 254.232C708.42 255.848 706.228 256.756 703.942 256.759ZM659.101 198.17C657.729 198.171 656.414 198.716 655.444 199.685C654.474 200.655 653.928 201.969 653.927 203.339V248.143C653.928 249.513 654.474 250.828 655.444 251.797C656.414 252.766 657.729 253.311 659.101 253.312H703.942C705.314 253.311 706.629 252.766 707.599 251.797C708.569 250.828 709.115 249.513 709.116 248.143V203.339C709.115 201.969 708.569 200.655 707.599 199.685C706.629 198.716 705.314 198.171 703.942 198.17H659.101Z" fill="#F2F2F2"/>
<path d="M724.638 227.464H679.797C677.51 227.462 675.319 226.553 673.702 224.938C672.085 223.323 671.176 221.133 671.173 218.848V174.045C671.176 171.76 672.085 169.57 673.702 167.955C675.319 166.34 677.51 165.431 679.797 165.429H724.638C726.924 165.431 729.116 166.34 730.733 167.955C732.349 169.57 733.259 171.76 733.261 174.045V218.848C733.259 221.133 732.349 223.323 730.733 224.938C729.116 226.553 726.924 227.462 724.638 227.464ZM679.797 168.875C678.425 168.877 677.11 169.422 676.14 170.391C675.17 171.36 674.624 172.674 674.623 174.045V218.848C674.624 220.219 675.17 221.533 676.14 222.502C677.11 223.471 678.425 224.016 679.797 224.018H724.638C726.01 224.016 727.325 223.471 728.295 222.502C729.265 221.533 729.81 220.219 729.812 218.848V174.045C729.81 172.674 729.265 171.36 728.295 170.391C727.325 169.422 726.01 168.877 724.638 168.875H679.797Z" fill="#F2F2F2"/>
<path d="M371.081 84.4375H326.24C323.954 84.4349 321.762 83.5263 320.145 81.911C318.529 80.2957 317.619 78.1058 317.617 75.8214V31.0179C317.619 28.7335 318.529 26.5436 320.145 24.9283C321.762 23.313 323.954 22.4044 326.24 22.4018H371.081C373.368 22.4044 375.559 23.313 377.176 24.9283C378.793 26.5436 379.702 28.7335 379.705 31.0179V75.8214C379.702 78.1058 378.793 80.2957 377.176 81.911C375.559 83.5263 373.368 84.4349 371.081 84.4375ZM326.24 25.8482C324.868 25.8497 323.553 26.3949 322.583 27.364C321.613 28.3332 321.068 29.6473 321.066 31.0179V75.8214C321.068 77.1921 321.613 78.5061 322.583 79.4753C323.553 80.4444 324.868 80.9896 326.24 80.9911H371.081C372.453 80.9896 373.768 80.4444 374.738 79.4753C375.708 78.5061 376.254 77.1921 376.255 75.8214V31.0179C376.254 29.6473 375.708 28.3332 374.738 27.364C373.768 26.3949 372.453 25.8497 371.081 25.8482H326.24Z" fill="#F2F2F2"/>
<path d="M343.487 62.0357H298.645C296.359 62.0331 294.167 61.1245 292.551 59.5092C290.934 57.894 290.025 55.704 290.022 53.4196V8.61607C290.025 6.33175 290.934 4.14176 292.551 2.5265C294.167 0.91124 296.359 0.00261334 298.645 0H343.487C345.773 0.00261334 347.965 0.91124 349.581 2.5265C351.198 4.14176 352.107 6.33175 352.11 8.61607V53.4196C352.107 55.704 351.198 57.894 349.581 59.5092C347.965 61.1245 345.773 62.0331 343.487 62.0357ZM298.645 3.44643C297.274 3.44792 295.958 3.99306 294.988 4.96223C294.018 5.93141 293.473 7.24546 293.471 8.61607V53.4196C293.473 54.7903 294.018 56.1043 294.988 57.0735C295.958 58.0427 297.274 58.5878 298.645 58.5893H343.487C344.858 58.5878 346.174 58.0427 347.144 57.0735C348.114 56.1043 348.659 54.7903 348.661 53.4196V8.61607C348.659 7.24546 348.114 5.93141 347.144 4.96223C346.174 3.99306 344.858 3.44792 343.487 3.44643H298.645Z" fill="#F2F2F2"/>
<path d="M553.998 326.785C560.158 326.785 565.151 321.796 565.151 315.641C565.151 309.487 560.158 304.497 553.998 304.497C547.838 304.497 542.845 309.487 542.845 315.641C542.845 321.796 547.838 326.785 553.998 326.785Z" fill="#F2F2F2"/>
<path d="M105.585 287.151C111.745 287.151 116.738 282.162 116.738 276.007C116.738 269.853 111.745 264.864 105.585 264.864C99.4251 264.864 94.4316 269.853 94.4316 276.007C94.4316 282.162 99.4251 287.151 105.585 287.151Z" fill="#F2F2F2"/>
<path d="M857.539 383.651C863.699 383.651 868.692 378.662 868.692 372.507C868.692 366.353 863.699 361.364 857.539 361.364C851.379 361.364 846.386 366.353 846.386 372.507C846.386 378.662 851.379 383.651 857.539 383.651Z" fill="#F2F2F2"/>
</g>
<defs>
<clipPath id="clip0_360_4830">
<rect width="902" height="579" fill="white"/>
</clipPath>
</defs>
</svg>
