<?xml version="1.0" encoding="UTF-8"?><svg id="Layer_1" xmlns="http://www.w3.org/2000/svg" xmlns:xlink="http://www.w3.org/1999/xlink" viewBox="0 0 591.84 420.77"><defs><style>.cls-1{fill:#5462ad;}.cls-2{fill:url(#linear-gradient-2);}.cls-3{fill:url(#linear-gradient-17);}.cls-4{fill:#f69181;}.cls-5{fill:url(#linear-gradient-15);}.cls-6{fill:url(#linear-gradient-18);}.cls-7{fill:#3f3f75;}.cls-8{fill:url(#linear-gradient-14);}.cls-9{fill:url(#linear-gradient-6);}.cls-10{fill:#0a2533;}.cls-11{stroke:#fff;}.cls-11,.cls-12,.cls-13,.cls-14{fill:none;}.cls-11,.cls-15,.cls-14{isolation:isolate;opacity:.25;}.cls-11,.cls-13,.cls-14{stroke-miterlimit:10;}.cls-11,.cls-14{stroke-width:.46px;}.cls-16{fill:#f26647;}.cls-17{fill:url(#linear-gradient-11);}.cls-18{fill:#321212;}.cls-19{fill:#f47920;}.cls-20{fill:#262166;}.cls-21{fill:url(#linear-gradient-10);}.cls-22{fill:#35334a;}.cls-23{fill:#9dc2e7;}.cls-24{fill:url(#linear-gradient-16);}.cls-25{fill:url(#linear-gradient-5);}.cls-26{clip-path:url(#clippath);}.cls-27{fill:#fcaf17;}.cls-15{fill:#010101;}.cls-28{fill:url(#linear-gradient-7);}.cls-13{stroke:#0a2533;stroke-width:.92px;}.cls-14{stroke:#010101;}.cls-29{fill:url(#linear-gradient-9);}.cls-30{fill:url(#linear-gradient-3);}.cls-31{fill:#c54527;}.cls-32{fill:url(#linear-gradient);}.cls-33{fill:#6561ab;}.cls-34{fill:url(#linear-gradient-4);}.cls-35{fill:#d80;}.cls-36{fill:url(#linear-gradient-8);}.cls-37{fill:url(#linear-gradient-12);}.cls-38{fill:url(#linear-gradient-13);}</style><clipPath id="clippath"><rect class="cls-12" width="591.84" height="420.77"/></clipPath><linearGradient id="linear-gradient" x1="406.62" y1="183.77" x2="414.49" y2="57.92" gradientTransform="translate(0 422) scale(1 -1)" gradientUnits="userSpaceOnUse"><stop offset="0" stop-color="#fcaf17"/><stop offset="1" stop-color="#f47920"/></linearGradient><linearGradient id="linear-gradient-2" x1="108.64" y1="217.82" x2="109.54" y2="226.35" gradientTransform="translate(0 422) scale(1 -1)" gradientUnits="userSpaceOnUse"><stop offset="0" stop-color="#fbc4af"/><stop offset="1" stop-color="#ea8b69"/></linearGradient><linearGradient id="linear-gradient-3" x1="120" y1="220.68" x2="112.13" y2="220.1" gradientTransform="translate(0 422) scale(1 -1)" gradientUnits="userSpaceOnUse"><stop offset="0" stop-color="#fbc4af"/><stop offset="1" stop-color="#ea8b69"/></linearGradient><linearGradient id="linear-gradient-4" x1="109.7" y1="188.57" x2="116.91" y2="214.46" gradientTransform="translate(0 422) scale(1 -1)" gradientUnits="userSpaceOnUse"><stop offset="0" stop-color="#fbc4af"/><stop offset="1" stop-color="#ea8b69"/></linearGradient><linearGradient id="linear-gradient-5" x1="397.38" y1="283.5" x2="397.71" y2="290.99" gradientTransform="translate(0 422) scale(1 -1)" gradientUnits="userSpaceOnUse"><stop offset="0" stop-color="#fbc4af"/><stop offset="1" stop-color="#ea8b69"/></linearGradient><linearGradient id="linear-gradient-6" x1="398.83" y1="280.31" x2="398.59" y2="285.63" gradientTransform="translate(0 422) scale(1 -1)" gradientUnits="userSpaceOnUse"><stop offset="0" stop-color="#fbc4af"/><stop offset="1" stop-color="#ea8b69"/></linearGradient><linearGradient id="linear-gradient-7" x1="382.4" y1="240.11" x2="388.29" y2="278.45" gradientTransform="translate(0 422) scale(1 -1)" gradientUnits="userSpaceOnUse"><stop offset="0" stop-color="#fbc4af"/><stop offset="1" stop-color="#ea8b69"/></linearGradient><linearGradient id="linear-gradient-8" x1="415.4" y1="286.36" x2="419.99" y2="262.16" gradientTransform="translate(0 422) scale(1 -1)" gradientUnits="userSpaceOnUse"><stop offset="0" stop-color="#fbc4af"/><stop offset="1" stop-color="#ea8b69"/></linearGradient><linearGradient id="linear-gradient-9" x1="285.27" y1="322.05" x2="288.13" y2="315.96" gradientTransform="translate(0 422) scale(1 -1)" gradientUnits="userSpaceOnUse"><stop offset="0" stop-color="#fbc4af"/><stop offset="1" stop-color="#ea8b69"/></linearGradient><linearGradient id="linear-gradient-10" x1="280.92" y1="322.2" x2="288.04" y2="319.21" gradientTransform="translate(0 422) scale(1 -1)" gradientUnits="userSpaceOnUse"><stop offset="0" stop-color="#fbc4af"/><stop offset="1" stop-color="#ea8b69"/></linearGradient><linearGradient id="linear-gradient-11" x1="285.01" y1="324.5" x2="289.6" y2="314.75" gradientTransform="translate(0 422) scale(1 -1)" gradientUnits="userSpaceOnUse"><stop offset="0" stop-color="#fbc4af"/><stop offset="1" stop-color="#ea8b69"/></linearGradient><linearGradient id="linear-gradient-12" x1="350.34" y1="314.85" x2="337.31" y2="299.36" gradientTransform="translate(0 422) scale(1 -1)" gradientUnits="userSpaceOnUse"><stop offset="0" stop-color="#fbc4af"/><stop offset="1" stop-color="#ea8b69"/></linearGradient><linearGradient id="linear-gradient-13" x1="313.91" y1="291.24" x2="312.51" y2="307.47" gradientTransform="translate(0 422) scale(1 -1)" gradientUnits="userSpaceOnUse"><stop offset="0" stop-color="#fbc4af"/><stop offset="1" stop-color="#ea8b69"/></linearGradient><linearGradient id="linear-gradient-14" x1="311.52" y1="291.12" x2="312.18" y2="295.3" gradientTransform="translate(0 422) scale(1 -1)" gradientUnits="userSpaceOnUse"><stop offset="0" stop-color="#fbc4af"/><stop offset="1" stop-color="#ea8b69"/></linearGradient><linearGradient id="linear-gradient-15" x1="552.58" y1="380.79" x2="331.69" y2="329.66" gradientTransform="translate(0 422) scale(1 -1)" gradientUnits="userSpaceOnUse"><stop offset="0" stop-color="#fff" stop-opacity="0"/><stop offset="1" stop-color="#9dc2e7"/></linearGradient><linearGradient id="linear-gradient-16" x1="114.18" y1="374.87" x2="280.97" y2="221.28" gradientTransform="translate(0 422) scale(1 -1)" gradientUnits="userSpaceOnUse"><stop offset="0" stop-color="#fff" stop-opacity="0"/><stop offset="1" stop-color="#9dc2e7"/></linearGradient><linearGradient id="linear-gradient-17" x1="575.55" y1="157.09" x2="258.48" y2="83.7" gradientTransform="translate(0 422) scale(1 -1)" gradientUnits="userSpaceOnUse"><stop offset="0" stop-color="#fff" stop-opacity="0"/><stop offset="1" stop-color="#9dc2e7"/></linearGradient><linearGradient id="linear-gradient-18" x1="35.06" y1="139.43" x2="352.14" y2="66.04" gradientTransform="translate(0 422) scale(1 -1)" gradientUnits="userSpaceOnUse"><stop offset="0" stop-color="#fff" stop-opacity="0"/><stop offset="1" stop-color="#9dc2e7"/></linearGradient></defs><g class="cls-26"><g><path class="cls-22" d="M481.91,274.16l-9.2-26.97-15.35,5.23-31.36-92.02-34.96,11.91,.11,.31-11.28,48.68-16.04,69.25,9.36,20.67,33.01-11.25,12.02-4.1,13.38-4.56,10.92,32.06,34.96-11.91-10.92-32.06,15.36-5.24Zm-63.57-8.44l-7.93,2.7-15.19,5.18,10.37-51.47,.98-4.27,15.84,46.48-4.06,1.39Z"/><path class="cls-15" d="M466.55,279.39l10.92,32.06-22.27-9.53-35.59-128.24-13.06,44.17-6.05,25.02-20.65-21.58,11.28-48.68-.11-.31,34.96-11.91,31.36,92.02,15.35-5.23,9.2,26.97-15.36,5.24Z"/><path class="cls-15" d="M418.21,295.87l-12.02,4.1,1.77-24.77v-4.51l2.45-2.26,1.57-1.45,6.36-1.25s-.39,18.19-.12,30.15Z"/><path class="cls-32" d="M418.34,265.72s-3-3.77-8.25-3.34c-5.24,.44-8.17,2.4-8.35,7.86-.18,5.46,1.13,32.99-.07,43.92-1.2,10.93,6.25,12.02,6.68,3.93,.43-8.08-2.74-33.43-.39-37.58,2.35-4.15,.92,4.59,3.38,7.43,2.46,2.84,5.08-2.18,2.46-8.96-2.62-6.77,4.53-13.27,4.53-13.27Z"/><path class="cls-16" d="M98.16,224.93c-.9,0-1.56-.05-1.85-.17-.33-.14-1.36-.57-10.28-16.49l1.6-.9c3.33,5.95,8.39,14.6,9.46,15.71,.97,.16,6.31-.21,11.03-.69l.18,1.83c-2.98,.3-7.54,.71-10.15,.71Z"/><path class="cls-10" d="M130.5,232.65v.53s-.49,10.11-8.06,9.67c-.02,0-.04,0-.06,0-4.68-.3-10.47-2.49-14.36-4.11-2.44-1.02-4.13-1.82-4.32-1.79-.49,.08,5.73,25.97,5.65,27.45,0,.2-.06,.41-.12,.63-.44,1.4-1.98,3.08-2.9,3.22-.1,.01-.29-.17-.57-.52-2.81-3.5-13.95-23.82-14.26-30.45-.33-7.29,3.36-11.68,8.36-12.52,3.69-.62,14.47,.87,19.87,1.69,1.92,.29,3.15,.5,3.15,.5l7.62,5.7Z"/><path class="cls-15" d="M109.36,264.4c0,.2-.06,.41-.12,.63-.44,1.4-1.98,3.08-2.9,3.22-.1,.01-.29-.17-.57-.52,3.96-5.59-6.4-32.83-4.14-32.91,1.11-.04,3.57,1.85,6.42,3.92-2.44-1.02-4.13-1.82-4.32-1.79-.49,.08,5.73,25.97,5.65,27.45Z"/><path class="cls-15" d="M130.5,232.65v.53s-.49,10.11-8.06,9.67c1.49-1.19,1.76-3.29,1.65-5.82-.13-2.94-2.85-7.97-4.37-10.58,1.92,.29,3.15,.5,3.15,.5l7.62,5.7Z"/><path class="cls-10" d="M114.4,199.46c-.25,.4-.42,.73-.42,.98l-.03-.05c-.09-.16-.41-.7-.81-1.34-.69-1.07-1.64-2.39-2.22-2.55-.92-.25-3.38,2.85-6.71,3.1-.22,.02-.44,.02-.67,.01-3.66-.17-7.54-5.36-4.42-11.47,1.09,2.24,3.33,2.29,3.33,2.29,0,0-1.37-.27-1.42-1.97,3.99,.71,6.06-2.29,9.5-1.2,3.44,1.09,3.22,3.17,3.22,3.17,0,0,2.62-1.04,3.44,2.24,.66,2.62-1.79,5.21-2.81,6.78Z"/><path class="cls-2" d="M113.95,200.39c-.23,.83-.68,1.73-1.28,2.46-.73,.89-1.7,1.54-2.79,1.52-2.33-.05-4.64-3.18-5.67-4.76,3.32-.25,5.78-3.35,6.71-3.1,.58,.16,1.53,1.49,2.22,2.55,.41,.64,.72,1.18,.81,1.34Z"/><path class="cls-30" d="M117.31,200.71s-1.75,3.99-2.4,3.12c-.35-.47-1.38-.79-2.24-.98,.6-.73,1.05-1.63,1.28-2.46,.02,.03,.03,.05,.03,.05,0-.25,.17-.58,.42-.98,1.27,.96,2.92,1.25,2.92,1.25Z"/><path class="cls-1" d="M129.6,234.41c-2.79-.41-10.32-8.6-10.32-12.13,0-.5-.06-1.05-.15-1.65-.58-3.67-2.7-9.05-3.58-12.85-1.03-4.42,.45-6.08,.45-6.08,3.43-5.9,11.19,5.79,15.62,15.17h0c1.49,3.16,2.47,6.1,2.57,8.06,.32,6.64-1.8,9.89-4.59,9.48Z"/><path class="cls-15" d="M129.6,234.41c-2.79-.41-10.32-8.6-10.32-12.13,0-.5-.06-1.05-.15-1.65l-.02-1.57,2.73-14.31s3.77,4.48,4.37,12.51c.6,8.03,9.44,9.77,5.41-.39,1.49,3.16,2.47,6.09,2.56,8.05,.32,6.64-1.8,9.89-4.59,9.48Z"/><path class="cls-1" d="M123.76,216.72c-.07,.06-.2,.11-.37,.16-1.29,.36-5.06,.3-6.62,0-.23-.05-.42-.1-.54-.16-1.03-.49,0-1.7-.33-3.82-.33-2.13-1.15-8.36,2.02-10.27,3.31-2,5.73,5.57,5.84,9.34,.11,3.77,.71,4.15,0,4.75Z"/><path class="cls-34" d="M123.39,216.88s-.15,9.21-1.91,13.55h0c-.55,1.36-1.25,2.24-2.16,2.22-3.81-.08-12.37-9.13-13.15-9.47-.78-.33-4.67,.25-4.55-.33,.12-.57,1.64-1.84,3.28-2.46,1.64-.62,1.35-.25,11.88,4.59-.14-.93-.08-4.95-.04-7.22,0-.35,.02-.65,.02-.9,1.57,.31,5.33,.36,6.62,0Z"/><path class="cls-1" d="M112.5,270.63c.27,1.64-10.76,12.86-10.18,9.92,.57-2.95,4.01-12.29,4.01-12.29,.92-.14,2.46-1.82,2.9-3.22,.9,1.56,3.04,4.24,3.26,5.6Z"/><path class="cls-11" d="M122.45,236.16s-17.7-3.32-21.19-1.72c-3.5,1.61,6.4,29.57,6.4,29.57"/><path class="cls-15" d="M121.48,230.43c.34-1.85,.59-7.22-.34-9.35-.62-1.44-2.95-2.67-4.4-3.31,0-.35,.02-.65,.02-.9,1.57,.31,5.33,.36,6.62,0,0,0-.15,9.21-1.91,13.55Z"/><path class="cls-7" d="M407.49,168.15c-.36,1.38-.96,3.15-1.89,5.53-1.32,3.41-3.32,8.05-6.27,14.52-.07,3.29-1.12,24.26-1.41,29.08-.04,.59-.06,.94-.07,.98-.04,.21-.8,.62-1.63,.82-.78,.2-1.62,.23-1.98-.25-.74-.98-5.74-20.81-5.98-25.48-.25-4.67-.49-3.61,5.24-22.2-1.39,.65-10.42,.41-10.42,.41,0,0,1.65,22.77,1.66,22.94,0,.02-.01,.08-.05,.16-.11,.31-.44,1.01-.8,1.36-.16,.16-.33,.25-.48,.21-.09-.02-.3-.22-.61-.54-1.73-1.84-6.49-8.03-9.06-13.8-3.03-6.8-3.77-11.55-.9-16.3,2.87-4.75,17.4-5.12,17.4-5.12,.92,.26,3.03,.51,5.13,1.01,.62,.14,1.23,.31,1.81,.51,3.18,1.06,9.24,2.4,10.55,1.65,.29,1.01,.35,2.2-.26,4.52Z"/><path class="cls-19" d="M419.53,152.32c-.58,.33-7.25,.08-11.76-1.64,.02,.79,.12,2.05,.24,3.47,.18,2.24,.39,4.9,.34,6.84-.03,1.38-.19,2.4-.58,2.64,0,0,0,0-.02,0-.69,.4-2.73,.21-4.96-.22-1.44-.28-2.97-.65-4.27-1.02-.47-.14-.92-.28-1.32-.41-2.56-.85-5.75-1.18-6.94-1.51-.3-.08-.47-.16-.48-.25-.04-.45,1.11-1.47,1.65-2.54,.06-.13,.15-.33,.25-.58,.44-1.12,1.12-3.23,1.45-4.58,.2-.79,.27-1.32,.1-1.23-.53,.29-3.69,6.18-4.06,6.18-.13,0-.76-.36-1.52-.87-1.27-.86-2.86-2.12-2.9-2.73,0-.08,.01-.15,.07-.21,.74-.7,6.39-10.2,8.44-12.23,.96-.96,2.1-1.53,3.02-1.87,1.03-.39,1.82-.47,1.82-.47,1.22-.04,2.45,.12,3.64,.42,4.06,1.02,7.79,3.58,9.92,4.85,2.74,1.64,4.63,1.19,5.32,1.6,.7,.42,3.11,6.02,2.55,6.35Z"/><path class="cls-4" d="M408.34,160.98c-3.78,.05-12.18-.29-16.67-3.88,.44-1.12,1.12-3.23,1.45-4.58,0,0,8.87,2.69,14.88,1.62,.18,2.24,.39,4.9,.34,6.84Z"/><path class="cls-15" d="M401.74,139.52c-.15,1.57-.7,3.26-2.41,3.13-2.41-.19-2.93-2.16-3.04-3.08,1.03-.39,1.82-.47,1.82-.47,1.22-.04,2.45,.12,3.64,.42Z"/><path class="cls-18" d="M400.72,136.09s-.41-1.68-1.23-2.54c-.67,1.09-3.24,1.64-5.22,1.78-.94,.07-1.75,.05-2.16-.06-1.39-5.41,2.95-7.78,5.37-7.95,2.41-.17,4.59,1.63,3.93,4.38,2.17,2.14-.7,4.39-.7,4.39Z"/><path class="cls-25" d="M400.72,136.09c-.12,.36-.32,.99-.65,1.58h0c-.54,.98-1.45,1.85-3.03,1.21-.05-.02-.11-.05-.16-.07-1.33-.6-2.02-1.77-2.37-2.7-.11-.29-.19-.56-.24-.77,1.98-.14,4.55-.7,5.22-1.78,.04,.04,.07,.08,.11,.12,.75,.89,1.12,2.42,1.12,2.42Z"/><path class="cls-9" d="M400.52,140.27c-.24,1.52-2.74,1.43-3.02,.45-.14-.51-.3-1-.43-1.36-.11-.34-.19-.55-.19-.55h0c.05,.02,.11,.05,.16,.07,1.58,.64,2.49-.23,3.03-1.21h0c-.17,.34,.28,.77,.44,1.57,.06,.29,.07,.63,0,1.03Z"/><path class="cls-20" d="M387.53,200.33c-.24,1.89-9.99,9.26-9.83,7.95,.16-1.31,5.13-12.59,5.13-12.59,.31,.33,.52,.52,.61,.54,.49,.14,1.12-1.11,1.27-1.56,1.31,1.65,3.04,3.98,2.82,5.66Z"/><path class="cls-20" d="M394.25,234.2c-2.29-4.92,0-15.35,0-15.35,.74,.98,3.52-.16,3.6-.57,.01-.05,.03-.4,.07-.98,0,0,.37,5,.8,9.23,.44,4.23-2.18,12.59-4.48,7.68Z"/><path class="cls-15" d="M393.51,171.16c-1.39,.65-10.42,.41-10.42,.41,0,0,1.65,22.77,1.66,22.94,0,.02-.01,.08-.05,.16-.1,.31-.44,1.01-.79,1.36-1.66-7.79-4.98-22.74-2.34-25.3,3.39-3.28,12.57-4.15,12.7-3.43,.13,.72-.76,3.87-.76,3.87Z"/><path class="cls-28" d="M387.01,160.4c-.13,.28-.2,.51-.16,.66,.2,.76-.85,10.32-.47,11.31,.38,.98,.6,4.1,.38,6.06-.22,1.97-4.32,3.17-4.32,1.48s.49-5.68,.66-7.21c.17-1.53-1.36-12.59-.96-14.12,.27-1,1.29-2.69,1.97-3.74,.36-.56,.63-.95,.63-.95,.06,.96,4.08,3.6,4.42,3.6,0,0-1.62,1.81-2.16,2.92Z"/><path class="cls-15" d="M407.49,168.15c-1.81-.13-3.84-.92-5.26-2.35-1.65-1.65-4.39-3.17-6.85-4.33,.62,.14,1.23,.31,1.81,.51,3.18,1.06,9.24,2.4,10.55,1.65,.29,1.01,.35,2.2-.26,4.52Z"/><path class="cls-15" d="M405.6,173.68c-1.32,3.41-3.32,8.05-6.27,14.52-.07,3.29-1.12,24.26-1.41,29.08-.04,.59-.06,.94-.07,.98-.04,.21-.8,.62-1.63,.82,.19-7.07-.06-22.46,1.14-27.04,1.43-5.48,7.84-17.62,8.24-18.37Z"/><path class="cls-15" d="M398.52,162.4c-.47-.14-.92-.28-1.32-.41-2.56-.85-5.75-1.18-6.94-1.51-.3-.08-.47-.16-.48-.25-.04-.45,1.11-1.47,1.65-2.54,.53-1.07,2.33-6.68,1.8-6.39-.53,.29-3.69,6.18-4.06,6.18-.13,0-.76-.36-1.52-.87,.08-.13,.16-.27,.26-.41,1.96-2.9,5.19-6.5,5.73-9.61,.44-2.29,1.09-.98,.98,1.97-.1,2.65-.24,10.76,3.89,13.85Z"/><path class="cls-15" d="M407.77,163.62s0,0-.02,0c-.69,.4-2.73,.21-4.96-.22,3.99-4,1.82-14.85,2.44-14.29,.73,.65,2.54,1.55,2.54,1.55,.08,2.95,1.27,12.17,0,12.95Z"/><path class="cls-15" d="M389.17,157.48s-1.62,1.81-2.16,2.92c-.01-.24-.03-.47-.05-.67-.12-1.17-1.95-3.72-2.84-4.9,.36-.57,.63-.95,.63-.95,.06,.96,4.08,3.6,4.42,3.6Z"/><path class="cls-15" d="M399.6,133.68c-.98,2.18-3.88,2.43-5.09,2.43-.11-.29-.19-.56-.24-.77,1.98-.14,4.55-.7,5.22-1.78,.04,.04,.07,.08,.11,.12Z"/><path class="cls-15" d="M400.51,139.24c-.18,.14-.41,.25-.69,.31-1.32,.3-2.25,.04-2.75-.19-.11-.34-.19-.55-.19-.55h0c.05,.02,.11,.05,.16,.07,1.58,.64,2.49-.23,3.03-1.21h0c-.17,.34,.29,.77,.44,1.57Z"/><path class="cls-13" d="M413.59-30.38V173.68"/><path class="cls-36" d="M422.19,149.39c0,.06-.02,.11-.03,.16-.54,2.47-2.52,2.73-2.89,2.57-.37-.16-1.36-1.29-2.22-5.28-.02-.08-.03-.16-.05-.24,0,0-1.86-4.76-2.73-7.05-2.16-1.28-2.57-.76-2.87-2.23-.3-1.48,.66-3.38,1.21-3.66,.55-.27,3,2.02,3.33,2.87,.33,.85,6.74,10.24,6.25,12.86Z"/><path class="cls-15" d="M422.16,149.55c-.54,2.47-2.52,2.73-2.89,2.57-.37-.16-1.36-1.29-2.22-5.28,.55,1.11,1.39,2.54,2.31,3.13,1.02,.65,2.16,.44,2.8-.43Z"/><path class="cls-16" d="M349.77,278.62l-5.27-26.91c-3.9-19.9-11.42-34.42-22.55-43.56-11.14-9.13-24.9-12.1-41.28-8.89s-28,11.11-34.84,23.69c-6.85,12.59-8.32,28.87-4.41,48.84l5.29,27.01c3.89,19.83,11.39,34.32,22.53,43.45,4.7,3.86,9.88,6.61,15.53,8.27,7.73,2.27,16.34,2.46,25.85,.61,4.92-.96,9.42-2.35,13.48-4.18,9.4-4.21,16.49-10.71,21.27-19.5,6.85-12.59,8.32-28.87,4.41-48.83Zm-32.89,36.12c-1.8,5.52-5.61,8.85-11.43,9.99-6.03,1.18-10.92-.51-14.7-5.08-2.57-3.11-4.78-7.73-6.6-13.86h0s0-.03,0-.04c-.85-2.84-1.61-6.01-2.29-9.5l-7.4-37.78c-1.73-9.92-1.74-17.58-.02-22.98,1.72-5.4,5.53-8.68,11.41-9.82,4.49-.88,8.37-.12,11.62,2.27h0c1.11,.82,2.15,1.82,3.11,3.02,3.8,4.7,6.74,12.37,8.82,23l7.16,36.55c2.02,10.64,2.12,18.72,.32,24.24Z"/><path class="cls-15" d="M319.52,319.79c1.52,2.34,3.54,18.22,4.57,27.17-4.06,1.82-8.56,3.21-13.48,4.17-9.5,1.86-18.12,1.66-25.85-.61,.32-.71,.61-1.46,.85-2.22,4.82-14.73-1.2-41.32-1.48-42.52,1.82,6.13,4.03,10.75,6.6,13.86,3.78,4.57,8.67,6.26,14.7,5.08,5.82-1.14,9.63-4.47,11.43-9.99,1.8-5.52,1.7-13.6-.32-24.24l-7.16-36.55c-2.08-10.62-5.02-18.29-8.82-23-.97-1.2-2-2.2-3.11-3.02,11.63,2.28,21.07,38.28,25.01,55.64,3.93,17.37,4.26,25.4-2.95,36.21Z"/><path class="cls-35" d="M286.71,312.85s.75,1.97,4.71,3.06c3.96,1.09,7.67-5.03,10.3-3.06,2.62,1.97,6.82,10.14,10.51,8.9,3.69-1.24,4.78,18.42,3.04,20.6-1.75,2.18-3.01-15.48-7.62-14.95-4.62,.53-1.12,13.85-3.74,16.26-2.62,2.4-1.53-5.9-4.37-7.43-2.84-1.53,3.06,66.86-1.31,67.95-4.37,1.09-7.21-3.06-5.46-17.7,1.75-14.64-.44-65.11-3.06-67.73-2.62-2.62-2.46-3.11-2.99-5.9Z"/><path class="cls-13" d="M285.62-30.38V208.2"/><path class="cls-20" d="M342.34,115.94s-3.48-9.55-3.2-10.28c.29-.74,4.11-2.13,4.39-1.72,.28,.41,2.7,7.83,2.29,8.36-.41,.53-3.48,3.65-3.48,3.65Z"/><path class="cls-29" d="M284.42,103.42s2.12,.88,3.07,3.18c.94,2.29,.58-5.98,.58-5.98l-1.02-.94-2.62,3.75Z"/><path class="cls-21" d="M283.31,103.42s2.66,1.99,3.11,2.11c.45,.12,1.32-5.08,.93-5.9-.39-.82-1.84-1.64-2.77-1.11-.94,.53-1.7,4.57-1.27,4.9Z"/><path class="cls-17" d="M290.4,104.02s-2.12-4.92-3.05-5.78c-.93-.86-2.65,.25-2.77,.7-.12,.45,2.06,.78,2.77,1.52,.71,.74-1.21,6.19,.63,8.11,1.84,1.92,2.42-4.55,2.42-4.55Z"/><path class="cls-37" d="M339.72,117.04s1.88-1.02,2.29-1.56c.41-.53-.33-2.54,.86-4.38,1.19-1.84,3.73-1.31,4.34,.9,.62,2.21-.98,5-1.72,5.86s-5.78,4.47-5.78,4.47"/><path class="cls-19" d="M341.07,121.32c-.05,.33-.39,.89-1.04,1.65-2.39,2.79-8.98,8.27-20.85,14.52-.23,.96-.42,1.93-.56,2.9-.44,3.11-.43,6.26-.29,9.08,.04,.73,.08,1.43,.13,2.12,.22,2.98,.51,5.44,.43,6.86-.04,.62-.15,1.05-.36,1.24-.27,.23-.55,.45-.84,.64-5.93,3.81-16.73-1.88-18.47-3.59-.14-.13-.22-.24-.24-.32-.3-1.15,.87-2.38,1.53-4.35,.11-.33,.22-1.08,.33-2.11,.31-3.03,.58-8.45,.68-12.53,.05-2.6,.04-4.66-.08-5.2,0,0,0-.02,0-.02-.33-1.34-10.27-16.36-13.25-21.69-.55-.97-.86-1.62-.84-1.8,.11-1.2,2.4-5.46,2.9-5.41,.08,0,.39,.39,.85,1.03,2.3,3.2,8.5,12.87,9.64,14.1,1.07,1.15,6.5,6.87,8.82,9.32,.66,.69,1.07,1.12,1.07,1.12,1.26-.02,2.52-.14,3.79-.33,11.18-1.72,22.16-9.55,25.03-11.72,.47-.36,.73-.56,.73-.56,0,0,1.15,3.52,.9,5.05Z"/><path class="cls-31" d="M313.18,133.83c-3.81,.62-3.82-4.34-3.62-6.06,.66,.68,1.07,1.12,1.07,1.12,1.26-.02,2.52-.14,3.79-.34,.47,1.95,.09,5.07-1.23,5.28Z"/><path class="cls-20" d="M317.04,123.19c-.74,.45-1.71,.6-2.94,.28-.95-.24-2.06-.76-3.35-1.64,0,0-1.02,1.23-1.1,3.48-2.7-2.33-3.36-4.67-1.07-5.53-.94-4.1,1.07-4.96,4.42-5.16,3.36-.21,4.14,3.24,6.15,3.15,.12,1.84-.4,4.4-2.11,5.41Z"/><path class="cls-38" d="M317.04,123.19c-.04,.33-.09,.71-.17,1.12-.45,2.4-1.63,5.74-3.4,5.55-.09,0-.19-.02-.29-.06-1.6-.5-2.56-2.05-3.06-3.19-.33-.74-.47-1.31-.47-1.31,.03-.71,.15-1.32,.3-1.83,.33-1.08,.8-1.65,.8-1.65,1.29,.88,2.4,1.4,3.35,1.64,1.23,.32,2.2,.16,2.94-.28Z"/><path class="cls-8" d="M313.47,131.28c-.02,.87-.14,1.55-.72,1.59-1.17,.08-2.73-1.45-2.65-3.11,.03-.57,.04-1.17,.04-1.72s-.01-1.06-.02-1.42c.5,1.14,1.46,2.69,3.06,3.19,.1,.03,.2,.05,.29,.05,0,.48,.01,.97,0,1.41Z"/><path class="cls-31" d="M341.07,121.32c-.05,.33-.39,.89-1.04,1.65,.03-1.95-.4-4.92-.58-6.14,.47-.36,.73-.56,.73-.56,0,0,1.15,3.52,.9,5.05Z"/><path class="cls-31" d="M291.09,104.34c-1.75,1.49-2.6,4.75-2.9,6.18-.55-.97-.86-1.62-.84-1.8,.11-1.2,2.4-5.46,2.9-5.41,.08,0,.39,.39,.85,1.02Z"/><path class="cls-27" d="M318.47,151.59c-3.91,.57-11.26,1.07-17.62-1.63,.31-3.03,.58-8.45,.68-12.53,3.15,1.33,9.95,3.71,17.09,2.96-.56,3.91-.4,7.88-.15,11.2Z"/><path class="cls-15" d="M317.7,160.33c-6.39,4.1-18.43-2.82-18.71-3.91-.3-1.15,.87-2.38,1.53-4.35,.11-.34,.22-1.09,.33-2.11,.31-3.03,.58-8.45,.68-12.53,.05-2.6,.04-4.66-.08-5.2,.14,.42,2.3,7.27,3.41,13.94,1.15,6.88,.9,10.16,4.26,12.37,1.97,1.29,5.56,1.97,8.58,1.78Z"/><path class="cls-22" d="M332.3,179.24c0,2.84-10.27,18.58-12.4,21.81-.24,.37-.38,.58-.38,.58,0,0-1.32-.15-2.41-.52-.76-.26-1.41-.62-1.41-1.12,0-.1,.02-.26,.05-.46,.36-2.19,2.62-10.13,5.52-20.62-1.53-1.86-12.23-8.96-12.23-8.96,0,0,0,0-.01,.03-.46,1.07-15.33,35.44-17.01,38.65-.06,.12-.1,.19-.13,.22-.76,.98-3.93,1.09-4.15-.98h0c-.91-8.7,6.58-34.9,10.07-46.49,.62-2.08,1.12-3.69,1.42-4.64,1.75,1.71,12.54,7.4,18.47,3.59,.29-.19,.58-.4,.84-.63,.21-.19,.32-.61,.36-1.24,.11,.12,.23,.25,.34,.39,4.14,4.73,13.06,17.67,13.06,20.4Z"/><path class="cls-20" d="M293.06,213.44c-.41,2.05-11.23,8.11-10.24,4.44,.8-2.97,3.81-8.16,4.91-10.02h0c.22,2.08,3.39,1.98,4.15,.99,.03-.03,.07-.11,.13-.22,.55,1.58,1.32,3.49,1.05,4.81Z"/><path class="cls-20" d="M323.46,211.64c-.82,.41-11.47-3.69-11.23-5.08,.25-1.39,3.52-7.02,3.52-7.02-.03,.21-.05,.36-.05,.46,0,1.2,3.82,1.64,3.82,1.64,0,0,.14-.21,.38-.58,.48,4.25,4.32,10.19,3.55,10.58Z"/><path class="cls-14" d="M307.65,168.79s-11.8,23.17-16.22,39.07"/><path class="cls-14" d="M310.43,168.79s13.11,8.6,13.6,10c.49,1.39-6.8,20.76-6.8,20.76"/><path class="cls-15" d="M319.24,158.84c-1.44,5.76-9.8,4.2-14.08,3.09-2.49-.64-5.34-.67-7.35-.56,.62-2.08,1.12-3.69,1.42-4.64,1.75,1.71,12.54,7.4,18.47,3.59,.29-.19,.58-.4,.84-.64,.21-.19,.32-.61,.36-1.24,.11,.12,.22,.25,.34,.39Z"/><path class="cls-15" d="M317.11,201.12c-.76-.26-1.41-.62-1.41-1.12,0-.1,.02-.26,.05-.47,.36-2.19,2.62-10.13,5.52-20.62-1.53-1.86-12.23-8.96-12.23-8.96,0,0,.87-2.95,1.86-3.17,.98-.22,12.34,9.56,13.6,11.58,1.11,1.78-6.63,16.29-7.39,22.75Z"/><path class="cls-15" d="M317.04,123.19c-.04,.33-.09,.71-.17,1.12-2.86,1.46-5.67-1.83-6.01-1.78-.19,.02-.59,.52-.91,.96,.33-1.08,.8-1.65,.8-1.65,1.29,.88,2.4,1.4,3.35,1.64,1.23,.32,2.2,.17,2.94-.28Z"/><path class="cls-15" d="M313.47,131.28c-1.89-.46-2.93-2.35-3.33-3.24,0-.56-.01-1.06-.02-1.42,.5,1.14,1.46,2.69,3.06,3.19,.1,.03,.2,.05,.29,.05,0,.48,.01,.97,0,1.41Z"/><path class="cls-15" d="M318.62,140.39c-.44,3.11-.43,6.26-.29,9.08-.74-3.14-1.4-6.51-.63-8.47,1.31-3.36,1.46-3.52,1.48-3.52-.23,.96-.42,1.93-.56,2.9Z"/><path class="cls-22" d="M226.63,171.74l-35.37-6.08-.05,.32-78.11,87.95-1.61,21.99,11.2,1.93,19.39,3.33,26.03,4.47,2.47,.42-1.86,10.85-.86,5.02-2.85,16.57,23.02,3.96,12.35,2.12,5.57-32.43,15.54,2.67,4.69-27.29-15.54-2.67,15.99-93.11Zm-44.16,45.07l-7.21,41.96-8.63-1.48-18.87-3.24,10.45-12.47,2.39-2.85,19.92-23.78,2.82-3.19-.87,5.06Z"/><path class="cls-15" d="M168.1,285.65l-26.03-4.47c3.07-10.13,6.89-24.09,5.69-27.12l18.87,3.24c1.21,2.01,2.17,4.79,2.42,8.59,.46,6.73-.54,13.6-.95,19.77Z"/><path class="cls-35" d="M148.89,254.24s2.84-3.94,9.23-2.71c6.39,1.23,6.88,9.1,4.1,17.78-2.79,8.68-3.44,39-2.13,48.83,1.31,9.83,.49,14.42-2.62,14.75-3.11,.33-4.59-11.8-2.79-20.32,1.8-8.52,1.64-16.39-1.31-15.08-2.95,1.31-.49,4.59-1.97,7.54-1.47,2.95-5.9,1.15-5.74-4.42s9.07-41.78,3.23-46.37Z"/><path class="cls-15" d="M210.64,264.85l15.54,2.67-4.69,27.29-15.54-2.67-5.57,32.43-12.35-2.12,21.71-135.43,16.9-15.29-15.99,93.11Z"/><path class="cls-13" d="M200.07-30.38V180.71"/><path class="cls-19" d="M259.55,138.62c3.53,0,6.39-2.86,6.39-6.39s-2.86-6.39-6.39-6.39-6.39,2.86-6.39,6.39,2.86,6.39,6.39,6.39Z"/><path class="cls-33" d="M481.91,219.84c3.53,0,6.39-2.86,6.39-6.39s-2.86-6.39-6.39-6.39-6.39,2.86-6.39,6.39,2.86,6.39,6.39,6.39Z"/><path class="cls-23" d="M147.76,173.18c3.53,0,6.39-2.86,6.39-6.39s-2.86-6.39-6.39-6.39-6.39,2.86-6.39,6.39,2.86,6.39,6.39,6.39Z"/><path class="cls-16" d="M253.16,368.62c3.53,0,6.39-2.86,6.39-6.39s-2.86-6.39-6.39-6.39-6.39,2.86-6.39,6.39,2.86,6.39,6.39,6.39Z"/><path class="cls-19" d="M445.38,153.93c1.36,0,2.46-1.1,2.46-2.46s-1.1-2.46-2.46-2.46-2.46,1.1-2.46,2.46,1.1,2.46,2.46,2.46Z"/><path class="cls-23" d="M257.08,192.32c1.36,0,2.46-1.1,2.46-2.46s-1.1-2.46-2.46-2.46-2.46,1.1-2.46,2.46,1.1,2.46,2.46,2.46Z"/><path class="cls-33" d="M183.35,158.94c1.36,0,2.46-1.1,2.46-2.46s-1.1-2.47-2.46-2.47-2.46,1.1-2.46,2.47,1.1,2.46,2.46,2.46Z"/><path class="cls-5" d="M516.82,21.39s-9.85-9.83-28.52-5.9c-18.67,3.93-31.79,33.43-45.39,39.98-13.6,6.56-40.4,25.91-42.4,42.45,26.18-21.8,36.02-12.3,53.06-14.92s18.35-22.61,42.93-21.96c24.58,.65,50.8,31.2,75.38,14.12,24.58-17.07,53.42-37.39,30.15-54.11-23.27-16.71-70.46,8.85-85.21,.33Z"/><path class="cls-24" d="M117.97,87.84s-2.56,13.68,11.21,26.88c13.78,13.2,45.54,7.41,58.62,14.94,13.08,7.53,44.18,18.75,58.97,11.07-32.77-9.33-30.47-22.81-42.24-35.4-11.77-12.6-29.02-2.4-42.34-23.07-13.32-20.67-2.89-59.54-30.85-70.21-27.96-10.67-61.01-23.03-61.69,5.61-.68,28.64,47.04,53.2,48.32,70.18Z"/><path class="cls-3" d="M593.84,166.26s-39.98,43.87-48.51,95.3c-8.52,51.43-49.51,48.16-63.43,72.41-13.92,24.25-47.09,26.22-62.3,36.05-15.2,9.83-49.84-7.21-55.79,0-5.95,7.21,31.07,18.35,79.09,19.01s57.2-36.71,99.8-41.95c42.61-5.24,85.21-23.6,100.29-93.08,15.08-69.48-10.49-106.66-49.16-87.74Z"/><path class="cls-6" d="M16.78,183.93s39.98,43.87,48.51,95.3c8.52,51.43,49.51,48.16,63.43,72.41,13.92,24.25,47.09,26.22,62.3,36.05,15.2,9.83,49.84-7.21,55.79,0,5.95,7.21-31.07,18.35-79.09,19.01-48.02,.65-57.2-36.71-99.8-41.95-42.6-5.24-85.21-23.6-100.29-93.08-15.08-69.48,10.49-106.66,49.16-87.74Z"/></g></g></svg>