<svg width="695" height="513" viewBox="0 0 695 513" fill="none" xmlns="http://www.w3.org/2000/svg">
    <path d="M625.361 477.901H579.324V478.249H625.361V477.901Z" fill="#EBEBEB"/>
    <path d="M460.396 481.682H448.316V482.029H460.396V481.682Z" fill="#EBEBEB"/>
    <path d="M577.934 465.002H551.26V465.349H577.934V465.002Z" fill="#EBEBEB"/>
    <path d="M132.953 467.337H72.9189V467.685H132.953V467.337Z" fill="#EBEBEB"/>
    <path d="M154.138 467.337H145.339V467.685H154.138V467.337Z" fill="#EBEBEB"/>
    <path d="M312.958 473.203H182.743V473.55H312.958V473.203Z" fill="#EBEBEB"/>
    <path d="M331.376 393.542H62.9672C60.8622 393.542 58.8434 392.706 57.3549 391.217C55.8665 389.729 55.0303 387.71 55.0303 385.605V8.31741C55.0486 6.22448 55.8929 4.22351 57.3794 2.75005C58.8658 1.27659 60.8742 0.449932 62.9672 0.450012H331.376C332.418 0.450012 333.451 0.655304 334.414 1.05417C335.376 1.45304 336.251 2.03767 336.988 2.77468C337.725 3.51169 338.31 4.38665 338.709 5.34959C339.108 6.31254 339.313 7.34462 339.313 8.38691V385.605C339.313 386.647 339.108 387.679 338.709 388.642C338.31 389.605 337.725 390.48 336.988 391.217C336.251 391.954 335.376 392.539 334.414 392.938C333.451 393.337 332.418 393.542 331.376 393.542V393.542ZM62.9672 0.728013C60.9555 0.731688 59.0272 1.53246 57.6047 2.95495C56.1822 4.37745 55.3814 6.30571 55.3778 8.31741V385.605C55.3814 387.617 56.1822 389.545 57.6047 390.968C59.0272 392.39 60.9555 393.191 62.9672 393.194H331.376C333.388 393.191 335.316 392.39 336.739 390.968C338.161 389.545 338.962 387.617 338.966 385.605V8.31741C338.962 6.30571 338.161 4.37745 336.739 2.95495C335.316 1.53246 333.388 0.731688 331.376 0.728013H62.9672Z" fill="#EBEBEB"/>
    <path d="M632.033 393.542H363.624C361.519 393.542 359.501 392.706 358.012 391.217C356.524 389.729 355.687 387.71 355.688 385.605V8.31741C355.706 6.22448 356.55 4.22351 358.037 2.75005C359.523 1.27659 361.531 0.449932 363.624 0.450012H632.033C634.138 0.450012 636.157 1.28622 637.646 2.77468C639.134 4.26313 639.97 6.28191 639.97 8.38691V385.605C639.97 387.71 639.134 389.729 637.646 391.217C636.157 392.706 634.138 393.542 632.033 393.542V393.542ZM363.624 0.728013C361.613 0.731688 359.684 1.53246 358.262 2.95495C356.839 4.37745 356.039 6.30571 356.035 8.31741V385.605C356.039 387.617 356.839 389.545 358.262 390.968C359.684 392.39 361.613 393.191 363.624 393.194H632.033C634.045 393.191 635.973 392.39 637.396 390.968C638.818 389.545 639.619 387.617 639.623 385.605V8.31741C639.619 6.30571 638.818 4.37745 637.396 2.95495C635.973 1.53246 634.045 0.731688 632.033 0.728013H363.624Z" fill="#EBEBEB"/>
    <path d="M695 455.536H0V455.884H695V455.536Z" fill="#EBEBEB"/>
    <path d="M562.13 50.9487H524.753C512.9 50.9487 503.291 60.5574 503.291 72.4103V109.787C503.291 121.64 512.9 131.249 524.753 131.249H562.13C573.983 131.249 583.591 121.64 583.591 109.787V72.4103C583.591 60.5574 573.983 50.9487 562.13 50.9487Z" fill="#F0F0F0"/>
    <path d="M553.428 79.7495C553.428 86.5883 549.953 92.1205 543.115 92.1205C536.276 92.1205 532.801 86.5605 532.801 79.7495C532.801 72.9385 536.276 67.3646 543.115 67.3646C549.953 67.3646 553.428 72.9107 553.428 79.7495Z" fill="#FAFAFA"/>
    <path d="M543.115 114.819H562.2V103.477C562.2 97.2079 553.651 92.1205 543.115 92.1205C532.579 92.1205 524.03 97.2079 524.03 103.477V114.819H543.115Z" fill="#FAFAFA"/>
    <path d="M210.571 77.873H184.467C176.191 77.873 169.482 84.5817 169.482 92.8573V118.961C169.482 127.237 176.191 133.946 184.467 133.946H210.571C218.846 133.946 225.555 127.237 225.555 118.961V92.8573C225.555 84.5817 218.846 77.873 210.571 77.873Z" fill="#E6E6E6"/>
    <path d="M196.379 108.939C197.221 107.77 198.196 106.702 199.284 105.756C200.027 105.1 200.715 104.384 201.341 103.616C201.77 103.048 202 102.354 201.995 101.642C202.01 101.156 201.903 100.674 201.685 100.239C201.467 99.8046 201.143 99.4316 200.744 99.1539C199.76 98.5088 198.597 98.1925 197.422 98.2504C196.19 98.2213 194.971 98.5034 193.877 99.0705C192.84 99.6289 191.946 100.418 191.264 101.378L186.135 98.3755C187.328 96.5736 188.991 95.1317 190.944 94.2055C193.197 93.1604 195.662 92.6513 198.144 92.7182C200.904 92.588 203.636 93.3112 205.97 94.7893C206.906 95.4198 207.667 96.2768 208.182 97.2806C208.697 98.2844 208.95 99.4022 208.917 100.53C208.94 101.579 208.741 102.621 208.333 103.588C207.996 104.401 207.526 105.152 206.943 105.812C206.387 106.424 205.678 107.119 204.802 107.911C203.964 108.624 203.196 109.415 202.509 110.274C202.015 110.94 201.761 111.753 201.786 112.581H195.378C195.327 111.293 195.676 110.021 196.379 108.939V108.939ZM195.698 122.103C195.316 121.75 195.014 121.319 194.813 120.839C194.612 120.36 194.515 119.843 194.53 119.323C194.519 118.819 194.617 118.319 194.816 117.856C195.015 117.393 195.311 116.979 195.684 116.64C196.498 115.94 197.536 115.556 198.61 115.556C199.684 115.556 200.722 115.94 201.536 116.64C201.907 116.98 202.2 117.395 202.397 117.858C202.594 118.321 202.689 118.82 202.676 119.323C202.691 119.843 202.595 120.36 202.393 120.839C202.192 121.319 201.89 121.75 201.508 122.103C200.714 122.828 199.678 123.229 198.603 123.229C197.528 123.229 196.492 122.828 195.698 122.103V122.103Z" fill="#FAFAFA"/>
    <path d="M558.279 269.818H578.476C581.554 269.818 584.506 271.041 586.683 273.218C588.86 275.394 590.082 278.346 590.082 281.425V301.621C590.082 304.696 588.861 307.644 586.687 309.818C584.513 311.993 581.564 313.214 578.49 313.214H558.279C555.205 313.214 552.256 311.993 550.082 309.818C547.908 307.644 546.687 304.696 546.687 301.621V281.425C546.687 278.35 547.908 275.401 550.082 273.227C552.256 271.053 555.205 269.832 558.279 269.832V269.818Z" fill="#EBEBEB"/>
    <path d="M567.482 293.865C568.135 292.961 568.89 292.135 569.733 291.405C570.312 290.894 570.847 290.336 571.332 289.737C571.663 289.302 571.84 288.768 571.832 288.222C571.847 287.846 571.765 287.472 571.595 287.136C571.425 286.801 571.171 286.514 570.859 286.303C570.101 285.797 569.199 285.548 568.288 285.595C567.356 285.567 566.433 285.774 565.602 286.197C564.771 286.619 564.06 287.244 563.534 288.013L559.559 285.692C560.477 284.285 561.766 283.16 563.284 282.439C565.024 281.634 566.927 281.239 568.844 281.286C570.982 281.182 573.1 281.745 574.904 282.898C575.631 283.388 576.222 284.054 576.621 284.834C577.019 285.615 577.213 286.484 577.184 287.36C577.2 288.17 577.048 288.974 576.739 289.723C576.477 290.354 576.111 290.937 575.655 291.446C575.134 292.019 574.582 292.562 574.001 293.073C573.357 293.628 572.761 294.237 572.222 294.894C571.848 295.416 571.653 296.045 571.665 296.687H566.717C566.674 295.69 566.941 294.704 567.482 293.865ZM566.953 304.054C566.663 303.785 566.434 303.458 566.281 303.093C566.127 302.729 566.053 302.336 566.064 301.941C566.056 301.551 566.129 301.165 566.28 300.805C566.431 300.446 566.656 300.123 566.939 299.856C567.571 299.317 568.375 299.02 569.205 299.02C570.036 299.02 570.839 299.317 571.471 299.856C571.757 300.122 571.985 300.444 572.138 300.804C572.291 301.163 572.367 301.55 572.36 301.941C572.369 302.337 572.293 302.731 572.137 303.095C571.981 303.46 571.749 303.786 571.457 304.054C571.16 304.344 570.807 304.571 570.42 304.721C570.033 304.872 569.62 304.942 569.205 304.929C568.791 304.939 568.378 304.867 567.992 304.717C567.605 304.566 567.252 304.341 566.953 304.054V304.054Z" fill="#FAFAFA"/>
    <path d="M162.783 161.968H136.679C128.403 161.968 121.694 168.677 121.694 176.952V203.056C121.694 211.332 128.403 218.041 136.679 218.041H162.783C171.058 218.041 177.767 211.332 177.767 203.056V176.952C177.767 168.677 171.058 161.968 162.783 161.968Z" fill="#EBEBEB"/>
    <path d="M149.731 174.2C148.065 174.2 146.415 174.528 144.876 175.166C143.337 175.804 141.939 176.739 140.762 177.918C139.584 179.096 138.651 180.496 138.015 182.035C137.378 183.575 137.052 185.225 137.054 186.891C137.054 193.841 142.725 210.688 149.731 210.688C156.736 210.688 162.407 193.882 162.407 186.891C162.409 185.225 162.083 183.575 161.446 182.035C160.81 180.496 159.877 179.096 158.699 177.918C157.522 176.739 156.124 175.804 154.585 175.166C153.046 174.528 151.396 174.2 149.731 174.2V174.2ZM149.731 190.713C148.975 190.713 148.235 190.489 147.607 190.069C146.978 189.649 146.488 189.052 146.199 188.354C145.91 187.655 145.834 186.886 145.981 186.145C146.129 185.403 146.493 184.722 147.028 184.188C147.562 183.653 148.243 183.289 148.985 183.142C149.726 182.994 150.495 183.07 151.193 183.359C151.892 183.648 152.489 184.138 152.909 184.767C153.329 185.396 153.553 186.135 153.553 186.891C153.538 187.895 153.129 188.853 152.414 189.558C151.699 190.263 150.735 190.658 149.731 190.658V190.713Z" fill="#FAFAFA"/>
    <path d="M155.332 266.552C155.74 263.978 155.74 261.356 155.332 258.782L151.426 258.267C151.111 256.832 150.645 255.434 150.036 254.097L152.9 251.387C151.709 249.069 150.167 246.949 148.327 245.104L144.852 246.994C143.778 246.021 142.603 245.163 141.349 244.437L142.072 240.559C139.763 239.371 137.282 238.555 134.719 238.14L133.037 241.685C132.328 241.615 131.647 241.573 130.868 241.573C130.09 241.573 129.395 241.573 128.686 241.685L127.004 238.14C124.428 238.546 121.932 239.358 119.609 240.545L120.332 244.423C119.078 245.15 117.904 246.007 116.829 246.98L113.354 245.09C111.514 246.935 109.972 249.055 108.781 251.373L111.645 254.083C111.036 255.42 110.57 256.818 110.255 258.253L106.363 258.768C105.936 261.34 105.936 263.965 106.363 266.538L110.255 267.052C110.57 268.487 111.036 269.885 111.645 271.222L108.781 273.933C109.969 276.252 111.512 278.372 113.354 280.215L116.829 278.325C117.904 279.298 119.078 280.156 120.332 280.883L119.609 284.761C121.932 285.948 124.428 286.759 127.004 287.165L128.686 283.621C129.395 283.69 130.076 283.732 130.868 283.732C131.661 283.732 132.258 283.732 133.037 283.621L134.719 287.165C137.295 286.759 139.791 285.948 142.113 284.761L141.391 280.883C142.645 280.156 143.819 279.298 144.893 278.325L148.368 280.215C150.208 278.37 151.751 276.251 152.942 273.933L150.12 271.194C150.727 269.856 151.193 268.459 151.51 267.024L155.332 266.552ZM130.868 271.319C129.154 271.322 127.478 270.816 126.052 269.866C124.626 268.915 123.514 267.563 122.857 265.98C122.199 264.397 122.027 262.655 122.36 260.974C122.694 259.292 123.519 257.748 124.731 256.536C125.943 255.324 127.487 254.499 129.168 254.166C130.85 253.832 132.592 254.005 134.175 254.662C135.758 255.319 137.11 256.431 138.061 257.857C139.011 259.283 139.517 260.96 139.514 262.674C139.51 264.965 138.598 267.162 136.978 268.783C135.357 270.404 133.16 271.316 130.868 271.319V271.319Z" fill="#EBEBEB"/>
    <path d="M167.871 294.518C167.97 293.875 168.022 293.224 168.024 292.572C168.023 291.921 167.972 291.27 167.871 290.626L165.911 290.376C165.762 289.664 165.539 288.97 165.244 288.305L166.634 286.915C166.039 285.75 165.265 284.685 164.34 283.76L162.603 284.705C162.063 284.222 161.476 283.793 160.851 283.426L161.213 281.494C160.052 280.897 158.804 280.489 157.515 280.285L156.681 282.064C156.32 282.064 155.958 282.064 155.597 282.064C155.236 282.064 154.86 282.064 154.499 282.064L153.665 280.285C152.376 280.489 151.128 280.897 149.968 281.494L150.329 283.426C149.704 283.793 149.117 284.222 148.578 284.705L146.84 283.76C145.915 284.685 145.141 285.75 144.547 286.915L145.937 288.305C145.642 288.97 145.418 289.664 145.269 290.376L143.323 290.626C143.215 291.269 143.164 291.921 143.17 292.572C143.166 293.224 143.217 293.875 143.323 294.518L145.269 294.769C145.418 295.476 145.642 296.166 145.937 296.826L144.547 298.216C145.143 299.376 145.916 300.436 146.84 301.357L148.578 300.412C149.11 300.904 149.698 301.333 150.329 301.691L149.968 303.623C151.128 304.22 152.376 304.628 153.665 304.832L154.499 303.053C155.224 303.127 155.956 303.127 156.681 303.053L157.515 304.832C158.804 304.628 160.052 304.22 161.213 303.623L160.851 301.691C161.482 301.333 162.07 300.904 162.603 300.412L164.34 301.357C165.264 300.436 166.038 299.376 166.634 298.216L165.244 296.826C165.538 296.166 165.762 295.476 165.911 294.769L167.871 294.518ZM155.639 296.895C154.784 296.895 153.948 296.642 153.237 296.167C152.526 295.692 151.972 295.017 151.645 294.227C151.318 293.437 151.232 292.568 151.399 291.729C151.566 290.891 151.977 290.12 152.582 289.516C153.187 288.911 153.957 288.499 154.795 288.333C155.634 288.166 156.503 288.251 157.293 288.579C158.083 288.906 158.758 289.46 159.233 290.171C159.708 290.882 159.962 291.717 159.962 292.572C159.958 293.711 159.507 294.802 158.706 295.611C157.905 296.419 156.819 296.881 155.68 296.895H155.639Z" fill="#E0E0E0"/>
    <path d="M597.339 266.468C597.863 266.082 598.36 265.659 598.826 265.203C599.286 264.741 599.709 264.244 600.091 263.716L598.896 262.159C599.291 261.553 599.617 260.905 599.869 260.227H601.842C602.247 258.989 602.453 257.694 602.454 256.391L600.55 255.835C600.521 255.111 600.409 254.392 600.216 253.694L601.842 252.582C601.449 251.339 600.852 250.169 600.077 249.121L598.228 249.774C598.002 249.493 597.761 249.224 597.506 248.968C597.241 248.704 596.977 248.468 596.699 248.231L597.353 246.383C596.296 245.621 595.129 245.025 593.892 244.617L592.78 246.244C592.074 246.064 591.352 245.952 590.625 245.91L590.069 244.02C588.766 244.016 587.47 244.222 586.233 244.631V246.591C585.556 246.853 584.909 247.184 584.301 247.578L582.73 246.383C581.666 247.161 580.728 248.098 579.95 249.163L581.145 250.72C580.753 251.334 580.423 251.986 580.158 252.666H578.199C577.796 253.905 577.59 255.199 577.587 256.502L579.477 257.058C579.519 257.781 579.63 258.498 579.811 259.199L578.185 260.324C578.593 261.562 579.188 262.729 579.95 263.786L581.799 263.118C582.035 263.396 582.271 263.674 582.535 263.938C582.799 264.203 583.064 264.439 583.342 264.661L582.688 266.51C583.737 267.285 584.906 267.882 586.149 268.275L587.261 266.649C587.96 266.842 588.678 266.954 589.402 266.983L589.958 268.887C591.265 268.885 592.565 268.679 593.808 268.275V266.301C594.484 266.045 595.132 265.719 595.74 265.328L597.339 266.468ZM587.011 259.518C586.407 258.914 585.996 258.143 585.829 257.305C585.662 256.466 585.748 255.597 586.076 254.808C586.403 254.018 586.957 253.343 587.668 252.868C588.379 252.393 589.214 252.14 590.069 252.14C590.924 252.14 591.76 252.393 592.47 252.868C593.181 253.343 593.735 254.018 594.063 254.808C594.39 255.597 594.476 256.466 594.309 257.305C594.143 258.143 593.731 258.914 593.127 259.518C592.726 259.921 592.249 260.24 591.723 260.457C591.198 260.675 590.635 260.786 590.066 260.784C589.498 260.783 588.935 260.669 588.411 260.45C587.886 260.23 587.411 259.909 587.011 259.504V259.518Z" fill="#F0F0F0"/>
    <path d="M347.5 512.957C496.345 512.957 617.007 505.912 617.007 497.222C617.007 488.532 496.345 481.487 347.5 481.487C198.656 481.487 77.9932 488.532 77.9932 497.222C77.9932 505.912 198.656 512.957 347.5 512.957Z" fill="#F5F5F5"/>
    <path d="M396.929 82.1265V60.4703L407.576 58.9691V80.6253L396.929 82.1265Z" fill="#263238"/>
    <path d="M361.525 94.1916L353.547 81.487L360.344 76.622L368.309 89.3127L361.525 94.1916Z" fill="#263238"/>
    <path d="M436.182 79.7634L444.16 64.8348L450.943 67.7955L442.979 82.738L436.182 79.7634Z" fill="#263238"/>
    <g opacity="0.5">
        <path d="M396.929 82.1265V60.4703L407.576 58.9691V80.6253L396.929 82.1265Z" fill="white"/>
        <path d="M361.525 94.1917L353.547 81.4871L360.344 76.6221L368.309 89.3128L361.525 94.1917Z" fill="white"/>
        <path d="M436.183 79.7634L444.161 64.8348L450.944 67.7955L442.98 82.738L436.183 79.7634Z" fill="white"/>
    </g>
    <path d="M409.091 62.4579L395.413 64.39C394.916 64.4817 394.406 64.4609 393.918 64.3292C393.431 64.1974 392.979 63.958 392.596 63.6286C392.214 63.2992 391.909 62.8882 391.707 62.4258C391.504 61.9634 391.407 61.4614 391.424 60.9567V60.9567C391.455 59.8531 391.871 58.795 392.599 57.9652C393.328 57.1354 394.323 56.5858 395.413 56.4114L409.091 54.4932C409.586 54.4018 410.096 54.4223 410.582 54.5533C411.068 54.6843 411.519 54.9225 411.902 55.2503C412.284 55.5781 412.589 55.9874 412.792 56.448C412.996 56.9087 413.094 57.4091 413.08 57.9126V57.9126C413.046 59.0155 412.629 60.0722 411.901 60.9014C411.173 61.7307 410.18 62.281 409.091 62.4579V62.4579Z" fill="#263238"/>
    <path d="M362.554 76.2746L352.421 83.5582C352.21 83.7343 351.965 83.8652 351.702 83.9428C351.439 84.0203 351.162 84.0429 350.89 84.009C350.617 83.9751 350.354 83.8855 350.118 83.7457C349.882 83.606 349.677 83.4191 349.516 83.1968C349.248 82.687 349.18 82.096 349.324 81.5387C349.467 80.9813 349.813 80.4972 350.294 80.1805L360.441 72.9107C360.65 72.7329 360.893 72.6005 361.155 72.5219C361.418 72.4434 361.694 72.4203 361.966 72.4543C362.238 72.4883 362.5 72.5786 362.735 72.7194C362.97 72.8602 363.174 73.0485 363.332 73.2722V73.2722C363.599 73.7799 363.667 74.3686 363.523 74.9236C363.379 75.4787 363.033 75.9603 362.554 76.2746V76.2746Z" fill="#263238"/>
    <path d="M452.084 69.5469L441.937 65.1267C441.695 65.0038 441.481 64.832 441.309 64.6222C441.137 64.4123 441.01 64.169 440.937 63.9077C440.864 63.6463 440.846 63.3727 440.884 63.104C440.922 62.8352 441.015 62.5774 441.158 62.3467V62.3467C441.412 61.8265 441.849 61.4182 442.385 61.2002C442.921 60.9821 443.519 60.9697 444.063 61.1652L454.197 65.5993C454.442 65.7189 454.659 65.8891 454.833 66.0985C455.008 66.308 455.136 66.5521 455.209 66.8146C455.283 67.0772 455.3 67.3524 455.26 67.6221C455.219 67.8918 455.122 68.1498 454.975 68.3793V68.3793C454.722 68.896 454.286 69.3009 453.753 69.5163C453.219 69.7318 452.625 69.7427 452.084 69.5469V69.5469Z" fill="#263238"/>
    <path opacity="0.7" d="M409.091 62.4579L395.413 64.39C394.916 64.4817 394.406 64.4609 393.918 64.3292C393.431 64.1974 392.979 63.958 392.596 63.6286C392.214 63.2992 391.909 62.8882 391.707 62.4258C391.504 61.9634 391.407 61.4614 391.424 60.9567V60.9567C391.455 59.8531 391.871 58.795 392.599 57.9652C393.328 57.1354 394.323 56.5858 395.413 56.4114L409.091 54.4932C409.586 54.4018 410.096 54.4223 410.582 54.5533C411.068 54.6843 411.519 54.9225 411.902 55.2503C412.284 55.5781 412.589 55.9874 412.792 56.448C412.996 56.9087 413.094 57.4091 413.08 57.9126V57.9126C413.046 59.0155 412.629 60.0722 411.901 60.9014C411.173 61.7307 410.18 62.281 409.091 62.4579V62.4579Z" fill="white"/>
    <path opacity="0.7" d="M362.554 76.2746L352.421 83.5582C352.21 83.7343 351.965 83.8652 351.702 83.9428C351.439 84.0203 351.162 84.0429 350.89 84.009C350.617 83.9751 350.354 83.8855 350.118 83.7457C349.882 83.606 349.677 83.4191 349.516 83.1968C349.248 82.687 349.18 82.096 349.324 81.5387C349.467 80.9813 349.813 80.4972 350.294 80.1805L360.441 72.9107C360.65 72.7329 360.893 72.6005 361.155 72.5219C361.418 72.4434 361.694 72.4203 361.966 72.4543C362.238 72.4883 362.5 72.5786 362.735 72.7194C362.97 72.8602 363.174 73.0485 363.332 73.2722V73.2722C363.599 73.7799 363.667 74.3686 363.523 74.9236C363.379 75.4787 363.033 75.9603 362.554 76.2746V76.2746Z" fill="white"/>
    <path opacity="0.7" d="M452.084 69.5469L441.937 65.1267C441.695 65.0038 441.481 64.832 441.309 64.6222C441.137 64.4123 441.01 64.169 440.937 63.9077C440.864 63.6463 440.846 63.3727 440.884 63.104C440.922 62.8352 441.015 62.5774 441.158 62.3467V62.3467C441.412 61.8265 441.849 61.4182 442.385 61.2002C442.921 60.9821 443.519 60.9697 444.063 61.1652L454.197 65.5993C454.442 65.7189 454.659 65.8891 454.833 66.0985C455.008 66.308 455.136 66.5521 455.209 66.8146C455.283 67.0772 455.3 67.3524 455.26 67.6221C455.219 67.8918 455.122 68.1498 454.975 68.3793V68.3793C454.722 68.896 454.286 69.3009 453.753 69.5163C453.219 69.7318 452.625 69.7427 452.084 69.5469V69.5469Z" fill="white"/>
    <path d="M402.252 217.707C365.236 222.906 335.226 197.121 335.226 160.105C335.226 123.09 365.236 88.854 402.252 83.6554C439.268 78.4568 469.278 104.241 469.278 141.257L478.424 139.978C478.424 97.9029 444.314 68.6017 402.252 74.5092C360.191 80.4167 326.08 119.323 326.08 161.384C326.08 203.446 360.177 232.761 402.252 226.853V217.707Z" fill="#FF7700"/>
    <path d="M375.62 198.159L370.618 207.527L372.58 208.574L377.582 199.206L375.62 198.159Z" fill="#263238"/>
    <path d="M431.897 92.7763L426.896 102.144L428.857 103.192L433.859 93.8238L431.897 92.7763Z" fill="#263238"/>
    <path d="M349.608 126.456L348.718 128.494L357.38 132.277L358.27 130.239L349.608 126.456Z" fill="#263238"/>
    <path d="M373.414 102.67L371.523 103.849L376.511 111.848L378.401 110.669L373.414 102.67Z" fill="#263238"/>
    <path d="M357.201 181.685L348.527 187.908L349.824 189.715L358.497 183.492L357.201 181.685Z" fill="#263238"/>
    <path d="M454.675 111.686L446.001 117.91L447.298 119.717L455.971 113.493L454.675 111.686Z" fill="#263238"/>
    <path d="M354.006 155.216L340.668 157.091L341.287 161.495L354.625 159.621L354.006 155.216Z" fill="#263238"/>
    <path d="M404.476 89.41H400.028V102.754H404.476V89.41Z" fill="#263238"/>
    <path d="M404.476 198.608H400.028V211.952H404.476V198.608Z" fill="#263238"/>
    <path d="M385.03 136.225C384.512 136.746 384.222 137.451 384.222 138.185C384.222 138.92 384.512 139.624 385.03 140.145L399.959 152.961L403.865 148.499L388.95 135.669C388.657 135.446 388.323 135.283 387.966 135.19C387.61 135.097 387.238 135.076 386.874 135.127C386.509 135.179 386.158 135.303 385.842 135.491C385.525 135.68 385.249 135.929 385.03 136.225Z" fill="#FF7700"/>
    <path opacity="0.4" d="M385.03 136.225C384.512 136.746 384.222 137.451 384.222 138.185C384.222 138.92 384.512 139.624 385.03 140.145L399.959 152.961L403.865 148.499L388.95 135.669C388.657 135.446 388.323 135.283 387.966 135.19C387.61 135.097 387.238 135.076 386.874 135.127C386.509 135.179 386.158 135.303 385.842 135.491C385.525 135.68 385.249 135.929 385.03 136.225Z" fill="white"/>
    <path d="M484.943 137.949L473.809 152.864L462.689 141.076L484.943 137.949Z" fill="#FF7700"/>
    <path d="M427.648 121.297C427.355 121.073 427.02 120.91 426.664 120.817C426.307 120.724 425.936 120.703 425.571 120.755C425.207 120.806 424.856 120.93 424.539 121.119C424.223 121.307 423.947 121.557 423.728 121.853L403.517 144.899C402.435 144.762 401.335 144.898 400.318 145.294C399.301 145.689 398.399 146.332 397.693 147.165C395.413 149.778 395.413 153.489 397.693 155.505C399.973 157.52 403.698 156.895 406.033 154.337C406.753 153.535 407.258 152.564 407.501 151.514C407.744 150.463 407.717 149.369 407.423 148.332L427.634 125.272C427.899 125.014 428.111 124.706 428.256 124.365C428.401 124.024 428.476 123.658 428.477 123.287C428.478 122.917 428.406 122.55 428.263 122.208C428.121 121.866 427.912 121.556 427.648 121.297Z" fill="#FF7700"/>
    <path d="M431.303 205.141L448.678 202.695L447.135 210.715L415.818 215.122L417.069 208.742L435.918 191.325C437.69 189.722 439.284 187.932 440.672 185.987C441.535 184.764 442.018 183.314 442.062 181.817C442.098 181.211 441.973 180.606 441.7 180.064C441.426 179.522 441.014 179.062 440.505 178.731C439.119 177.999 437.516 177.787 435.987 178.134C434.278 178.377 432.641 178.989 431.192 179.927C429.628 180.914 428.265 182.187 427.175 183.68L420.739 179.913C422.539 177.251 424.914 175.028 427.689 173.408C430.667 171.625 433.978 170.471 437.419 170.016C439.945 169.593 442.532 169.711 445.008 170.364C446.999 170.88 448.776 172.014 450.082 173.602C451.302 175.168 451.941 177.109 451.889 179.093C451.864 181.74 451.129 184.332 449.762 186.599C447.722 189.765 445.236 192.621 442.381 195.078L431.303 205.141Z" fill="#263238"/>
    <path d="M490.086 195.995L483.303 196.954L481.579 205.878L472.252 207.185L473.99 198.247L451.75 201.388L452.987 194.772L477.326 165.109L487.793 163.65L465.094 191.714L475.978 190.185L477.507 182.22L486.431 180.969L484.888 188.92L491.685 187.975L490.086 195.995Z" fill="#263238"/>
    <path d="M517.386 151.098L526.018 149.875L495.646 209.812L487.084 211.007L517.386 151.098Z" fill="#263238"/>
    <path d="M556.792 153.948L555.555 160.328L533.454 198.581L522.821 200.082L544.032 163.539L530.618 165.429L529.228 172.379L520.722 173.575L523.613 158.632L556.792 153.948Z" fill="#263238"/>
    <path d="M420.572 256.21C419.255 256.064 417.979 255.657 416.819 255.015L418.849 250.845C419.877 251.446 421.008 251.851 422.185 252.04C423.442 252.242 424.723 252.242 425.979 252.04C427.143 251.923 428.262 251.533 429.246 250.9C429.598 250.691 429.892 250.397 430.101 250.045C430.309 249.693 430.427 249.294 430.441 248.885C430.456 248.58 430.37 248.279 430.197 248.027C430.024 247.776 429.773 247.589 429.482 247.495C428.495 247.163 427.474 246.939 426.438 246.828C425.286 246.658 424.144 246.421 423.019 246.119C422.142 245.863 421.347 245.384 420.711 244.729C420.023 243.929 419.678 242.89 419.752 241.837C419.746 240.408 420.167 239.009 420.962 237.82C421.845 236.534 423.034 235.488 424.423 234.776C426.04 233.929 427.796 233.378 429.607 233.15C430.988 232.942 432.389 232.91 433.777 233.053C434.935 233.148 436.066 233.454 437.113 233.956L435.237 238.043C434.395 237.586 433.476 237.289 432.526 237.167C431.479 237.028 430.418 237.028 429.371 237.167C428.171 237.292 427.02 237.712 426.021 238.39C425.659 238.605 425.356 238.907 425.14 239.269C424.924 239.63 424.801 240.04 424.784 240.461C424.773 240.676 424.815 240.89 424.907 241.084C425 241.278 425.139 241.446 425.312 241.573C425.701 241.87 426.153 242.075 426.633 242.171C427.161 242.282 427.912 242.407 428.885 242.546C430.03 242.674 431.163 242.887 432.276 243.186C433.139 243.446 433.919 243.925 434.542 244.576C434.875 244.953 435.129 245.394 435.289 245.871C435.449 246.349 435.512 246.854 435.473 247.356C435.487 248.797 435.06 250.208 434.25 251.401C433.349 252.681 432.152 253.726 430.761 254.445C429.121 255.346 427.331 255.944 425.479 256.21C423.852 256.447 422.199 256.447 420.572 256.21V256.21Z" fill="#263238"/>
    <path d="M446.106 235.36L445.175 240.183L455.197 238.793L454.433 242.797L444.383 244.187L443.396 249.33L455.169 247.675L454.335 251.845L437.655 254.195L441.964 231.955L458.283 229.661L457.449 233.831L446.106 235.36Z" fill="#263238"/>
    <path d="M478.229 238.765C477.095 240.395 475.525 241.672 473.698 242.449L477.451 248.579L472.183 249.329L468.791 243.769L464.538 244.367L463.328 250.58L458.311 251.289L462.62 229.049L471.418 227.812C473.529 227.344 475.737 227.66 477.632 228.702C478.377 229.206 478.976 229.898 479.367 230.709C479.757 231.52 479.926 232.419 479.856 233.317C479.892 235.258 479.324 237.162 478.229 238.765V238.765ZM473.434 237.987C473.892 237.538 474.252 236.998 474.492 236.402C474.731 235.807 474.844 235.168 474.824 234.526C474.865 234.106 474.79 233.682 474.606 233.302C474.422 232.922 474.137 232.6 473.781 232.371C472.854 231.918 471.801 231.791 470.793 232.01L466.845 232.566L465.33 240.281L469.583 239.683C471.014 239.541 472.363 238.947 473.434 237.987V237.987Z" fill="#263238"/>
    <path d="M506.03 222.989L492.38 246.48L487.473 247.161L482.441 226.311L487.598 225.588L491.073 240.475L500.803 223.712L506.03 222.989Z" fill="#263238"/>
    <path d="M507.809 222.739L512.841 222.03L508.532 244.27L503.5 244.979L507.809 222.739Z" fill="#263238"/>
    <path d="M519.304 241.907C517.788 241.419 516.478 240.441 515.579 239.127C514.685 237.717 514.234 236.07 514.286 234.401C514.275 232.018 514.853 229.668 515.968 227.562C517.093 225.433 518.72 223.611 520.708 222.252C522.781 220.822 525.162 219.903 527.658 219.57C529.363 219.287 531.109 219.382 532.773 219.848C534.139 220.212 535.331 221.049 536.137 222.211L532.523 225.672C531.921 224.905 531.11 224.328 530.188 224.01C529.266 223.692 528.272 223.646 527.324 223.879C525.813 224.081 524.378 224.665 523.154 225.574C521.972 226.48 521.02 227.651 520.374 228.994C519.707 230.361 519.365 231.865 519.374 233.386C519.322 234.091 519.439 234.797 519.714 235.447C519.99 236.097 520.416 236.673 520.958 237.125C521.604 237.564 522.334 237.865 523.102 238.008C523.87 238.152 524.659 238.135 525.42 237.959C527.685 237.647 529.738 236.465 531.147 234.665L534.108 237.264C533.003 238.671 531.626 239.84 530.06 240.702C528.493 241.564 526.768 242.102 524.989 242.282C523.091 242.613 521.142 242.484 519.304 241.907V241.907Z" fill="#263238"/>
    <path d="M544.686 221.571L543.754 226.381L553.776 224.991L553.012 228.98L542.962 230.37L541.975 235.499L553.748 233.845L552.914 238.015L536.234 240.364L540.557 218.124L556.834 215.9L556 220.07L544.686 221.571Z" fill="#263238"/>
    <path d="M273.094 124.813C258.235 124.813 246.197 133.584 246.197 144.398C246.197 152.252 252.577 159.021 261.765 162.135C260.781 166.645 259.087 170.971 256.747 174.951C260.082 174.454 263.26 173.207 266.041 171.302C268.822 169.397 271.134 166.885 272.802 163.956H273.094C287.953 163.956 299.99 155.199 299.99 144.384C299.99 133.57 287.953 124.813 273.094 124.813Z" fill="#FF7700"/>
    <path opacity="0.7" d="M273.094 124.813C258.235 124.813 246.197 133.584 246.197 144.398C246.197 152.252 252.577 159.021 261.765 162.135C260.781 166.645 259.087 170.971 256.747 174.951C260.082 174.454 263.26 173.207 266.041 171.302C268.822 169.397 271.134 166.885 272.802 163.956H273.094C287.953 163.956 299.99 155.199 299.99 144.384C299.99 133.57 287.953 124.813 273.094 124.813Z" fill="white"/>
    <path d="M261.237 148.165C262.75 148.165 263.976 146.939 263.976 145.427C263.976 143.915 262.75 142.689 261.237 142.689C259.725 142.689 258.499 143.915 258.499 145.427C258.499 146.939 259.725 148.165 261.237 148.165Z" fill="#263238"/>
    <path d="M275.652 145.427C275.652 145.977 275.489 146.514 275.183 146.972C274.878 147.429 274.444 147.785 273.936 147.995C273.428 148.206 272.869 148.261 272.329 148.154C271.79 148.046 271.295 147.782 270.906 147.393C270.517 147.004 270.252 146.509 270.145 145.969C270.038 145.43 270.093 144.871 270.303 144.363C270.514 143.855 270.87 143.421 271.327 143.116C271.784 142.81 272.322 142.647 272.872 142.647C273.609 142.647 274.316 142.94 274.838 143.461C275.359 143.983 275.652 144.69 275.652 145.427Z" fill="#263238"/>
    <path d="M284.589 148.165C286.101 148.165 287.327 146.939 287.327 145.427C287.327 143.915 286.101 142.689 284.589 142.689C283.077 142.689 281.851 143.915 281.851 145.427C281.851 146.939 283.077 148.165 284.589 148.165Z" fill="#263238"/>
    <path d="M517.08 424.469C517.08 424.469 517.261 405.913 510.505 408.359C503.75 410.806 517.08 424.469 517.08 424.469Z" fill="#FF7700"/>
    <path d="M524.336 407.289C524.336 407.289 533.287 392.444 525.198 390.317C517.108 388.191 524.336 407.289 524.336 407.289Z" fill="#FF7700"/>
    <path d="M559.711 396.808C559.711 396.808 578.295 395.849 574.097 388.886C569.9 381.922 559.711 396.808 559.711 396.808Z" fill="#FF7700"/>
    <path d="M530.312 401.743C530.312 401.743 549.773 397.351 546.131 408.276C542.489 419.201 530.312 401.743 530.312 401.743Z" fill="#FF7700"/>
    <path d="M516.176 441.247C516.176 441.247 508.74 424.4 504.57 430.391C500.4 436.382 516.176 441.247 516.176 441.247Z" fill="#FF7700"/>
    <path d="M537.388 398.24C537.388 398.24 557.209 393.042 551.038 385.73C544.866 378.419 537.388 398.24 537.388 398.24Z" fill="#FF7700"/>
    <path d="M552.372 396.197C552.372 396.197 568.051 403.898 560.823 408.929C553.595 413.961 552.372 396.197 552.372 396.197Z" fill="#FF7700"/>
    <path d="M519.04 417.005C519.04 417.005 529.896 403.939 533.246 413.433C536.596 422.927 519.04 417.005 519.04 417.005Z" fill="#FF7700"/>
    <g opacity="0.4">
        <path d="M516.176 441.247C516.176 441.247 508.74 424.4 504.57 430.391C500.4 436.382 516.176 441.247 516.176 441.247Z" fill="white"/>
        <path d="M537.388 398.24C537.388 398.24 557.209 393.042 551.038 385.73C544.866 378.419 537.388 398.24 537.388 398.24Z" fill="white"/>
        <path d="M552.372 396.197C552.372 396.197 568.051 403.898 560.823 408.929C553.595 413.961 552.372 396.197 552.372 396.197Z" fill="white"/>
        <path d="M519.04 417.005C519.04 417.005 529.896 403.939 533.246 413.433C536.596 422.927 519.04 417.005 519.04 417.005Z" fill="white"/>
    </g>
    <path d="M516.065 433.963C516.065 433.963 523.849 417.283 530.118 425.693C536.387 434.102 516.065 433.963 516.065 433.963Z" fill="#FF7700"/>
    <path d="M516.19 451.505C513.831 440.636 514.17 429.354 517.177 418.645C523.543 397.795 543.073 392.889 562.811 396.044C564.381 396.294 563.686 398.657 562.13 398.407C551.649 396.739 539.89 396.572 530.757 402.911C524.224 407.484 520.527 414.753 518.748 422.371C516.661 431.763 516.609 441.493 518.595 450.907C518.915 452.464 516.524 453.076 516.19 451.519V451.505Z" fill="#FF7700"/>
    <g opacity="0.3">
        <path d="M516.19 451.505C513.831 440.636 514.17 429.354 517.177 418.645C523.543 397.795 543.073 392.889 562.811 396.044C564.381 396.294 563.686 398.657 562.13 398.407C551.649 396.739 539.89 396.572 530.757 402.911C524.224 407.484 520.527 414.753 518.748 422.371C516.661 431.763 516.609 441.493 518.595 450.907C518.915 452.464 516.524 453.076 516.19 451.519V451.505Z" fill="black"/>
    </g>
    <path d="M500.72 418.84C500.72 418.84 490.99 396.155 484.679 402.077C478.369 407.998 500.72 418.84 500.72 418.84Z" fill="#FF7700"/>
    <path d="M499.886 394.71C499.886 394.71 502.193 372.734 491.851 373.679C481.51 374.624 499.886 394.71 499.886 394.71Z" fill="#FF7700"/>
    <path d="M534.622 366.52C534.622 366.52 555.264 357.249 546.785 350.605C538.306 343.961 534.622 366.52 534.622 366.52Z" fill="#FF7700"/>
    <path d="M503.75 385.355C503.75 385.355 523.613 371.455 525.239 386.411C526.866 401.368 503.75 385.355 503.75 385.355Z" fill="#FF7700"/>
    <path d="M508.642 439.607C508.642 439.607 491.142 422.398 489.572 431.489C488.001 440.58 508.642 439.607 508.642 439.607Z" fill="#FF7700"/>
    <path d="M509.935 378.002C509.935 378.002 529.756 363.018 518.831 356.804C507.906 350.591 509.935 378.002 509.935 378.002Z" fill="#FF7700"/>
    <path d="M525.935 368.981C525.935 368.981 547.883 371.524 542.309 380.796C536.735 390.067 525.935 368.981 525.935 368.981Z" fill="#FF7700"/>
    <path d="M499.01 408.846C499.01 408.846 504.431 388.204 513.299 398.31C522.167 408.415 499.01 408.846 499.01 408.846Z" fill="#FF7700"/>
    <g opacity="0.4">
        <path d="M508.642 439.607C508.642 439.607 491.142 422.398 489.572 431.489C488.001 440.58 508.642 439.607 508.642 439.607Z" fill="white"/>
        <path d="M509.935 378.002C509.935 378.002 529.756 363.018 518.831 356.804C507.906 350.591 509.935 378.002 509.935 378.002Z" fill="white"/>
        <path d="M525.934 368.981C525.934 368.981 547.882 371.524 542.308 380.796C536.734 390.067 525.934 368.981 525.934 368.981Z" fill="white"/>
        <path d="M499.01 408.846C499.01 408.846 504.431 388.204 513.299 398.31C522.167 408.415 499.01 408.846 499.01 408.846Z" fill="white"/>
    </g>
    <path d="M504.653 430.794C504.653 430.794 504.653 407.067 516.246 414.587C527.839 422.107 504.653 430.794 504.653 430.794Z" fill="#FF7700"/>
    <path d="M514.092 452.089C505.947 440.177 499.664 425.679 497.773 411.668C493.965 383.534 513.564 369.008 537.736 364.227C539.654 363.852 540.113 367.007 538.222 367.424C525.393 369.954 511.812 374.916 504.862 386.592C499.844 395.001 499.483 405.468 501.499 415.504C504.18 427.953 509.27 439.758 516.483 450.254C516.6 450.413 516.684 450.593 516.731 450.785C516.778 450.976 516.787 451.175 516.758 451.37C516.728 451.565 516.66 451.752 516.558 451.92C516.456 452.089 516.322 452.236 516.163 452.353C516.004 452.47 515.824 452.554 515.633 452.601C515.441 452.648 515.242 452.657 515.047 452.628C514.852 452.598 514.665 452.53 514.497 452.428C514.328 452.326 514.181 452.192 514.064 452.033L514.092 452.089Z" fill="#FF7700"/>
    <g opacity="0.3">
        <path d="M514.092 452.089C505.947 440.177 499.664 425.679 497.773 411.668C493.965 383.534 513.564 369.008 537.736 364.227C539.654 363.852 540.113 367.007 538.222 367.424C525.393 369.954 511.812 374.916 504.862 386.592C499.844 395.001 499.483 405.468 501.499 415.504C504.18 427.953 509.27 439.758 516.483 450.254C516.6 450.413 516.684 450.593 516.731 450.785C516.778 450.976 516.787 451.175 516.758 451.37C516.728 451.565 516.66 451.752 516.558 451.92C516.456 452.089 516.322 452.236 516.163 452.353C516.004 452.47 515.824 452.554 515.633 452.601C515.441 452.648 515.242 452.657 515.047 452.628C514.852 452.598 514.665 452.53 514.497 452.428C514.328 452.326 514.181 452.192 514.064 452.033L514.092 452.089Z" fill="black"/>
    </g>
    <path d="M498.412 424.803C498.412 424.803 503.027 409.416 507.975 413.169C512.924 416.922 498.412 424.803 498.412 424.803Z" fill="#FF7700"/>
    <path d="M496.8 408.735C496.8 408.735 493.227 394.154 500.455 394.487C507.683 394.821 496.8 408.735 496.8 408.735Z" fill="#FF7700"/>
    <path d="M470.265 391.04C470.265 391.04 455.156 385.48 460.424 380.796C465.692 376.111 470.265 391.04 470.265 391.04Z" fill="#FF7700"/>
    <path d="M493.298 402.605C493.298 402.605 478.313 393.973 478.55 403.995C478.786 414.017 493.298 402.605 493.298 402.605Z" fill="#FF7700"/>
    <path d="M494.84 438.884C494.84 438.884 505.376 426.916 507.28 432.921C509.185 438.925 494.84 438.884 494.84 438.884Z" fill="#FF7700"/>
    <path d="M488.349 397.893C488.349 397.893 473.309 388.496 480.287 383.993C487.264 379.489 488.349 397.893 488.349 397.893Z" fill="#FF7700"/>
    <path d="M476.478 392.43C476.478 392.43 461.55 394.765 466.234 400.77C470.918 406.775 476.478 392.43 476.478 392.43Z" fill="#FF7700"/>
    <path d="M498.69 418.117C498.69 418.117 493.13 404.523 487.862 411.515C482.594 418.506 498.69 418.117 498.69 418.117Z" fill="#FF7700"/>
    <g opacity="0.4">
        <path d="M494.84 438.884C494.84 438.884 505.376 426.916 507.28 432.921C509.185 438.926 494.84 438.884 494.84 438.884Z" fill="white"/>
        <path d="M488.349 397.893C488.349 397.893 473.309 388.496 480.287 383.993C487.264 379.489 488.349 397.893 488.349 397.893Z" fill="white"/>
        <path d="M476.478 392.43C476.478 392.43 461.55 394.765 466.234 400.77C470.918 406.775 476.478 392.43 476.478 392.43Z" fill="white"/>
        <path d="M498.69 418.117C498.69 418.117 493.13 404.523 487.862 411.515C482.594 418.506 498.69 418.117 498.69 418.117Z" fill="white"/>
    </g>
    <path d="M496.772 432.893C496.772 432.893 494.646 417.089 487.293 422.44C479.94 427.792 496.772 432.893 496.772 432.893Z" fill="#FF7700"/>
    <path d="M492.171 447.349C496.916 438.979 499.532 429.57 499.788 419.952C499.886 401.104 485.027 392.013 467.902 389.539C466.512 389.344 466.512 391.485 467.902 391.679C476.992 392.986 486.792 395.849 492.658 403.467C496.828 408.915 498.079 415.879 497.592 422.621C496.901 430.922 494.441 438.979 490.378 446.251C489.711 447.446 491.532 448.572 492.213 447.363L492.171 447.349Z" fill="#FF7700"/>
    <g opacity="0.3">
        <path d="M492.171 447.349C496.916 438.979 499.532 429.57 499.788 419.952C499.886 401.104 485.027 392.013 467.902 389.539C466.512 389.344 466.512 391.485 467.902 391.679C476.992 392.986 486.792 395.849 492.658 403.467C496.828 408.915 498.079 415.879 497.592 422.621C496.901 430.922 494.441 438.979 490.378 446.251C489.711 447.446 491.532 448.572 492.213 447.363L492.171 447.349Z" fill="black"/>
    </g>
    <path d="M535.428 443.443L530.048 484.017C529.712 486.54 528.471 488.855 526.556 490.532C524.641 492.209 522.183 493.134 519.637 493.136H486.18C483.635 493.134 481.176 492.209 479.261 490.532C477.347 488.855 476.106 486.54 475.769 484.017L470.39 443.443H535.428Z" fill="#FF7700"/>
    <path opacity="0.3" d="M535.428 443.443L530.048 484.017C529.712 486.54 528.471 488.855 526.556 490.532C524.641 492.209 522.183 493.134 519.637 493.136H486.18C483.635 493.134 481.176 492.209 479.261 490.532C477.347 488.855 476.106 486.54 475.769 484.017L470.39 443.443H535.428Z" fill="white"/>
    <path d="M233.339 365.506H224.207V425.526H233.339V365.506Z" fill="#263238"/>
    <path opacity="0.5" d="M233.339 365.506H224.207V425.526H233.339V365.506Z" fill="white"/>
    <path d="M256.525 470.478L235.133 466.614V423.663C235.135 423.347 235.074 423.033 234.954 422.741C234.834 422.448 234.656 422.182 234.433 421.959C234.209 421.735 233.943 421.558 233.651 421.438C233.358 421.318 233.045 421.257 232.728 421.259H224.819C224.502 421.257 224.188 421.318 223.895 421.438C223.601 421.558 223.335 421.735 223.11 421.958C222.885 422.181 222.707 422.447 222.585 422.74C222.463 423.032 222.401 423.346 222.401 423.663V466.614L201.022 470.478C199.522 470.746 198.163 471.534 197.184 472.703C196.206 473.872 195.67 475.348 195.671 476.872L228.767 473.884L261.877 476.872C261.875 475.349 261.338 473.874 260.36 472.705C259.382 471.537 258.025 470.749 256.525 470.478Z" fill="#263238"/>
    <path d="M202.621 483.364C202.621 484.738 202.213 486.082 201.449 487.225C200.686 488.368 199.6 489.259 198.33 489.785C197.06 490.311 195.663 490.448 194.315 490.18C192.967 489.912 191.728 489.25 190.756 488.278C189.784 487.306 189.122 486.068 188.854 484.72C188.586 483.371 188.724 481.974 189.25 480.704C189.776 479.434 190.667 478.349 191.809 477.585C192.952 476.821 194.296 476.414 195.671 476.414C197.514 476.414 199.282 477.146 200.585 478.449C201.888 479.753 202.621 481.521 202.621 483.364V483.364Z" fill="#FF7700"/>
    <path d="M268.826 483.364C268.826 484.738 268.418 486.082 267.654 487.225C266.891 488.368 265.805 489.259 264.535 489.785C263.265 490.311 261.868 490.448 260.52 490.18C259.172 489.912 257.933 489.25 256.961 488.278C255.989 487.306 255.327 486.068 255.059 484.72C254.791 483.371 254.929 481.974 255.455 480.704C255.981 479.434 256.872 478.349 258.015 477.585C259.157 476.821 260.501 476.414 261.876 476.414C262.788 476.414 263.692 476.594 264.535 476.943C265.379 477.292 266.145 477.804 266.79 478.449C267.436 479.095 267.947 479.861 268.297 480.704C268.646 481.547 268.826 482.451 268.826 483.364V483.364Z" fill="#FF7700"/>
    <path d="M234.202 483.364C234.202 487.2 232.617 490.314 228.767 490.314C224.916 490.314 223.346 487.2 223.346 483.364C223.346 479.527 224.93 476.414 228.767 476.414C232.603 476.414 234.202 479.527 234.202 483.364Z" fill="#FF7700"/>
    <g opacity="0.5">
        <path d="M235.341 466.642V474.482L237.926 474.718V467.115L235.341 466.642Z" fill="black"/>
        <path d="M219.676 467.101V474.704L222.261 474.482V466.642L219.676 467.101Z" fill="black"/>
    </g>
    <path d="M169.149 310.837C168.573 310.838 168.004 310.965 167.483 311.21C166.961 311.455 166.5 311.811 166.131 312.254C165.762 312.697 165.496 313.215 165.349 313.773C165.203 314.33 165.181 314.913 165.285 315.48L173.764 361.169C174.147 363.245 175.246 365.121 176.868 366.472C178.491 367.823 180.535 368.563 182.646 368.564H316.267C317.055 368.564 317.835 368.408 318.563 368.106C319.29 367.804 319.952 367.362 320.508 366.804C321.065 366.246 321.506 365.584 321.806 364.856C322.106 364.127 322.26 363.347 322.258 362.559C322.258 360.299 321.36 358.132 319.762 356.534C318.164 354.936 315.997 354.038 313.737 354.038H237.496C235.475 354.039 233.512 353.363 231.92 352.119C230.328 350.874 229.198 349.133 228.711 347.172L221.886 319.622C221.265 317.115 219.824 314.889 217.791 313.297C215.758 311.705 213.251 310.839 210.669 310.837H169.149Z" fill="#263238"/>
    <path d="M187.192 347.172L180.367 319.622C179.746 317.115 178.304 314.889 176.271 313.297C174.239 311.705 171.731 310.839 169.149 310.837V310.837C168.573 310.838 168.004 310.965 167.483 311.21C166.961 311.455 166.5 311.811 166.131 312.254C165.762 312.697 165.496 313.215 165.349 313.773C165.203 314.33 165.181 314.913 165.285 315.48L173.764 361.169C174.147 363.245 175.246 365.121 176.868 366.472C178.491 367.823 180.535 368.563 182.646 368.564H274.734C275.523 368.566 276.304 368.411 277.034 368.11C277.763 367.809 278.426 367.367 278.984 366.809C279.542 366.251 279.984 365.588 280.285 364.859C280.586 364.13 280.74 363.348 280.739 362.559V362.559C280.735 360.3 279.836 358.135 278.239 356.538C276.642 354.941 274.476 354.042 272.218 354.038H195.99C193.966 354.044 191.999 353.371 190.404 352.126C188.808 350.881 187.677 349.136 187.192 347.172V347.172Z" fill="#263238"/>
    <path opacity="0.2" d="M187.192 347.172L180.367 319.622C179.746 317.115 178.304 314.889 176.271 313.297C174.239 311.705 171.731 310.839 169.149 310.837V310.837C168.573 310.838 168.004 310.965 167.483 311.21C166.961 311.455 166.5 311.811 166.131 312.254C165.762 312.697 165.496 313.215 165.349 313.773C165.203 314.33 165.181 314.913 165.285 315.48L173.764 361.169C174.147 363.245 175.246 365.121 176.868 366.472C178.491 367.823 180.535 368.563 182.646 368.564H274.734C275.523 368.566 276.304 368.411 277.034 368.11C277.763 367.809 278.426 367.367 278.984 366.809C279.542 366.251 279.984 365.588 280.285 364.859C280.586 364.13 280.74 363.348 280.739 362.559V362.559C280.735 360.3 279.836 358.135 278.239 356.538C276.642 354.941 274.476 354.042 272.218 354.038H195.99C193.966 354.044 191.999 353.371 190.404 352.126C188.808 350.881 187.677 349.136 187.192 347.172V347.172Z" fill="white"/>
    <path d="M243.64 180.107C243.64 180.107 258.846 184.639 251.743 195.884L245.141 186.265L243.64 180.107Z" fill="#263238"/>
    <path d="M298.419 238.07L305.049 228.34L311.61 230.425L312.805 233.066L304.632 244.756L298.419 238.07Z" fill="#DBB178"/>
    <path d="M308.246 240.614C301.602 251.039 291.121 266.246 287.118 265.342C275.359 262.715 259.193 251.581 250.895 239.349C249.642 237.504 249.129 235.255 249.456 233.049C249.782 230.843 250.926 228.84 252.66 227.437V227.354C253.565 226.615 254.607 226.062 255.726 225.726C256.844 225.391 258.018 225.279 259.18 225.398C260.343 225.517 261.47 225.864 262.497 226.419C263.525 226.974 264.434 227.726 265.17 228.632C265.323 228.813 265.462 229.008 265.601 229.202C272.954 239.752 282.281 249.76 283.81 250.608C285.603 251.637 290.26 247.231 300.115 234.776L308.246 240.614Z" fill="#FF7700"/>
    <path opacity="0.6" d="M308.246 240.614C301.602 251.039 291.121 266.246 287.118 265.342C275.359 262.715 259.193 251.581 250.895 239.349C249.642 237.504 249.129 235.255 249.456 233.049C249.782 230.843 250.926 228.84 252.66 227.437V227.354C253.565 226.615 254.607 226.062 255.726 225.726C256.844 225.391 258.018 225.279 259.18 225.398C260.343 225.517 261.47 225.864 262.497 226.419C263.525 226.974 264.434 227.726 265.17 228.632C265.323 228.813 265.462 229.008 265.601 229.202C272.954 239.752 282.281 249.76 283.81 250.608C285.603 251.637 290.26 247.231 300.115 234.776L308.246 240.614Z" fill="white"/>
    <path d="M308.4 232.205L321.535 234.776L315.419 223.767C315.419 223.767 307.468 223.767 305.05 228.34L308.4 232.205Z" fill="#DBB178"/>
    <path opacity="0.2" d="M270.355 257.739C260.833 251.234 259.568 235.972 259.568 235.972L254.175 233.511L251.59 240.378C256.756 247.241 263.112 253.121 270.355 257.739V257.739Z" fill="black"/>
    <path d="M330.82 230.064L325.204 221.112L315.433 223.767L321.535 234.776L330.82 230.064Z" fill="#DBB178"/>
    <path d="M257.873 291.155L211.28 294.213C211.28 294.213 210.947 281.703 209.32 270.179C208.816 266.169 208.017 262.202 206.929 258.309C205.72 254.333 204.149 249.872 202.342 244.687C202.106 244.047 201.87 243.408 201.606 242.741C200.994 241.128 200.369 239.447 199.66 237.695V237.612C199.03 235.9 199.098 234.01 199.85 232.348C200.601 230.687 201.976 229.387 203.677 228.73C203.997 228.605 204.327 228.507 204.664 228.438C207.624 227.812 210.613 227.242 213.643 226.77L216.256 226.381C223.233 225.341 230.265 224.71 237.315 224.49C240.971 224.49 244.876 224.601 248.212 224.754L250.992 224.893C254.523 225.102 256.969 225.324 256.969 225.324C256.969 225.324 258.498 225.63 259.402 233.817C259.422 234.283 259.469 234.747 259.541 235.207C259.652 236.903 259.749 239.043 259.791 241.615C259.93 252.123 259.305 269.763 257.873 291.155Z" fill="#FF7700"/>
    <path opacity="0.6" d="M257.873 291.155L211.28 294.213C211.28 294.213 210.947 281.703 209.32 270.179C208.816 266.169 208.017 262.202 206.929 258.309C205.72 254.333 204.149 249.872 202.342 244.687C202.106 244.047 201.87 243.408 201.606 242.741C200.994 241.128 200.369 239.447 199.66 237.695V237.612C199.03 235.9 199.098 234.01 199.85 232.348C200.601 230.687 201.976 229.387 203.677 228.73C203.997 228.605 204.327 228.507 204.664 228.438C207.624 227.812 210.613 227.242 213.643 226.77L216.256 226.381C223.233 225.341 230.265 224.71 237.315 224.49C240.971 224.49 244.876 224.601 248.212 224.754L250.992 224.893C254.523 225.102 256.969 225.324 256.969 225.324C256.969 225.324 258.498 225.63 259.402 233.817C259.422 234.283 259.469 234.747 259.541 235.207C259.652 236.903 259.749 239.043 259.791 241.615C259.93 252.123 259.305 269.763 257.873 291.155Z" fill="white"/>
    <path d="M217.883 226.158L229.503 241.643L237.843 234.498L248.685 239.725L242.819 224.56C241.012 224.56 239.15 224.56 237.357 224.56C230.841 224.736 224.34 225.27 217.883 226.158V226.158Z" fill="#FF7700"/>
    <path opacity="0.9" d="M217.883 226.158L229.503 241.643L237.843 234.498L248.685 239.725L242.819 224.56C241.012 224.56 239.15 224.56 237.357 224.56C230.841 224.736 224.34 225.27 217.883 226.158V226.158Z" fill="white"/>
    <path d="M320.729 478.012H310.818L315.336 403.202H333.878L320.729 478.012Z" fill="#DBB178"/>
    <path d="M309.72 477.067C309.608 476.122 321.437 475.232 321.437 475.232C321.437 475.232 329.666 481.571 336.894 482.182C344.122 482.794 340.8 487.589 332.974 488.674L313.612 491.454C308.052 492.274 310.859 486.95 309.72 477.067Z" fill="#263238"/>
    <path d="M327.373 477.47C325.864 477.382 324.374 477.097 322.939 476.622C322.881 476.609 322.828 476.58 322.786 476.539C322.758 476.444 322.758 476.342 322.786 476.247C322.786 476.122 323.439 473.189 324.954 472.327C325.181 472.189 325.435 472.101 325.699 472.07C325.963 472.039 326.23 472.065 326.483 472.147C327.22 472.369 327.414 472.786 327.428 473.078C327.428 473.675 326.858 474.343 326.038 474.954C326.829 474.732 327.666 474.732 328.457 474.954C328.629 475.019 328.786 475.118 328.92 475.245C329.054 475.371 329.161 475.523 329.235 475.691C329.351 475.91 329.401 476.158 329.379 476.405C329.357 476.651 329.264 476.886 329.11 477.081C328.605 477.434 327.981 477.573 327.373 477.47V477.47ZM324.19 476.219C325.969 476.678 328.054 476.984 328.513 476.483C328.624 476.386 328.596 476.178 328.513 475.927C328.479 475.846 328.428 475.772 328.363 475.712C328.298 475.652 328.221 475.607 328.137 475.58C326.788 475.42 325.42 475.641 324.19 476.219V476.219ZM325.802 472.744C325.596 472.744 325.393 472.802 325.218 472.911C324.427 473.6 323.868 474.518 323.62 475.538C325.149 474.662 326.678 473.564 326.678 473.092C326.678 473.008 326.511 472.897 326.247 472.8C326.102 472.76 325.952 472.741 325.802 472.744V472.744Z" fill="#FF7700"/>
    <path opacity="0.2" d="M314.543 416.282L331.487 416.797L333.878 403.202H315.335L314.543 416.282Z" fill="black"/>
    <path d="M273.163 479.277L263.669 478.012L278.695 395.182L297.432 400.534L273.163 479.277Z" fill="#DBB178"/>
    <path d="M262.432 476.692C262.432 475.719 274.275 476.692 274.275 476.692C274.275 476.692 281.461 484.184 288.508 485.866C295.556 487.548 291.566 491.815 283.671 491.704L264.1 491.467C258.443 491.412 262.057 486.672 262.432 476.692Z" fill="#263238"/>
    <path d="M280.503 479.778C278.771 479.564 277.091 479.046 275.54 478.249L275.443 478.165C275.436 478.15 275.433 478.133 275.433 478.117C275.433 478.1 275.436 478.083 275.443 478.068C275.422 478.025 275.411 477.977 275.411 477.929C275.411 477.881 275.422 477.833 275.443 477.79C275.443 477.679 276.527 474.899 278.223 474.245C278.463 474.135 278.724 474.079 278.987 474.079C279.251 474.079 279.512 474.135 279.752 474.245C280.447 474.593 280.572 475.01 280.544 475.302C280.544 475.899 279.794 476.469 278.918 476.942C279.734 476.842 280.562 476.972 281.309 477.317C281.469 477.402 281.609 477.521 281.719 477.665C281.829 477.809 281.908 477.975 281.948 478.151C282.037 478.378 282.054 478.626 281.997 478.862C281.94 479.098 281.811 479.311 281.628 479.472C281.302 479.706 280.902 479.814 280.503 479.778V479.778ZM276.791 477.998C278.487 478.721 280.503 479.388 280.961 478.916C281.072 478.832 281.1 478.638 280.961 478.36C280.94 478.277 280.902 478.2 280.849 478.133C280.797 478.066 280.731 478.011 280.655 477.971C279.387 477.642 278.055 477.651 276.791 477.998V477.998ZM278.737 474.801C278.584 474.807 278.434 474.84 278.292 474.899C277.417 475.453 276.733 476.264 276.333 477.22C278.028 476.594 279.627 475.691 279.655 475.246C279.655 475.163 279.516 475.024 279.279 474.913C279.131 474.838 278.971 474.791 278.807 474.774L278.737 474.801Z" fill="#FF7700"/>
    <path opacity="0.2" d="M297.432 400.534L278.695 395.182L275.734 411.515L293.082 414.642L297.432 400.534Z" fill="black"/>
    <path d="M310.429 409.624L334.268 410.875C340.37 382.769 346.458 351.786 345.249 344.989C342.955 331.965 325.26 318.704 256.567 307.459L224.597 355.498C224.597 355.498 271.356 353.315 313.974 353.315C313.96 353.343 311.583 380.087 310.429 409.624Z" fill="#FF7700"/>
    <path opacity="0.1" d="M310.429 409.624L334.268 410.875C340.37 382.769 346.458 351.786 345.249 344.989C342.955 331.965 325.26 318.704 256.567 307.459L224.597 355.498C224.597 355.498 271.356 353.315 313.974 353.315C313.96 353.343 311.583 380.087 310.429 409.624Z" fill="black"/>
    <path d="M308.83 405.885L309.539 412.126L335.657 413.016L336.936 407.275L308.83 405.885Z" fill="#FF7700"/>
    <path d="M241.346 224.532H237.315C231.533 224.713 225.764 225.185 220.023 225.922C222.525 228.91 230.323 233.567 235.55 233.567C242.847 233.511 241.221 228.09 241.346 224.532Z" fill="#DBB178"/>
    <path d="M273.371 404.787L297.738 408.749C307.635 381.046 317.531 351.564 317.365 344.92C317.031 331.687 314.126 324.82 266.268 314.145C266.268 314.145 263.725 310.434 257.928 291.21L211.28 294.268C211.28 294.268 189.999 333.466 206.47 350.202C210.112 353.927 217.271 355.595 224.54 355.526C224.54 355.526 241.359 355.609 282.92 353.663C282.934 353.663 278 377.376 273.371 404.787Z" fill="#FF7700"/>
    <path d="M272.399 400.534L300.629 405.301L297.947 411.237L272.273 407.025L272.399 400.534Z" fill="#FF7700"/>
    <path opacity="0.1" d="M308.83 405.885L309.539 412.126L335.657 413.016L336.936 407.275L308.83 405.885Z" fill="black"/>
    <path d="M237.815 220.515C237.279 223.947 237.421 227.451 238.232 230.829L225.458 228.952C225.183 228.911 224.921 228.808 224.692 228.649C224.464 228.491 224.275 228.282 224.14 228.038C224.006 227.795 223.929 227.524 223.917 227.246C223.904 226.968 223.956 226.691 224.068 226.436C225.82 222.461 226.515 214.454 226.946 210.771C227.182 208.547 227.279 206.517 227.293 205.1C227.307 203.682 227.293 203.154 227.293 203.154L233.006 205.767L242.333 210.034C240.183 213.213 238.65 216.769 237.815 220.515V220.515Z" fill="#DBB178"/>
    <path opacity="0.2" d="M242.361 210.034C240.19 213.21 238.634 216.765 237.774 220.515C233.113 218.666 229.264 215.216 226.918 210.785C227.168 208.561 227.265 206.531 227.279 205.114C229.309 205.322 231.199 205.531 233.006 205.781L242.361 210.034Z" fill="black"/>
    <path d="M243.042 200.916C242.667 205.183 244.849 208.63 247.907 208.63C250.965 208.63 253.759 205.183 254.134 200.916C254.509 196.648 252.327 193.187 249.269 193.187C246.211 193.187 243.417 196.648 243.042 200.916Z" fill="#FF7700"/>
    <path opacity="0.5" d="M242.5 200.916C242.125 205.183 244.307 208.63 247.365 208.63C250.423 208.63 253.203 205.183 253.578 200.916C253.954 196.648 251.771 193.187 248.713 193.187C245.655 193.187 242.861 196.648 242.5 200.916Z" fill="black"/>
    <path d="M221.108 193.41C223.387 203.863 224.18 210.09 230.351 214.858C232.341 216.438 234.726 217.442 237.246 217.762C239.767 218.082 242.327 217.705 244.648 216.672C246.969 215.639 248.963 213.989 250.412 211.902C251.862 209.816 252.712 207.371 252.869 204.836C253.689 195.106 249.825 179.635 238.816 176.674C236.45 175.968 233.94 175.897 231.537 176.468C229.135 177.04 226.925 178.233 225.13 179.93C223.336 181.626 222.019 183.764 221.313 186.131C220.607 188.497 220.536 191.007 221.108 193.41V193.41Z" fill="#DBB178"/>
    <path d="M218.689 204.321C220.382 206.365 222.729 207.759 225.333 208.269C228.627 208.825 229.378 205.781 227.696 202.82C226.195 200.165 222.65 196.676 219.704 197.455C216.757 198.233 216.562 201.75 218.689 204.321Z" fill="#DBB178"/>
    <path d="M237.607 194.438C237.746 195.3 238.302 195.94 238.872 195.828C239.442 195.717 239.776 195.008 239.651 194.16C239.525 193.312 238.956 192.659 238.386 192.77C237.816 192.882 237.482 193.577 237.607 194.438Z" fill="#263238"/>
    <path d="M247.421 193.285C247.546 194.146 248.116 194.786 248.672 194.675C249.228 194.563 249.589 193.855 249.464 192.993C249.339 192.131 248.755 191.506 248.199 191.603C247.643 191.7 247.212 192.423 247.421 193.285Z" fill="#263238"/>
    <path d="M244.32 194.077C245.759 196.581 247.521 198.885 249.561 200.93C249.029 201.419 248.395 201.785 247.706 202.001C247.016 202.218 246.287 202.279 245.571 202.181L244.32 194.077Z" fill="#C0854B"/>
    <path d="M234.118 191.672C234.035 191.691 233.95 191.691 233.867 191.672C233.808 191.64 233.756 191.597 233.713 191.544C233.671 191.492 233.64 191.431 233.622 191.366C233.604 191.301 233.599 191.233 233.608 191.167C233.616 191.1 233.639 191.035 233.673 190.977C234.047 190.268 234.59 189.662 235.254 189.214C235.919 188.765 236.684 188.487 237.481 188.406C237.548 188.4 237.614 188.408 237.677 188.429C237.74 188.45 237.798 188.484 237.848 188.528C237.897 188.572 237.937 188.626 237.965 188.686C237.993 188.747 238.008 188.812 238.01 188.878C238.015 188.945 238.007 189.013 237.987 189.076C237.966 189.14 237.932 189.199 237.888 189.25C237.844 189.3 237.79 189.341 237.73 189.371C237.67 189.4 237.604 189.417 237.537 189.42C236.91 189.491 236.31 189.716 235.791 190.075C235.272 190.434 234.85 190.916 234.562 191.478C234.51 191.544 234.442 191.597 234.364 191.631C234.287 191.665 234.202 191.679 234.118 191.672V191.672Z" fill="#263238"/>
    <path d="M251.02 189.49C250.937 189.493 250.855 189.474 250.782 189.435C250.709 189.396 250.647 189.338 250.603 189.268C250.25 188.718 249.776 188.257 249.217 187.92C248.658 187.582 248.029 187.378 247.378 187.322C247.258 187.302 247.149 187.24 247.07 187.147C246.991 187.054 246.948 186.936 246.948 186.814C246.948 186.692 246.991 186.575 247.07 186.482C247.149 186.389 247.258 186.327 247.378 186.307V186.307C248.194 186.361 248.987 186.605 249.691 187.021C250.396 187.436 250.994 188.01 251.437 188.698C251.513 188.809 251.543 188.945 251.519 189.078C251.496 189.21 251.421 189.328 251.312 189.407C251.224 189.46 251.123 189.488 251.02 189.49V189.49Z" fill="#263238"/>
    <path d="M223.151 207.157C223.151 207.157 229.795 200.36 226.542 183.68C226.542 183.68 231.894 188.225 244.32 184.861C244.32 184.861 236.967 185.584 233.603 182.081C233.603 182.081 240.456 185.264 251.534 182.081C251.534 182.081 249.561 170.864 237.634 170.294C237.634 170.294 241.485 167.055 245.196 167.681C245.196 167.681 241.401 164.414 231.769 170.767L227.96 172.323C227.96 172.323 217.229 168.459 211.28 177.55C206.54 184.736 208.917 207.365 223.151 207.157Z" fill="#263238"/>
    <path d="M247.517 204.085C247.517 204.085 244.154 203.237 234.674 203.029C235.73 205.906 237.746 208.283 242.611 208.338C243.217 208.406 243.831 208.347 244.413 208.166C244.995 207.985 245.534 207.685 245.995 207.285C246.456 206.886 246.829 206.395 247.091 205.844C247.353 205.294 247.498 204.695 247.517 204.085Z" fill="#263238"/>
    <path d="M240.471 206.045C242.339 205.977 244.182 206.497 245.739 207.532C244.829 208.114 243.758 208.392 242.681 208.324C240.82 208.402 238.983 207.881 237.44 206.837C238.342 206.261 239.402 205.984 240.471 206.045V206.045Z" fill="#A02724"/>
    <path d="M247.087 204.002C246.988 204.351 246.794 204.666 246.526 204.911C246.259 205.157 245.928 205.323 245.572 205.392C242.772 205.327 239.982 205.029 237.232 204.502C236.792 204.463 236.369 204.316 236 204.073C235.632 203.831 235.329 203.5 235.119 203.112C239.125 203.099 243.127 203.396 247.087 204.002V204.002Z" fill="white"/>
    <path d="M217.994 197.01V185.793C217.993 182.473 219.064 179.241 221.048 176.579C223.031 173.917 225.822 171.966 229.003 171.017L232.756 170.35C229.494 171.323 226.633 173.323 224.599 176.053C222.566 178.783 221.468 182.097 221.469 185.501V197.01H217.994Z" fill="#FF7700"/>
    <path d="M226.709 202.445C227.085 206.712 224.902 210.159 221.844 210.159C218.786 210.159 215.993 206.712 215.631 202.445C215.27 198.177 217.438 194.716 220.496 194.716C223.554 194.716 226.334 198.177 226.709 202.445Z" fill="#FF7700"/>
    <path opacity="0.5" d="M226.709 202.445C227.085 206.712 224.902 210.159 221.844 210.159C218.786 210.159 215.993 206.712 215.631 202.445C215.27 198.177 217.438 194.716 220.496 194.716C223.554 194.716 226.334 198.177 226.709 202.445Z" fill="black"/>
    <path d="M224.861 202.445C225.222 206.712 223.054 210.159 219.982 210.159C216.91 210.159 214.144 206.712 213.769 202.445C213.393 198.177 215.576 194.716 218.634 194.716C221.692 194.716 224.485 198.177 224.861 202.445Z" fill="#FF7700"/>
    <path opacity="0.3" d="M221.01 203.571L220.76 201.319H221.19C220.634 199.109 219.078 197.455 217.368 197.455C215.658 197.455 214.407 199.109 214.227 201.319H214.518L214.769 203.571H214.435C214.991 205.781 216.548 207.421 218.244 207.421C219.939 207.421 221.218 205.781 221.385 203.571H221.01Z" fill="white"/>
    <path d="M201.036 203.39L207.11 191.436L212.017 203.029C212.017 203.029 207.097 209.284 202.023 208.38L201.036 203.39Z" fill="#DBB178"/>
    <path d="M216.548 187.03L220.121 196.968L212.003 203.029L207.11 191.436L216.548 187.03Z" fill="#DBB178"/>
    <path d="M202.634 216.261L208.472 206.434L207.861 202.431L202.718 200.61L195.393 212.008L202.634 216.261Z" fill="#DBB178"/>
    <path d="M206.846 210.145L196.185 233.609C196.185 233.609 201.37 228.952 204.233 228.285C208.792 227.215 222.553 231.371 208.611 246.508C208.611 246.508 181.006 263.758 175.377 257.072C170.998 251.873 189.596 220.278 198.117 206.434L206.846 210.145Z" fill="#FF7700"/>
    <path opacity="0.6" d="M206.846 210.145L196.185 233.609C196.185 233.609 201.37 228.952 204.233 228.285C208.792 227.215 222.553 231.371 208.611 246.508C208.611 246.508 181.006 263.758 175.377 257.072C170.998 251.873 189.596 220.278 198.117 206.434L206.846 210.145Z" fill="white"/>
    <path opacity="0.2" d="M196.185 233.609L193.21 242.769L201.939 229.341C199.903 230.598 197.978 232.025 196.185 233.609V233.609Z" fill="black"/>
    <path d="M236.119 212.8C234.952 212.83 233.785 212.756 232.63 212.578C229.656 211.508 226.777 210.188 224.026 208.63L224.582 207.63C227.254 209.128 230.043 210.407 232.922 211.452C235.883 211.697 238.858 211.697 241.818 211.452L241.902 212.606C241.679 212.606 238.76 212.8 236.119 212.8Z" fill="#FF7700"/>
    <path d="M237.37 213.037L242.93 212.62C242.93 212.62 242.777 210.896 240.15 210.965C237.523 211.035 237.37 213.037 237.37 213.037Z" fill="#FF7700"/>
    <g opacity="0.5">
        <path d="M236.119 212.8C234.952 212.83 233.785 212.756 232.63 212.578C229.656 211.508 226.777 210.188 224.026 208.63L224.582 207.63C227.254 209.128 230.043 210.407 232.922 211.452C235.883 211.697 238.858 211.697 241.818 211.452L241.902 212.606C241.679 212.606 238.76 212.8 236.119 212.8Z" fill="black"/>
        <path d="M237.37 213.037L242.93 212.62C242.93 212.62 242.777 210.896 240.15 210.966C237.523 211.035 237.37 213.037 237.37 213.037Z" fill="black"/>
    </g>
    <path d="M458.783 491.871C458.491 491.882 458.2 491.835 457.926 491.734C457.652 491.632 457.4 491.477 457.186 491.279C456.972 491.08 456.799 490.841 456.677 490.575C456.555 490.309 456.487 490.022 456.476 489.73L442.576 328.796C442.552 327.408 442.009 326.079 441.055 325.071C440.101 324.062 438.804 323.447 437.419 323.347H371.756C370.371 323.447 369.074 324.062 368.12 325.071C367.165 326.079 366.623 327.408 366.599 328.796L352.699 489.73C352.697 490.028 352.635 490.323 352.518 490.597C352.4 490.87 352.228 491.118 352.013 491.324C351.798 491.53 351.543 491.691 351.265 491.797C350.986 491.902 350.689 491.951 350.391 491.94V491.94C349.791 491.819 349.26 491.471 348.908 490.969C348.556 490.467 348.41 489.85 348.501 489.243L362.401 328.295C362.887 322.666 366.904 318.426 371.756 318.426H437.419C442.27 318.426 446.287 322.666 446.774 328.295L460.674 489.243C460.764 489.85 460.619 490.467 460.267 490.969C459.915 491.471 459.384 491.819 458.783 491.94V491.871Z" fill="#FF7700"/>
    <g opacity="0.4">
        <path d="M458.783 491.871C458.491 491.882 458.2 491.835 457.926 491.734C457.652 491.632 457.4 491.477 457.186 491.279C456.972 491.08 456.799 490.841 456.677 490.575C456.555 490.309 456.487 490.022 456.476 489.73L442.576 328.796C442.552 327.408 442.009 326.079 441.055 325.071C440.101 324.062 438.804 323.447 437.419 323.347H371.756C370.371 323.447 369.074 324.062 368.12 325.071C367.165 326.079 366.623 327.408 366.599 328.796L352.699 489.73C352.697 490.028 352.635 490.323 352.518 490.597C352.4 490.87 352.228 491.118 352.013 491.324C351.798 491.53 351.543 491.691 351.265 491.797C350.986 491.902 350.689 491.951 350.391 491.94V491.94C349.791 491.819 349.26 491.471 348.908 490.969C348.556 490.467 348.41 489.85 348.501 489.243L362.401 328.295C362.887 322.666 366.904 318.426 371.756 318.426H437.419C442.27 318.426 446.287 322.666 446.774 328.295L460.674 489.243C460.764 489.85 460.619 490.467 460.267 490.969C459.915 491.471 459.384 491.819 458.783 491.94V491.871Z" fill="black"/>
    </g>
    <path d="M457.866 311.462H279.376C277.818 311.462 276.555 312.726 276.555 314.284V323.43C276.555 324.989 277.818 326.252 279.376 326.252H457.866C459.425 326.252 460.688 324.989 460.688 323.43V314.284C460.688 312.726 459.425 311.462 457.866 311.462Z" fill="#263238"/>
    <path opacity="0.2" d="M379.888 311.462H457.867C458.604 311.462 459.311 311.755 459.832 312.277C460.354 312.798 460.647 313.505 460.647 314.242V323.389C460.647 324.126 460.354 324.833 459.832 325.354C459.311 325.876 458.604 326.169 457.867 326.169H379.888V311.462Z" fill="white"/>
    <path d="M386.865 491.871C386.566 491.884 386.268 491.836 385.988 491.731C385.707 491.626 385.451 491.466 385.234 491.259C385.018 491.053 384.845 490.805 384.726 490.53C384.608 490.256 384.546 489.96 384.544 489.66L370.644 328.726C370.62 327.338 370.077 326.009 369.123 325.001C368.169 323.993 366.872 323.378 365.487 323.277H299.824C298.441 323.381 297.148 323.998 296.196 325.005C295.245 326.013 294.704 327.34 294.681 328.726L280.781 489.73C280.779 490.028 280.717 490.323 280.6 490.596C280.482 490.87 280.31 491.118 280.095 491.324C279.88 491.53 279.625 491.691 279.347 491.797C279.068 491.902 278.771 491.951 278.473 491.94V491.94C277.864 491.812 277.328 491.452 276.98 490.935C276.632 490.419 276.5 489.787 276.611 489.174L290.511 328.226C290.997 322.596 295.028 318.357 299.865 318.357H365.529C370.38 318.357 374.397 322.596 374.884 328.226L388.784 489.174C388.875 489.778 388.731 490.394 388.382 490.896C388.033 491.397 387.505 491.746 386.907 491.871H386.865Z" fill="#FF7700"/>
    <g opacity="0.4">
        <path d="M386.865 491.871C386.566 491.884 386.268 491.836 385.988 491.731C385.707 491.626 385.451 491.466 385.234 491.259C385.018 491.053 384.845 490.805 384.726 490.53C384.608 490.256 384.546 489.96 384.544 489.66L370.644 328.726C370.62 327.338 370.077 326.009 369.123 325.001C368.169 323.993 366.872 323.378 365.487 323.277H299.824C298.441 323.381 297.148 323.998 296.196 325.005C295.245 326.013 294.704 327.34 294.681 328.726L280.781 489.73C280.779 490.028 280.717 490.323 280.6 490.596C280.482 490.87 280.31 491.118 280.095 491.324C279.88 491.53 279.625 491.691 279.347 491.797C279.068 491.902 278.771 491.951 278.473 491.94V491.94C277.864 491.812 277.328 491.452 276.98 490.935C276.632 490.419 276.5 489.787 276.611 489.174L290.511 328.226C290.997 322.596 295.028 318.357 299.865 318.357H365.529C370.38 318.357 374.397 322.596 374.884 328.226L388.784 489.174C388.875 489.778 388.731 490.394 388.382 490.896C388.033 491.397 387.505 491.746 386.907 491.871H386.865Z" fill="black"/>
    </g>
    <path d="M335.449 304.179H386.963V309.03C386.963 309.675 386.706 310.294 386.25 310.75C385.794 311.206 385.175 311.463 384.53 311.463H337.882C337.237 311.463 336.618 311.206 336.162 310.75C335.705 310.294 335.449 309.675 335.449 309.03V304.207V304.179Z" fill="#263238"/>
    <path opacity="0.2" d="M335.449 304.179H386.963V309.03C386.963 309.675 386.706 310.294 386.25 310.75C385.794 311.206 385.175 311.463 384.53 311.463H337.882C337.237 311.463 336.618 311.206 336.162 310.75C335.705 310.294 335.449 309.675 335.449 309.03V304.207V304.179Z" fill="white"/>
    <path d="M299.017 304.179H350.53V309.03C350.53 309.675 350.274 310.294 349.818 310.75C349.361 311.206 348.743 311.463 348.097 311.463H301.449C300.804 311.463 300.185 311.206 299.729 310.75C299.273 310.294 299.017 309.675 299.017 309.03V304.207V304.179Z" fill="#263238"/>
    <path opacity="0.6" d="M299.017 304.179H350.53V309.03C350.53 309.675 350.274 310.294 349.818 310.75C349.361 311.206 348.743 311.463 348.097 311.463H301.449C300.804 311.463 300.185 311.206 299.729 310.75C299.273 310.294 299.017 309.675 299.017 309.03V304.207V304.179Z" fill="white"/>
    <path d="M344.568 306.945H339.786V308.669H344.568V306.945Z" fill="#263238"/>
    <path d="M336.909 306.945H332.127V308.669H336.909V306.945Z" fill="#263238"/>
    <path d="M390.59 311.463H393.05C393.724 311.448 394.37 311.199 394.878 310.757C395.386 310.315 395.723 309.709 395.83 309.044L404.17 257.767C404.236 257.36 404.214 256.943 404.105 256.546C403.997 256.148 403.804 255.778 403.541 255.461C403.278 255.144 402.949 254.886 402.579 254.706C402.208 254.526 401.803 254.428 401.39 254.417L361.4 254.347L350.586 311.337H353.046L390.59 311.463Z" fill="#263238"/>
    <path opacity="0.6" d="M390.59 311.463H393.05C393.724 311.448 394.37 311.199 394.878 310.757C395.386 310.315 395.723 309.709 395.83 309.044L404.17 257.767C404.236 257.36 404.214 256.943 404.105 256.546C403.997 256.148 403.804 255.778 403.541 255.461C403.278 255.144 402.949 254.886 402.579 254.706C402.208 254.526 401.803 254.428 401.39 254.417L361.4 254.347L350.586 311.337H353.046L390.59 311.463Z" fill="white"/>
    <path opacity="0.2" d="M351.212 307.751L350.517 311.393H352.977L390.507 311.463H392.967C393.64 311.448 394.287 311.199 394.795 310.757C395.303 310.315 395.64 309.709 395.747 309.044L395.942 307.835L351.212 307.751Z" fill="black"/>
    <path d="M350.572 311.435H353.06C353.733 311.421 354.38 311.171 354.888 310.729C355.396 310.287 355.733 309.681 355.84 309.016L364.18 257.711C364.246 257.305 364.224 256.889 364.115 256.492C364.006 256.095 363.814 255.726 363.55 255.41C363.287 255.094 362.959 254.838 362.588 254.659C362.217 254.481 361.812 254.384 361.4 254.375V254.375L350.572 311.435Z" fill="#263238"/>
    <path opacity="0.3" d="M350.572 311.435H353.06C353.733 311.421 354.38 311.171 354.888 310.729C355.396 310.287 355.733 309.681 355.84 309.016L364.18 257.711C364.246 257.305 364.224 256.889 364.115 256.492C364.006 256.095 363.814 255.726 363.55 255.41C363.287 255.094 362.959 254.838 362.588 254.659C362.217 254.481 361.812 254.384 361.4 254.375V254.375L350.572 311.435Z" fill="white"/>
</svg>
