<svg width="734" height="734" viewBox="0 0 734 734" fill="none" xmlns="http://www.w3.org/2000/svg">
<path d="M660.453 584.983H611.833V585.35H660.453V584.983Z" fill="#EBEBEB"/>
<path d="M486.231 588.976H473.474V589.343H486.231V588.976Z" fill="#EBEBEB"/>
<path d="M610.365 571.36H582.194V571.727H610.365V571.36Z" fill="#EBEBEB"/>
<path d="M140.415 573.827H77.0117V574.194H140.415V573.827Z" fill="#EBEBEB"/>
<path d="M162.787 573.827H153.494V574.194H162.787V573.827Z" fill="#EBEBEB"/>
<path d="M330.52 580.021H192.998V580.388H330.52V580.021Z" fill="#EBEBEB"/>
<path d="M349.971 495.89H66.5004C64.2773 495.89 62.1453 495.007 60.5733 493.435C59.0013 491.863 58.1182 489.731 58.1182 487.508V89.0489C58.1375 86.8385 59.0292 84.7252 60.5991 83.1691C62.169 81.613 64.29 80.7399 66.5004 80.74H349.971C351.072 80.74 352.162 80.9568 353.179 81.3781C354.196 81.7993 355.12 82.4167 355.898 83.1951C356.677 83.9735 357.294 84.8975 357.715 85.9145C358.137 86.9315 358.354 88.0215 358.354 89.1223V487.508C358.354 488.609 358.137 489.699 357.715 490.716C357.294 491.733 356.677 492.657 355.898 493.435C355.12 494.214 354.196 494.831 353.179 495.252C352.162 495.674 351.072 495.89 349.971 495.89ZM66.5004 81.0336C64.3759 81.0375 62.3394 81.8832 60.8371 83.3855C59.3348 84.8878 58.489 86.9243 58.4852 89.0489V487.508C58.489 489.633 59.3348 491.669 60.8371 493.171C62.3394 494.674 64.3759 495.52 66.5004 495.523H349.971C352.096 495.52 354.132 494.674 355.635 493.171C357.137 491.669 357.983 489.633 357.987 487.508V89.0489C357.983 86.9243 357.137 84.8878 355.635 83.3855C354.132 81.8832 352.096 81.0375 349.971 81.0336H66.5004Z" fill="#EBEBEB"/>
<path d="M667.5 495.89H384.029C381.806 495.89 379.674 495.007 378.102 493.435C376.53 491.863 375.646 489.731 375.646 487.508V89.0489C375.666 86.8385 376.557 84.7252 378.127 83.1691C379.697 81.613 381.818 80.7399 384.029 80.74H667.5C669.723 80.74 671.855 81.6231 673.427 83.1951C674.999 84.7671 675.882 86.8992 675.882 89.1223V487.508C675.882 489.731 674.999 491.863 673.427 493.435C671.855 495.007 669.723 495.89 667.5 495.89ZM384.029 81.0336C381.904 81.0375 379.868 81.8832 378.365 83.3855C376.863 84.8878 376.017 86.9243 376.014 89.0489V487.508C376.017 489.633 376.863 491.669 378.365 493.171C379.868 494.674 381.904 495.52 384.029 495.523H667.5C669.624 495.52 671.661 494.674 673.163 493.171C674.665 491.669 675.511 489.633 675.515 487.508V89.0489C675.511 86.9243 674.665 84.8878 673.163 83.3855C671.661 81.8832 669.624 81.0375 667.5 81.0336H384.029Z" fill="#EBEBEB"/>
<path d="M734 561.363H0V561.73H734V561.363Z" fill="#EBEBEB"/>
<path d="M593.674 134.072H554.199C541.681 134.072 531.533 144.22 531.533 156.738V196.213C531.533 208.731 541.681 218.879 554.199 218.879H593.674C606.192 218.879 616.34 208.731 616.34 196.213V156.738C616.34 144.22 606.192 134.072 593.674 134.072Z" fill="#F0F0F0"/>
<path d="M584.484 164.489C584.484 171.712 580.814 177.555 573.592 177.555C566.369 177.555 562.699 171.683 562.699 164.489C562.699 157.296 566.369 151.409 573.592 151.409C580.814 151.409 584.484 157.267 584.484 164.489Z" fill="#FAFAFA"/>
<path d="M573.591 201.527H593.747V189.548C593.747 182.927 584.719 177.555 573.591 177.555C562.464 177.555 553.436 182.927 553.436 189.548V201.527H573.591Z" fill="#FAFAFA"/>
<path d="M222.387 162.508H194.818C186.078 162.508 178.993 169.593 178.993 178.333V205.902C178.993 214.642 186.078 221.727 194.818 221.727H222.387C231.127 221.727 238.212 214.642 238.212 205.902V178.333C238.212 169.593 231.127 162.508 222.387 162.508Z" fill="#E6E6E6"/>
<path d="M207.399 195.317C208.289 194.082 209.318 192.954 210.467 191.956C211.252 191.262 211.978 190.506 212.64 189.695C213.093 189.095 213.335 188.362 213.33 187.61C213.346 187.097 213.234 186.588 213.003 186.129C212.772 185.67 212.43 185.276 212.009 184.983C210.97 184.301 209.741 183.967 208.5 184.028C207.199 183.998 205.912 184.296 204.757 184.895C203.662 185.484 202.718 186.318 201.997 187.331L196.58 184.161C197.841 182.258 199.597 180.735 201.659 179.757C204.039 178.653 206.642 178.115 209.264 178.186C212.178 178.048 215.064 178.812 217.528 180.373C218.517 181.039 219.32 181.944 219.864 183.004C220.409 184.064 220.676 185.245 220.641 186.436C220.665 187.544 220.455 188.644 220.024 189.666C219.668 190.524 219.172 191.318 218.556 192.014C217.969 192.66 217.22 193.394 216.295 194.231C215.41 194.984 214.599 195.819 213.873 196.727C213.352 197.43 213.083 198.289 213.11 199.164H206.342C206.288 197.803 206.657 196.459 207.399 195.317ZM206.68 209.219C206.277 208.846 205.958 208.391 205.745 207.885C205.533 207.379 205.431 206.832 205.447 206.283C205.435 205.751 205.538 205.223 205.748 204.734C205.958 204.245 206.271 203.808 206.665 203.45C207.525 202.711 208.622 202.305 209.755 202.305C210.889 202.305 211.986 202.711 212.846 203.45C213.237 203.809 213.547 204.247 213.755 204.736C213.962 205.225 214.063 205.752 214.049 206.283C214.065 206.832 213.964 207.379 213.751 207.885C213.538 208.391 213.219 208.846 212.816 209.219C211.978 209.985 210.883 210.409 209.748 210.409C208.613 210.409 207.518 209.985 206.68 209.219Z" fill="#FAFAFA"/>
<path d="M589.607 365.224H610.937C614.188 365.224 617.306 366.515 619.605 368.814C621.904 371.113 623.195 374.231 623.195 377.482V398.812C623.195 402.059 621.905 405.173 619.609 407.469C617.313 409.765 614.199 411.055 610.952 411.055H589.607C586.36 411.055 583.246 409.765 580.95 407.469C578.654 405.173 577.364 402.059 577.364 398.812V377.482C577.364 374.234 578.654 371.12 580.95 368.824C583.246 366.528 586.36 365.238 589.607 365.238V365.224Z" fill="#EBEBEB"/>
<path d="M599.326 390.62C600.016 389.665 600.814 388.793 601.704 388.022C602.315 387.483 602.879 386.893 603.392 386.26C603.742 385.801 603.928 385.237 603.92 384.66C603.936 384.263 603.85 383.868 603.67 383.514C603.49 383.159 603.222 382.856 602.893 382.634C602.092 382.099 601.139 381.836 600.177 381.886C599.193 381.856 598.218 382.075 597.341 382.521C596.463 382.968 595.712 383.627 595.157 384.44L590.958 381.988C591.928 380.503 593.289 379.314 594.892 378.553C596.73 377.702 598.739 377.285 600.764 377.335C603.023 377.225 605.259 377.82 607.165 379.038C607.933 379.555 608.556 380.258 608.977 381.083C609.399 381.907 609.603 382.825 609.572 383.75C609.589 384.605 609.429 385.455 609.103 386.245C608.826 386.912 608.439 387.528 607.957 388.066C607.408 388.671 606.825 389.244 606.211 389.783C605.53 390.369 604.902 391.013 604.332 391.706C603.937 392.258 603.732 392.922 603.744 393.6H598.518C598.473 392.547 598.755 391.506 599.326 390.62ZM598.768 401.381C598.462 401.097 598.219 400.751 598.057 400.366C597.895 399.981 597.817 399.567 597.828 399.149C597.819 398.738 597.897 398.329 598.057 397.95C598.216 397.571 598.453 397.229 598.753 396.947C599.42 396.377 600.269 396.064 601.146 396.064C602.023 396.064 602.872 396.377 603.539 396.947C603.841 397.228 604.081 397.569 604.243 397.948C604.405 398.327 604.485 398.737 604.478 399.149C604.487 399.568 604.407 399.983 604.243 400.368C604.078 400.753 603.833 401.098 603.524 401.381C603.21 401.687 602.838 401.926 602.429 402.085C602.021 402.244 601.584 402.319 601.146 402.305C600.708 402.316 600.273 402.239 599.864 402.081C599.456 401.922 599.084 401.684 598.768 401.381Z" fill="#FAFAFA"/>
<path d="M171.918 251.322H144.348C135.609 251.322 128.523 258.407 128.523 267.147V294.716C128.523 303.456 135.609 310.541 144.348 310.541H171.918C180.657 310.541 187.743 303.456 187.743 294.716V267.147C187.743 258.407 180.657 251.322 171.918 251.322Z" fill="#EBEBEB"/>
<path d="M158.133 264.24C156.374 264.24 154.632 264.587 153.006 265.261C151.381 265.934 149.905 266.922 148.661 268.166C147.418 269.411 146.432 270.889 145.76 272.515C145.088 274.141 144.743 275.883 144.745 277.643C144.745 284.983 150.735 302.775 158.133 302.775C165.532 302.775 171.521 285.027 171.521 277.643C171.523 275.883 171.179 274.141 170.507 272.515C169.835 270.889 168.849 269.411 167.605 268.166C166.362 266.922 164.885 265.934 163.26 265.261C161.635 264.587 159.893 264.24 158.133 264.24ZM158.133 281.68C157.335 281.68 156.554 281.443 155.89 280.999C155.227 280.556 154.709 279.925 154.404 279.188C154.098 278.45 154.018 277.638 154.174 276.855C154.33 276.072 154.714 275.353 155.279 274.788C155.843 274.224 156.563 273.839 157.346 273.683C158.129 273.528 158.941 273.608 159.678 273.913C160.416 274.219 161.046 274.736 161.49 275.4C161.934 276.064 162.17 276.844 162.17 277.643C162.155 278.703 161.723 279.715 160.967 280.46C160.212 281.204 159.194 281.621 158.133 281.621V281.68Z" fill="#FAFAFA"/>
<path d="M164.049 361.774C164.48 359.056 164.48 356.286 164.049 353.568L159.924 353.025C159.592 351.509 159.099 350.033 158.456 348.621L161.48 345.758C160.223 343.31 158.594 341.072 156.651 339.123L152.981 341.119C151.846 340.091 150.606 339.186 149.281 338.418L150.045 334.322C147.607 333.068 144.986 332.206 142.279 331.768L140.503 335.511C139.754 335.438 139.035 335.394 138.213 335.394C137.391 335.394 136.657 335.394 135.908 335.511L134.132 331.768C131.41 332.197 128.775 333.054 126.322 334.308L127.085 338.403C125.76 339.171 124.52 340.076 123.386 341.104L119.716 339.108C117.773 341.057 116.143 343.295 114.886 345.743L117.91 348.606C117.267 350.018 116.775 351.494 116.442 353.01L112.332 353.553C111.882 356.27 111.882 359.042 112.332 361.759L116.442 362.302C116.775 363.818 117.267 365.294 117.91 366.706L114.886 369.569C116.141 372.019 117.77 374.258 119.716 376.204L123.386 374.208C124.52 375.236 125.76 376.141 127.085 376.909L126.322 381.005C128.775 382.259 131.41 383.116 134.132 383.544L135.908 379.801C136.657 379.874 137.376 379.918 138.213 379.918C139.049 379.918 139.681 379.918 140.503 379.801L142.279 383.544C145 383.116 147.636 382.259 150.089 381.005L149.325 376.909C150.65 376.141 151.89 375.236 153.025 374.208L156.695 376.204C158.638 374.255 160.267 372.017 161.524 369.569L158.544 366.677C159.186 365.264 159.678 363.788 160.012 362.273L164.049 361.774ZM138.213 366.809C136.403 366.812 134.632 366.278 133.126 365.274C131.62 364.27 130.445 362.842 129.751 361.17C129.057 359.498 128.875 357.658 129.227 355.883C129.58 354.107 130.451 352.477 131.731 351.197C133.011 349.917 134.642 349.045 136.417 348.693C138.193 348.341 140.033 348.523 141.705 349.217C143.376 349.911 144.805 351.085 145.808 352.592C146.812 354.098 147.346 355.868 147.344 357.678C147.34 360.099 146.376 362.419 144.665 364.13C142.953 365.842 140.633 366.805 138.213 366.809Z" fill="#EBEBEB"/>
<path d="M177.29 391.31C177.395 390.63 177.449 389.943 177.451 389.255C177.451 388.567 177.397 387.88 177.29 387.2L175.22 386.935C175.063 386.183 174.827 385.45 174.515 384.748L175.983 383.28C175.355 382.05 174.538 380.925 173.561 379.948L171.726 380.946C171.156 380.435 170.537 379.983 169.877 379.595L170.258 377.555C169.033 376.925 167.715 376.493 166.353 376.278L165.473 378.157C165.091 378.157 164.709 378.157 164.328 378.157C163.946 378.157 163.55 378.157 163.168 378.157L162.287 376.278C160.926 376.493 159.608 376.925 158.382 377.555L158.764 379.595C158.104 379.983 157.484 380.435 156.914 380.946L155.079 379.948C154.102 380.925 153.285 382.05 152.657 383.28L154.125 384.748C153.814 385.45 153.577 386.183 153.42 386.935L151.365 387.2C151.251 387.879 151.197 388.566 151.204 389.255C151.198 389.943 151.252 390.631 151.365 391.31L153.42 391.574C153.577 392.321 153.814 393.05 154.125 393.747L152.657 395.215C153.286 396.44 154.104 397.56 155.079 398.533L156.914 397.534C157.477 398.054 158.097 398.507 158.764 398.885L158.382 400.925C159.608 401.556 160.926 401.987 162.287 402.203L163.168 400.324C163.934 400.402 164.706 400.402 165.473 400.324L166.353 402.203C167.715 401.987 169.033 401.556 170.258 400.925L169.877 398.885C170.543 398.507 171.164 398.054 171.726 397.534L173.561 398.533C174.537 397.56 175.354 396.44 175.983 395.215L174.515 393.747C174.827 393.05 175.063 392.321 175.22 391.574L177.29 391.31ZM164.372 393.82C163.469 393.82 162.586 393.553 161.835 393.051C161.084 392.549 160.499 391.836 160.154 391.002C159.808 390.168 159.718 389.25 159.894 388.364C160.07 387.479 160.505 386.665 161.143 386.027C161.782 385.388 162.595 384.953 163.481 384.777C164.367 384.601 165.285 384.691 166.119 385.037C166.953 385.382 167.666 385.968 168.168 386.718C168.669 387.469 168.937 388.352 168.937 389.255C168.933 390.457 168.457 391.609 167.611 392.463C166.765 393.318 165.618 393.805 164.416 393.82H164.372Z" fill="#E0E0E0"/>
<path d="M630.858 361.686C631.412 361.278 631.937 360.831 632.429 360.35C632.914 359.862 633.361 359.337 633.765 358.779L632.502 357.135C632.92 356.495 633.264 355.811 633.53 355.095H635.615C636.042 353.786 636.26 352.419 636.261 351.043L634.249 350.456C634.22 349.691 634.101 348.932 633.897 348.195L635.615 347.021C635.199 345.708 634.569 344.472 633.75 343.365L631.798 344.055C631.559 343.758 631.304 343.473 631.034 343.204C630.756 342.925 630.477 342.675 630.183 342.426L630.873 340.473C629.757 339.668 628.524 339.04 627.218 338.609L626.043 340.326C625.298 340.136 624.536 340.018 623.768 339.974L623.181 337.978C621.804 337.973 620.436 338.192 619.129 338.624V340.693C618.415 340.97 617.731 341.319 617.088 341.736L615.43 340.473C614.306 341.295 613.315 342.285 612.494 343.409L613.756 345.053C613.342 345.703 612.993 346.391 612.714 347.109H610.644C610.219 348.417 610.001 349.784 609.998 351.16L611.995 351.747C612.038 352.511 612.156 353.268 612.347 354.008L610.629 355.197C611.06 356.504 611.689 357.737 612.494 358.853L614.446 358.148C614.696 358.442 614.945 358.735 615.224 359.014C615.503 359.293 615.782 359.543 616.076 359.777L615.386 361.73C616.493 362.549 617.728 363.179 619.041 363.594L620.215 361.877C620.953 362.081 621.711 362.199 622.476 362.229L623.063 364.24C624.444 364.239 625.816 364.021 627.13 363.594V361.51C627.843 361.238 628.527 360.894 629.17 360.482L630.858 361.686ZM619.951 354.346C619.313 353.707 618.879 352.894 618.703 352.008C618.527 351.123 618.617 350.205 618.963 349.371C619.309 348.537 619.894 347.824 620.645 347.323C621.395 346.821 622.278 346.553 623.181 346.553C624.084 346.553 624.966 346.821 625.717 347.323C626.467 347.824 627.053 348.537 627.398 349.371C627.744 350.205 627.835 351.123 627.659 352.008C627.483 352.894 627.048 353.707 626.41 354.346C625.986 354.771 625.482 355.108 624.928 355.338C624.373 355.567 623.778 355.685 623.178 355.683C622.577 355.682 621.983 355.562 621.429 355.33C620.875 355.098 620.373 354.758 619.951 354.331V354.346Z" fill="#F0F0F0"/>
<path d="M367 622.006C524.197 622.006 651.63 614.566 651.63 605.389C651.63 596.211 524.197 588.771 367 588.771C209.803 588.771 82.3691 596.211 82.3691 605.389C82.3691 614.566 209.803 622.006 367 622.006Z" fill="#F5F5F5"/>
<path d="M419.202 167V144.128L430.447 142.543V165.414L419.202 167Z" fill="#263238"/>
<path d="M381.812 179.742L373.386 166.324L380.564 161.186L388.976 174.589L381.812 179.742Z" fill="#263238"/>
<path d="M460.658 164.504L469.085 148.738L476.248 151.865L467.837 167.646L460.658 164.504Z" fill="#263238"/>
<g opacity="0.5">
<path d="M419.202 167V144.128L430.447 142.543V165.414L419.202 167Z" fill="white"/>
<path d="M381.812 179.742L373.386 166.324L380.564 161.186L388.976 174.589L381.812 179.742Z" fill="white"/>
<path d="M460.658 164.504L469.085 148.738L476.248 151.865L467.837 167.646L460.658 164.504Z" fill="white"/>
</g>
<path d="M432.047 146.227L417.602 148.268C417.077 148.365 416.538 148.343 416.023 148.204C415.508 148.065 415.031 147.812 414.627 147.464C414.223 147.116 413.902 146.682 413.687 146.194C413.473 145.705 413.371 145.175 413.389 144.642C413.422 143.476 413.861 142.359 414.63 141.483C415.399 140.606 416.45 140.026 417.602 139.842L432.047 137.816C432.57 137.719 433.108 137.741 433.622 137.879C434.136 138.018 434.612 138.269 435.016 138.615C435.42 138.962 435.741 139.394 435.956 139.88C436.172 140.367 436.275 140.895 436.26 141.427C436.224 142.592 435.784 143.708 435.015 144.584C434.247 145.459 433.197 146.041 432.047 146.227Z" fill="#263238"/>
<path d="M382.898 160.819L372.196 168.512C371.974 168.698 371.715 168.836 371.437 168.918C371.159 169 370.867 169.024 370.579 168.988C370.291 168.952 370.014 168.857 369.764 168.71C369.515 168.562 369.298 168.365 369.128 168.13C368.846 167.592 368.774 166.968 368.925 166.379C369.077 165.79 369.443 165.279 369.95 164.944L380.667 157.267C380.887 157.079 381.144 156.939 381.421 156.856C381.699 156.773 381.99 156.749 382.277 156.785C382.565 156.821 382.841 156.916 383.09 157.065C383.338 157.213 383.553 157.412 383.72 157.648C384.001 158.185 384.073 158.806 383.921 159.393C383.769 159.979 383.404 160.487 382.898 160.819Z" fill="#263238"/>
<path d="M477.453 153.714L466.736 149.046C466.481 148.916 466.255 148.735 466.073 148.513C465.891 148.292 465.757 148.035 465.68 147.759C465.603 147.483 465.584 147.194 465.624 146.91C465.664 146.626 465.763 146.354 465.914 146.11C466.182 145.561 466.643 145.129 467.209 144.899C467.776 144.669 468.407 144.656 468.982 144.862L479.684 149.545C479.943 149.671 480.172 149.851 480.356 150.072C480.541 150.294 480.676 150.551 480.754 150.829C480.831 151.106 480.849 151.397 480.807 151.681C480.764 151.966 480.662 152.239 480.506 152.481C480.238 153.027 479.779 153.454 479.215 153.682C478.652 153.91 478.024 153.921 477.453 153.714Z" fill="#263238"/>
<path opacity="0.7" d="M432.047 146.227L417.602 148.268C417.077 148.365 416.538 148.343 416.023 148.204C415.508 148.065 415.031 147.812 414.627 147.464C414.223 147.116 413.902 146.682 413.687 146.194C413.473 145.705 413.371 145.175 413.389 144.642C413.422 143.476 413.861 142.359 414.63 141.483C415.399 140.606 416.45 140.026 417.602 139.842L432.047 137.816C432.57 137.719 433.108 137.741 433.622 137.879C434.136 138.018 434.612 138.269 435.016 138.615C435.42 138.962 435.741 139.394 435.956 139.88C436.172 140.367 436.275 140.895 436.26 141.427C436.224 142.592 435.784 143.708 435.015 144.584C434.247 145.459 433.197 146.041 432.047 146.227Z" fill="white"/>
<path opacity="0.7" d="M382.898 160.819L372.196 168.512C371.974 168.698 371.715 168.836 371.437 168.918C371.159 169 370.867 169.024 370.579 168.988C370.291 168.952 370.014 168.857 369.764 168.71C369.515 168.562 369.298 168.365 369.128 168.13C368.846 167.592 368.774 166.968 368.925 166.379C369.077 165.79 369.443 165.279 369.95 164.944L380.667 157.267C380.887 157.079 381.144 156.939 381.421 156.856C381.699 156.773 381.99 156.749 382.277 156.785C382.565 156.821 382.841 156.916 383.09 157.065C383.338 157.213 383.553 157.412 383.72 157.648C384.001 158.185 384.073 158.806 383.921 159.393C383.769 159.979 383.404 160.487 382.898 160.819Z" fill="white"/>
<path opacity="0.7" d="M477.453 153.714L466.736 149.046C466.481 148.916 466.255 148.735 466.073 148.513C465.891 148.292 465.757 148.035 465.68 147.759C465.603 147.483 465.584 147.194 465.624 146.91C465.664 146.626 465.763 146.354 465.914 146.11C466.182 145.561 466.643 145.129 467.209 144.899C467.776 144.669 468.407 144.656 468.982 144.862L479.684 149.545C479.943 149.671 480.172 149.851 480.356 150.072C480.541 150.294 480.676 150.551 480.754 150.829C480.831 151.106 480.849 151.397 480.807 151.681C480.764 151.966 480.662 152.239 480.506 152.481C480.238 153.027 479.779 153.454 479.215 153.682C478.652 153.91 478.024 153.921 477.453 153.714Z" fill="white"/>
<path d="M424.824 310.188C385.732 315.679 354.037 288.447 354.037 249.354C354.037 210.262 385.732 174.105 424.824 168.614C463.917 163.124 495.611 190.356 495.611 229.448L505.271 228.098C505.271 183.661 469.246 152.716 424.824 158.955C380.403 165.194 344.378 206.283 344.378 250.705C344.378 295.127 380.388 326.087 424.824 319.848V310.188Z" fill="#FF7700"/>
<path d="M396.698 289.543L391.415 299.437L393.487 300.543L398.77 290.65L396.698 289.543Z" fill="#263238"/>
<path d="M456.133 178.247L450.851 188.141L452.923 189.247L458.205 179.353L456.133 178.247Z" fill="#263238"/>
<path d="M369.226 213.817L368.286 215.969L377.434 219.964L378.374 217.812L369.226 213.817Z" fill="#263238"/>
<path d="M394.369 188.696L392.372 189.941L397.639 198.389L399.636 197.144L394.369 188.696Z" fill="#263238"/>
<path d="M377.245 272.145L368.085 278.718L369.454 280.626L378.614 274.053L377.245 272.145Z" fill="#263238"/>
<path d="M480.189 198.218L471.028 204.791L472.398 206.699L481.558 200.127L480.189 198.218Z" fill="#263238"/>
<path d="M373.872 244.191L359.785 246.171L360.439 250.823L374.525 248.843L373.872 244.191Z" fill="#263238"/>
<path d="M427.173 174.692H422.476V188.785H427.173V174.692Z" fill="#263238"/>
<path d="M427.173 290.018H422.476V304.111H427.173V290.018Z" fill="#263238"/>
<path d="M406.636 224.134C406.089 224.684 405.782 225.429 405.782 226.204C405.782 226.98 406.089 227.724 406.636 228.274L422.402 241.809L426.527 237.097L410.776 223.547C410.466 223.311 410.113 223.139 409.737 223.041C409.36 222.943 408.968 222.92 408.583 222.975C408.198 223.029 407.827 223.16 407.493 223.359C407.159 223.558 406.868 223.822 406.636 224.134Z" fill="#FF7700"/>
<path opacity="0.4" d="M406.636 224.134C406.089 224.684 405.782 225.429 405.782 226.204C405.782 226.98 406.089 227.724 406.636 228.274L422.402 241.809L426.527 237.097L410.776 223.547C410.466 223.311 410.113 223.139 409.737 223.041C409.36 222.943 408.968 222.92 408.583 222.975C408.198 223.029 407.827 223.16 407.493 223.359C407.159 223.558 406.868 223.822 406.636 224.134Z" fill="white"/>
<path d="M512.156 225.955L500.397 241.706L488.653 229.258L512.156 225.955Z" fill="#FF7700"/>
<path d="M451.645 208.368C451.336 208.132 450.983 207.96 450.606 207.862C450.23 207.763 449.838 207.741 449.452 207.796C449.067 207.85 448.697 207.981 448.363 208.18C448.028 208.379 447.737 208.642 447.505 208.955L426.161 233.295C425.017 233.15 423.856 233.294 422.782 233.712C421.708 234.129 420.755 234.808 420.01 235.687C417.602 238.447 417.602 242.367 420.01 244.495C422.417 246.624 426.352 245.963 428.818 243.262C429.578 242.415 430.112 241.389 430.368 240.28C430.625 239.171 430.597 238.015 430.286 236.92L451.63 212.566C451.911 212.294 452.134 211.968 452.287 211.608C452.44 211.248 452.52 210.861 452.521 210.47C452.523 210.079 452.446 209.692 452.295 209.331C452.145 208.97 451.924 208.642 451.645 208.368Z" fill="#FF7700"/>
<path d="M455.506 296.918L473.856 294.334L472.226 302.804L439.152 307.458L440.474 300.72L460.38 282.326C462.251 280.633 463.935 278.743 465.4 276.689C466.312 275.397 466.822 273.865 466.868 272.285C466.907 271.645 466.775 271.006 466.486 270.433C466.197 269.861 465.762 269.375 465.224 269.026C463.76 268.252 462.068 268.028 460.453 268.394C458.648 268.651 456.919 269.297 455.388 270.288C453.737 271.33 452.298 272.675 451.146 274.252L444.349 270.273C446.25 267.462 448.758 265.114 451.689 263.403C454.834 261.521 458.331 260.302 461.965 259.821C464.633 259.374 467.365 259.499 469.98 260.188C472.083 260.733 473.959 261.931 475.339 263.609C476.628 265.262 477.302 267.312 477.247 269.407C477.221 272.203 476.445 274.941 475.001 277.335C472.846 280.678 470.221 283.694 467.206 286.289L455.506 296.918Z" fill="#263238"/>
<path d="M517.588 287.258L510.424 288.271L508.604 297.696L498.754 299.076L500.589 289.636L477.101 292.954L478.407 285.966L504.112 254.639L515.166 253.098L491.193 282.737L502.688 281.122L504.303 272.71L513.727 271.389L512.098 279.786L519.276 278.788L517.588 287.258Z" fill="#263238"/>
<path d="M546.419 239.842L555.536 238.55L523.46 301.85L514.417 303.113L546.419 239.842Z" fill="#263238"/>
<path d="M588.037 242.851L586.73 249.589L563.389 289.989L552.159 291.574L574.561 252.98L560.395 254.977L558.927 262.317L549.942 263.579L552.996 247.798L588.037 242.851Z" fill="#263238"/>
<path d="M444.173 350.852C442.781 350.697 441.434 350.268 440.209 349.589L442.352 345.185C443.439 345.82 444.633 346.248 445.875 346.448C447.203 346.661 448.556 346.661 449.883 346.448C451.112 346.325 452.294 345.912 453.333 345.244C453.705 345.023 454.015 344.713 454.236 344.341C454.456 343.969 454.58 343.548 454.595 343.116C454.611 342.794 454.52 342.475 454.337 342.21C454.154 341.945 453.889 341.747 453.582 341.648C452.539 341.297 451.462 341.061 450.368 340.943C449.15 340.764 447.944 340.514 446.756 340.194C445.83 339.924 444.991 339.419 444.319 338.726C443.593 337.882 443.229 336.784 443.306 335.673C443.3 334.163 443.745 332.686 444.584 331.43C445.517 330.072 446.773 328.967 448.239 328.215C449.947 327.321 451.801 326.739 453.715 326.498C455.172 326.279 456.652 326.244 458.119 326.395C459.341 326.496 460.535 326.819 461.642 327.349L459.66 331.665C458.771 331.183 457.8 330.87 456.797 330.74C455.691 330.594 454.571 330.594 453.465 330.74C452.197 330.872 450.982 331.316 449.927 332.032C449.544 332.259 449.225 332.578 448.996 332.96C448.768 333.342 448.639 333.775 448.621 334.22C448.609 334.446 448.653 334.672 448.751 334.877C448.848 335.082 448.995 335.26 449.178 335.394C449.589 335.707 450.066 335.923 450.573 336.025C451.131 336.143 451.924 336.275 452.951 336.422C454.16 336.556 455.358 336.782 456.533 337.097C457.444 337.372 458.268 337.877 458.926 338.565C459.278 338.964 459.546 339.429 459.715 339.933C459.884 340.437 459.95 340.971 459.91 341.501C459.924 343.023 459.473 344.514 458.618 345.773C457.666 347.125 456.402 348.228 454.933 348.988C453.201 349.939 451.311 350.571 449.355 350.852C447.636 351.102 445.891 351.102 444.173 350.852Z" fill="#263238"/>
<path d="M471.14 328.832L470.157 333.926L480.741 332.458L479.934 336.686L469.32 338.154L468.278 343.585L480.712 341.838L479.831 346.242L462.215 348.723L466.766 325.235L484 322.813L483.119 327.217L471.14 328.832Z" fill="#263238"/>
<path d="M505.066 332.429C503.868 334.15 502.21 335.498 500.28 336.319L504.244 342.793L498.68 343.585L495.098 337.713L490.606 338.345L489.329 344.907L484.029 345.655L488.58 322.167L497.873 320.861C500.101 320.366 502.434 320.7 504.434 321.8C505.222 322.332 505.854 323.064 506.267 323.92C506.68 324.776 506.858 325.726 506.783 326.674C506.822 328.724 506.221 330.735 505.066 332.429ZM500.001 331.606C500.485 331.132 500.866 330.562 501.118 329.933C501.371 329.304 501.49 328.629 501.469 327.951C501.513 327.507 501.433 327.06 501.239 326.658C501.045 326.257 500.743 325.917 500.368 325.676C499.389 325.197 498.277 325.063 497.212 325.294L493.043 325.881L491.443 334.029L495.935 333.397C497.446 333.248 498.87 332.62 500.001 331.606Z" fill="#263238"/>
<path d="M534.426 315.767L520.01 340.576L514.828 341.295L509.514 319.275L514.96 318.512L518.63 334.234L528.906 316.53L534.426 315.767Z" fill="#263238"/>
<path d="M536.305 315.503L541.619 314.754L537.068 338.242L531.754 338.991L536.305 315.503Z" fill="#263238"/>
<path d="M548.445 335.746C546.844 335.231 545.46 334.199 544.511 332.81C543.567 331.321 543.091 329.582 543.146 327.819C543.134 325.302 543.744 322.821 544.922 320.597C546.11 318.348 547.829 316.424 549.928 314.989C552.117 313.478 554.632 312.508 557.268 312.156C559.069 311.857 560.913 311.957 562.67 312.449C564.113 312.834 565.372 313.718 566.223 314.945L562.406 318.6C561.77 317.79 560.913 317.181 559.94 316.845C558.966 316.509 557.916 316.461 556.916 316.706C555.32 316.92 553.804 317.537 552.512 318.497C551.263 319.454 550.257 320.691 549.576 322.109C548.871 323.553 548.509 325.14 548.519 326.747C548.464 327.491 548.588 328.237 548.879 328.924C549.17 329.611 549.62 330.218 550.192 330.696C550.875 331.16 551.646 331.477 552.456 331.629C553.267 331.78 554.101 331.763 554.905 331.577C557.296 331.247 559.465 329.999 560.953 328.098L564.08 330.843C562.913 332.328 561.459 333.563 559.804 334.474C558.15 335.384 556.328 335.952 554.449 336.143C552.445 336.492 550.386 336.356 548.445 335.746Z" fill="#263238"/>
<path d="M575.251 314.269L574.267 319.349L584.851 317.881L584.044 322.094L573.43 323.562L572.388 328.979L584.822 327.232L583.941 331.636L566.325 334.117L570.891 310.629L588.081 308.28L587.2 312.684L575.251 314.269Z" fill="#263238"/>
<path d="M288.418 212.082C272.725 212.082 260.012 221.345 260.012 232.766C260.012 241.06 266.75 248.209 276.453 251.498C275.413 256.261 273.625 260.83 271.154 265.033C274.675 264.509 278.032 263.191 280.969 261.18C283.906 259.168 286.348 256.515 288.109 253.421H288.418C304.11 253.421 316.823 244.172 316.823 232.751C316.823 221.33 304.11 212.082 288.418 212.082Z" fill="#FF7700"/>
<path opacity="0.7" d="M288.418 212.082C272.725 212.082 260.012 221.345 260.012 232.766C260.012 241.06 266.75 248.209 276.453 251.498C275.413 256.261 273.625 260.83 271.154 265.033C274.675 264.509 278.032 263.191 280.969 261.18C283.906 259.168 286.348 256.515 288.109 253.421H288.418C304.11 253.421 316.823 244.172 316.823 232.751C316.823 221.33 304.11 212.082 288.418 212.082Z" fill="white"/>
<path d="M275.896 236.744C277.493 236.744 278.788 235.45 278.788 233.852C278.788 232.255 277.493 230.96 275.896 230.96C274.299 230.96 273.004 232.255 273.004 233.852C273.004 235.45 274.299 236.744 275.896 236.744Z" fill="#263238"/>
<path d="M291.119 233.852C291.119 234.433 290.947 235.001 290.624 235.484C290.302 235.966 289.843 236.343 289.307 236.565C288.77 236.787 288.18 236.845 287.61 236.732C287.041 236.619 286.518 236.339 286.107 235.929C285.696 235.518 285.417 234.995 285.303 234.425C285.19 233.856 285.248 233.265 285.471 232.729C285.693 232.192 286.069 231.734 286.552 231.411C287.035 231.089 287.602 230.916 288.183 230.916C288.962 230.916 289.709 231.226 290.259 231.776C290.81 232.327 291.119 233.074 291.119 233.852Z" fill="#263238"/>
<path d="M300.558 236.744C302.155 236.744 303.45 235.45 303.45 233.852C303.45 232.255 302.155 230.96 300.558 230.96C298.961 230.96 297.666 232.255 297.666 233.852C297.666 235.45 298.961 236.744 300.558 236.744Z" fill="#263238"/>
<path d="M546.096 528.553C546.096 528.553 546.287 508.956 539.152 511.539C532.018 514.123 546.096 528.553 546.096 528.553Z" fill="#FF7700"/>
<path d="M553.759 510.409C553.759 510.409 563.213 494.731 554.67 492.485C546.126 490.239 553.759 510.409 553.759 510.409Z" fill="#FF7700"/>
<path d="M591.12 499.34C591.12 499.34 610.747 498.327 606.314 490.973C601.881 483.618 591.12 499.34 591.12 499.34Z" fill="#FF7700"/>
<path d="M560.071 504.552C560.071 504.552 580.623 499.913 576.777 511.451C572.931 522.99 560.071 504.552 560.071 504.552Z" fill="#FF7700"/>
<path d="M545.142 546.272C545.142 546.272 537.289 528.48 532.885 534.807C528.481 541.134 545.142 546.272 545.142 546.272Z" fill="#FF7700"/>
<path d="M567.544 500.852C567.544 500.852 588.478 495.362 581.96 487.64C575.442 479.919 567.544 500.852 567.544 500.852Z" fill="#FF7700"/>
<path d="M583.369 498.694C583.369 498.694 599.928 506.827 592.295 512.141C584.661 517.455 583.369 498.694 583.369 498.694Z" fill="#FF7700"/>
<path d="M548.166 520.67C548.166 520.67 559.631 506.871 563.169 516.897C566.707 526.924 548.166 520.67 548.166 520.67Z" fill="#FF7700"/>
<g opacity="0.4">
<path d="M545.142 546.272C545.142 546.272 537.289 528.48 532.885 534.807C528.481 541.134 545.142 546.272 545.142 546.272Z" fill="white"/>
<path d="M567.544 500.852C567.544 500.852 588.478 495.362 581.96 487.64C575.442 479.919 567.544 500.852 567.544 500.852Z" fill="white"/>
<path d="M583.369 498.694C583.369 498.694 599.928 506.827 592.295 512.141C584.661 517.455 583.369 498.694 583.369 498.694Z" fill="white"/>
<path d="M548.167 520.67C548.167 520.67 559.632 506.871 563.17 516.897C566.708 526.924 548.167 520.67 548.167 520.67Z" fill="white"/>
</g>
<path d="M545.024 538.58C545.024 538.58 553.245 520.964 559.866 529.845C566.487 538.727 545.024 538.58 545.024 538.58Z" fill="#FF7700"/>
<path d="M545.157 557.106C542.666 545.627 543.023 533.712 546.199 522.402C552.923 500.382 573.548 495.2 594.394 498.533C596.053 498.797 595.319 501.293 593.674 501.028C582.606 499.267 570.186 499.091 560.542 505.785C553.642 510.614 549.737 518.292 547.858 526.337C545.654 536.256 545.599 546.532 547.697 556.475C548.034 558.119 545.509 558.765 545.157 557.121V557.106Z" fill="#FF7700"/>
<g opacity="0.3">
<path d="M545.157 557.106C542.666 545.627 543.023 533.712 546.199 522.402C552.923 500.382 573.548 495.2 594.394 498.533C596.053 498.797 595.319 501.293 593.674 501.028C582.606 499.267 570.186 499.091 560.542 505.785C553.642 510.614 549.737 518.292 547.858 526.337C545.654 536.256 545.599 546.532 547.697 556.475C548.034 558.119 545.509 558.765 545.157 557.121V557.106Z" fill="black"/>
</g>
<path d="M528.818 522.608C528.818 522.608 518.542 498.65 511.877 504.904C505.212 511.158 528.818 522.608 528.818 522.608Z" fill="#FF7700"/>
<path d="M527.938 497.124C527.938 497.124 530.374 473.914 519.452 474.913C508.531 475.911 527.938 497.124 527.938 497.124Z" fill="#FF7700"/>
<path d="M564.622 467.352C564.622 467.352 586.422 457.561 577.467 450.544C568.512 443.527 564.622 467.352 564.622 467.352Z" fill="#FF7700"/>
<path d="M532.019 487.244C532.019 487.244 552.996 472.564 554.714 488.36C556.431 504.155 532.019 487.244 532.019 487.244Z" fill="#FF7700"/>
<path d="M537.185 544.54C537.185 544.54 518.703 526.366 517.044 535.967C515.385 545.568 537.185 544.54 537.185 544.54Z" fill="#FF7700"/>
<path d="M538.551 479.478C538.551 479.478 559.485 463.653 547.946 457.091C536.408 450.529 538.551 479.478 538.551 479.478Z" fill="#FF7700"/>
<path d="M555.447 469.951C555.447 469.951 578.627 472.637 572.74 482.429C566.854 492.22 555.447 469.951 555.447 469.951Z" fill="#FF7700"/>
<path d="M527.013 512.053C527.013 512.053 532.738 490.253 542.104 500.926C551.47 511.598 527.013 512.053 527.013 512.053Z" fill="#FF7700"/>
<g opacity="0.4">
<path d="M537.185 544.54C537.185 544.54 518.703 526.366 517.044 535.967C515.385 545.568 537.185 544.54 537.185 544.54Z" fill="white"/>
<path d="M538.551 479.478C538.551 479.478 559.485 463.653 547.946 457.091C536.408 450.529 538.551 479.478 538.551 479.478Z" fill="white"/>
<path d="M555.447 469.951C555.447 469.951 578.627 472.637 572.74 482.429C566.854 492.22 555.447 469.951 555.447 469.951Z" fill="white"/>
<path d="M527.012 512.053C527.012 512.053 532.737 490.253 542.103 500.926C551.469 511.598 527.012 512.053 527.012 512.053Z" fill="white"/>
</g>
<path d="M532.973 535.233C532.973 535.233 532.973 510.174 545.216 518.116C557.459 526.058 532.973 535.233 532.973 535.233Z" fill="#FF7700"/>
<path d="M542.941 557.723C534.338 545.142 527.703 529.831 525.706 515.033C521.684 485.321 542.383 469.98 567.911 464.93C569.937 464.534 570.422 467.866 568.425 468.307C554.875 470.978 540.533 476.219 533.193 488.55C527.894 497.432 527.512 508.486 529.64 519.085C532.473 532.233 537.848 544.7 545.466 555.785C545.589 555.953 545.678 556.143 545.728 556.345C545.778 556.547 545.787 556.757 545.756 556.963C545.724 557.169 545.653 557.367 545.545 557.545C545.437 557.723 545.296 557.878 545.128 558.001C544.96 558.125 544.77 558.214 544.568 558.264C544.365 558.314 544.155 558.323 543.95 558.292C543.744 558.26 543.546 558.189 543.368 558.081C543.19 557.973 543.035 557.832 542.911 557.664L542.941 557.723Z" fill="#FF7700"/>
<g opacity="0.3">
<path d="M542.941 557.723C534.338 545.142 527.703 529.831 525.706 515.033C521.684 485.321 542.383 469.98 567.911 464.93C569.937 464.534 570.422 467.866 568.425 468.307C554.875 470.978 540.533 476.219 533.193 488.55C527.894 497.432 527.512 508.486 529.64 519.085C532.473 532.233 537.848 544.7 545.466 555.785C545.589 555.953 545.678 556.143 545.728 556.345C545.778 556.547 545.787 556.757 545.756 556.963C545.724 557.169 545.653 557.367 545.545 557.545C545.437 557.723 545.296 557.878 545.128 558.001C544.96 558.125 544.77 558.214 544.568 558.264C544.365 558.314 544.155 558.323 543.95 558.292C543.744 558.26 543.546 558.189 543.368 558.081C543.19 557.973 543.035 557.832 542.911 557.664L542.941 557.723Z" fill="black"/>
</g>
<path d="M526.381 528.906C526.381 528.906 531.255 512.655 536.481 516.619C541.707 520.582 526.381 528.906 526.381 528.906Z" fill="#FF7700"/>
<path d="M524.678 511.936C524.678 511.936 520.906 496.536 528.539 496.889C536.173 497.241 524.678 511.936 524.678 511.936Z" fill="#FF7700"/>
<path d="M496.654 493.248C496.654 493.248 480.697 487.376 486.261 482.429C491.824 477.482 496.654 493.248 496.654 493.248Z" fill="#FF7700"/>
<path d="M520.979 505.462C520.979 505.462 505.154 496.345 505.403 506.93C505.653 517.514 520.979 505.462 520.979 505.462Z" fill="#FF7700"/>
<path d="M522.608 543.777C522.608 543.777 533.736 531.137 535.747 537.479C537.758 543.821 522.608 543.777 522.608 543.777Z" fill="#FF7700"/>
<path d="M515.752 500.485C515.752 500.485 499.869 490.562 507.238 485.805C514.607 481.049 515.752 500.485 515.752 500.485Z" fill="#FF7700"/>
<path d="M503.216 494.716C503.216 494.716 487.449 497.182 492.396 503.524C497.344 509.866 503.216 494.716 503.216 494.716Z" fill="#FF7700"/>
<path d="M526.674 521.845C526.674 521.845 520.802 507.488 515.239 514.872C509.675 522.256 526.674 521.845 526.674 521.845Z" fill="#FF7700"/>
<g opacity="0.4">
<path d="M522.607 543.777C522.607 543.777 533.735 531.137 535.746 537.479C537.757 543.821 522.607 543.777 522.607 543.777Z" fill="white"/>
<path d="M515.752 500.485C515.752 500.485 499.869 490.562 507.238 485.805C514.607 481.049 515.752 500.485 515.752 500.485Z" fill="white"/>
<path d="M503.216 494.716C503.216 494.716 487.449 497.182 492.396 503.524C497.344 509.866 503.216 494.716 503.216 494.716Z" fill="white"/>
<path d="M526.674 521.845C526.674 521.845 520.802 507.488 515.239 514.872C509.675 522.256 526.674 521.845 526.674 521.845Z" fill="white"/>
</g>
<path d="M524.649 537.449C524.649 537.449 522.403 520.758 514.637 526.41C506.871 532.062 524.649 537.449 524.649 537.449Z" fill="#FF7700"/>
<path d="M519.79 552.717C524.801 543.877 527.564 533.941 527.835 523.782C527.937 503.876 512.244 494.276 494.159 491.663C492.691 491.457 492.691 493.718 494.159 493.923C503.759 495.303 514.109 498.327 520.304 506.372C524.708 512.127 526.029 519.481 525.515 526.601C524.785 535.368 522.187 543.877 517.896 551.557C517.192 552.819 519.115 554.009 519.834 552.731L519.79 552.717Z" fill="#FF7700"/>
<g opacity="0.3">
<path d="M519.79 552.717C524.801 543.877 527.564 533.941 527.835 523.782C527.937 503.876 512.244 494.276 494.159 491.663C492.691 491.457 492.691 493.718 494.159 493.923C503.759 495.303 514.109 498.327 520.304 506.372C524.708 512.127 526.029 519.481 525.515 526.601C524.785 535.368 522.187 543.877 517.896 551.557C517.192 552.819 519.115 554.009 519.834 552.731L519.79 552.717Z" fill="black"/>
</g>
<path d="M565.474 548.592L559.793 591.443C559.437 594.107 558.126 596.552 556.104 598.323C554.082 600.094 551.486 601.071 548.797 601.073H513.463C510.774 601.071 508.178 600.094 506.156 598.323C504.134 596.552 502.823 594.107 502.467 591.443L496.786 548.592H565.474Z" fill="#FF7700"/>
<path opacity="0.3" d="M565.474 548.592L559.793 591.443C559.437 594.107 558.126 596.552 556.104 598.323C554.082 600.094 551.486 601.071 548.797 601.073H513.463C510.774 601.071 508.178 600.094 506.156 598.323C504.134 596.552 502.823 594.107 502.467 591.443L496.786 548.592H565.474Z" fill="white"/>
<path d="M246.434 466.281H236.789V529.669H246.434V466.281Z" fill="#263238"/>
<path opacity="0.5" d="M246.434 466.281H236.789V529.669H246.434V466.281Z" fill="white"/>
<path d="M270.919 577.144L248.327 573.063V527.702C248.329 527.368 248.264 527.037 248.138 526.728C248.011 526.419 247.824 526.138 247.587 525.902C247.351 525.666 247.07 525.479 246.761 525.352C246.452 525.225 246.121 525.16 245.787 525.162H237.434C237.1 525.16 236.768 525.225 236.458 525.351C236.148 525.478 235.866 525.665 235.629 525.901C235.392 526.137 235.203 526.418 235.075 526.727C234.946 527.036 234.88 527.367 234.88 527.702V573.063L212.302 577.144C210.717 577.427 209.282 578.258 208.249 579.493C207.215 580.728 206.65 582.287 206.65 583.897L241.603 580.741L276.571 583.897C276.569 582.288 276.002 580.73 274.969 579.496C273.937 578.262 272.503 577.43 270.919 577.144Z" fill="#263238"/>
<path d="M213.991 590.753C213.991 592.204 213.56 593.623 212.754 594.83C211.947 596.037 210.801 596.978 209.459 597.534C208.118 598.089 206.642 598.235 205.219 597.951C203.795 597.668 202.487 596.969 201.46 595.943C200.434 594.916 199.735 593.608 199.452 592.185C199.168 590.761 199.314 589.285 199.869 587.944C200.425 586.602 201.366 585.456 202.573 584.65C203.78 583.843 205.199 583.413 206.651 583.413C208.597 583.413 210.464 584.186 211.841 585.562C213.217 586.939 213.991 588.806 213.991 590.753Z" fill="#FF7700"/>
<path d="M283.911 590.753C283.911 592.204 283.481 593.623 282.674 594.83C281.868 596.037 280.722 596.978 279.38 597.534C278.039 598.089 276.563 598.235 275.139 597.951C273.716 597.668 272.408 596.969 271.381 595.943C270.355 594.916 269.656 593.608 269.372 592.185C269.089 590.761 269.235 589.285 269.79 587.944C270.346 586.602 271.286 585.456 272.494 584.65C273.701 583.843 275.12 583.413 276.571 583.413C277.535 583.413 278.49 583.602 279.38 583.971C280.271 584.34 281.08 584.881 281.762 585.562C282.443 586.244 282.984 587.053 283.353 587.944C283.722 588.834 283.911 589.789 283.911 590.753Z" fill="#FF7700"/>
<path d="M247.344 590.753C247.344 594.804 245.67 598.093 241.604 598.093C237.538 598.093 235.879 594.804 235.879 590.753C235.879 586.701 237.552 583.413 241.604 583.413C245.656 583.413 247.344 586.701 247.344 590.753Z" fill="#FF7700"/>
<g opacity="0.5">
<path d="M248.547 573.093V581.372L251.277 581.622V573.592L248.547 573.093Z" fill="black"/>
<path d="M232.003 573.577V581.607L234.733 581.372V573.093L232.003 573.577Z" fill="black"/>
</g>
<path d="M178.641 408.544C178.033 408.545 177.432 408.68 176.881 408.938C176.33 409.197 175.843 409.573 175.454 410.041C175.064 410.509 174.782 411.056 174.628 411.645C174.474 412.234 174.451 412.849 174.56 413.448L183.515 461.701C183.92 463.893 185.08 465.875 186.793 467.302C188.507 468.728 190.666 469.51 192.896 469.51H334.014C334.846 469.51 335.67 469.346 336.439 469.027C337.208 468.709 337.906 468.241 338.493 467.652C339.081 467.063 339.547 466.364 339.864 465.594C340.181 464.825 340.343 464.001 340.341 463.169C340.341 460.782 339.393 458.493 337.706 456.806C336.018 455.118 333.729 454.17 331.343 454.17H250.823C248.689 454.171 246.616 453.457 244.934 452.143C243.253 450.828 242.06 448.989 241.545 446.918L234.337 417.822C233.682 415.175 232.159 412.824 230.012 411.142C227.865 409.461 225.217 408.546 222.49 408.544H178.641Z" fill="#263238"/>
<path d="M197.696 446.918L190.488 417.822C189.832 415.175 188.31 412.824 186.163 411.142C184.016 409.461 181.368 408.546 178.641 408.544C178.033 408.545 177.432 408.68 176.881 408.938C176.33 409.197 175.843 409.573 175.454 410.041C175.064 410.509 174.782 411.056 174.628 411.645C174.474 412.234 174.451 412.849 174.56 413.448L183.515 461.701C183.92 463.893 185.08 465.875 186.793 467.302C188.507 468.728 190.666 469.51 192.896 469.51H290.151C290.984 469.512 291.809 469.35 292.58 469.032C293.35 468.714 294.05 468.247 294.639 467.657C295.228 467.068 295.695 466.368 296.013 465.598C296.331 464.828 296.494 464.002 296.492 463.169C296.488 460.783 295.539 458.497 293.852 456.81C292.166 455.123 289.879 454.174 287.493 454.17H206.988C204.851 454.176 202.773 453.465 201.088 452.15C199.404 450.835 198.209 448.993 197.696 446.918Z" fill="#263238"/>
<path opacity="0.2" d="M197.696 446.918L190.488 417.822C189.832 415.175 188.31 412.824 186.163 411.142C184.016 409.461 181.368 408.546 178.641 408.544C178.033 408.545 177.432 408.68 176.881 408.938C176.33 409.197 175.843 409.573 175.454 410.041C175.064 410.509 174.782 411.056 174.628 411.645C174.474 412.234 174.451 412.849 174.56 413.448L183.515 461.701C183.92 463.893 185.08 465.875 186.793 467.302C188.507 468.728 190.666 469.51 192.896 469.51H290.151C290.984 469.512 291.809 469.35 292.58 469.032C293.35 468.714 294.05 468.247 294.639 467.657C295.228 467.068 295.695 466.368 296.013 465.598C296.331 464.828 296.494 464.002 296.492 463.169C296.488 460.783 295.539 458.497 293.852 456.81C292.166 455.123 289.879 454.174 287.493 454.17H206.988C204.851 454.176 202.773 453.465 201.088 452.15C199.404 450.835 198.209 448.993 197.696 446.918Z" fill="white"/>
<path d="M257.312 270.479C257.312 270.479 273.371 275.265 265.87 287.141L258.897 276.982L257.312 270.479Z" fill="#263238"/>
<path d="M315.165 331.695L322.167 321.419L329.096 323.621L330.359 326.41L321.727 338.756L315.165 331.695Z" fill="#DBB178"/>
<path d="M325.544 334.381C318.527 345.391 307.458 361.451 303.23 360.497C290.811 357.722 273.738 345.964 264.974 333.045C263.651 331.096 263.109 328.721 263.454 326.391C263.799 324.061 265.007 321.946 266.839 320.464V320.376C267.794 319.596 268.894 319.012 270.076 318.658C271.258 318.303 272.498 318.186 273.725 318.311C274.952 318.436 276.142 318.803 277.228 319.389C278.313 319.975 279.273 320.769 280.051 321.727C280.212 321.918 280.359 322.123 280.506 322.329C288.271 333.471 298.122 344.04 299.736 344.936C301.63 346.022 306.548 341.369 316.956 328.215L325.544 334.381Z" fill="#FF7700"/>
<path opacity="0.6" d="M325.544 334.381C318.527 345.391 307.458 361.451 303.23 360.497C290.811 357.722 273.738 345.964 264.974 333.045C263.651 331.096 263.109 328.721 263.454 326.391C263.799 324.061 265.007 321.946 266.839 320.464V320.376C267.794 319.596 268.894 319.012 270.076 318.658C271.258 318.303 272.498 318.186 273.725 318.311C274.952 318.436 276.142 318.803 277.228 319.389C278.313 319.975 279.273 320.769 280.051 321.727C280.212 321.918 280.359 322.123 280.506 322.329C288.271 333.471 298.122 344.04 299.736 344.936C301.63 346.022 306.548 341.369 316.956 328.215L325.544 334.381Z" fill="white"/>
<path d="M325.706 325.5L339.578 328.215L333.119 316.589C333.119 316.589 324.722 316.589 322.168 321.419L325.706 325.5Z" fill="#DBB178"/>
<path opacity="0.2" d="M285.526 352.467C275.47 345.597 274.134 329.478 274.134 329.478L268.438 326.88L265.708 334.132C271.164 341.379 277.876 347.59 285.526 352.467Z" fill="black"/>
<path d="M349.385 323.239L343.454 313.785L333.134 316.589L339.578 328.215L349.385 323.239Z" fill="#DBB178"/>
<path d="M272.343 387.758L223.136 390.987C223.136 390.987 222.784 377.775 221.066 365.605C220.533 361.37 219.689 357.18 218.541 353.069C217.264 348.87 215.605 344.158 213.697 338.682C213.447 338.007 213.198 337.332 212.919 336.627C212.273 334.924 211.612 333.148 210.863 331.298V331.21C210.199 329.403 210.271 327.406 211.064 325.651C211.858 323.897 213.31 322.524 215.106 321.83C215.444 321.698 215.793 321.595 216.148 321.521C219.275 320.861 222.431 320.259 225.632 319.76L228.391 319.349C235.76 318.251 243.186 317.584 250.632 317.352C254.492 317.352 258.617 317.47 262.141 317.631L265.077 317.778C268.805 317.998 271.389 318.233 271.389 318.233C271.389 318.233 273.004 318.556 273.958 327.203C273.98 327.694 274.029 328.184 274.105 328.671C274.222 330.461 274.325 332.722 274.369 335.438C274.516 346.536 273.855 365.165 272.343 387.758Z" fill="#FF7700"/>
<path opacity="0.6" d="M272.343 387.758L223.136 390.987C223.136 390.987 222.784 377.775 221.066 365.605C220.533 361.37 219.689 357.18 218.541 353.069C217.264 348.87 215.605 344.158 213.697 338.682C213.447 338.007 213.198 337.332 212.919 336.627C212.273 334.924 211.612 333.148 210.863 331.298V331.21C210.199 329.403 210.271 327.406 211.064 325.651C211.858 323.897 213.31 322.524 215.106 321.83C215.444 321.698 215.793 321.595 216.148 321.521C219.275 320.861 222.431 320.259 225.632 319.76L228.391 319.349C235.76 318.251 243.186 317.584 250.632 317.352C254.492 317.352 258.617 317.47 262.141 317.631L265.077 317.778C268.805 317.998 271.389 318.233 271.389 318.233C271.389 318.233 273.004 318.556 273.958 327.203C273.98 327.694 274.029 328.184 274.105 328.671C274.222 330.461 274.325 332.722 274.369 335.438C274.516 346.536 273.855 365.165 272.343 387.758Z" fill="white"/>
<path d="M230.109 319.114L242.382 335.467L251.19 327.922L262.64 333.442L256.445 317.426C254.537 317.426 252.57 317.426 250.676 317.426C243.795 317.612 236.929 318.175 230.109 319.114Z" fill="#FF7700"/>
<path opacity="0.9" d="M230.109 319.114L242.382 335.467L251.19 327.922L262.64 333.442L256.445 317.426C254.537 317.426 252.57 317.426 250.676 317.426C243.795 317.612 236.929 318.175 230.109 319.114Z" fill="white"/>
<path d="M338.727 585.101H328.26L333.031 506.093H352.614L338.727 585.101Z" fill="#DBB178"/>
<path d="M327.1 584.103C326.983 583.104 339.476 582.165 339.476 582.165C339.476 582.165 348.166 588.859 355.8 589.505C363.433 590.151 359.925 595.215 351.66 596.36L331.211 599.296C325.339 600.162 328.304 594.54 327.1 584.103Z" fill="#263238"/>
<path d="M345.744 584.528C344.15 584.435 342.576 584.134 341.061 583.633C341 583.618 340.944 583.588 340.899 583.545C340.87 583.444 340.87 583.337 340.899 583.236C340.899 583.104 341.589 580.007 343.189 579.097C343.429 578.951 343.697 578.858 343.976 578.825C344.255 578.792 344.537 578.82 344.804 578.906C345.582 579.141 345.788 579.581 345.802 579.889C345.802 580.521 345.201 581.225 344.334 581.871C345.17 581.636 346.054 581.636 346.889 581.871C347.07 581.94 347.237 582.044 347.378 582.178C347.519 582.311 347.632 582.472 347.711 582.649C347.833 582.88 347.886 583.142 347.863 583.403C347.839 583.663 347.741 583.912 347.579 584.117C347.045 584.49 346.386 584.637 345.744 584.528ZM342.382 583.207C344.261 583.691 346.463 584.014 346.947 583.486C347.065 583.383 347.036 583.163 346.947 582.899C346.912 582.813 346.858 582.735 346.789 582.672C346.721 582.608 346.64 582.561 346.551 582.532C345.126 582.363 343.681 582.597 342.382 583.207ZM344.085 579.537C343.867 579.537 343.653 579.598 343.468 579.713C342.632 580.441 342.042 581.411 341.78 582.488C343.395 581.563 345.01 580.403 345.01 579.904C345.01 579.816 344.834 579.699 344.555 579.596C344.402 579.554 344.243 579.534 344.085 579.537Z" fill="#FF7700"/>
<path opacity="0.2" d="M332.194 519.907L350.089 520.45L352.614 506.093H333.031L332.194 519.907Z" fill="black"/>
<path d="M288.491 586.437L278.465 585.101L294.334 497.623L314.123 503.274L288.491 586.437Z" fill="#DBB178"/>
<path d="M277.159 583.706C277.159 582.679 289.666 583.706 289.666 583.706C289.666 583.706 297.256 591.619 304.698 593.395C312.141 595.171 307.928 599.678 299.59 599.561L278.92 599.311C272.945 599.252 276.762 594.246 277.159 583.706Z" fill="#263238"/>
<path d="M296.242 586.965C294.414 586.74 292.64 586.193 291.002 585.35L290.899 585.262C290.892 585.246 290.888 585.228 290.888 585.211C290.888 585.193 290.892 585.176 290.899 585.159C290.877 585.114 290.865 585.064 290.865 585.013C290.865 584.962 290.877 584.912 290.899 584.866C290.899 584.748 292.044 581.812 293.835 581.122C294.088 581.006 294.364 580.946 294.642 580.946C294.921 580.946 295.196 581.006 295.45 581.122C296.184 581.489 296.316 581.93 296.286 582.238C296.286 582.869 295.494 583.471 294.569 583.97C295.431 583.865 296.305 584.002 297.094 584.367C297.263 584.457 297.411 584.582 297.527 584.734C297.644 584.886 297.726 585.061 297.769 585.248C297.863 585.487 297.881 585.749 297.821 585.998C297.76 586.248 297.624 586.473 297.431 586.642C297.087 586.889 296.665 587.004 296.242 586.965ZM292.323 585.086C294.114 585.849 296.242 586.554 296.727 586.055C296.844 585.967 296.874 585.761 296.727 585.468C296.705 585.381 296.664 585.299 296.609 585.228C296.553 585.157 296.483 585.099 296.404 585.057C295.064 584.709 293.657 584.72 292.323 585.086ZM294.378 581.71C294.216 581.716 294.057 581.75 293.908 581.812C292.983 582.398 292.261 583.254 291.838 584.264C293.629 583.603 295.317 582.649 295.347 582.179C295.347 582.091 295.2 581.945 294.95 581.827C294.794 581.749 294.625 581.699 294.451 581.68L294.378 581.71Z" fill="#FF7700"/>
<path opacity="0.2" d="M314.123 503.274L294.334 497.623L291.207 514.872L309.528 518.175L314.123 503.274Z" fill="black"/>
<path d="M327.849 512.875L353.025 514.196C359.47 484.513 365.9 451.792 364.623 444.613C362.2 430.858 343.513 416.853 270.964 404.977L237.2 455.711C237.2 455.711 286.584 453.406 331.593 453.406C331.578 453.436 329.068 481.68 327.849 512.875Z" fill="#FF7700"/>
<path opacity="0.1" d="M327.849 512.875L353.025 514.196C359.47 484.513 365.9 451.792 364.623 444.613C362.2 430.858 343.513 416.853 270.964 404.977L237.2 455.711C237.2 455.711 286.584 453.406 331.593 453.406C331.578 453.436 329.068 481.68 327.849 512.875Z" fill="black"/>
<path d="M326.16 508.926L326.909 515.518L354.493 516.457L355.843 510.394L326.16 508.926Z" fill="#FF7700"/>
<path d="M254.889 317.396H250.632C244.525 317.587 238.433 318.086 232.37 318.864C235.013 322.021 243.248 326.938 248.768 326.938C256.475 326.88 254.757 321.154 254.889 317.396Z" fill="#DBB178"/>
<path d="M288.711 507.767L314.446 511.95C324.898 482.693 335.35 451.557 335.174 444.54C334.821 430.564 331.753 423.312 281.21 412.038C281.21 412.038 278.524 408.119 272.402 387.816L223.136 391.046C223.136 391.046 200.661 432.443 218.057 450.118C221.903 454.052 229.463 455.814 237.141 455.741C237.141 455.741 254.903 455.829 298.797 453.773C298.811 453.773 293.6 478.818 288.711 507.767Z" fill="#FF7700"/>
<path d="M287.684 503.274L317.499 508.31L314.666 514.578L287.552 510.13L287.684 503.274Z" fill="#FF7700"/>
<path opacity="0.1" d="M326.16 508.926L326.909 515.518L354.493 516.457L355.843 510.394L326.16 508.926Z" fill="black"/>
<path d="M251.161 313.154C250.594 316.778 250.744 320.479 251.601 324.046L238.11 322.064C237.82 322.022 237.543 321.912 237.301 321.745C237.06 321.577 236.861 321.357 236.718 321.099C236.576 320.842 236.496 320.556 236.482 320.262C236.469 319.969 236.524 319.676 236.642 319.407C238.492 315.209 239.226 306.753 239.681 302.863C239.931 300.514 240.033 298.371 240.048 296.874C240.063 295.376 240.048 294.818 240.048 294.818L246.082 297.578L255.932 302.085C253.661 305.443 252.042 309.197 251.161 313.154Z" fill="#DBB178"/>
<path opacity="0.2" d="M255.961 302.085C253.668 305.439 252.025 309.194 251.116 313.154C246.194 311.202 242.129 307.558 239.651 302.878C239.916 300.529 240.018 298.386 240.033 296.888C242.176 297.109 244.173 297.329 246.081 297.593L255.961 302.085Z" fill="black"/>
<path d="M256.68 292.455C256.284 296.962 258.588 300.602 261.818 300.602C265.048 300.602 267.998 296.962 268.395 292.455C268.791 287.948 266.486 284.293 263.257 284.293C260.027 284.293 257.076 287.948 256.68 292.455Z" fill="#FF7700"/>
<path opacity="0.5" d="M256.108 292.455C255.711 296.962 258.016 300.602 261.246 300.602C264.475 300.602 267.411 296.962 267.808 292.455C268.204 287.948 265.899 284.293 262.67 284.293C259.44 284.293 256.49 287.948 256.108 292.455Z" fill="black"/>
<path d="M233.515 284.528C235.922 295.567 236.759 302.144 243.277 307.179C245.378 308.848 247.897 309.909 250.559 310.247C253.221 310.585 255.925 310.186 258.376 309.095C260.828 308.004 262.933 306.262 264.464 304.058C265.995 301.854 266.892 299.273 267.059 296.595C267.925 286.319 263.844 269.98 252.217 266.853C249.718 266.107 247.067 266.032 244.53 266.635C241.992 267.239 239.659 268.5 237.763 270.291C235.868 272.082 234.477 274.341 233.732 276.84C232.986 279.339 232.911 281.991 233.515 284.528Z" fill="#DBB178"/>
<path d="M230.961 296.052C232.749 298.209 235.228 299.682 237.978 300.221C241.457 300.808 242.25 297.593 240.474 294.466C238.888 291.662 235.145 287.978 232.033 288.8C228.921 289.622 228.715 293.336 230.961 296.052Z" fill="#DBB178"/>
<path d="M250.941 285.614C251.088 286.524 251.675 287.2 252.277 287.082C252.879 286.965 253.231 286.216 253.099 285.32C252.967 284.425 252.365 283.735 251.763 283.852C251.161 283.97 250.809 284.704 250.941 285.614Z" fill="#263238"/>
<path d="M261.305 284.396C261.437 285.306 262.039 285.981 262.626 285.864C263.213 285.746 263.595 284.998 263.462 284.087C263.33 283.177 262.714 282.517 262.127 282.619C261.539 282.722 261.084 283.485 261.305 284.396Z" fill="#263238"/>
<path d="M258.03 285.232C259.549 287.877 261.41 290.311 263.565 292.47C263.003 292.987 262.334 293.373 261.606 293.601C260.877 293.83 260.108 293.895 259.351 293.791L258.03 285.232Z" fill="#C0854B"/>
<path d="M247.256 282.693C247.169 282.712 247.079 282.712 246.992 282.693C246.929 282.659 246.874 282.613 246.829 282.558C246.785 282.502 246.752 282.438 246.732 282.37C246.713 282.301 246.708 282.229 246.717 282.159C246.727 282.088 246.75 282.02 246.786 281.959C247.181 281.21 247.755 280.57 248.456 280.096C249.158 279.622 249.966 279.329 250.808 279.243C250.878 279.237 250.949 279.245 251.015 279.267C251.082 279.29 251.143 279.325 251.195 279.372C251.247 279.419 251.29 279.476 251.319 279.539C251.348 279.603 251.364 279.672 251.366 279.742C251.372 279.813 251.364 279.884 251.342 279.951C251.32 280.019 251.285 280.081 251.238 280.134C251.191 280.188 251.135 280.231 251.071 280.262C251.007 280.293 250.938 280.311 250.867 280.315C250.205 280.389 249.571 280.627 249.023 281.006C248.475 281.385 248.029 281.894 247.726 282.487C247.67 282.558 247.598 282.613 247.516 282.649C247.435 282.685 247.345 282.7 247.256 282.693Z" fill="#263238"/>
<path d="M265.106 280.388C265.018 280.391 264.932 280.371 264.854 280.33C264.777 280.288 264.712 280.227 264.666 280.153C264.293 279.573 263.792 279.086 263.202 278.729C262.611 278.373 261.947 278.157 261.26 278.098C261.133 278.077 261.018 278.011 260.934 277.913C260.851 277.815 260.806 277.691 260.806 277.562C260.806 277.433 260.851 277.309 260.934 277.211C261.018 277.113 261.133 277.047 261.26 277.026C262.122 277.083 262.958 277.342 263.703 277.78C264.447 278.218 265.079 278.825 265.546 279.551C265.627 279.669 265.658 279.813 265.633 279.953C265.608 280.093 265.53 280.217 265.414 280.3C265.321 280.356 265.215 280.386 265.106 280.388Z" fill="#263238"/>
<path d="M235.673 299.046C235.673 299.046 242.69 291.868 239.255 274.252C239.255 274.252 244.906 279.052 258.03 275.5C258.03 275.5 250.265 276.263 246.712 272.564C246.712 272.564 253.949 275.925 265.649 272.564C265.649 272.564 263.565 260.717 250.969 260.115C250.969 260.115 255.035 256.694 258.955 257.355C258.955 257.355 254.947 253.905 244.774 260.614L240.752 262.258C240.752 262.258 229.419 258.177 223.136 267.778C218.13 275.367 220.64 299.266 235.673 299.046Z" fill="#263238"/>
<path d="M261.407 295.802C261.407 295.802 257.855 294.907 247.843 294.686C248.958 297.725 251.087 300.235 256.225 300.294C256.865 300.365 257.513 300.303 258.128 300.112C258.743 299.92 259.312 299.604 259.799 299.182C260.286 298.76 260.68 298.242 260.957 297.66C261.233 297.079 261.387 296.446 261.407 295.802Z" fill="#263238"/>
<path d="M253.964 297.872C255.937 297.8 257.883 298.349 259.528 299.443C258.567 300.057 257.436 300.35 256.298 300.279C254.333 300.362 252.393 299.811 250.764 298.709C251.716 298.1 252.836 297.807 253.964 297.872Z" fill="#A02724"/>
<path d="M260.952 295.714C260.847 296.083 260.642 296.415 260.36 296.675C260.077 296.934 259.728 297.109 259.352 297.182C256.395 297.114 253.449 296.799 250.544 296.242C250.08 296.201 249.633 296.046 249.243 295.79C248.854 295.533 248.534 295.185 248.312 294.774C252.544 294.761 256.769 295.075 260.952 295.714Z" fill="white"/>
<path d="M230.227 288.33V276.483C230.226 272.977 231.357 269.564 233.452 266.752C235.547 263.941 238.493 261.881 241.853 260.878L245.817 260.174C242.372 261.201 239.35 263.314 237.202 266.197C235.055 269.08 233.895 272.58 233.897 276.175V288.33H230.227Z" fill="#FF7700"/>
<path d="M239.431 294.07C239.827 298.577 237.523 302.217 234.293 302.217C231.063 302.217 228.113 298.577 227.731 294.07C227.349 289.563 229.639 285.908 232.869 285.908C236.099 285.908 239.035 289.563 239.431 294.07Z" fill="#FF7700"/>
<path opacity="0.5" d="M239.431 294.07C239.827 298.577 237.523 302.217 234.293 302.217C231.063 302.217 228.113 298.577 227.731 294.07C227.349 289.563 229.639 285.908 232.869 285.908C236.099 285.908 239.035 289.563 239.431 294.07Z" fill="black"/>
<path d="M237.479 294.07C237.86 298.577 235.57 302.217 232.326 302.217C229.082 302.217 226.16 298.577 225.764 294.07C225.368 289.563 227.672 285.908 230.902 285.908C234.132 285.908 237.082 289.563 237.479 294.07Z" fill="#FF7700"/>
<path opacity="0.3" d="M233.412 295.259L233.148 292.881H233.603C233.016 290.547 231.371 288.8 229.566 288.8C227.76 288.8 226.439 290.547 226.248 292.881H226.556L226.821 295.259H226.468C227.055 297.593 228.7 299.325 230.491 299.325C232.282 299.325 233.632 297.593 233.808 295.259H233.412Z" fill="white"/>
<path d="M212.317 295.068L218.733 282.443L223.915 294.686C223.915 294.686 218.718 301.292 213.36 300.338L212.317 295.068Z" fill="#DBB178"/>
<path d="M228.7 277.79L232.473 288.286L223.9 294.686L218.732 282.443L228.7 277.79Z" fill="#DBB178"/>
<path d="M214.006 308.662L220.171 298.283L219.525 294.055L214.094 292.132L206.357 304.17L214.006 308.662Z" fill="#DBB178"/>
<path d="M218.454 302.202L207.194 326.982C207.194 326.982 212.67 322.065 215.694 321.36C220.509 320.229 235.042 324.619 220.318 340.605C220.318 340.605 191.164 358.823 185.218 351.762C180.594 346.272 200.236 312.904 209.235 298.283L218.454 302.202Z" fill="#FF7700"/>
<path opacity="0.6" d="M218.454 302.202L207.194 326.982C207.194 326.982 212.67 322.065 215.694 321.36C220.509 320.229 235.042 324.619 220.318 340.605C220.318 340.605 191.164 358.823 185.218 351.762C180.594 346.272 200.236 312.904 209.235 298.283L218.454 302.202Z" fill="white"/>
<path opacity="0.2" d="M207.194 326.982L204.053 336.656L213.272 322.476C211.122 323.803 209.088 325.31 207.194 326.982Z" fill="black"/>
<path d="M249.369 305.006C248.136 305.038 246.903 304.959 245.685 304.771C242.543 303.642 239.503 302.247 236.598 300.602L237.185 299.545C240.006 301.128 242.952 302.478 245.993 303.582C249.119 303.841 252.262 303.841 255.388 303.582L255.476 304.801C255.241 304.801 252.158 305.006 249.369 305.006Z" fill="#FF7700"/>
<path d="M250.69 305.256L256.562 304.816C256.562 304.816 256.401 302.995 253.626 303.069C250.852 303.142 250.69 305.256 250.69 305.256Z" fill="#FF7700"/>
<g opacity="0.5">
<path d="M249.369 305.006C248.136 305.038 246.903 304.959 245.685 304.771C242.543 303.642 239.503 302.247 236.598 300.602L237.185 299.545C240.006 301.128 242.952 302.478 245.993 303.582C249.119 303.841 252.262 303.841 255.388 303.582L255.476 304.801C255.241 304.801 252.158 305.006 249.369 305.006Z" fill="black"/>
<path d="M250.69 305.256L256.562 304.816C256.562 304.816 256.401 302.995 253.626 303.069C250.852 303.142 250.69 305.256 250.69 305.256Z" fill="black"/>
</g>
<path d="M484.528 599.737C484.22 599.749 483.912 599.699 483.622 599.592C483.333 599.485 483.067 599.322 482.841 599.112C482.615 598.902 482.432 598.649 482.303 598.368C482.175 598.088 482.103 597.785 482.091 597.476L467.411 427.511C467.386 426.045 466.813 424.642 465.805 423.577C464.797 422.512 463.427 421.862 461.965 421.756H392.617C391.154 421.862 389.785 422.512 388.777 423.577C387.769 424.642 387.196 426.045 387.17 427.511L372.49 597.476C372.489 597.791 372.424 598.102 372.299 598.391C372.175 598.68 371.994 598.941 371.766 599.159C371.539 599.377 371.27 599.547 370.976 599.659C370.682 599.77 370.368 599.822 370.054 599.81C369.419 599.682 368.858 599.315 368.487 598.785C368.115 598.255 367.961 597.602 368.057 596.962L382.737 426.982C383.251 421.037 387.493 416.56 392.617 416.56H461.965C467.088 416.56 471.331 421.037 471.845 426.982L486.525 596.962C486.62 597.602 486.466 598.255 486.095 598.785C485.723 599.315 485.163 599.682 484.528 599.81V599.737Z" fill="#FF7700"/>
<g opacity="0.4">
<path d="M484.528 599.737C484.22 599.749 483.912 599.699 483.622 599.592C483.333 599.485 483.067 599.322 482.841 599.112C482.615 598.902 482.432 598.649 482.303 598.368C482.175 598.088 482.103 597.785 482.091 597.476L467.411 427.511C467.386 426.045 466.813 424.642 465.805 423.577C464.797 422.512 463.427 421.862 461.965 421.756H392.617C391.154 421.862 389.785 422.512 388.777 423.577C387.769 424.642 387.196 426.045 387.17 427.511L372.49 597.476C372.489 597.791 372.424 598.102 372.299 598.391C372.175 598.68 371.994 598.941 371.766 599.159C371.539 599.377 371.27 599.547 370.976 599.659C370.682 599.77 370.368 599.822 370.054 599.81C369.419 599.682 368.858 599.315 368.487 598.785C368.115 598.255 367.961 597.602 368.057 596.962L382.737 426.982C383.251 421.037 387.493 416.56 392.617 416.56H461.965C467.088 416.56 471.331 421.037 471.845 426.982L486.525 596.962C486.62 597.602 486.466 598.255 486.095 598.785C485.723 599.315 485.163 599.682 484.528 599.81V599.737Z" fill="black"/>
</g>
<path d="M483.559 409.205H295.053C293.407 409.205 292.073 410.539 292.073 412.185V421.844C292.073 423.49 293.407 424.825 295.053 424.825H483.559C485.205 424.825 486.539 423.49 486.539 421.844V412.185C486.539 410.539 485.205 409.205 483.559 409.205Z" fill="#263238"/>
<path opacity="0.2" d="M401.204 409.205H483.559C484.338 409.205 485.084 409.514 485.635 410.065C486.186 410.616 486.495 411.362 486.495 412.141V421.8C486.495 422.579 486.186 423.326 485.635 423.877C485.084 424.427 484.338 424.736 483.559 424.736H401.204V409.205Z" fill="white"/>
<path d="M408.574 599.737C408.258 599.751 407.943 599.701 407.647 599.59C407.351 599.479 407.08 599.309 406.852 599.091C406.623 598.873 406.44 598.611 406.315 598.321C406.19 598.031 406.124 597.719 406.122 597.403L391.442 427.438C391.417 425.972 390.844 424.568 389.836 423.503C388.828 422.438 387.458 421.789 385.996 421.683H316.648C315.188 421.793 313.822 422.443 312.817 423.508C311.812 424.572 311.241 425.974 311.216 427.438L296.536 597.476C296.534 597.791 296.469 598.102 296.345 598.391C296.221 598.68 296.039 598.941 295.812 599.159C295.585 599.377 295.316 599.547 295.022 599.659C294.728 599.77 294.414 599.822 294.099 599.81C293.456 599.675 292.89 599.295 292.522 598.749C292.155 598.203 292.015 597.536 292.132 596.889L306.812 426.909C307.326 420.964 311.583 416.486 316.692 416.486H386.04C391.164 416.486 395.406 420.964 395.92 426.909L410.6 596.889C410.696 597.527 410.544 598.177 410.176 598.707C409.807 599.237 409.25 599.605 408.618 599.737H408.574Z" fill="#FF7700"/>
<g opacity="0.4">
<path d="M408.574 599.737C408.258 599.751 407.943 599.701 407.647 599.59C407.351 599.479 407.08 599.309 406.852 599.091C406.623 598.873 406.44 598.611 406.315 598.321C406.19 598.031 406.124 597.719 406.122 597.403L391.442 427.438C391.417 425.972 390.844 424.568 389.836 423.503C388.828 422.438 387.458 421.789 385.996 421.683H316.648C315.188 421.793 313.822 422.443 312.817 423.508C311.812 424.572 311.241 425.974 311.216 427.438L296.536 597.476C296.534 597.791 296.469 598.102 296.345 598.391C296.221 598.68 296.039 598.941 295.812 599.159C295.585 599.377 295.316 599.547 295.022 599.659C294.728 599.77 294.414 599.822 294.099 599.81C293.456 599.675 292.89 599.295 292.522 598.749C292.155 598.203 292.015 597.536 292.132 596.889L306.812 426.909C307.326 420.964 311.583 416.486 316.692 416.486H386.04C391.164 416.486 395.406 420.964 395.92 426.909L410.6 596.889C410.696 597.527 410.544 598.177 410.176 598.707C409.807 599.237 409.25 599.605 408.618 599.737H408.574Z" fill="black"/>
</g>
<path d="M354.272 401.513H408.677V406.636C408.677 407.317 408.406 407.971 407.924 408.453C407.442 408.934 406.789 409.205 406.108 409.205H356.841C356.16 409.205 355.507 408.934 355.025 408.453C354.543 407.971 354.272 407.317 354.272 406.636V401.542V401.513Z" fill="#263238"/>
<path opacity="0.2" d="M354.272 401.513H408.677V406.636C408.677 407.317 408.406 407.971 407.924 408.453C407.442 408.934 406.789 409.205 406.108 409.205H356.841C356.16 409.205 355.507 408.934 355.025 408.453C354.543 407.971 354.272 407.317 354.272 406.636V401.542V401.513Z" fill="white"/>
<path d="M315.796 401.513H370.2V406.636C370.2 407.317 369.929 407.971 369.448 408.453C368.966 408.934 368.312 409.205 367.631 409.205H318.365C317.684 409.205 317.03 408.934 316.548 408.453C316.067 407.971 315.796 407.317 315.796 406.636V401.542V401.513Z" fill="#263238"/>
<path opacity="0.6" d="M315.796 401.513H370.2V406.636C370.2 407.317 369.929 407.971 369.448 408.453C368.966 408.934 368.312 409.205 367.631 409.205H318.365C317.684 409.205 317.03 408.934 316.548 408.453C316.067 407.971 315.796 407.317 315.796 406.636V401.542V401.513Z" fill="white"/>
<path d="M363.902 404.434H358.853V406.254H363.902V404.434Z" fill="#263238"/>
<path d="M355.814 404.434H350.764V406.254H355.814V404.434Z" fill="#263238"/>
<path d="M412.508 409.205H415.106C415.817 409.19 416.5 408.926 417.037 408.459C417.573 407.993 417.929 407.353 418.042 406.651L426.85 352.496C426.919 352.066 426.896 351.627 426.781 351.207C426.667 350.786 426.463 350.396 426.185 350.061C425.907 349.726 425.561 349.454 425.169 349.264C424.777 349.074 424.349 348.97 423.914 348.958L381.68 348.885L370.259 409.073H372.857L412.508 409.205Z" fill="#263238"/>
<path opacity="0.6" d="M412.508 409.205H415.106C415.817 409.19 416.5 408.926 417.037 408.459C417.573 407.993 417.929 407.353 418.042 406.651L426.85 352.496C426.919 352.066 426.896 351.627 426.781 351.207C426.667 350.786 426.463 350.396 426.185 350.061C425.907 349.726 425.561 349.454 425.169 349.264C424.777 349.074 424.349 348.97 423.914 348.958L381.68 348.885L370.259 409.073H372.857L412.508 409.205Z" fill="white"/>
<path opacity="0.2" d="M370.92 405.285L370.186 409.132H372.784L412.42 409.205H415.018C415.729 409.19 416.412 408.926 416.949 408.459C417.485 407.993 417.841 407.353 417.954 406.651L418.16 405.374L370.92 405.285Z" fill="black"/>
<path d="M370.244 409.176H372.872C373.583 409.161 374.266 408.897 374.802 408.43C375.339 407.963 375.695 407.323 375.808 406.621L384.616 352.437C384.685 352.008 384.662 351.569 384.547 351.15C384.432 350.731 384.229 350.341 383.95 350.007C383.672 349.673 383.326 349.403 382.934 349.214C382.542 349.026 382.114 348.923 381.68 348.914L370.244 409.176Z" fill="#263238"/>
<path opacity="0.3" d="M370.244 409.176H372.872C373.583 409.161 374.266 408.897 374.802 408.43C375.339 407.963 375.695 407.323 375.808 406.621L384.616 352.437C384.685 352.008 384.662 351.569 384.547 351.15C384.432 350.731 384.229 350.341 383.95 350.007C383.672 349.673 383.326 349.403 382.934 349.214C382.542 349.026 382.114 348.923 381.68 348.914L370.244 409.176Z" fill="white"/>
</svg>
