<svg width="471" height="235" viewBox="0 0 471 235" fill="none" xmlns="http://www.w3.org/2000/svg">
    <path fill-rule="evenodd" clip-rule="evenodd" d="M471 0.493652L451.375 16.3387C431.75 31.731 392.5 62.9684 353.25 82.4352C314 101.902 274.75 110.051 235.5 98.2802C196.25 86.5096 157 55.2722 117.75 47.5761C78.5 39.4272 39.25 55.2722 19.625 62.9684L0 70.6646V235H19.625C39.25 235 78.5 235 117.75 235C157 235 196.25 235 235.5 235C274.75 235 314 235 353.25 235C392.5 235 431.75 235 451.375 235H471V0.493652Z" fill="#424A60"/>
</svg>
