<svg width="550" height="550" viewBox="0 0 550 550" fill="none" xmlns="http://www.w3.org/2000/svg">
<path d="M464.651 198C467.148 172.194 473.121 147.763 462.561 122.947C443.179 77.407 384.714 53.229 339.284 74.8C316.052 85.8 296.186 101.893 270.6 107.8C201.542 123.739 94.952 38.819 57.365 137.687C44.462 171.611 49.665 216.315 72.996 244.673C80.487 253.77 89.639 261.69 95.183 272.096C110.352 300.575 88.88 331.87 79.2 358.435C56.21 421.212 142.89 455.95 189.937 462.352C267.707 473 331.859 383.9 409.2 420.2C463.1 445.5 510.4 383.9 500.5 322.3C494.021 281.974 461.219 243.375 464.288 202.279C464.398 200.86 464.519 199.441 464.651 198Z" fill="#FF7700"/>
<path opacity="0.7" d="M464.651 198C467.148 172.194 473.121 147.763 462.561 122.947C443.179 77.407 384.714 53.229 339.284 74.8C316.052 85.8 296.186 101.893 270.6 107.8C201.542 123.739 94.952 38.819 57.365 137.687C44.462 171.611 49.665 216.315 72.996 244.673C80.487 253.77 89.639 261.69 95.183 272.096C110.352 300.575 88.88 331.87 79.2 358.435C56.21 421.212 142.89 455.95 189.937 462.352C267.707 473 331.859 383.9 409.2 420.2C463.1 445.5 510.4 383.9 500.5 322.3C494.021 281.974 461.219 243.375 464.288 202.279C464.398 200.86 464.519 199.441 464.651 198Z" fill="white"/>
<path d="M94.347 214.786C115.324 214.786 132.33 197.78 132.33 176.803C132.33 155.826 115.324 138.82 94.347 138.82C73.3696 138.82 56.364 155.826 56.364 176.803C56.364 197.78 73.3696 214.786 94.347 214.786Z" fill="white" stroke="#2E353A" stroke-linecap="round" stroke-linejoin="round"/>
<path d="M91.52 211.013C112.497 211.013 129.503 194.007 129.503 173.03C129.503 152.053 112.497 135.047 91.52 135.047C70.5426 135.047 53.537 152.053 53.537 173.03C53.537 194.007 70.5426 211.013 91.52 211.013Z" fill="white" stroke="#2E353A" stroke-linecap="round" stroke-linejoin="round"/>
<path d="M91.5201 207.24C110.414 207.24 125.73 191.924 125.73 173.03C125.73 154.136 110.414 138.82 91.5201 138.82C72.6264 138.82 57.3101 154.136 57.3101 173.03C57.3101 191.924 72.6264 207.24 91.5201 207.24Z" fill="#2E353A" stroke="#2E353A" stroke-linecap="round" stroke-linejoin="round"/>
<path d="M87.505 147.312C87.505 147.312 83.732 137.874 77.132 131.274C70.532 124.674 43.626 120.417 43.626 120.417C47.9708 124.608 51.9217 129.188 55.429 134.101C61.556 142.593 81.829 161.942 81.829 161.942C81.829 161.942 71.929 153.45 62.953 152.504C53.977 151.558 31.339 156.277 29.953 156.277C28.567 156.277 38.445 160.05 45.529 163.35C52.613 166.65 79.97 169.488 79.97 169.488C79.97 169.488 68.178 172.788 60.17 175.626C52.162 178.464 44.572 199.21 44.572 199.21C44.572 199.21 54.956 189.772 63.921 187.418C72.886 185.064 85.624 180.818 85.624 180.818C85.624 180.818 77.605 189.783 75.724 195.921C73.843 202.059 75.251 216.205 75.251 216.205C75.251 216.205 79.497 203.005 84.689 197.802C89.881 192.599 95.524 183.7 95.524 183.7C98.1375 187.96 100.503 192.367 102.608 196.9C106.381 204.919 108.735 216.7 108.735 216.7C108.735 216.7 114.873 203.5 114.4 196.9C113.927 190.3 106.854 178.497 106.854 178.497C106.854 178.497 111.573 175.197 118.646 178.024C125.719 180.851 137.995 192.654 137.995 192.654C137.995 192.654 135.157 177.078 130.438 170.951C125.719 164.824 105.435 162.921 105.435 162.921C105.435 162.921 116.765 156.321 123.838 154.902C130.911 153.483 140.338 156.794 140.338 156.794C140.338 156.794 129.492 141.691 121 140.745C112.508 139.799 99.77 152.977 99.77 152.977L103.554 134.101C104.489 129.382 102.608 117.601 102.608 117.601C102.608 117.601 97.416 120.428 91.278 129.393C89.4817 131.975 88.2221 134.892 87.574 137.97C86.9259 141.048 86.9025 144.225 87.505 147.312Z" fill="#FF7700"/>
<path opacity="0.5" d="M87.505 147.312C87.505 147.312 83.732 137.874 77.132 131.274C70.532 124.674 43.626 120.417 43.626 120.417C47.9708 124.608 51.9217 129.188 55.429 134.101C61.556 142.593 81.829 161.942 81.829 161.942C81.829 161.942 71.929 153.45 62.953 152.504C53.977 151.558 31.339 156.277 29.953 156.277C28.567 156.277 38.445 160.05 45.529 163.35C52.613 166.65 79.97 169.488 79.97 169.488C79.97 169.488 68.178 172.788 60.17 175.626C52.162 178.464 44.572 199.21 44.572 199.21C44.572 199.21 54.956 189.772 63.921 187.418C72.886 185.064 85.624 180.818 85.624 180.818C85.624 180.818 77.605 189.783 75.724 195.921C73.843 202.059 75.251 216.205 75.251 216.205C75.251 216.205 79.497 203.005 84.689 197.802C89.881 192.599 95.524 183.7 95.524 183.7C98.1375 187.96 100.503 192.367 102.608 196.9C106.381 204.919 108.735 216.7 108.735 216.7C108.735 216.7 114.873 203.5 114.4 196.9C113.927 190.3 106.854 178.497 106.854 178.497C106.854 178.497 111.573 175.197 118.646 178.024C125.719 180.851 137.995 192.654 137.995 192.654C137.995 192.654 135.157 177.078 130.438 170.951C125.719 164.824 105.435 162.921 105.435 162.921C105.435 162.921 116.765 156.321 123.838 154.902C130.911 153.483 140.338 156.794 140.338 156.794C140.338 156.794 129.492 141.691 121 140.745C112.508 139.799 99.77 152.977 99.77 152.977L103.554 134.101C104.489 129.382 102.608 117.601 102.608 117.601C102.608 117.601 97.416 120.428 91.278 129.393C89.4817 131.975 88.2221 134.892 87.574 137.97C86.9259 141.048 86.9025 144.225 87.505 147.312Z" fill="black"/>
<path d="M96.8 132.946C97.13 131.593 97.493 130.24 97.9 128.909" stroke="#2E353A" stroke-width="0.5" stroke-linecap="round" stroke-linejoin="round"/>
<path d="M65.285 132.946C69.685 136.169 75.185 140.646 78.067 144.485C83.259 151.558 93.643 166.661 93.643 166.661C93.3456 156.517 94.1496 146.371 96.041 136.4" stroke="#2E353A" stroke-width="0.5" stroke-linecap="round" stroke-linejoin="round"/>
<path d="M58.729 128.436C58.729 128.436 60.104 129.316 62.161 130.735" stroke="#2E353A" stroke-width="0.5" stroke-linecap="round" stroke-linejoin="round"/>
<path d="M93.6431 166.661C93.6431 166.661 111.573 148.731 119.119 147.312C126.665 145.893 133.276 151.558 133.276 151.558" stroke="#2E353A" stroke-width="0.5" stroke-linecap="round" stroke-linejoin="round"/>
<path d="M61.6 181.654C57.2 184.426 56.837 186.054 56.837 186.054" stroke="#2E353A" stroke-width="0.5" stroke-linecap="round" stroke-linejoin="round"/>
<path d="M132.803 183.172C132.803 183.172 129.976 176.088 120.065 172.788C110.154 169.488 94.6001 169.015 94.6001 169.015C94.6001 169.015 72.7651 176.165 64.7791 179.894" stroke="#2E353A" stroke-width="0.5" stroke-linecap="round" stroke-linejoin="round"/>
<path d="M85.052 166.32C90.332 167.86 94.589 169.015 94.589 169.015" stroke="#2E353A" stroke-width="0.5" stroke-linecap="round" stroke-linejoin="round"/>
<path d="M51.821 157.938C56.947 158.246 63.547 158.95 67.221 160.523C70.213 161.81 76.109 163.669 81.675 165.33" stroke="#2E353A" stroke-width="0.5" stroke-linecap="round" stroke-linejoin="round"/>
<path d="M44.572 157.696C44.572 157.696 46.299 157.696 48.84 157.795" stroke="#2E353A" stroke-width="0.5" stroke-linecap="round" stroke-linejoin="round"/>
<path d="M93.643 171.842C93.643 171.842 80.443 191.642 79.486 196.383C78.9191 199.18 78.6026 202.022 78.54 204.875" stroke="#2E353A" stroke-width="0.5" stroke-linecap="round" stroke-linejoin="round"/>
<path d="M99.5171 178.079C102.058 181.379 105.105 185.779 106.381 189.299C107.866 193.594 108.971 198.011 109.681 202.499" stroke="#2E353A" stroke-width="0.5" stroke-linecap="round" stroke-linejoin="round"/>
<path d="M95.524 173.261C95.524 173.261 96.624 174.427 98.043 176.22" stroke="#2E353A" stroke-width="0.5" stroke-linecap="round" stroke-linejoin="round"/>
<path d="M81.51 151.382C81.51 151.382 79.079 141.482 80.586 132.297C82.093 123.112 101.486 103.939 101.486 103.939C100.408 109.877 99.8743 115.9 99.891 121.935C99.891 132.407 94.666 159.951 94.666 159.951C94.666 159.951 97.757 147.279 104.489 141.251C111.221 135.223 132.374 125.851 133.518 125.048C134.662 124.245 128.821 133.067 125.004 139.887C121.187 146.707 100.584 165 100.584 165C100.584 165 112.09 160.798 120.252 158.4C128.414 156.002 146.652 168.476 146.652 168.476C146.652 168.476 132.715 166.87 124.058 170.181C115.401 173.492 102.575 177.474 102.575 177.474C102.575 177.474 114.323 180.081 119.427 183.964C124.531 187.847 131.659 200.2 131.659 200.2C131.659 200.2 120.505 191.939 113.256 190.751C106.007 189.563 96.184 185.592 96.184 185.592C96.5566 190.575 97.2103 195.533 98.142 200.442C99.759 209.165 104.742 220.121 104.742 220.121C104.742 220.121 92.059 212.971 88.583 207.328C85.107 201.685 83.985 187.979 83.985 187.979C83.985 187.979 78.221 188.045 74.085 194.469C69.949 200.893 66.902 217.635 66.902 217.635C66.902 217.635 60.126 203.335 60.379 195.635C60.632 187.935 76.01 174.537 76.01 174.537C76.01 174.537 62.964 175.78 56.386 178.75C49.808 181.72 44.066 189.915 44.066 189.915C44.066 189.915 44.066 171.325 50.424 165.605C56.782 159.885 74.833 163.185 74.833 163.185L60.753 150.062C57.233 146.762 51.887 136.092 51.887 136.092C51.887 136.092 57.761 135.366 67.969 139.073C70.9362 140.112 73.664 141.737 75.9903 143.852C78.3166 145.966 80.1937 148.527 81.51 151.382V151.382Z" fill="#FF7700"/>
<path d="M65.582 145.134C64.482 144.221 63.448 143.341 62.348 142.483" stroke="#2E353A" stroke-width="0.5" stroke-linecap="round" stroke-linejoin="round"/>
<path d="M91.1791 126.753C89.4741 131.945 87.5711 138.776 87.5271 143.572C87.4391 152.372 87.8131 170.665 87.8131 170.665C82.1354 162.254 75.559 154.487 68.2001 147.499" stroke="#2E353A" stroke-width="0.5" stroke-linecap="round" stroke-linejoin="round"/>
<path d="M93.885 119.262C93.885 119.262 93.269 120.78 92.433 123.123" stroke="#2E353A" stroke-width="0.5" stroke-linecap="round" stroke-linejoin="round"/>
<path d="M87.813 170.665C87.813 170.665 62.788 166.562 55.836 169.818C48.884 173.074 46.816 181.5 46.816 181.5" stroke="#2E353A" stroke-width="0.5" stroke-linecap="round" stroke-linejoin="round"/>
<path d="M122.595 164.153C127.754 163.867 128.986 164.912 128.986 164.912" stroke="#2E353A" stroke-width="0.5" stroke-linecap="round" stroke-linejoin="round"/>
<path d="M65.6371 206.921C65.6371 206.921 63.8111 199.518 69.9271 191.059C76.0431 182.6 88.4291 173.14 88.4291 173.14C88.4291 173.14 110.33 166.199 118.987 164.582" stroke="#2E353A" stroke-width="0.5" stroke-linecap="round" stroke-linejoin="round"/>
<path d="M94.6001 165.385C91.2121 169.708 88.4401 173.14 88.4401 173.14" stroke="#2E353A" stroke-width="0.5" stroke-linecap="round" stroke-linejoin="round"/>
<path d="M116.699 139.194C112.717 142.494 107.767 146.894 105.699 150.271C104.016 153.065 100.309 157.971 96.7561 162.602" stroke="#2E353A" stroke-width="0.5" stroke-linecap="round" stroke-linejoin="round"/>
<path d="M122.441 134.761C122.441 134.761 121.044 135.773 119.031 137.335" stroke="#2E353A" stroke-width="0.5" stroke-linecap="round" stroke-linejoin="round"/>
<path d="M90.838 174.9C90.838 174.9 113.135 183.282 116.644 186.571C118.736 188.512 120.651 190.636 122.364 192.918" stroke="#2E353A" stroke-width="0.5" stroke-linecap="round" stroke-linejoin="round"/>
<path d="M89.7051 183.37C89.5511 187.528 89.6281 192.863 90.6731 196.493C91.9698 200.854 93.6521 205.091 95.7001 209.154" stroke="#2E353A" stroke-width="0.5" stroke-linecap="round" stroke-linejoin="round"/>
<path d="M90.134 177.1C90.134 177.1 89.958 178.662 89.826 180.972" stroke="#2E353A" stroke-width="0.5" stroke-linecap="round" stroke-linejoin="round"/>
<path d="M154.913 201.773H404.25C407.363 201.773 410.348 203.01 412.549 205.211C414.75 207.412 415.987 210.397 415.987 213.51V375.21C415.987 376.896 415.655 378.565 415.01 380.123C414.365 381.68 413.419 383.095 412.227 384.287C411.035 385.479 409.62 386.425 408.063 387.07C406.505 387.715 404.836 388.047 403.15 388.047H156.013C154.327 388.047 152.658 387.715 151.101 387.07C149.543 386.425 148.128 385.479 146.936 384.287C145.744 383.095 144.798 381.68 144.153 380.123C143.508 378.565 143.176 376.896 143.176 375.21V213.51C143.176 210.397 144.413 207.412 146.614 205.211C148.815 203.01 151.8 201.773 154.913 201.773Z" fill="#F6F6F6" stroke="#2E353A" stroke-linecap="round" stroke-linejoin="round"/>
<path d="M246.169 220.11H230.813V230.197H246.169V220.11Z" fill="#2E353A"/>
<path d="M196.416 282.337H182.16V296.483H196.416V282.337Z" fill="#2E353A"/>
<path d="M259.402 232.617H245.036V246.763H259.402V232.617Z" fill="#2E353A"/>
<path d="M228.382 220.11H213.026V230.197H228.382V220.11Z" fill="#2E353A"/>
<path d="M276.188 232.617H261.822V246.763H276.188V232.617Z" fill="#2E353A"/>
<path d="M263.945 220.11H248.589V230.197H263.945V220.11Z" fill="#2E353A"/>
<path d="M187.803 265.76H160.787V279.906H187.803V265.76Z" fill="#2E353A"/>
<path d="M225.819 232.617H211.453V246.763H225.819V232.617Z" fill="#2E353A"/>
<path d="M179.74 282.337H160.787V296.483H179.74V282.337Z" fill="#2E353A"/>
<path d="M281.732 220.11H266.376V230.197H281.732V220.11Z" fill="#2E353A"/>
<path d="M192.236 232.617H177.87V246.763H192.236V232.617Z" fill="#2E353A"/>
<path d="M192.819 220.11H177.463V230.197H192.819V220.11Z" fill="#2E353A"/>
<path d="M210.606 220.11H195.25V230.197H210.606V220.11Z" fill="#2E353A"/>
<path d="M209.022 232.617H194.656V246.763H209.022V232.617Z" fill="#2E353A"/>
<path d="M242.605 232.617H228.239V246.763H242.605V232.617Z" fill="#2E353A"/>
<path d="M352.869 220.11H337.513V230.197H352.869V220.11Z" fill="#2E353A"/>
<path d="M370.645 220.11H355.289V230.197H370.645V220.11Z" fill="#2E353A"/>
<path d="M360.151 232.617H345.785V246.763H360.151V232.617Z" fill="#2E353A"/>
<path d="M376.948 232.617H362.582V246.763H376.948V232.617Z" fill="#2E353A"/>
<path d="M403.513 282.337H382.36V296.483H403.513V282.337Z" fill="#2E353A"/>
<path d="M388.432 220.11H373.076V230.197H388.432V220.11Z" fill="#2E353A"/>
<path d="M175.45 232.617H160.787V246.763H175.45V232.617Z" fill="#2E353A"/>
<path d="M299.519 220.11H284.163V230.197H299.519V220.11Z" fill="#2E353A"/>
<path d="M317.295 220.11H301.939V230.197H317.295V220.11Z" fill="#2E353A"/>
<path d="M309.782 232.617H295.416V246.763H309.782V232.617Z" fill="#2E353A"/>
<path d="M343.365 232.617H328.999V246.763H343.365V232.617Z" fill="#2E353A"/>
<path d="M292.985 232.617H278.619V246.763H292.985V232.617Z" fill="#2E353A"/>
<path d="M326.568 232.617H312.202V246.763H326.568V232.617Z" fill="#2E353A"/>
<path d="M335.082 220.11H319.726V230.197H335.082V220.11Z" fill="#2E353A"/>
<path d="M313.203 282.337H298.947V296.483H313.203V282.337Z" fill="#2E353A"/>
<path d="M388.003 265.76H373.747V279.906H388.003V265.76Z" fill="#2E353A"/>
<path d="M371.316 265.76H357.06V279.906H371.316V265.76Z" fill="#2E353A"/>
<path d="M379.929 282.337H365.673V296.483H379.929V282.337Z" fill="#2E353A"/>
<path d="M363.253 282.337H348.997V296.483H363.253V282.337Z" fill="#2E353A"/>
<path d="M329.879 282.337H315.623V296.483H329.879V282.337Z" fill="#2E353A"/>
<path d="M346.566 282.337H332.31V296.483H346.566V282.337Z" fill="#2E353A"/>
<path d="M354.629 265.76H340.373V279.906H354.629V265.76Z" fill="#2E353A"/>
<path d="M337.953 265.76H323.697V279.906H337.953V265.76Z" fill="#2E353A"/>
<path d="M403.524 220.11H390.863V230.197H403.524V220.11Z" fill="#2E353A"/>
<path d="M175.043 220.11H160.787V230.197H175.043V220.11Z" fill="#2E353A"/>
<path d="M403.524 298.903H160.787V313.61H403.524V298.903Z" fill="#2E353A"/>
<path d="M403.513 232.617H379.368V246.763H403.513V232.617Z" fill="#2E353A"/>
<path d="M403.513 265.76H390.423V279.906H403.513V265.76Z" fill="#2E353A"/>
<path d="M386.397 263.23H383.966V249.194H369.71V263.23H367.29V249.194H353.034V263.23H350.603V249.194H336.347V263.23H333.916V249.194H319.66V263.23H317.24V249.194H302.984V263.23H300.553V249.194H286.297V263.23H283.866V249.194H269.61V263.23H267.19V249.194H252.934V263.23H250.503V249.194H236.247V263.23H233.816V249.194H219.56V263.23H217.14V249.194H202.884V263.23H200.453V249.194H186.197V263.23H183.766V249.194H160.787V263.34H403.513V249.194H386.397V263.23Z" fill="#2E353A"/>
<path d="M271.216 265.76H256.96V279.906H271.216V265.76Z" fill="#2E353A"/>
<path d="M321.266 265.76H307.01V279.906H321.266V265.76Z" fill="#2E353A"/>
<path d="M237.853 265.76H223.597V279.906H237.853V265.76Z" fill="#2E353A"/>
<path d="M246.466 282.337H232.21V296.483H246.466V282.337Z" fill="#2E353A"/>
<path d="M254.529 265.76H240.273V279.906H254.529V265.76Z" fill="#2E353A"/>
<path d="M221.166 265.76H206.91V279.906H221.166V265.76Z" fill="#2E353A"/>
<path d="M213.103 282.337H198.847V296.483H213.103V282.337Z" fill="#2E353A"/>
<path d="M229.779 282.337H215.523V296.483H229.779V282.337Z" fill="#2E353A"/>
<path d="M287.903 265.76H273.647V279.906H287.903V265.76Z" fill="#2E353A"/>
<path d="M296.516 282.337H282.26V296.483H296.516V282.337Z" fill="#2E353A"/>
<path d="M304.579 265.76H290.323V279.906H304.579V265.76Z" fill="#2E353A"/>
<path d="M263.153 282.337H248.897V296.483H263.153V282.337Z" fill="#2E353A"/>
<path d="M279.829 282.337H265.573V296.483H279.829V282.337Z" fill="#2E353A"/>
<path d="M204.479 265.76H190.223V279.906H204.479V265.76Z" fill="#2E353A"/>
<path d="M431.563 100.573H126.137C124.639 100.574 123.162 100.92 121.819 101.583C120.476 102.246 119.304 103.21 118.392 104.398C117.481 105.587 116.855 106.97 116.564 108.439C116.272 109.908 116.322 111.424 116.71 112.871L139.04 196.009C139.597 198.084 140.822 199.918 142.526 201.227C144.23 202.535 146.318 203.245 148.467 203.247H179.641V209H379.5V203.28H409.2C411.349 203.278 413.437 202.568 415.141 201.26C416.845 199.951 418.071 198.117 418.627 196.042L440.957 112.904C441.35 111.458 441.405 109.941 441.118 108.47C440.831 106.999 440.21 105.614 439.301 104.422C438.393 103.229 437.223 102.262 435.881 101.595C434.539 100.928 433.062 100.578 431.563 100.573V100.573Z" fill="#2E353A" stroke="#2E353A" stroke-linecap="round" stroke-linejoin="round"/>
<path d="M397.023 195.91H160.677L137.038 110.847H420.651L397.023 195.91Z" fill="#F6F6F6" stroke="#2E353A" stroke-linecap="round" stroke-linejoin="round"/>
<path d="M176.363 158.576V159.676H172.194V158.576H176.363Z" fill="#2E353A"/>
<path d="M181.555 158.576V159.676H177.375V158.576H181.555Z" fill="#2E353A"/>
<path d="M186.747 158.576V159.676H182.6V158.576H186.747Z" fill="#2E353A"/>
<path d="M191.928 158.576V159.676H187.759V158.576H191.928Z" fill="#2E353A"/>
<path d="M197.12 158.576V159.676H192.94V158.576H197.12Z" fill="#2E353A"/>
<path d="M202.312 158.576V159.676H198.132V158.576H202.312Z" fill="#2E353A"/>
<path d="M207.493 158.576V159.676H203.324V158.576H207.493Z" fill="#2E353A"/>
<path d="M212.63 164.373L208.032 152.119H209.132L213.73 164.373H212.63Z" fill="#2E353A"/>
<path d="M172.161 140.734V141.834H167.992V140.734H172.161Z" fill="#2E353A"/>
<path d="M177.353 140.734V141.834H173.184V140.734H177.353Z" fill="#2E353A"/>
<path d="M182.6 140.734V141.834H178.42V140.734H182.6Z" fill="#2E353A"/>
<path d="M187.737 140.734V141.834H183.557V140.734H187.737Z" fill="#2E353A"/>
<path d="M192.918 140.734V141.834H188.749V140.734H192.918Z" fill="#2E353A"/>
<path d="M201.696 140.734V141.834H197.516V140.734H201.696Z" fill="#2E353A"/>
<path d="M206.877 140.734V141.834H202.708V140.734H206.877Z" fill="#2E353A"/>
<path d="M212.069 140.734V141.834H207.9V140.734H212.069Z" fill="#2E353A"/>
<path d="M217.261 140.734V141.834H213.081V140.734H217.261Z" fill="#2E353A"/>
<path d="M222.442 140.734V141.834H218.273V140.734H222.442Z" fill="#2E353A"/>
<path d="M227.634 140.734V141.834H223.465V140.734H227.634Z" fill="#2E353A"/>
<path d="M232.826 140.734V141.834H228.646V140.734H232.826Z" fill="#2E353A"/>
<path d="M241.593 140.734V141.834H237.424V140.734H241.593Z" fill="#2E353A"/>
<path d="M246.785 140.734V141.834H242.605V140.734H246.785Z" fill="#2E353A"/>
<path d="M251.977 140.734V141.834H247.797V140.734H251.977Z" fill="#2E353A"/>
<path d="M260.7 140.734V141.834H256.531V140.734H260.7Z" fill="#2E353A"/>
<path d="M265.936 140.734V141.834H261.8V140.734H265.936Z" fill="#2E353A"/>
<path d="M271.128 140.734V141.834H266.948V140.734H271.128Z" fill="#2E353A"/>
<path d="M290.642 140.734V141.834H286.473V140.734H290.642Z" fill="#2E353A"/>
<path d="M295.834 140.734V141.834H291.654V140.734H295.834Z" fill="#2E353A"/>
<path d="M301.026 140.734V141.834H296.846V140.734H301.026Z" fill="#2E353A"/>
<path d="M306.207 140.734V141.834H302.038V140.734H306.207Z" fill="#2E353A"/>
<path d="M311.399 140.734V141.834H307.219V140.734H311.399Z" fill="#2E353A"/>
<path d="M320.166 140.734V141.834H315.997V140.734H320.166Z" fill="#2E353A"/>
<path d="M325.358 140.734V141.834H321.2V140.734H325.358Z" fill="#2E353A"/>
<path d="M330.55 140.734V141.834H326.37V140.734H330.55Z" fill="#2E353A"/>
<path d="M339.317 140.734V141.834H335.148V140.734H339.317Z" fill="#2E353A"/>
<path d="M348.095 140.734V141.834H343.915V140.734H348.095Z" fill="#2E353A"/>
<path d="M417.659 321.519L405.889 366.927L417.021 370.194L417.659 321.519Z" fill="white" stroke="#2E353A" stroke-linecap="round" stroke-linejoin="round"/>
<path d="M422.939 273.526C421.611 271.485 421.126 269.009 421.586 266.618C422.191 262.141 427.592 261.118 427.592 261.118C427.592 261.118 428.769 260.227 433.092 261.866C437.415 263.505 470.844 268.037 492.206 270.93C513.568 273.823 520.487 271.953 520.19 279.29C519.893 286.627 501.149 352.473 500.863 354.541C500.577 356.609 422.939 273.526 422.939 273.526Z" fill="white" stroke="#2E353A" stroke-miterlimit="10"/>
<path d="M512.792 285.71L422.93 273.528L408.409 380.645L498.271 392.827L512.792 285.71Z" fill="white" stroke="#2E353A" stroke-linecap="round" stroke-linejoin="round"/>
<path d="M496.089 307.076L501.314 307.791" stroke="#2E353A" stroke-width="0.5" stroke-linecap="round" stroke-linejoin="round"/>
<path d="M463.364 302.643L491.953 306.526" stroke="#2E353A" stroke-width="0.5" stroke-linecap="round" stroke-linejoin="round"/>
<path d="M428.714 297.946L459.228 302.082" stroke="#2E353A" stroke-width="0.5" stroke-linecap="round" stroke-linejoin="round"/>
<path d="M487.905 315.667L500.027 317.317" stroke="#2E353A" stroke-width="0.5" stroke-linecap="round" stroke-linejoin="round"/>
<path d="M427.427 307.472L475.508 313.984" stroke="#2E353A" stroke-width="0.5" stroke-linecap="round" stroke-linejoin="round"/>
<path d="M451.825 320.474L498.74 326.832" stroke="#2E353A" stroke-width="0.5" stroke-linecap="round" stroke-linejoin="round"/>
<path d="M426.129 316.987L446.996 319.825" stroke="#2E353A" stroke-width="0.5" stroke-linecap="round" stroke-linejoin="round"/>
<path d="M467.412 332.288L497.442 336.358" stroke="#2E353A" stroke-width="0.5" stroke-linecap="round" stroke-linejoin="round"/>
<path d="M441.925 328.823L463.969 331.815" stroke="#2E353A" stroke-width="0.5" stroke-linecap="round" stroke-linejoin="round"/>
<path d="M424.842 326.513L438.13 328.317" stroke="#2E353A" stroke-width="0.5" stroke-linecap="round" stroke-linejoin="round"/>
<path d="M485.408 344.421L496.155 345.873" stroke="#2E353A" stroke-width="0.5" stroke-linecap="round" stroke-linejoin="round"/>
<path d="M423.555 336.039L478.181 343.442" stroke="#2E353A" stroke-width="0.5" stroke-linecap="round" stroke-linejoin="round"/>
<path d="M464.486 351.274L494.868 355.399" stroke="#2E353A" stroke-width="0.5" stroke-linecap="round" stroke-linejoin="round"/>
<path d="M422.257 345.554L459.316 350.581" stroke="#2E353A" stroke-width="0.5" stroke-linecap="round" stroke-linejoin="round"/>
<path d="M473.869 362.252L493.57 364.914" stroke="#2E353A" stroke-width="0.5" stroke-linecap="round" stroke-linejoin="round"/>
<path d="M433.917 356.829L469.051 361.592" stroke="#2E353A" stroke-width="0.5" stroke-linecap="round" stroke-linejoin="round"/>
<path d="M420.97 355.08L429.781 356.268" stroke="#2E353A" stroke-width="0.5" stroke-linecap="round" stroke-linejoin="round"/>
<path d="M512.798 285.714C512.798 285.714 514.338 270.776 519.838 276.782" stroke="#2E353A" stroke-linecap="round" stroke-linejoin="round"/>
<path d="M482.328 400.785L482.229 410.278L476.696 402.468L454.487 327.767L460.119 326.084L482.328 400.785Z" fill="white" stroke="#2E353A" stroke-linecap="round" stroke-linejoin="round"/>
<path d="M457.915 329.276L454.842 330.172L476.663 404.99L479.736 404.094L457.915 329.276Z" fill="#FF7700" stroke="#2E353A" stroke-width="0.5" stroke-linecap="round" stroke-linejoin="round"/>
<path d="M482.328 400.807L476.707 402.479L482.229 410.278L482.328 400.807Z" stroke="#2E353A" stroke-linecap="round" stroke-linejoin="round"/>
<path d="M479.468 406.373L482.229 410.278L482.284 405.537L479.468 406.373Z" fill="#2E353A" stroke="#2E353A" stroke-linecap="round" stroke-linejoin="round"/>
<path d="M454.817 318.56C454.072 318.784 453.445 319.294 453.075 319.978C452.704 320.662 452.618 321.465 452.837 322.212L454.487 327.767L460.119 326.095L458.469 320.54C458.245 319.795 457.735 319.168 457.051 318.797C456.367 318.427 455.564 318.341 454.817 318.56V318.56Z" fill="white" stroke="#2E353A" stroke-linecap="round" stroke-linejoin="round"/>
<path d="M454.817 318.56C454.072 318.784 453.445 319.294 453.075 319.978C452.704 320.662 452.618 321.465 452.837 322.212L453.629 324.863L459.25 323.191L458.469 320.54C458.245 319.795 457.735 319.168 457.051 318.797C456.367 318.427 455.564 318.341 454.817 318.56V318.56Z" fill="#2E353A" stroke="#2E353A" stroke-linecap="round" stroke-linejoin="round"/>
<path d="M177.815 274.439C177.111 275.429 176.418 276.463 175.725 277.552" stroke="white" stroke-linecap="round" stroke-linejoin="round"/>
<path d="M189.321 261.195C186.256 264.036 183.42 267.115 180.84 270.402" stroke="white" stroke-linecap="round" stroke-linejoin="round"/>
<path d="M176.836 267.036C173.831 271.251 171.108 275.661 168.685 280.236" stroke="white" stroke-linecap="round" stroke-linejoin="round"/>
<path d="M254.419 291.225C253.726 292.215 253.022 293.249 252.329 294.327" stroke="white" stroke-linecap="round" stroke-linejoin="round"/>
<path d="M265.925 277.981C262.866 280.824 260.034 283.903 257.455 287.188" stroke="white" stroke-linecap="round" stroke-linejoin="round"/>
<path d="M253.451 283.8C250.447 288.039 247.724 292.471 245.3 297.066" stroke="white" stroke-linecap="round" stroke-linejoin="round"/>
<path d="M364.221 264C363.22 263.318 362.164 262.636 361.075 261.954" stroke="white" stroke-linecap="round" stroke-linejoin="round"/>
<path d="M377.641 275.308C374.748 272.295 371.626 269.511 368.302 266.981" stroke="white" stroke-linecap="round" stroke-linejoin="round"/>
<path d="M371.613 262.9C367.332 259.96 362.864 257.304 358.237 254.947" stroke="white" stroke-linecap="round" stroke-linejoin="round"/>
<path d="M251.075 332.2C250.503 336.336 249.645 342.1 248.787 345.521" stroke="#2E353A" stroke-linecap="round" stroke-linejoin="round"/>
<path d="M251.713 327.173C251.713 327.173 251.625 327.954 251.46 329.219" stroke="#2E353A" stroke-linecap="round" stroke-linejoin="round"/>
<path d="M254.65 338.91C253.449 342.917 251.979 346.838 250.25 350.647" stroke="#2E353A" stroke-linecap="round" stroke-linejoin="round"/>
<path d="M309.65 344.773C309.65 344.773 310.387 354.31 315.513 359.447" stroke="#2E353A" stroke-linecap="round" stroke-linejoin="round"/>
<path d="M308.913 354.31C308.913 354.31 311.113 360.91 315.513 363.847" stroke="#2E353A" stroke-linecap="round" stroke-linejoin="round"/>
<g style="mix-blend-mode:multiply">
<path d="M159.5 405.284C159.5 405.284 164.384 401.357 164.384 367.598C164.384 333.839 170.005 309.177 176.935 298.364C183.865 287.551 190.344 283.217 193.38 283.217C196.416 283.217 194.238 287.111 189.915 292.732C185.592 298.353 181.698 301.389 179.96 308.319C178.222 315.249 178.233 323.895 180.4 323.026C182.567 322.157 186.021 304.854 189.046 298.364C192.071 291.874 199.441 283.646 203.764 279.752C208.087 275.858 217.613 264.176 221.936 267.201C226.259 270.226 223.674 274.56 221.078 276.287C218.482 278.014 208.087 288.387 203.335 294.899C198.583 301.411 195.547 317.834 198.143 318.263C200.739 318.692 208.527 294.47 212.85 289.278C217.173 284.086 234.487 269.797 238.381 269.368C242.275 268.939 242.715 274.989 239.25 278.025C235.785 281.061 224.103 294.03 220.209 301.818C216.315 309.606 214.577 323.895 218.009 320.43C221.441 316.965 227.095 302.687 231.858 297.924C236.621 293.161 250.899 278.025 254.364 279.752C257.829 281.479 256.96 285.813 253.935 288.838C250.91 291.863 239.217 308.319 236.192 316.965C233.167 325.611 229.691 349.855 231.429 346.401C233.167 342.947 238.788 325.193 241.813 317.801C244.838 310.409 250.899 306.988 251.768 310.442C252.637 313.896 250.899 315.634 248.732 323.433C246.565 331.232 246.532 352.033 240.086 363.671C233.64 375.309 207.768 400.213 204.314 408.859C201.812 414.814 198.825 420.553 195.382 426.019" fill="#CAC4BF"/>
</g>
<g style="mix-blend-mode:multiply">
<path d="M399.905 408.21C399.905 408.21 394.9 401.357 394.9 367.598C394.9 333.839 389.268 309.177 382.349 298.364C375.43 287.551 368.929 283.217 365.904 283.217C362.879 283.217 365.035 287.111 369.369 292.732C373.703 298.353 377.586 301.389 379.269 308.319C380.952 315.249 381.007 323.895 378.84 323.026C376.673 322.157 373.219 304.854 370.183 298.364C367.147 291.874 359.799 283.646 355.476 279.752C351.153 275.858 341.627 264.176 337.293 267.201C332.959 270.226 335.566 274.56 338.162 276.287C340.758 278.014 351.142 288.387 355.905 294.899C360.668 301.411 363.693 317.834 361.097 318.263C358.501 318.692 350.746 294.47 346.423 289.3C342.1 284.13 324.775 269.819 320.881 269.39C316.987 268.961 316.558 275.011 320.023 278.047C323.488 281.083 335.17 294.052 339.064 301.84C342.958 309.628 344.685 323.917 341.264 320.452C337.843 316.987 332.178 302.709 327.426 297.946C322.674 293.183 308.385 278.047 304.92 279.774C301.455 281.501 302.324 285.835 305.349 288.86C308.374 291.885 320.067 308.341 323.092 316.987C326.117 325.633 329.582 349.877 327.855 346.423C326.128 342.969 320.496 325.215 317.471 317.823C314.446 310.431 308.385 307.01 307.516 310.464C306.647 313.918 308.385 315.656 310.541 323.455C312.697 331.254 312.741 352.055 319.198 363.693C325.655 375.331 350.79 398.046 354.255 406.703C357.72 415.36 363.99 429 363.99 429" fill="#CAC4BF"/>
</g>
<path d="M157.85 413.6C157.85 413.6 164.34 392.403 164.34 358.6C164.34 324.797 169.961 300.179 176.891 289.366C183.821 278.553 190.3 274.219 193.336 274.219C196.372 274.219 194.194 278.113 189.871 283.734C185.548 289.355 181.654 292.391 179.916 299.31C178.178 306.229 178.189 314.897 180.356 314.028C182.523 313.159 185.977 295.856 189.002 289.366C192.027 282.876 199.397 274.648 203.72 270.754C208.043 266.86 217.569 255.178 221.892 258.203C226.215 261.228 223.63 265.562 221.034 267.289C218.438 269.016 208.043 279.389 203.291 285.901C198.539 292.413 195.503 308.836 198.099 309.265C200.695 309.694 208.483 285.472 212.806 280.269C217.129 275.066 234.443 260.799 238.337 260.37C242.231 259.941 242.671 265.991 239.206 269.027C235.741 272.063 224.059 285.032 220.165 292.82C216.271 300.608 214.533 314.897 217.965 311.432C221.397 307.967 227.051 293.689 231.814 288.926C236.577 284.163 250.855 269.027 254.32 270.754C257.785 272.481 256.916 276.815 253.891 279.84C250.866 282.865 239.173 299.31 236.148 307.967C233.123 316.624 229.647 340.857 231.385 337.392C233.123 333.927 238.744 316.195 241.769 308.792C244.794 301.389 250.855 297.968 251.724 301.433C252.593 304.898 250.855 306.625 248.688 314.413C246.521 322.201 246.488 343.013 240.042 354.662C233.596 366.311 208.45 397.936 204.985 406.593C201.52 415.25 193.732 434.291 193.732 434.291" fill="white"/>
<path d="M157.85 413.6C157.85 413.6 164.34 392.403 164.34 358.6C164.34 324.797 169.961 300.179 176.891 289.366C183.821 278.553 190.3 274.219 193.336 274.219C196.372 274.219 194.194 278.113 189.871 283.734C185.548 289.355 181.654 292.391 179.916 299.31C178.178 306.229 178.189 314.897 180.356 314.028C182.523 313.159 185.977 295.856 189.002 289.366C192.027 282.876 199.397 274.648 203.72 270.754C208.043 266.86 217.569 255.178 221.892 258.203C226.215 261.228 223.63 265.562 221.034 267.289C218.438 269.016 208.043 279.389 203.291 285.901C198.539 292.413 195.503 308.836 198.099 309.265C200.695 309.694 208.483 285.472 212.806 280.269C217.129 275.066 234.443 260.799 238.337 260.37C242.231 259.941 242.671 265.991 239.206 269.027C235.741 272.063 224.059 285.032 220.165 292.82C216.271 300.608 214.533 314.897 217.965 311.432C221.397 307.967 227.051 293.689 231.814 288.926C236.577 284.163 250.855 269.027 254.32 270.754C257.785 272.481 256.916 276.815 253.891 279.84C250.866 282.865 239.173 299.31 236.148 307.967C233.123 316.624 229.647 340.857 231.385 337.392C233.123 333.927 238.744 316.195 241.769 308.792C244.794 301.389 250.855 297.968 251.724 301.433C252.593 304.898 250.855 306.625 248.688 314.413C246.521 322.201 246.488 343.013 240.042 354.662C233.596 366.311 208.45 397.936 204.985 406.593C201.52 415.25 193.732 434.291 193.732 434.291" stroke="#2E353A" stroke-linecap="round" stroke-linejoin="round"/>
<path d="M401.379 413.6C401.379 413.6 394.889 392.403 394.889 358.6C394.889 324.797 389.257 300.179 382.338 289.366C375.419 278.553 368.918 274.219 365.893 274.219C362.868 274.219 365.024 278.113 369.358 283.734C373.692 289.355 377.575 292.391 379.258 299.31C380.941 306.229 380.996 314.897 378.829 314.028C376.662 313.159 373.208 295.856 370.172 289.366C367.136 282.876 359.788 274.648 355.465 270.754C351.142 266.86 341.616 255.178 337.282 258.203C332.948 261.228 335.555 265.562 338.151 267.289C340.747 269.016 351.131 279.389 355.894 285.901C360.657 292.413 363.682 308.836 361.086 309.265C358.49 309.694 350.702 285.472 346.379 280.269C342.056 275.066 324.731 260.799 320.837 260.37C316.943 259.941 316.514 265.991 319.979 269.027C323.444 272.063 335.126 285.032 339.02 292.82C342.914 300.608 344.641 314.897 341.22 311.432C337.799 307.967 332.134 293.689 327.382 288.926C322.63 284.163 308.341 269.027 304.876 270.754C301.411 272.481 302.28 276.815 305.305 279.84C308.33 282.865 320.023 299.31 323.048 307.967C326.073 316.624 329.538 340.857 327.811 337.392C326.084 333.927 320.452 316.195 317.427 308.792C314.402 301.389 308.341 297.968 307.472 301.433C306.603 304.898 308.341 306.625 310.497 314.413C312.653 322.201 312.697 343.013 319.154 354.662C325.611 366.311 350.746 397.936 354.211 406.593C357.676 415.25 365.464 434.291 365.464 434.291" fill="white"/>
<path d="M401.379 413.6C401.379 413.6 394.889 392.403 394.889 358.6C394.889 324.797 389.257 300.179 382.338 289.366C375.419 278.553 368.918 274.219 365.893 274.219C362.868 274.219 365.024 278.113 369.358 283.734C373.692 289.355 377.575 292.391 379.258 299.31C380.941 306.229 380.996 314.897 378.829 314.028C376.662 313.159 373.208 295.856 370.172 289.366C367.136 282.876 359.788 274.648 355.465 270.754C351.142 266.86 341.616 255.178 337.282 258.203C332.948 261.228 335.555 265.562 338.151 267.289C340.747 269.016 351.131 279.389 355.894 285.901C360.657 292.413 363.682 308.836 361.086 309.265C358.49 309.694 350.702 285.472 346.379 280.269C342.056 275.066 324.731 260.799 320.837 260.37C316.943 259.941 316.514 265.991 319.979 269.027C323.444 272.063 335.126 285.032 339.02 292.82C342.914 300.608 344.641 314.897 341.22 311.432C337.799 307.967 332.134 293.689 327.382 288.926C322.63 284.163 308.341 269.027 304.876 270.754C301.411 272.481 302.28 276.815 305.305 279.84C308.33 282.865 320.023 299.31 323.048 307.967C326.073 316.624 329.538 340.857 327.811 337.392C326.084 333.927 320.452 316.195 317.427 308.792C314.402 301.389 308.341 297.968 307.472 301.433C306.603 304.898 308.341 306.625 310.497 314.413C312.653 322.201 312.697 343.013 319.154 354.662C325.611 366.311 350.746 397.936 354.211 406.593C357.676 415.25 365.464 434.291 365.464 434.291" stroke="#2E353A" stroke-linecap="round" stroke-linejoin="round"/>
<path d="M130.46 479.6H196.46C197.318 476.3 198.396 472.604 199.76 468.6C204.952 453.046 221.76 433.598 221.76 433.598C209.713 422.989 195.558 415.049 180.224 410.3C154.924 402.512 136.4 404.8 136.4 404.8C139.81 418.86 140.185 433.484 137.5 447.7C134.2 463.716 132 473.847 130.46 479.6Z" fill="#2E353A" stroke="#2E353A" stroke-linecap="round" stroke-linejoin="round"/>
<path d="M362.34 479.6H430.914C428.714 473.902 423.962 461.527 419.21 449.152C412.72 432.3 415.316 409.618 412.72 409.618C410.124 409.618 380.963 407.671 366.707 412.203C352.451 416.735 336.237 429.704 336.237 429.704C343.577 438.232 349.887 447.596 355.036 457.6C358.346 464.613 360.798 472 362.34 479.6V479.6Z" fill="#2E353A" stroke="#2E353A" stroke-linecap="round" stroke-linejoin="round"/>
<path d="M171.688 418.22C171.215 416.35 164.175 419.166 164.175 419.166C164.175 419.166 166.529 410.256 162.778 410.256C159.027 410.256 158.554 416.856 158.554 416.856C158.554 416.856 151.514 414.051 151.514 418.264C151.514 422.477 156.2 422.4 156.2 422.4C156.2 422.4 150.568 429.44 154.792 430.837C159.016 432.234 161.821 427.086 161.821 427.086C161.821 427.086 164.637 431.783 168.421 429.902C172.205 428.021 169.356 423.808 169.356 423.808C169.356 423.808 172.15 420.101 171.688 418.22ZM162.305 425.26C161.951 425.181 161.626 425.004 161.369 424.749C161.111 424.494 160.93 424.171 160.848 423.817C160.766 423.464 160.785 423.095 160.904 422.752C161.022 422.409 161.235 422.107 161.518 421.88C161.801 421.653 162.142 421.51 162.502 421.469C162.863 421.427 163.227 421.488 163.554 421.645C163.882 421.801 164.158 422.047 164.351 422.354C164.545 422.661 164.648 423.016 164.648 423.379C164.569 423.931 164.283 424.433 163.848 424.782C163.413 425.131 162.861 425.302 162.305 425.26V425.26ZM182.006 470.8C181.533 468.93 174.493 471.746 174.493 471.746C174.493 471.746 176.847 462.836 173.085 462.836C169.323 462.836 168.872 469.436 168.872 469.436C168.872 469.436 161.832 466.62 161.832 470.833C161.832 475.046 166.529 475.057 166.529 475.057C166.529 475.057 160.897 482.097 165.121 483.505C169.345 484.913 172.15 479.743 172.15 479.743C172.15 479.743 174.966 484.44 178.75 482.559C182.534 480.678 179.685 476.465 179.685 476.465C179.685 476.465 182.468 472.626 182.006 470.8ZM172.623 477.84C172.269 477.761 171.944 477.584 171.687 477.329C171.429 477.074 171.248 476.751 171.166 476.398C171.084 476.044 171.103 475.675 171.222 475.332C171.34 474.989 171.553 474.687 171.836 474.46C172.119 474.233 172.46 474.09 172.82 474.049C173.181 474.007 173.545 474.068 173.872 474.225C174.2 474.381 174.476 474.627 174.669 474.934C174.863 475.241 174.966 475.596 174.966 475.959C174.887 476.507 174.598 477.003 174.162 477.343C173.725 477.684 173.174 477.842 172.623 477.785V477.84ZM140.723 477.84C140.25 475.959 133.221 478.775 133.221 478.775C133.221 478.775 135.564 469.865 131.813 469.865C128.062 469.865 127.589 476.465 127.589 476.465C127.589 476.465 120.549 473.649 120.549 477.873C120.549 482.097 125.246 482.097 125.246 482.097C125.246 482.097 119.614 489.126 123.838 490.534C128.062 491.942 130.867 486.783 130.867 486.783C130.867 486.783 133.683 491.469 137.467 489.599C141.251 487.729 138.413 483.505 138.413 483.505C138.413 483.505 141.196 479.655 140.734 477.785L140.723 477.84ZM131.34 484.869C130.985 484.79 130.66 484.613 130.403 484.357C130.145 484.101 129.964 483.778 129.883 483.424C129.801 483.07 129.821 482.7 129.94 482.357C130.059 482.014 130.273 481.712 130.557 481.485C130.841 481.259 131.183 481.117 131.544 481.077C131.905 481.036 132.27 481.099 132.597 481.257C132.924 481.416 133.199 481.663 133.391 481.971C133.584 482.28 133.685 482.636 133.683 482.999C133.601 483.543 133.313 484.034 132.879 484.372C132.445 484.71 131.898 484.868 131.351 484.814L131.34 484.869ZM191.84 441.254H196.999C200.75 441.254 203.093 445.478 203.093 445.478C195.129 447.766 191.851 441.199 191.851 441.199L191.84 441.254ZM186.681 477.84H191.84C195.591 477.84 197.934 482.064 197.934 482.064C189.97 484.352 186.692 477.785 186.692 477.785L186.681 477.84ZM141.669 470.8H146.828C150.579 470.8 152.922 475.024 152.922 475.024C144.947 477.312 141.669 470.8 141.669 470.8ZM166.606 437.701L169.62 441.892C171.82 444.95 169.741 449.306 169.741 449.306C163.185 444.147 166.606 437.646 166.606 437.646V437.701ZM140.8 451.715L143.154 447.128C144.881 443.828 149.699 443.63 149.699 443.63C148.082 451.792 140.8 451.715 140.8 451.715Z" fill="white"/>
<path d="M392.579 427.13C392.106 425.26 385.066 428.076 385.066 428.076C385.066 428.076 387.42 419.166 383.669 419.166C379.918 419.166 379.445 425.766 379.445 425.766C379.445 425.766 372.405 422.961 372.405 427.174C372.405 431.387 377.102 431.398 377.102 431.398C377.102 431.398 371.47 438.438 375.694 439.846C379.918 441.254 382.723 436.084 382.723 436.084C382.723 436.084 385.539 440.781 389.323 438.9C393.107 437.019 390.258 432.806 390.258 432.806C390.258 432.806 393.041 429 392.579 427.13ZM383.196 434.17C382.842 434.091 382.517 433.914 382.26 433.659C382.002 433.404 381.821 433.081 381.739 432.728C381.657 432.374 381.676 432.005 381.795 431.662C381.913 431.319 382.126 431.017 382.409 430.79C382.692 430.563 383.033 430.42 383.393 430.379C383.754 430.337 384.118 430.398 384.446 430.555C384.773 430.711 385.049 430.957 385.242 431.264C385.436 431.571 385.539 431.926 385.539 432.289C385.473 432.847 385.19 433.357 384.752 433.708C384.314 434.06 383.755 434.226 383.196 434.17V434.17ZM414.612 463.716C414.15 461.835 407.11 464.651 407.11 464.651C407.11 464.651 409.453 455.741 405.702 455.741C401.951 455.741 401.489 462.341 401.489 462.341C401.489 462.341 394.449 459.525 394.449 463.749C394.449 467.973 399.135 467.973 399.135 467.973C399.135 467.973 393.514 475.002 397.738 476.41C401.962 477.818 404.767 472.659 404.767 472.659C404.767 472.659 407.583 477.345 411.367 475.475C415.151 473.605 412.302 469.381 412.302 469.381C412.302 469.381 415.085 465.586 414.612 463.716ZM405.24 470.8C404.885 470.721 404.56 470.544 404.303 470.288C404.045 470.032 403.864 469.709 403.783 469.355C403.701 469.001 403.721 468.631 403.84 468.288C403.959 467.945 404.173 467.643 404.457 467.416C404.741 467.19 405.083 467.048 405.444 467.008C405.805 466.968 406.17 467.03 406.497 467.188C406.824 467.347 407.099 467.594 407.291 467.902C407.484 468.211 407.585 468.567 407.583 468.93C407.514 469.486 407.23 469.993 406.792 470.342C406.355 470.692 405.797 470.856 405.24 470.8ZM391.171 477.84C390.698 475.959 383.669 478.775 383.669 478.775C383.669 478.775 386.012 469.865 382.261 469.865C378.51 469.865 378.037 476.465 378.037 476.465C378.037 476.465 370.997 473.649 370.997 477.873C370.997 482.097 375.694 482.097 375.694 482.097C375.694 482.097 370.062 489.126 374.286 490.534C378.51 491.942 381.315 486.783 381.315 486.783C381.315 486.783 384.131 491.469 387.915 489.599C391.699 487.729 388.861 483.505 388.861 483.505C388.861 483.505 391.6 479.655 391.171 477.785V477.84ZM381.788 484.869C381.433 484.79 381.108 484.613 380.851 484.357C380.593 484.101 380.412 483.778 380.331 483.424C380.249 483.07 380.269 482.7 380.388 482.357C380.507 482.014 380.721 481.712 381.005 481.485C381.289 481.259 381.631 481.117 381.992 481.077C382.353 481.037 382.718 481.099 383.045 481.257C383.372 481.416 383.647 481.663 383.839 481.971C384.032 482.28 384.133 482.636 384.131 482.999C384.049 483.545 383.76 484.038 383.323 484.376C382.887 484.714 382.337 484.871 381.788 484.814V484.869ZM412.742 450.164H417.901C421.652 450.164 423.995 454.388 423.995 454.388C416.02 456.676 412.742 450.109 412.742 450.109V450.164ZM357.401 476.85H362.56C366.311 476.85 368.654 481.063 368.654 481.063C360.679 483.417 357.401 476.85 357.401 476.85ZM387.497 446.6L390.511 450.791C392.711 453.849 390.632 458.205 390.632 458.205C384.076 453.057 387.497 446.6 387.497 446.6ZM418 472.824L421.003 477.015C423.203 480.062 421.124 484.429 421.124 484.429C414.568 479.314 418 472.824 418 472.824ZM361.647 460.625L364.001 456.038C365.728 452.738 370.601 452.54 370.601 452.54C368.973 460.702 361.636 460.625 361.636 460.625H361.647Z" fill="white"/>
</svg>
