
<svg width="57" height="57" viewBox="0 0 57 57" fill="none" xmlns="http://www.w3.org/2000/svg">
<circle cx="28.5" cy="28.5" r="28.5" fill="white"/>
<path d="M28.9998 18.9785C24.2014 18.9785 20.2256 22.8 20.2256 27.5602C20.2256 32.3203 24.1328 36.1419 28.9998 36.1419C33.8667 36.1419 37.774 32.2533 37.774 27.5602C37.774 22.8671 33.7982 18.9785 28.9998 18.9785ZM28.9998 33.0578C25.9151 33.0578 23.3788 30.5772 23.3788 27.5602C23.3788 24.5432 25.9151 22.0626 28.9998 22.0626C32.0845 22.0626 34.6207 24.5432 34.6207 27.5602C34.6207 30.5772 32.0845 33.0578 28.9998 33.0578Z" fill="#FC9338"/>
<path d="M38.1168 20.7213C39.2147 20.7213 40.1047 19.8508 40.1047 18.777C40.1047 17.7032 39.2147 16.8328 38.1168 16.8328C37.0189 16.8328 36.1289 17.7032 36.1289 18.777C36.1289 19.8508 37.0189 20.7213 38.1168 20.7213Z" fill="#FC9338"/>
<path d="M43.2581 13.7488C41.4758 11.9386 38.9395 11 36.0605 11H21.9395C15.9758 11 12 14.8886 12 20.7214V34.4655C12 37.3484 12.9597 39.8291 14.879 41.6393C16.7298 43.3824 19.1976 44.254 22.0081 44.254H35.9919C38.9395 44.254 41.4073 43.3154 43.1895 41.6393C45.0403 39.8961 46 37.4155 46 34.5326V20.7214C46 17.9056 45.0403 15.492 43.2581 13.7488ZM42.9839 34.5326C42.9839 36.6109 42.2298 38.287 40.996 39.4268C39.7621 40.5665 38.0484 41.1699 35.9919 41.1699H22.0081C19.9516 41.1699 18.2379 40.5665 17.004 39.4268C15.7702 38.22 15.1532 36.5439 15.1532 34.4655V20.7214C15.1532 18.7101 15.7702 17.034 17.004 15.8272C18.1694 14.6874 19.9516 14.084 22.0081 14.084H36.129C38.1855 14.084 39.8992 14.6874 41.1331 15.8942C42.2984 17.101 42.9839 18.7771 42.9839 20.7214V34.5326Z" fill="#FC9338"/>
</svg>
