<svg width="188" height="49" viewBox="0 0 188 49" fill="none" xmlns="http://www.w3.org/2000/svg">
<path d="M43.7978 39.597V17.7789H49.6643V21.5857H49.8916C50.2893 20.2315 50.9569 19.2088 51.8944 18.5175C52.8319 17.8167 53.9115 17.4664 55.1331 17.4664C55.4361 17.4664 55.7628 17.4853 56.1132 17.5232C56.4635 17.5611 56.7713 17.6131 57.0365 17.6794V23.0487C56.7524 22.9635 56.3594 22.8878 55.8575 22.8215C55.3556 22.7552 54.8963 22.722 54.4796 22.722C53.5895 22.722 52.794 22.9162 52.0933 23.3044C51.402 23.6832 50.8528 24.2135 50.4456 24.8953C50.0478 25.5772 49.849 26.3631 49.849 27.2533V39.597H43.7978ZM65.7616 40.009C64.3696 40.009 63.129 39.7675 62.04 39.2845C60.951 38.7921 60.0893 38.0677 59.4548 37.1113C58.8298 36.1453 58.5173 34.9427 58.5173 33.5033C58.5173 32.2912 58.7398 31.2732 59.1849 30.4493C59.63 29.6255 60.236 28.9626 61.0031 28.4607C61.7701 27.9588 62.6413 27.58 63.6167 27.3243C64.6016 27.0686 65.6338 26.8887 66.7133 26.7845C67.9823 26.652 69.005 26.5289 69.7815 26.4152C70.558 26.2921 71.1215 26.1122 71.4718 25.8755C71.8222 25.6387 71.9974 25.2883 71.9974 24.8243V24.7391C71.9974 23.8395 71.7133 23.1434 71.1451 22.651C70.5864 22.1586 69.791 21.9124 68.7588 21.9124C67.6698 21.9124 66.8033 22.1539 66.1593 22.6368C65.5154 23.1103 65.0893 23.7069 64.8809 24.4266L59.2843 23.972C59.5684 22.6463 60.1271 21.5005 60.9605 20.5345C61.7938 19.5592 62.8686 18.8111 64.1849 18.2902C65.5107 17.7599 67.0448 17.4948 68.7872 17.4948C69.9993 17.4948 71.1593 17.6368 72.2673 17.9209C73.3847 18.205 74.3743 18.6453 75.236 19.2419C76.1073 19.8385 76.7938 20.6056 77.2957 21.5431C77.7976 22.4711 78.0485 23.5838 78.0485 24.8811V39.597H72.3099V36.5715H72.1394C71.7891 37.2533 71.3203 37.8546 70.7332 38.3755C70.1461 38.8868 69.4406 39.2893 68.6167 39.5828C67.7929 39.8669 66.8412 40.009 65.7616 40.009ZM67.4946 35.8328C68.3847 35.8328 69.1707 35.6577 69.8525 35.3073C70.5343 34.9474 71.0694 34.4645 71.4576 33.8584C71.8459 33.2523 72.04 32.5658 72.04 31.7988V29.4834C71.8506 29.6065 71.5902 29.7202 71.2588 29.8243C70.9368 29.919 70.5722 30.009 70.165 30.0942C69.7578 30.17 69.3506 30.241 68.9434 30.3073C68.5362 30.3641 68.1669 30.4162 67.8355 30.4635C67.1252 30.5677 66.505 30.7334 65.9747 30.9607C65.4444 31.188 65.0324 31.4957 64.7389 31.884C64.4453 32.2628 64.2985 32.7363 64.2985 33.3044C64.2985 34.1283 64.5968 34.758 65.1934 35.1936C65.7995 35.6198 66.5665 35.8328 67.4946 35.8328ZM88.7943 26.9834V39.597H82.7431V17.7789H88.5102V21.6283H88.7659C89.2488 20.3594 90.0585 19.3556 91.1948 18.6169C92.3312 17.8688 93.7091 17.4948 95.3284 17.4948C96.8435 17.4948 98.1645 17.8262 99.2914 18.4891C100.418 19.152 101.294 20.0989 101.919 21.33C102.544 22.5516 102.857 24.0099 102.857 25.705V39.597H96.8056V26.7845C96.8151 25.4493 96.4742 24.4077 95.7829 23.6595C95.0916 22.902 94.1399 22.5232 92.9278 22.5232C92.1134 22.5232 91.3937 22.6984 90.7687 23.0487C90.1532 23.3991 89.6702 23.9105 89.3198 24.5828C88.9789 25.2457 88.8037 26.0459 88.7943 26.9834ZM117.456 48.2334C115.495 48.2334 113.814 47.9635 112.413 47.4238C111.021 46.8934 109.913 46.169 109.089 45.2505C108.265 44.3319 107.73 43.2997 107.484 42.1539L113.08 41.401C113.251 41.8366 113.521 42.2438 113.89 42.6226C114.259 43.0014 114.747 43.3044 115.353 43.5317C115.969 43.7684 116.717 43.8868 117.598 43.8868C118.914 43.8868 119.998 43.5648 120.85 42.9209C121.712 42.2864 122.143 41.2211 122.143 39.7249V35.7334H121.887C121.622 36.3395 121.224 36.9124 120.694 37.4522C120.164 37.9919 119.482 38.4323 118.649 38.7732C117.815 39.1141 116.821 39.2845 115.666 39.2845C114.027 39.2845 112.536 38.9058 111.191 38.1482C109.856 37.3811 108.791 36.2116 107.995 34.6397C107.209 33.0582 106.816 31.0601 106.816 28.6453C106.816 26.1738 107.219 24.1094 108.024 22.4522C108.829 20.795 109.899 19.5544 111.234 18.7306C112.579 17.9067 114.051 17.4948 115.652 17.4948C116.873 17.4948 117.896 17.7031 118.72 18.1198C119.544 18.527 120.206 19.0383 120.708 19.6539C121.22 20.2599 121.613 20.8565 121.887 21.4436H122.115V17.7789H128.123V39.8101C128.123 41.6662 127.669 43.2192 126.759 44.4692C125.85 45.7192 124.591 46.6567 122.981 47.2817C121.381 47.9162 119.539 48.2334 117.456 48.2334ZM117.583 34.7391C118.559 34.7391 119.383 34.4976 120.055 34.0147C120.737 33.5222 121.258 32.8215 121.617 31.9124C121.987 30.9938 122.171 29.8953 122.171 28.6169C122.171 27.3385 121.991 26.2306 121.632 25.2931C121.272 24.3461 120.751 23.6122 120.069 23.0914C119.387 22.5705 118.559 22.3101 117.583 22.3101C116.589 22.3101 115.751 22.58 115.069 23.1198C114.387 23.6501 113.871 24.3887 113.521 25.3357C113.17 26.2827 112.995 27.3764 112.995 28.6169C112.995 29.8764 113.17 30.9654 113.521 31.884C113.881 32.7931 114.397 33.4986 115.069 34.0005C115.751 34.4929 116.589 34.7391 117.583 34.7391ZM142.882 40.0232C140.637 40.0232 138.705 39.5686 137.086 38.6595C135.476 37.741 134.236 36.4436 133.365 34.7675C132.493 33.0819 132.058 31.0885 132.058 28.7874C132.058 26.5431 132.493 24.5734 133.365 22.8783C134.236 21.1832 135.462 19.8622 137.044 18.9152C138.634 17.9683 140.5 17.4948 142.64 17.4948C144.08 17.4948 145.42 17.7268 146.66 18.1908C147.91 18.6453 148.999 19.3319 149.927 20.2505C150.865 21.169 151.594 22.3243 152.115 23.7164C152.635 25.0989 152.896 26.7183 152.896 28.5743V30.2363H134.473V26.4862H147.2C147.2 25.615 147.01 24.8433 146.632 24.1709C146.253 23.4986 145.727 22.973 145.055 22.5942C144.392 22.2059 143.62 22.0118 142.74 22.0118C141.821 22.0118 141.007 22.2249 140.296 22.651C139.596 23.0677 139.046 23.6311 138.649 24.3414C138.251 25.0421 138.047 25.8234 138.038 26.6851V30.2505C138.038 31.33 138.237 32.2628 138.634 33.0488C139.042 33.8347 139.615 34.4408 140.353 34.8669C141.092 35.2931 141.968 35.5061 142.981 35.5061C143.653 35.5061 144.269 35.4114 144.828 35.222C145.386 35.0327 145.865 34.7486 146.262 34.3698C146.66 33.991 146.963 33.527 147.171 32.9777L152.768 33.347C152.484 34.6917 151.902 35.866 151.021 36.8698C150.15 37.8641 149.023 38.6406 147.64 39.1993C146.267 39.7486 144.681 40.0232 142.882 40.0232Z" fill="#FF7700"/>
<path d="M20.664 46.6907C13.9057 46.6907 7.14752 46.6894 0.389217 46.6955C0.121976 46.6958 -0.000290593 46.693 5.1857e-07 46.3385C0.0133917 33.3417 0.0126639 20.3451 0.00232941 7.34829C0.00218386 7.03963 0.0799107 7.0013 0.358941 7.00159C13.9039 7.00984 27.4489 7.01027 40.9938 7C41.2986 6.99971 41.3364 7.07839 41.3363 7.36102C41.328 20.3578 41.3277 33.3545 41.3379 46.3513C41.3382 46.6599 41.2604 46.6985 40.9814 46.6983C34.209 46.6886 27.4366 46.6907 20.664 46.6907ZM20.2634 34.5295C21.1937 35.6613 21.5392 36.9751 21.4638 38.4271C21.4542 38.6109 21.3378 38.8956 21.5628 38.9701C21.7779 39.0412 21.9766 38.8308 22.1385 38.6694C22.229 38.5791 22.3069 38.4735 22.3785 38.3666C22.9956 37.4451 23.0629 36.4063 22.9986 35.3414C22.9945 35.275 22.9713 35.1773 22.9261 35.1526C22.83 35.1003 22.7754 35.1951 22.7329 35.268C22.5587 35.5666 22.4601 35.4863 22.3657 35.209C22.1513 34.5798 21.8439 33.9962 21.48 33.4433C21.0255 32.7526 20.4515 32.1774 19.7925 31.6898C19.6572 31.5897 19.4041 31.3964 19.3342 31.6174C19.2045 32.0277 19.0738 31.7786 18.9402 31.6743C18.2793 31.1581 17.5401 30.9976 16.7286 31.1636C16.5775 31.1946 16.3935 31.2296 16.3477 31.3994C16.2956 31.592 16.4854 31.6557 16.6059 31.7478C17.3246 32.2977 17.829 32.9974 17.9721 33.9096C18.1681 35.1598 18.44 36.3722 19.2914 37.3628C19.4134 37.5047 19.4041 37.6443 19.2023 37.6757C18.7961 37.7389 18.9773 37.9188 19.134 38.049C19.5726 38.4136 20.0046 38.7907 20.5039 39.0717C20.9976 39.3496 21.1039 39.2644 21.1504 38.7057C21.2762 37.1995 20.7026 35.8888 20.0825 34.5862C20.1428 34.5674 20.203 34.5485 20.2634 34.5295ZM35.9309 15.3219C35.7257 14.849 35.4592 14.5316 35.2087 14.2058C33.8237 12.4046 32.2499 10.7969 30.2247 9.75349C25.182 7.15563 19.9088 6.84654 14.6166 8.68302C8.02042 10.9721 4.43814 15.999 3.02494 22.7334C2.51026 25.1857 2.69439 27.6758 3.1935 30.1179C4.40714 36.0557 7.60326 40.5249 12.9639 43.3141C14.5159 44.1217 16.2046 44.5549 17.9245 44.8441C18.1268 44.8781 18.3632 44.9099 18.3651 44.6068C18.3689 44.0204 18.5914 43.5198 18.8763 43.0285C19.0703 42.6938 18.9934 42.5782 18.6035 42.5405C15.9606 42.2845 13.7182 41.167 11.8798 39.2486C9.98412 37.2706 9.03291 34.8092 8.47004 32.1618C7.97297 29.8236 7.86351 27.4545 7.88666 25.0736C7.9162 22.0384 8.54486 19.1608 10.0786 16.5197C11.3158 14.3893 12.8513 12.5573 15.0103 11.3188C16.5552 10.4324 18.232 10.0418 19.9765 9.90724C22.3372 9.72514 24.647 9.96625 26.798 11.036C29.4279 12.3438 31.2661 14.4434 32.5044 17.1085C32.5913 17.2955 32.6278 17.5267 32.8531 17.6288C33.0068 17.4873 32.9621 17.3032 32.9635 17.1402C32.9675 16.6364 32.9343 16.1316 32.9537 15.6289C32.9862 14.7878 33.7247 14.2831 34.5171 14.5549C34.743 14.6324 34.9484 14.7711 35.1638 14.8805C35.3976 14.9992 35.5696 15.227 35.9309 15.3219ZM36.9268 37.5079C36.567 37.5703 36.3047 37.6223 36.0404 37.6598C35.7529 37.7006 35.4733 37.6403 35.2002 37.5554C34.7835 37.4256 34.7761 37.3725 35.0376 37.0076C37.3252 33.8159 38.973 30.369 39.1528 26.3437C39.1959 25.3785 39.1477 24.4151 39.0416 23.455C39.0311 23.3609 39.05 23.225 38.9235 23.2072C38.8083 23.191 38.7706 23.3157 38.7209 23.4004C38.6269 23.5611 38.5567 23.7429 38.4364 23.8796C38.2585 24.0817 38.1629 24.5269 37.8646 24.4081C37.6255 24.313 37.8058 23.9109 37.821 23.6479C37.932 21.7144 37.7236 19.8459 36.7208 18.1446C36.2107 17.2787 35.5404 16.5577 34.6879 16.0273C34.2895 15.7794 34.158 15.8614 34.1543 16.3183C34.1512 16.6785 34.1573 17.0392 34.14 17.3988C34.0244 19.7863 33.3451 21.9548 31.7147 23.7494C30.8957 24.6511 29.9334 25.4047 29.132 26.3258C27.4786 28.2259 26.1517 30.2903 25.8625 32.886C25.8239 33.2324 25.6822 33.2628 25.4149 33.0713C24.9474 32.7361 24.6775 32.2863 24.5752 31.7214C24.5543 31.6052 24.5754 31.4204 24.404 31.4273C24.2749 31.4325 24.2723 31.5957 24.2591 31.7066C23.9846 33.9946 23.6667 36.2815 23.9811 38.5931C24.0314 38.964 23.9285 39.216 23.6103 39.4286C22.5561 40.1333 21.6584 41.0129 20.9205 42.0509C20.4298 42.7411 19.9969 43.4704 19.6649 44.2539C19.5431 44.5413 19.5434 44.8422 19.8825 44.9857C20.2122 45.1252 20.4637 44.9922 20.6126 44.6662C20.6783 44.5225 20.7337 44.3741 20.8008 44.231C21.2726 43.2268 21.8105 42.2651 22.5612 41.4412C23.621 40.278 24.896 39.3934 26.1919 38.5291C27.5598 37.6165 28.8719 36.6344 29.9295 35.3393C31.6328 33.2537 32.8469 30.8807 33.9454 28.437C34.0058 28.3027 34.0091 28.1303 34.2387 28.1595C34.1048 28.4573 34.1973 28.779 34.108 29.0852C33.8017 30.1341 33.5134 31.186 33.0966 32.2007C31.6457 35.7335 29.2083 38.3146 25.8338 40.0067C25.6954 40.0761 25.5085 40.1168 25.4996 40.2994C25.4905 40.4869 25.6816 40.5423 25.8127 40.6149C27.2481 41.4088 28.7767 41.6355 30.3541 41.2287C32.5202 40.6703 34.465 39.6409 36.184 38.1884C36.415 37.9927 36.7336 37.8915 36.9268 37.5079ZM22.3798 45.0177C24.5332 44.8732 26.6347 44.4662 28.6659 43.7219C29.2799 43.4968 29.8777 43.2263 30.4833 42.9776C30.6098 42.9256 30.7254 42.8526 30.6926 42.6971C30.6583 42.5337 30.5156 42.5351 30.3836 42.5451C30.327 42.5493 30.271 42.5606 30.2145 42.5669C28.8623 42.7195 27.5207 42.7571 26.2312 42.2019C26.003 42.1037 25.7697 42.0714 25.5258 42.1614C24.9342 42.3795 24.3155 42.4703 23.694 42.5465C23.3902 42.5839 23.1191 42.6751 22.9271 42.9498C22.5808 43.4449 22.2753 43.9634 22.0273 44.5142C21.8503 44.9072 21.9538 45.0429 22.3798 45.0177Z" fill="#FEFDFD"/>
<path d="M35.9309 15.3219C35.5696 15.2272 35.3976 14.9992 35.1638 14.8806C34.9484 14.7713 34.7432 14.6326 34.5171 14.555C33.7248 14.2831 32.9862 14.7878 32.9537 15.629C32.9343 16.1319 32.9674 16.6365 32.9634 17.1403C32.9621 17.3033 33.0068 17.4874 32.8531 17.6289C32.6278 17.5268 32.5913 17.2957 32.5044 17.1086C31.2661 14.4435 29.4279 12.3439 26.798 11.0361C24.647 9.96652 22.3371 9.72526 19.9765 9.90736C18.232 10.0419 16.5552 10.4325 15.0103 11.3189C12.8513 12.5574 11.3158 14.3894 10.0786 16.5198C8.54485 19.1611 7.91605 22.0385 7.88664 25.0737C7.8635 27.4546 7.97296 29.8238 8.47003 32.1619C9.0329 34.8094 9.9841 37.2707 11.8798 39.2488C13.7183 41.1671 15.9608 42.2846 18.6035 42.5406C18.9934 42.5783 19.0703 42.6939 18.8763 43.0286C18.5914 43.5199 18.3689 44.0205 18.3651 44.6069C18.363 44.9101 18.1266 44.8782 17.9245 44.8443C16.2046 44.555 14.5158 44.1218 12.9639 43.3143C7.60325 40.5249 4.40713 36.0559 3.19349 30.118C2.69437 27.6759 2.51025 25.1858 3.02493 22.7335C4.43813 15.9991 8.02041 10.9722 14.6166 8.68314C19.9088 6.84652 25.182 7.15576 30.2247 9.75361C32.2499 10.797 33.8237 12.4047 35.2086 14.2059C35.4593 14.5315 35.7257 14.8488 35.9309 15.3219Z" fill="#FF7700"/>
<path d="M36.9269 37.5079C36.7337 37.8915 36.4153 37.9929 36.184 38.1883C34.465 39.6409 32.5202 40.6701 30.354 41.2286C28.7765 41.6353 27.2479 41.4087 25.8127 40.6147C25.6814 40.5421 25.4904 40.4866 25.4996 40.2993C25.5085 40.1168 25.6955 40.076 25.8338 40.0065C29.2081 38.3144 31.6455 35.7333 33.0966 32.2005C33.5133 31.1859 33.8017 30.1339 34.1079 29.085C34.1973 28.779 34.1047 28.4571 34.2386 28.1593C34.0092 28.1301 34.0059 28.3024 33.9453 28.4369C32.847 30.8807 31.6327 33.2537 29.9294 35.3392C28.8718 36.6343 27.5598 37.6164 26.1918 38.5289C24.8961 39.3933 23.6209 40.2779 22.5611 41.4411C21.8105 42.2649 21.2725 43.2266 20.8007 44.2309C20.7336 44.3738 20.678 44.5223 20.6125 44.6661C20.4638 44.9921 20.2121 45.125 19.8824 44.9856C19.5434 44.8421 19.5431 44.5411 19.6648 44.2537C19.9968 43.4702 20.4297 42.7409 20.9204 42.0507C21.6584 41.0128 22.5559 40.1331 23.6103 39.4284C23.9285 39.2158 24.0314 38.9638 23.981 38.593C23.6666 36.2815 23.9845 33.9945 24.259 31.7065C24.2724 31.5954 24.2749 31.4324 24.404 31.4272C24.5753 31.4202 24.5542 31.6051 24.5752 31.7212C24.6773 32.2862 24.9473 32.7361 25.4149 33.0711C25.682 33.2626 25.8239 33.2322 25.8625 32.8858C26.1517 30.29 27.4786 28.2257 29.1319 26.3256C29.9334 25.4047 30.8956 24.651 31.7147 23.7493C33.345 21.9545 34.0244 19.7861 34.1399 17.3986C34.1574 17.0391 34.1513 16.6784 34.1542 16.3182C34.158 15.8613 34.2894 15.7793 34.6878 16.0272C35.5403 16.5577 36.2105 17.2786 36.7208 18.1444C37.7234 19.8458 37.9319 21.7142 37.8209 23.6478C37.8058 23.9107 37.6254 24.3128 37.8646 24.408C38.1627 24.5266 38.2583 24.0815 38.4363 23.8795C38.5567 23.7428 38.6267 23.561 38.7209 23.4003C38.7705 23.3155 38.8082 23.1909 38.9235 23.2071C39.05 23.2248 39.0312 23.3608 39.0415 23.4548C39.1476 24.4149 39.1958 25.3782 39.1527 26.3435C38.9731 30.369 37.3251 33.8157 35.0376 37.0075C34.7762 37.3722 34.7834 37.4255 35.2002 37.5552C35.4732 37.6401 35.7528 37.7004 36.0403 37.6596C36.3048 37.6223 36.5671 37.5702 36.9269 37.5079Z" fill="#FF7700"/>
<path d="M20.0825 34.5865C20.7028 35.8891 21.2764 37.1998 21.1505 38.706C21.1038 39.2646 20.9977 39.3499 20.5039 39.072C20.0047 38.791 19.5728 38.4139 19.1341 38.0493C18.9773 37.919 18.7961 37.7392 19.2024 37.676C19.4041 37.6446 19.4134 37.505 19.2914 37.3631C18.4401 36.3725 18.1682 35.1601 17.9721 33.9099C17.829 32.9975 17.3247 32.298 16.6059 31.7481C16.4854 31.6558 16.2956 31.5923 16.3477 31.3997C16.3937 31.2299 16.5777 31.1947 16.7286 31.1639C17.54 30.998 18.2792 31.1584 18.9402 31.6746C19.0738 31.7789 19.2045 32.028 19.3342 31.6177C19.4041 31.3966 19.6572 31.5899 19.7926 31.6901C20.4515 32.1777 21.0256 32.7529 21.48 33.4436C21.8439 33.9967 22.1513 34.5803 22.3657 35.2093C22.4602 35.4864 22.5587 35.5667 22.733 35.2683C22.7756 35.1954 22.8302 35.1005 22.9261 35.1529C22.9714 35.1776 22.9947 35.2753 22.9986 35.3417C23.0629 36.4066 22.9957 37.4454 22.3785 38.3669C22.3069 38.4738 22.2291 38.5794 22.1385 38.6697C21.9767 38.8311 21.778 39.0415 21.5628 38.9704C21.3378 38.8959 21.4544 38.6112 21.4639 38.4274C21.5393 36.9754 21.1937 35.6616 20.2635 34.53C20.2208 34.3058 20.0841 34.1747 19.8331 34.074C19.8793 34.305 19.9313 34.4691 20.0825 34.5865Z" fill="#FF7700"/>
<path d="M22.3799 45.0177C21.9538 45.0429 21.8503 44.9072 22.0273 44.5142C22.2753 43.9634 22.5809 43.4449 22.9271 42.9498C23.1191 42.6753 23.3902 42.5839 23.6941 42.5465C24.3156 42.4703 24.9342 42.3795 25.5259 42.1614C25.7697 42.0715 26.003 42.1037 26.2313 42.2019C27.5207 42.7571 28.8623 42.7195 30.2145 42.5669C30.271 42.5606 30.3271 42.5493 30.3837 42.5451C30.5157 42.5351 30.6583 42.5337 30.6927 42.6971C30.7254 42.8526 30.6099 42.9255 30.4834 42.9776C29.8779 43.2263 29.2801 43.4968 28.666 43.7219C26.6349 44.4662 24.5332 44.8732 22.3799 45.0177Z" fill="#FF7700"/>
<path d="M20.0824 34.5865C19.9313 34.4692 19.8792 34.305 19.8328 34.0737C20.0838 34.1744 20.2205 34.3056 20.2632 34.5296C20.2029 34.5484 20.1427 34.5674 20.0824 34.5865Z" fill="#FF7700"/>
</svg>
