<svg width="471" height="235" viewBox="0 0 471 235" fill="none" xmlns="http://www.w3.org/2000/svg">
    <path fill-rule="evenodd" clip-rule="evenodd" d="M0 0.493652L19.625 16.3387C39.25 31.731 78.5 62.9684 117.75 82.4352C157 101.902 192.75 124.442 232 112.671C271.25 100.9 314 55.2722 353.25 47.5761C392.5 39.4272 431.75 55.2722 451.375 62.9684L471 70.6646V235H451.375C431.75 235 392.5 235 353.25 235C314 235 274.75 235 235.5 235C196.25 235 157 235 117.75 235C78.5 235 39.25 235 19.625 235H0V0.493652Z" fill="#FC9338"/>
</svg>
