<svg width="114" height="114" viewBox="0 0 114 114" fill="none" xmlns="http://www.w3.org/2000/svg">
<path d="M24.7147 112.219C24.7147 112.219 22.421 92.1104 42.1799 89.867H50.6349V85.972C50.6349 85.972 56.5824 88.5266 62.6049 86.257L62.7949 89.867H72.6749C72.6749 89.867 89.8803 91.5847 88.8397 112.219H24.7147Z" fill="white"/>
<path d="M88.6756 112.572H25.3262H24.0977L24.4043 107.333C25.0031 97.1036 33.0627 89.297 42.2859 89.297H50.6351V90.342H42.8458C33.9566 90.342 26.1888 97.8563 25.6117 107.703L25.3986 111.337H88.5082L88.3902 107.703C87.8131 97.8563 80.0453 90.342 71.1561 90.342H63.2701V89.297H71.6596C80.8828 89.297 88.9424 97.1036 89.5412 107.333L89.8478 112.572H88.6756Z" fill="#3F3D56"/>
<path d="M51.3001 85.5325V91.3917C51.3001 94.4322 53.767 96.897 56.8101 96.897C59.8532 96.897 62.3201 94.4322 62.3201 91.3917V85.6534C62.6398 85.5561 62.9566 85.4504 63.2701 85.3362V91.4316C63.2701 95.0272 60.3566 97.942 56.7626 97.942C53.1686 97.942 50.2551 95.0272 50.2551 91.4316V85.1557C50.5993 85.2918 50.9479 85.417 51.3001 85.5325ZM73.8596 101.863L71.1687 107.475C71.0326 107.759 70.6922 107.879 70.4083 107.743C70.1244 107.607 70.0047 107.266 70.1408 106.982L72.7396 101.562L70.7089 98.0448C70.5515 97.7721 70.6449 97.4235 70.9176 97.2661C71.1902 97.1087 71.5388 97.2021 71.6962 97.4748L73.8812 101.259C73.9938 101.454 73.9775 101.688 73.8596 101.863ZM39.7136 101.868L42.4189 107.498C42.5557 107.783 42.898 107.903 43.1834 107.766C43.4688 107.63 43.5892 107.288 43.4524 107.004L40.8396 101.567L42.8811 98.0385C43.0394 97.765 42.9455 97.4153 42.6714 97.2575C42.3973 97.0996 42.0468 97.1933 41.8886 97.4667L39.6919 101.263C39.5787 101.459 39.5951 101.693 39.7136 101.868Z" fill="#3F3D56"/>
<path d="M50.2549 89.107H51.2999V112.192H50.2549V89.107ZM62.3199 89.297H63.3649V112.382H62.3199V89.297ZM54.1054 100.418L56.7772 97.5234L59.6718 100.418L58.1132 101.977L60.5624 111.996H52.9921L55.6639 101.977L54.1054 100.418Z" fill="#3F3D56"/>
<path fill-rule="evenodd" clip-rule="evenodd" d="M60.0503 112.15L57.3576 102.1L57.9175 101.932L58.2887 101.538L61.1368 112.167L60.0503 112.15ZM52.4546 112.031L55.2659 101.586L55.4475 101.742L56.0175 102.122L56.2054 102.141L53.5388 112.048L52.4546 112.031Z" fill="#3F3D56"/>
<path fill-rule="evenodd" clip-rule="evenodd" d="M63.2668 103.265L62.5279 104.004L59.6527 101.129C59.0978 102.01 58.1183 102.597 57 102.597C55.8366 102.597 54.8234 101.962 54.2825 101.021L51.2812 104.022L50.5403 103.281L56.4493 97.372L56.9115 96.9435L57.3736 97.372L63.2668 103.265ZM54.8638 100.439C55.2426 101.211 56.0351 101.742 56.9525 101.742C57.8494 101.742 58.6256 101.234 59.0141 100.49L56.9135 98.3897L54.8638 100.439Z" fill="#3F3D56"/>
<path d="M57.0478 25.932C68.8659 25.932 78.194 36.976 77.8907 50.2457L77.5683 64.349C77.2826 76.8504 68.0984 86.732 57.0478 86.732C45.9972 86.732 36.8131 76.8504 36.5273 64.349L36.2049 50.2457C35.9016 36.976 45.2297 25.932 57.0478 25.932Z" fill="white"/>
<path fill-rule="evenodd" clip-rule="evenodd" d="M78.8402 49.8085L78.5024 64.4847C78.203 77.4939 68.5795 87.777 57.0003 87.777C45.4211 87.777 35.7976 77.4939 35.4982 64.4847L35.1604 49.8085C34.8426 35.9997 44.6168 24.507 57.0003 24.507C69.3837 24.507 79.158 35.9997 78.8402 49.8085ZM56.9528 26.027C45.2963 26.027 36.0958 36.9848 36.3949 50.1508L36.7129 64.1439C36.9947 76.5476 46.0533 86.352 56.9528 86.352C67.8524 86.352 76.911 76.5476 77.1928 64.1439L77.5108 50.1508C77.8099 36.9848 68.6094 26.027 56.9528 26.027Z" fill="#3F3D56"/>
<path d="M67.2601 72.8812C65.5334 74.3805 61.6332 75.807 57.0951 75.807C52.5571 75.807 48.6569 74.3805 46.9301 72.8812C46.9301 72.8812 46.7535 72.395 47.0127 72.1358C47.2767 71.8718 47.6901 71.9293 47.6901 71.9293C49.4151 73.4296 52.5554 74.667 57.0951 74.667C61.6349 74.667 64.7752 73.4296 66.5001 71.9293C66.5001 71.9293 66.9221 71.7726 67.127 71.9775C67.5218 72.3723 67.2601 72.8812 67.2601 72.8812ZM53.9601 78.087H60.0401V79.037H53.9601V78.087Z" fill="#3F3D56"/>
<path d="M35.1369 51.9486C35.1342 51.9488 34.9036 51.7646 34.4681 51.6275C34.2504 51.5591 33.9799 51.5028 33.6715 51.4889C33.5945 51.4854 33.5153 51.4846 33.4342 51.4869C33.3531 51.4892 33.2701 51.4947 33.1858 51.5037C33.0172 51.5217 32.8431 51.554 32.6679 51.6044C31.9662 51.8061 31.2505 52.2963 30.8301 53.3082C30.6191 53.8141 30.4799 54.4505 30.4431 55.2468C30.4339 55.4459 30.4311 55.6549 30.4351 55.8744C30.4392 56.0939 30.4501 56.3239 30.4683 56.5648C30.5047 57.0465 30.5704 57.5719 30.6683 58.1444C30.6661 58.1438 30.577 59.8744 31.1957 61.863C31.7773 63.8072 33.174 66.1955 35.7527 66.878C35.4562 61.9396 35.4469 56.9087 35.1369 51.9486Z" fill="white"/>
<path d="M35.4307 52.1477C35.4307 52.1477 30.9383 50.7557 31.0964 55.3742C31.0964 55.3742 31.7652 62.0711 32.0557 62.6883C32.0557 62.6883 33.82 66.5874 36.7317 66.7602C39.5774 66.9291 36.7317 66.7602 36.7317 66.7602L36.767 68.017C36.767 68.017 31.6493 67.3609 30.6609 61.4632L29.8807 56.1055C29.8807 56.1055 29.275 49.0151 35.1509 50.8179C40.8752 52.5742 35.1509 50.8179 35.1509 50.8179L35.4307 52.1477Z" fill="#3F3D56"/>
<path d="M33.9481 61.452C33.9481 61.452 33.6967 61.642 33.4807 61.642C33.2647 61.642 33.0164 61.452 33.0164 61.452L32.5527 56.78C32.5527 56.78 33.1924 54.4792 35.9068 55.6951L35.971 57.031C35.971 57.031 33.5895 56.1864 33.6387 57.2381C33.6861 58.2504 33.9481 61.452 33.9481 61.452Z" fill="#3F3D56"/>
<path d="M78.7787 51.9595C78.7814 51.9597 79.013 51.7756 79.4504 51.6386C79.6691 51.5702 79.9408 51.514 80.2505 51.5001C80.3278 51.4967 80.4074 51.4958 80.4889 51.4982C80.5703 51.5004 80.6536 51.5059 80.7383 51.5149C80.9077 51.5329 81.0826 51.5652 81.2586 51.6156C81.9633 51.8171 82.6821 52.307 83.1043 53.3181C83.3163 53.8238 83.4561 54.4597 83.493 55.2555C83.5023 55.4544 83.5051 55.6633 83.5011 55.8827C83.497 56.102 83.486 56.3318 83.4678 56.5725C83.4312 57.0539 83.3652 57.579 83.2669 58.1511C83.269 58.1505 83.3586 59.8799 82.7372 61.8672C82.153 63.8101 80.7502 66.1968 78.1602 66.8788C78.458 61.9438 78.4673 56.9162 78.7787 51.9595Z" fill="white"/>
<path d="M78.4825 52.1585C78.4825 52.1585 82.9946 50.7675 82.8358 55.3828C82.8358 55.3828 82.164 62.0751 81.8723 62.6919C81.8723 62.6919 80.1003 66.5884 77.1758 66.7611C74.3176 66.9299 77.1758 66.7611 77.1758 66.7611L77.1403 68.017C77.1403 68.017 82.2804 67.3613 83.2732 61.4677L84.0568 56.1136C84.0568 56.1136 84.6652 49.028 78.7635 50.8296C73.0141 52.5847 78.7635 50.8296 78.7635 50.8296L78.4825 52.1585Z" fill="#3F3D56"/>
<path d="M79.9718 61.4564C79.9718 61.4564 80.2243 61.6463 80.4413 61.6463C80.6582 61.6463 80.9076 61.4564 80.9076 61.4564L81.3733 56.7877C81.3733 56.7877 80.7308 54.4884 78.0045 55.7035L77.9401 57.0385C77.9401 57.0385 80.332 56.1944 80.2825 57.2454C80.2349 58.2571 79.9718 61.4564 79.9718 61.4564ZM63.0846 50.4185C63.0846 50.4185 68.7723 47.1666 72.8353 50.7494L73.9101 50.916C73.9101 50.916 72.5335 45.9068 62.5101 49.1639L62.7891 50.0977L63.0846 50.4185ZM63.0118 50.0977C63.0118 50.0977 68.798 46.7742 72.6127 50.972L74.578 50.916C74.578 50.916 72.1269 45.5651 62.0648 48.9413L63.0118 50.3203V50.0977ZM50.8633 50.4373C50.8633 50.4373 45.1946 47.2143 41.1451 50.7653L40.0739 50.9304C40.0739 50.9304 41.4459 45.9655 51.4359 49.1939L51.1578 50.1193L50.8633 50.4373ZM50.9359 50.1193C50.9359 50.1193 45.1689 46.8253 41.367 50.986L39.4082 50.9304C39.4082 50.9304 41.8512 45.6269 51.8797 48.9732L50.9359 50.34" fill="#3F3D56"/>
<path d="M78.0606 52.057C78.0606 52.057 86.8305 29.0469 59.8255 23.805C59.8255 23.805 54.173 23.4989 49.7581 18.237C49.7581 18.237 46.6042 22.5607 48.4285 25.8671C48.4285 25.8671 46.1071 27.8923 39.8808 26.2796C39.8808 26.2796 38.9384 28.2924 39.6908 30.6102C39.6908 30.6102 31.8592 33.9965 35.5914 49.1439C35.6272 49.289 35.664 49.4351 35.7019 49.5824C35.7019 49.5824 39.0527 36.1873 41.4004 35.9719C41.4004 35.9719 54.0503 43.2342 64.7642 35.3533C64.7642 35.3533 70.0541 42.4109 76.541 42.7772C76.541 42.7772 77.7144 47.3285 78.0606 52.057Z" fill="#3F3D56"/>
<path fill-rule="evenodd" clip-rule="evenodd" d="M78.66 52.247C78.3964 52.9623 77.52 52.722 77.52 52.722C77.1737 47.9935 76.095 43.412 76.095 43.412C69.5226 42.5839 64.6 36.287 64.6 36.287C53.9495 43.6069 41.42 36.572 41.42 36.572C38.9043 38.6577 36.385 49.682 36.385 49.682C36.3471 49.5348 35.0907 49.8271 35.055 49.682C31.3228 34.5346 38.95 30.302 38.95 30.302C38.1976 27.9842 39.425 25.552 39.425 25.552C45.6513 27.1647 47.595 25.742 47.595 25.742C45.949 21.619 49.59 17.382 49.59 17.382C54.0048 22.6438 60.04 23.177 60.04 23.177C84.8769 28.1543 80.4209 47.4691 78.66 52.247ZM59.47 24.412C59.47 24.412 54.3867 24.1355 49.875 19.377C49.875 19.377 47.2907 22.8155 49.115 26.122C49.115 26.122 46.5063 28.6847 40.28 27.072C40.28 27.072 39.7875 28.3622 40.28 30.777C40.28 30.777 33.2973 34.3819 35.72 46.642C35.7489 46.7886 35.6821 46.5898 35.72 46.737C35.72 46.737 38.6407 35.4244 41.325 35.337C41.325 35.337 54.4311 42.7569 64.98 34.482C64.98 34.482 70.558 41.9058 77.045 42.272C77.045 42.272 77.6077 43.863 78.28 48.542C78.28 48.542 83.9692 29.0806 59.47 24.412Z" fill="#3F3D56"/>
<path opacity="0.2" fill-rule="evenodd" clip-rule="evenodd" d="M51.4539 23.367C51.6281 23.3704 51.6277 23.4889 51.6786 23.6123C51.7545 23.7965 51.8224 23.9839 51.9103 24.159C52.0435 24.4243 52.1802 24.6875 52.3386 24.9299C52.4719 25.1338 52.6164 25.3286 52.7599 25.5222C52.8428 25.634 52.9429 25.7332 53.0267 25.8446C53.0602 25.889 53.1049 25.9256 53.1391 25.9707C53.1508 25.9812 53.1625 25.9917 53.1742 26.0023C53.2171 26.059 53.2717 26.1033 53.3146 26.1599C53.3614 26.2055 53.4082 26.2511 53.455 26.2966C53.5281 26.3696 53.5967 26.4513 53.6797 26.5139C53.6973 26.5326 53.7148 26.5513 53.7324 26.5699C53.7983 26.6197 53.8522 26.6813 53.9184 26.7311C53.929 26.7428 53.9395 26.7545 53.95 26.7662C54.0457 26.838 54.1287 26.9262 54.2239 26.9975C54.3784 27.1132 54.5246 27.236 54.6838 27.3479C54.7894 27.4221 54.8935 27.5045 54.9997 27.5792C55.1888 27.7121 55.3887 27.8311 55.5825 27.9576C55.7005 28.0347 55.827 28.0934 55.9476 28.1679C56.2891 28.3786 56.6628 28.5585 57.0289 28.7426C57.1472 28.8021 57.2649 28.8504 57.387 28.9038C57.465 28.9379 57.5493 28.9781 57.6258 29.0159C57.6681 29.0369 57.709 29.0462 57.7522 29.065C57.8458 29.1058 57.9467 29.1494 58.04 29.1912C58.1263 29.2298 58.2107 29.2552 58.2998 29.2893C58.3959 29.326 58.4978 29.3718 58.5947 29.4084C58.7632 29.472 58.9337 29.528 59.1003 29.5906C59.2734 29.6557 59.4466 29.6991 59.6234 29.7589C59.9659 29.8747 60.3305 29.9601 60.6871 30.0672C60.7939 30.0993 60.9051 30.1146 61.0101 30.1443C61.0625 30.1592 61.1304 30.1564 61.1751 30.1794C61.1933 30.1887 61.214 30.2084 61.2313 30.2214C61.2591 30.2423 61.2807 30.2772 61.3015 30.3055C61.3348 30.3509 61.3701 30.3956 61.3963 30.4492C61.4234 30.5047 61.4309 30.5818 61.4454 30.6454C61.4571 30.6965 61.4409 30.7604 61.4314 30.7961C61.4234 30.8262 61.4261 30.8469 61.4174 30.8767C61.3947 30.9543 61.36 31.0295 61.3155 31.087C61.2694 31.1465 61.1559 31.148 61.0698 31.1255C60.9192 31.0862 60.7539 31.0693 60.6064 31.0274C60.5748 31.0184 60.5497 31.0224 60.5186 31.0134C60.3475 30.9639 60.1607 30.9357 59.992 30.8872C59.9535 30.8762 59.9211 30.8777 59.8832 30.8662C59.75 30.8257 59.6114 30.8026 59.4759 30.7611C59.1364 30.657 58.7887 30.5704 58.4648 30.4527C58.3891 30.4252 58.3188 30.411 58.2437 30.3826C57.7122 30.1822 57.1845 29.989 56.6989 29.7448C56.5712 29.6806 56.4443 29.6297 56.3198 29.5626C55.9661 29.3721 55.6223 29.1748 55.2876 28.9669C55.2437 28.9396 55.2008 28.9045 55.1577 28.8758C54.9633 28.7463 54.7768 28.6146 54.589 28.4798C54.3995 28.3438 54.2306 28.181 54.0448 28.0418C54.0056 28.0124 53.9725 27.9738 53.9325 27.9436C53.9208 27.9308 53.9091 27.9179 53.8974 27.9051C53.854 27.8723 53.8204 27.8285 53.778 27.7965C53.6763 27.7197 53.5903 27.6196 53.5007 27.5301C53.4161 27.4457 53.324 27.3632 53.2514 27.2673C53.235 27.2521 53.2186 27.2369 53.2023 27.2217C53.1551 27.1594 53.0942 27.1081 53.0478 27.0465C52.9668 26.9391 52.8715 26.8424 52.7915 26.7347C52.692 26.6007 52.5894 26.4681 52.4931 26.3317C52.3967 26.195 52.3129 26.054 52.2228 25.9111C51.9785 25.5242 51.7796 25.1022 51.5943 24.6531C51.5272 24.4902 51.4818 24.3163 51.4258 24.145C51.3873 24.027 51.3686 23.9001 51.3345 23.7805C51.3257 23.7493 51.3289 23.7247 51.3205 23.6929C51.3025 23.6246 51.282 23.5394 51.3065 23.4687C51.3174 23.437 51.3625 23.392 51.3942 23.381C51.4163 23.3734 51.4379 23.3792 51.4539 23.367ZM49.7302 28.6235C49.855 28.6242 49.9109 28.716 49.9654 28.7882C50.0219 28.8629 50.098 28.9231 50.155 28.9984C50.2018 29.0451 50.2486 29.0919 50.2954 29.1386C50.3273 29.1807 50.3672 29.2138 50.4042 29.2507C50.4424 29.2888 50.4766 29.3301 50.5201 29.3629C50.5622 29.4049 50.6043 29.447 50.6465 29.489C50.6897 29.5217 50.7233 29.5656 50.7658 29.5977C50.8972 29.6968 51.0095 29.8215 51.1415 29.9201C51.2814 30.0245 51.413 30.1419 51.5557 30.2424C51.7428 30.3742 51.9293 30.5081 52.121 30.6349C52.219 30.6998 52.3193 30.7542 52.4194 30.8171C52.4959 30.8653 52.5753 30.9205 52.6546 30.9643C52.9837 31.1464 53.317 31.3252 53.6587 31.497C53.9292 31.633 54.2148 31.7433 54.4942 31.8684C54.5803 31.907 54.6649 31.9327 54.754 31.9666C54.9552 32.043 55.1667 32.1207 55.3719 32.1978C55.5659 32.2707 55.772 32.3206 55.9687 32.3871C56.0008 32.3979 56.0282 32.3967 56.06 32.4081C56.1617 32.4446 56.277 32.4674 56.383 32.4992C56.4362 32.5152 56.4891 32.5149 56.541 32.5343C56.6545 32.5765 56.7978 32.7043 56.8394 32.8181C56.9114 33.0152 56.8317 33.2395 56.7411 33.3683C56.7137 33.4071 56.6733 33.4709 56.6252 33.4874C56.5494 33.5134 56.4698 33.4862 56.4005 33.4664C56.311 33.4407 56.2252 33.4369 56.1372 33.4103C55.9747 33.3612 55.8055 33.3343 55.6422 33.2842C55.3004 33.1792 54.9596 33.0849 54.6346 32.9618C53.8822 32.6767 53.1879 32.3424 52.5493 31.9455C52.2841 31.7808 52.0328 31.5951 51.7839 31.4129C51.6953 31.348 51.6151 31.2681 51.5276 31.2026C51.4078 31.1129 51.3058 31.0048 51.1871 30.9153C51.1742 30.9013 51.1614 30.8872 51.1485 30.8732C51.1242 30.8516 51.0977 30.833 51.0748 30.8101C51.056 30.7903 51.0373 30.7704 51.0186 30.7506C50.9738 30.7168 50.9385 30.6741 50.8992 30.6349C50.8611 30.5968 50.8197 30.5627 50.7869 30.5193C50.7611 30.4948 50.7354 30.4702 50.7096 30.4457C50.6236 30.3321 50.5146 30.2384 50.4288 30.1233C50.4086 30.0962 50.3789 30.0732 50.3586 30.0462C50.2761 29.9365 50.185 29.8324 50.1058 29.7203C50.0156 29.5927 49.9219 29.4642 49.839 29.3313C49.8063 29.279 49.7813 29.2255 49.7477 29.1736C49.7108 29.1168 49.6828 29.0571 49.6494 28.9949C49.6296 28.9581 49.6004 28.9172 49.5862 28.8758C49.5718 28.8337 49.5672 28.7524 49.5897 28.7146C49.6051 28.6888 49.6413 28.6482 49.6705 28.6375C49.6924 28.6294 49.714 28.6357 49.7302 28.6235ZM47.3709 31.1816C47.5119 31.1833 47.5474 31.2873 47.6062 31.3708C47.7007 31.5053 47.8096 31.6291 47.9081 31.7598C47.9866 31.864 48.089 31.95 48.1679 32.0542C48.1983 32.0834 48.2287 32.1126 48.2592 32.1418C48.3028 32.1995 48.3699 32.2664 48.4277 32.31C48.4394 32.3228 48.4511 32.3357 48.4628 32.3485C48.4915 32.3772 48.5213 32.4044 48.5541 32.4291C48.5693 32.4455 48.5845 32.4618 48.5997 32.4782C48.6777 32.5371 48.743 32.613 48.8209 32.6709C49.007 32.8094 49.1843 32.9605 49.3756 33.0949C49.7902 33.3864 50.247 33.6297 50.7167 33.8659C50.8702 33.9431 51.0335 34.0003 51.1871 34.0761C51.2526 34.1085 51.3198 34.1247 51.3872 34.1532C51.5713 34.2312 51.7688 34.2991 51.9595 34.3705C52.2234 34.4693 52.5032 34.5314 52.7739 34.6228C52.8688 34.6548 52.97 34.6692 53.0618 34.6999C53.1435 34.7272 53.2271 34.7316 53.3111 34.756C53.4774 34.8042 53.6628 34.831 53.8342 34.8751C53.9331 34.9006 54.0334 34.9066 54.1291 34.9312C54.2359 34.9586 54.3478 34.9617 54.4521 34.9872C54.4755 34.9896 54.4989 34.9919 54.5223 34.9943C54.6294 35.0215 54.7539 35.0244 54.8628 35.0503C54.9093 35.0614 54.9494 35.0534 54.9962 35.0643C55.1484 35.0998 55.3221 35.0926 55.4772 35.1274C55.5215 35.1374 55.5675 35.1326 55.6071 35.1414C55.6211 35.1414 55.6352 35.1414 55.6492 35.1414C55.7027 35.1533 55.7707 35.1506 55.8248 35.1625C55.84 35.1625 55.8552 35.1625 55.8704 35.1625C55.9588 35.182 56.0657 35.171 56.1548 35.1905C56.1747 35.1905 56.1946 35.1905 56.2145 35.1905C56.328 35.2153 56.4645 35.1936 56.5796 35.2185C56.624 35.2197 56.6685 35.2209 56.713 35.222C56.7382 35.2275 56.7782 35.2192 56.8078 35.2255C56.8861 35.2425 56.9871 35.2275 57.0676 35.2396C57.1151 35.2467 57.1726 35.2339 57.215 35.2431C57.2524 35.2511 57.3014 35.2394 57.3344 35.2466C57.4256 35.2466 57.517 35.2466 57.6082 35.2466C57.8243 35.2466 58.0352 35.2405 58.2437 35.2396C58.3423 35.2391 58.4498 35.2175 58.5315 35.2466C58.5777 35.263 58.6204 35.3035 58.6579 35.3307C58.7423 35.3918 58.8216 35.4793 58.8615 35.583C58.8737 35.6146 58.8727 35.6425 58.8826 35.6776C58.8985 35.7338 58.9214 35.8223 58.9037 35.8984C58.8921 35.9479 58.886 36.0078 58.8686 36.0561C58.8416 36.1305 58.7699 36.1523 58.686 36.1717C58.6556 36.1729 58.6252 36.174 58.5947 36.1752C58.4651 36.2035 58.3072 36.1786 58.177 36.2067C58.1519 36.2122 58.1169 36.2058 58.0962 36.2102C58.0471 36.2114 57.9979 36.2126 57.9488 36.2138C57.9011 36.224 57.8411 36.2092 57.7873 36.2208C57.7423 36.2304 57.6873 36.2278 57.6363 36.2278C57.6176 36.2278 57.5989 36.2278 57.5801 36.2278C57.5367 36.2371 57.4758 36.2348 57.4292 36.2348C57.3613 36.2348 57.2934 36.2348 57.2255 36.2348C57.1623 36.2483 57.0743 36.2383 57.0044 36.2383C56.9464 36.2383 56.8733 36.2459 56.8218 36.2348C56.782 36.2348 56.7422 36.2348 56.7024 36.2348C56.6194 36.2348 56.5374 36.2348 56.4602 36.2278C56.4204 36.2278 56.3806 36.2278 56.3408 36.2278C56.2726 36.2129 56.1838 36.2284 56.1162 36.2138C56.0892 36.2138 56.0623 36.2138 56.0354 36.2138C55.986 36.203 55.9192 36.2103 55.8704 36.1997C55.847 36.1997 55.8236 36.1997 55.8002 36.1997C55.7626 36.1915 55.7079 36.1939 55.6703 36.1857C55.6516 36.1857 55.6328 36.1857 55.6141 36.1857C55.484 36.157 55.3342 36.1721 55.2069 36.1437C55.1718 36.1413 55.1367 36.139 55.1016 36.1367C54.9363 36.0991 54.7534 36.1048 54.5925 36.0666C54.5488 36.0562 54.5128 36.0631 54.4696 36.0526C54.3201 36.016 54.1553 36.0059 54.0097 35.9685C53.9857 35.9623 53.9705 35.9677 53.9465 35.9614C53.8777 35.9435 53.7969 35.9317 53.7289 35.9124C53.6972 35.9034 53.6727 35.9075 53.6411 35.8984C53.4045 35.8302 53.158 35.7946 52.9249 35.7232C52.5121 35.5966 52.0948 35.4835 51.7207 35.3167C51.636 35.2789 51.5515 35.257 51.468 35.2185C51.3202 35.1505 51.1677 35.0886 51.0221 35.0153C50.7943 34.9006 50.5716 34.78 50.3515 34.6578C50.1967 34.5719 50.0478 34.4669 49.9022 34.3705C49.7827 34.2914 49.6673 34.2139 49.5511 34.1322C49.4368 34.0519 49.3301 33.9596 49.2176 33.8764C49.1031 33.7918 49.005 33.6854 48.8911 33.5996C48.8478 33.567 48.8113 33.5129 48.7682 33.4804C48.662 33.4002 48.574 33.2936 48.4803 33.2001C48.0806 32.801 47.7412 32.3425 47.4377 31.8474C47.3676 31.7331 47.3166 31.6139 47.2551 31.49C47.2271 31.4335 47.1977 31.3573 47.227 31.2797C47.2364 31.255 47.2865 31.2049 47.3113 31.1956C47.3316 31.188 47.3555 31.1932 47.3709 31.1816ZM70.6049 34.6368C70.7327 34.6382 70.7722 34.7231 70.8261 34.798C70.8794 34.872 70.9399 34.9415 70.9946 35.0153C71.1107 35.1719 71.2565 35.3054 71.3738 35.4603C71.4147 35.5144 71.4727 35.5563 71.5142 35.611C71.5306 35.6262 71.547 35.6414 71.5633 35.6566C71.6203 35.7318 71.697 35.7935 71.7635 35.8598C71.8208 35.917 71.8781 35.9743 71.9355 36.0315C72.0257 36.0996 72.0988 36.1953 72.1883 36.2628C72.2394 36.3014 72.2818 36.3512 72.3322 36.389C72.4982 36.5135 72.649 36.6584 72.8167 36.7814C73.0692 36.9667 73.3221 37.1537 73.5855 37.3281C73.9815 37.5904 74.4019 37.8271 74.8283 38.057C75.0706 38.1876 75.3245 38.2985 75.5726 38.4215C75.6608 38.4652 75.7533 38.498 75.8394 38.5406C75.8713 38.5564 75.9023 38.5599 75.9342 38.5756C76.0715 38.6435 76.2245 38.6949 76.366 38.7579C76.4024 38.7741 76.434 38.7788 76.4713 38.7929C76.6091 38.8451 76.7549 38.8984 76.8961 38.9506C76.9756 38.98 77.0698 38.9914 77.1419 39.0312C77.324 39.1319 77.4919 39.3476 77.3982 39.6339C77.3648 39.7359 77.3082 39.8151 77.2507 39.8933C77.2111 39.9471 77.1615 39.9686 77.0892 39.9914C77.0715 39.9969 76.9928 39.9691 76.9769 39.9633C76.8801 39.9283 76.7828 39.9116 76.6855 39.8792C76.1825 39.712 75.6994 39.5351 75.2356 39.3326C74.4847 39.0048 73.8117 38.5865 73.1783 38.1411C72.994 38.0115 72.8276 37.8583 72.6482 37.7241C72.5955 37.6847 72.5504 37.6346 72.4972 37.5944C72.4867 37.5828 72.4761 37.5711 72.4656 37.5594C72.3941 37.5055 72.3367 37.4379 72.2655 37.3842C72.2339 37.3515 72.2023 37.3188 72.1707 37.2861C72.1349 37.259 72.1073 37.2262 72.0759 37.195C72.0446 37.1637 72.0117 37.1361 71.9846 37.1003C71.9624 37.0793 71.9402 37.0583 71.9179 37.0373C71.8777 36.9971 71.8365 36.953 71.8021 36.9076C71.781 36.8866 71.7599 36.8655 71.7389 36.8445C71.6937 36.7849 71.6359 36.7353 71.5914 36.6763C71.4755 36.5224 71.3491 36.3798 71.2369 36.2208C71.136 36.0779 71.0251 35.9362 70.9314 35.7862C70.8114 35.5941 70.7015 35.3959 70.5944 35.1905C70.5474 35.1003 70.494 34.9873 70.461 34.8891C70.4463 34.8455 70.442 34.7673 70.4645 34.7279C70.4798 34.7011 70.5153 34.6621 70.5452 34.6508C70.5656 34.6432 70.5895 34.6484 70.6049 34.6368Z" fill="#3F3D56"/>
<path fill-rule="evenodd" clip-rule="evenodd" d="M58.7574 61.082C58.8682 61.082 58.9791 61.082 59.0899 61.082C59.7773 62.0156 60.057 63.4503 60.4199 64.692C60.5323 65.0768 60.4232 65.7499 60.3249 66.022C59.9647 67.0185 58.8336 67.0006 57.9024 67.447C57.6523 67.5669 57.4663 67.7739 57.1424 67.827C56.9313 67.641 56.6763 67.6045 56.5724 67.3045C56.3158 66.9512 56.6465 66.7306 56.9049 66.592C57.3739 66.3405 58.8216 66.0926 58.9949 65.642C59.2094 65.3981 59.0668 64.6645 58.9949 64.407C58.8108 63.7475 58.7225 63.1969 58.4724 62.602C58.3063 62.2069 58.0146 61.7903 58.1874 61.3195C58.3306 61.258 58.6401 61.1881 58.7574 61.082Z" fill="#3F3D56"/>
<path d="M46.5499 53.007C47.5992 53.007 48.4499 53.8577 48.4499 54.907C48.4499 55.9564 47.5992 56.807 46.5499 56.807C45.5006 56.807 44.6499 55.9564 44.6499 54.907C44.6499 53.8577 45.5006 53.007 46.5499 53.007ZM67.6399 53.007C68.6892 53.007 69.5399 53.8577 69.5399 54.907C69.5399 55.9564 68.6892 56.807 67.6399 56.807C66.5906 56.807 65.7399 55.9564 65.7399 54.907C65.7399 53.8577 66.5906 53.007 67.6399 53.007Z" fill="#3F3D56"/>
<path d="M68.4951 60.037C69.8068 60.037 70.8701 61.1004 70.8701 62.412C70.8701 63.7237 69.8068 64.787 68.4951 64.787C67.1834 64.787 66.1201 63.7237 66.1201 62.412C66.1201 61.1004 67.1834 60.037 68.4951 60.037Z" fill="#F5F3EF"/>
<path d="M45.5049 60.037C46.8166 60.037 47.8799 61.1004 47.8799 62.412C47.8799 63.7237 46.8166 64.787 45.5049 64.787C44.1932 64.787 43.1299 63.7237 43.1299 62.412C43.1299 61.1004 44.1932 60.037 45.5049 60.037Z" fill="#F4F3EF"/>
</svg>
