<svg width="97" height="97" viewBox="0 0 97 97" fill="none" xmlns="http://www.w3.org/2000/svg">
<path d="M95.4845 87.9196H5.81679C5.07383 87.9196 4.35012 87.6251 3.82753 87.1115C3.30509 86.5978 3.01803 85.9185 3.01803 85.1946V7.57813C3.01803 6.74787 2.346 6.07584 1.51574 6.07584C0.685334 6.07584 0.0133057 6.74787 0.0133057 7.57813V85.1946C0.0133057 86.731 0.620162 88.1727 1.72142 89.2532C2.81373 90.3306 4.26873 90.9242 5.81679 90.9242H95.4845C96.3148 90.9242 96.9868 90.2523 96.9868 89.4219C96.9868 88.5916 96.3148 87.9196 95.4845 87.9196Z" fill="white"/>
<path d="M15.1563 74.2834C15.5589 74.2834 15.9614 74.125 16.2618 73.8128L39.0673 50.0764L55.2878 64.2054C55.6444 64.5162 56.1314 64.642 56.5902 64.5532C57.055 64.4629 57.4517 64.161 57.6648 63.7376L75.9362 27.3585L77.8238 35.7504C77.9955 36.5097 78.6689 37.0263 79.4164 37.0263C79.5348 37.0263 79.6562 37.0129 79.7761 36.9863C80.6566 36.788 81.2088 35.9132 81.0119 35.034L78.2841 22.909C78.1791 22.4428 77.8741 22.0461 77.4523 21.8226C77.0275 21.5977 76.5272 21.5696 76.0861 21.7501L63.6577 26.6936C62.82 27.0266 62.41 27.9769 62.7445 28.8146C63.079 29.6538 64.0292 30.0653 64.8655 29.7279L72.9235 26.5231L55.8118 60.5954L39.9791 46.8052C39.3663 46.2681 38.4353 46.3095 37.8669 46.8986L14.0507 71.6872C13.4645 72.2987 13.4837 73.2696 14.0936 73.8557C14.3911 74.1413 14.7744 74.2834 15.1563 74.2834Z" fill="#FBFBFB"/>
</svg>
