<svg width="428" height="332" viewBox="0 0 428 332" fill="none" xmlns="http://www.w3.org/2000/svg">
<path d="M0 18C0 8.05887 8.05888 0 18 0H410C419.941 0 428 8.05888 428 18V314C428 323.941 419.941 332 410 332H18C8.05888 332 0 323.941 0 314V18Z" fill="#F6F6F6"/>
<path d="M294.126 219.427L249.256 170.685L212.429 191.037C209.436 192.691 205.813 192.755 202.763 191.207L150.059 164.464L121.01 198.613C114.822 205.886 102.862 201.498 102.862 191.982V43.2561C102.863 37.5921 107.472 33 113.157 33H301.712C307.398 33 312.007 37.5921 312.007 43.2561V212.494C312.007 221.817 300.459 226.306 294.126 219.427Z" fill="#80D0E1"/>
<path d="M301.712 33H207.435V192.315C209.157 192.315 210.877 191.894 212.429 191.037L249.256 170.685L294.126 219.427C300.462 226.309 312.008 221.815 312.008 212.494V43.2561C312.007 37.5921 307.399 33 301.712 33Z" fill="#51B3DA"/>
<path d="M267.395 123.056H147.475C141.789 123.056 137.18 118.463 137.18 112.8V77.4428C137.18 71.7789 141.789 67.1868 147.475 67.1868H267.395C273.08 67.1868 277.69 71.7789 277.69 77.4428V112.8C277.69 118.464 273.081 123.056 267.395 123.056Z" fill="#FFDA79"/>
<path d="M301.712 299H113.157C107.472 299 102.863 294.408 102.863 288.744V191.982C102.863 189.553 103.727 187.204 105.304 185.351L139.619 145.01C142.706 141.383 147.892 140.344 152.144 142.503L207.229 170.454L246.365 148.827C250.527 146.528 255.728 147.369 258.945 150.864L309.299 205.563C313.03 209.615 312.007 205.647 312.007 288.746C312.007 294.408 307.399 299 301.712 299Z" fill="#424A60"/>
<path d="M309.3 205.562L258.946 150.863C255.728 147.369 250.528 146.527 246.365 148.826L207.435 170.339V299H301.713C307.398 299 312.008 294.408 312.008 288.744C312.007 206.809 313.037 209.622 309.3 205.562Z" fill="#424A60"/>
<path d="M206.497 232.669H147.475C141.789 232.669 137.18 228.077 137.18 222.413C137.18 216.749 141.789 212.157 147.475 212.157H206.497C212.182 212.157 216.791 216.749 216.791 222.413C216.791 228.077 212.182 232.669 206.497 232.669Z" fill="#FFDA79"/>
<path d="M206.497 263.091H147.475C141.789 263.091 137.18 258.498 137.18 252.834C137.18 247.171 141.789 242.578 147.475 242.578H206.497C212.182 242.578 216.791 247.171 216.791 252.834C216.791 258.498 212.182 263.091 206.497 263.091Z" fill="#FFDA79"/>
<path d="M267.395 67.1868H207.435V123.056H267.395C273.08 123.056 277.69 118.464 277.69 112.8V77.4428C277.69 71.7779 273.081 67.1868 267.395 67.1868Z" fill="#FFD155"/>
<path d="M216.791 222.413C216.791 217.064 212.68 212.677 207.435 212.204V232.622C212.68 232.149 216.791 227.762 216.791 222.413Z" fill="#FFD155"/>
<path d="M216.791 252.835C216.791 247.485 212.68 243.099 207.435 242.626V263.043C212.68 262.57 216.791 258.183 216.791 252.835Z" fill="#FFD155"/>
</svg>
