<svg width="428" height="332" viewBox="0 0 428 332" fill="none" xmlns="http://www.w3.org/2000/svg">
<path d="M0 27.2357C0 17.2946 8.05888 9.23572 18 9.23572H410C419.941 9.23572 428 17.2946 428 27.2357V314C428 323.941 419.941 332 410 332H18C8.05888 332 0 323.941 0 314V27.2357Z" fill="#F6F6F6"/>
<path d="M249.603 70.7693V94.4618C249.603 98.1267 246.065 101.099 241.703 101.099H185.291C180.935 101.099 177.397 98.1267 177.397 94.4618V70.7693H61.1314C48.9104 70.7693 39 79.0948 39 89.3614V254.375C39 264.642 48.9104 272.967 61.1314 272.967H365.869C378.09 272.967 388 264.642 388 254.375V89.3614C388 79.0948 378.09 70.7693 365.869 70.7693H249.603Z" fill="#424A60"/>
<path d="M242.013 15H184.981C180.577 15 177 18.1605 177 22.0574V93.948C177 97.8395 180.577 101 184.987 101H242.019C246.423 101 250 97.8395 250 93.9426V22.0574C250 18.1605 246.423 15 242.013 15ZM213.5 63.375C203.42 63.375 195.25 56.1564 195.25 47.25C195.25 38.3436 203.42 31.125 213.5 31.125C223.58 31.125 231.75 38.3436 231.75 47.25C231.75 56.1564 223.58 63.375 213.5 63.375Z" fill="#CAD1D8"/>
<path d="M172.499 213.096L149.832 203.371C148.285 202.703 147.31 201.369 147.31 199.908V194.08C158.942 189.869 165.627 181.69 168.882 171.459C173.786 170.18 177.397 166.368 177.397 161.844V156.789C177.397 152.917 174.743 149.576 170.91 147.877C168.256 128.866 153.298 121.172 129.259 121.172C128.121 121.172 127.002 121.208 125.907 121.283C117.736 121.829 109.468 120.54 102.669 116.688C99.8404 115.091 97.4636 113.388 95.7908 111.603C95.0266 110.789 93.5042 111.31 93.6426 112.336C93.8833 114.105 94.2444 116.168 94.7739 118.422C96.7596 126.813 95.5742 125.59 91.7111 133.506C89.575 137.884 88.197 142.742 87.5592 147.888C83.7563 149.601 81.1208 152.932 81.1208 156.789V161.844C81.1208 166.368 84.7311 170.18 89.6352 171.459C92.8905 181.685 99.5696 189.869 111.207 194.08V199.868C111.207 201.349 110.208 202.698 108.626 203.356L85.393 212.965C79.0508 215.872 75.1035 221.457 75.1035 227.523V232.154C75.1035 232.154 75.1035 233.513 75.1035 234.221C75.1035 239.933 99.347 242.723 129.259 242.723C159.17 242.723 183.414 239.933 183.414 234.221C183.414 233.513 183.414 232.154 183.414 232.154V227.928C183.414 221.649 179.19 215.907 172.499 213.096Z" fill="#FEE4CD"/>
<path d="M347.624 218.829C346.535 219.784 345.879 221.103 345.879 222.418C345.879 223.732 346.481 225.046 347.624 226.007C348.762 226.917 350.332 227.473 351.897 227.473C353.461 227.473 355.026 226.917 356.169 226.007C357.252 225.046 357.914 223.732 357.914 222.418C357.914 221.103 357.252 219.784 356.169 218.829C353.942 217.009 349.911 216.958 347.624 218.829Z" fill="#CAD1D8"/>
<path d="M219.517 141.63H279.69C283.017 141.63 285.707 139.37 285.707 136.575C285.707 133.779 283.017 131.52 279.69 131.52H219.517C216.19 131.52 213.5 133.779 213.5 136.575C213.5 139.37 216.19 141.63 219.517 141.63Z" fill="#CAD1D8"/>
<path d="M225.534 217.454H219.517C216.19 217.454 213.5 219.713 213.5 222.509C213.5 225.304 216.19 227.564 219.517 227.564H225.534C228.862 227.564 231.552 225.304 231.552 222.509C231.552 219.713 228.862 217.454 225.534 217.454Z" fill="#CAD1D8"/>
<path d="M261.638 217.454H249.603C246.276 217.454 243.586 219.713 243.586 222.509C243.586 225.304 246.276 227.564 249.603 227.564H261.638C264.965 227.564 267.655 225.304 267.655 222.509C267.655 219.713 264.965 217.454 261.638 217.454Z" fill="#CAD1D8"/>
<path d="M291.724 217.454H285.707C282.379 217.454 279.69 219.713 279.69 222.509C279.69 225.304 282.379 227.564 285.707 227.564H291.724C295.052 227.564 297.741 225.304 297.741 222.509C297.741 219.713 295.052 217.454 291.724 217.454Z" fill="#CAD1D8"/>
<path d="M327.828 217.454H315.793C312.466 217.454 309.776 219.713 309.776 222.509C309.776 225.304 312.466 227.564 315.793 227.564H327.828C331.155 227.564 333.845 225.304 333.845 222.509C333.845 219.713 331.155 217.454 327.828 217.454Z" fill="#CAD1D8"/>
<path d="M219.517 171.959H351.897C355.224 171.959 357.914 169.7 357.914 166.904C357.914 164.109 355.224 161.849 351.897 161.849H219.517C216.19 161.849 213.5 164.109 213.5 166.904C213.5 169.7 216.19 171.959 219.517 171.959Z" fill="#CAD1D8"/>
<path d="M351.897 192.179H219.517C216.19 192.179 213.5 194.439 213.5 197.234C213.5 200.029 216.19 202.289 219.517 202.289H351.897C355.224 202.289 357.914 200.029 357.914 197.234C357.914 194.439 355.224 192.179 351.897 192.179Z" fill="#CAD1D8"/>
</svg>
