<svg width="428" height="371" viewBox="0 0 428 371" fill="none" xmlns="http://www.w3.org/2000/svg">
<path d="M0 57C0 47.0589 8.05888 39 18 39H410C419.941 39 428 47.0589 428 57V353C428 362.941 419.941 371 410 371H18C8.05888 371 0 362.941 0 353V57Z" fill="#F6F6F6"/>
<path d="M249.603 84.2413V112.444C249.603 116.807 246.065 120.345 241.703 120.345H185.291C180.935 120.345 177.397 116.807 177.397 112.444V84.2413H61.1314C48.9104 84.2413 39 94.1517 39 106.373V302.8C39 315.021 48.9104 324.931 61.1314 324.931H365.869C378.09 324.931 388 315.021 388 302.8V106.373C388 94.1517 378.09 84.2413 365.869 84.2413H249.603Z" fill="#424A60"/>
<path d="M241.703 24.069H185.291C180.935 24.069 177.396 27.6071 177.396 31.9696V112.45C177.396 116.807 180.935 120.345 185.297 120.345H241.709C246.065 120.345 249.603 116.807 249.603 112.444V31.9696C249.603 27.6071 246.065 24.069 241.703 24.069ZM213.5 78.2241C203.529 78.2241 195.448 70.143 195.448 60.1724C195.448 50.2018 203.529 42.1207 213.5 42.1207C223.471 42.1207 231.552 50.2018 231.552 60.1724C231.552 70.143 223.471 78.2241 213.5 78.2241Z" fill="#CAD1D8"/>
<path d="M172.499 253.663L149.832 242.086C148.285 241.291 147.31 239.703 147.31 237.964V231.026C158.942 226.014 165.627 216.278 168.882 204.099C173.786 202.576 177.397 198.039 177.397 192.654V186.637C177.397 182.028 174.743 178.05 170.91 176.028C168.256 153.397 153.298 144.239 129.259 144.239C128.121 144.239 127.002 144.281 125.907 144.372C117.736 145.021 109.468 143.487 102.669 138.902C99.8404 137 97.4636 134.973 95.7908 132.849C95.0266 131.88 93.5042 132.5 93.6426 133.721C93.8833 135.827 94.2444 138.282 94.7739 140.966C96.7596 150.954 95.5742 149.498 91.7111 158.921C89.575 164.132 88.197 169.915 87.5592 176.04C83.7563 178.08 81.1208 182.046 81.1208 186.637V192.654C81.1208 198.039 84.7311 202.576 89.6352 204.099C92.8905 216.272 99.5696 226.014 111.207 231.026V237.916C111.207 239.679 110.208 241.285 108.626 242.068L85.393 253.506C79.0508 256.966 75.1035 263.615 75.1035 270.836V276.348C75.1035 276.348 75.1035 277.966 75.1035 278.809C75.1035 285.608 99.347 288.93 129.259 288.93C159.17 288.93 183.414 285.608 183.414 278.809C183.414 277.966 183.414 276.348 183.414 276.348V271.317C183.414 263.844 179.19 257.008 172.499 253.663Z" fill="#FEE4CD"/>
<path d="M347.624 260.486C346.535 261.624 345.879 263.194 345.879 264.759C345.879 266.323 346.481 267.888 347.624 269.031C348.762 270.114 350.332 270.776 351.897 270.776C353.461 270.776 355.026 270.114 356.169 269.031C357.252 267.888 357.914 266.323 357.914 264.759C357.914 263.194 357.252 261.624 356.169 260.486C353.942 258.32 349.911 258.26 347.624 260.486Z" fill="#CAD1D8"/>
<path d="M219.517 168.591H279.69C283.017 168.591 285.707 165.901 285.707 162.574C285.707 159.246 283.017 156.557 279.69 156.557H219.517C216.19 156.557 213.5 159.246 213.5 162.574C213.5 165.901 216.19 168.591 219.517 168.591Z" fill="#CAD1D8"/>
<path d="M225.534 258.85H219.517C216.19 258.85 213.5 261.539 213.5 264.867C213.5 268.195 216.19 270.884 219.517 270.884H225.534C228.862 270.884 231.552 268.195 231.552 264.867C231.552 261.539 228.862 258.85 225.534 258.85Z" fill="#CAD1D8"/>
<path d="M261.638 258.85H249.603C246.276 258.85 243.586 261.539 243.586 264.867C243.586 268.195 246.276 270.884 249.603 270.884H261.638C264.965 270.884 267.655 268.195 267.655 264.867C267.655 261.539 264.965 258.85 261.638 258.85Z" fill="#CAD1D8"/>
<path d="M291.724 258.85H285.707C282.379 258.85 279.69 261.539 279.69 264.867C279.69 268.195 282.379 270.884 285.707 270.884H291.724C295.052 270.884 297.741 268.195 297.741 264.867C297.741 261.539 295.052 258.85 291.724 258.85Z" fill="#CAD1D8"/>
<path d="M327.828 258.85H315.793C312.466 258.85 309.776 261.539 309.776 264.867C309.776 268.195 312.466 270.884 315.793 270.884H327.828C331.155 270.884 333.845 268.195 333.845 264.867C333.845 261.539 331.155 258.85 327.828 258.85Z" fill="#CAD1D8"/>
<path d="M219.517 204.695H351.897C355.224 204.695 357.914 202.005 357.914 198.677C357.914 195.35 355.224 192.66 351.897 192.66H219.517C216.19 192.66 213.5 195.35 213.5 198.677C213.5 202.005 216.19 204.695 219.517 204.695Z" fill="#CAD1D8"/>
<path d="M351.897 228.764H219.517C216.19 228.764 213.5 231.453 213.5 234.781C213.5 238.108 216.19 240.798 219.517 240.798H351.897C355.224 240.798 357.914 238.108 357.914 234.781C357.914 231.453 355.224 228.764 351.897 228.764Z" fill="#CAD1D8"/>
</svg>
