<svg width="428" height="332" viewBox="0 0 428 332" fill="none" xmlns="http://www.w3.org/2000/svg">
<path d="M0 18C0 8.05887 8.05888 0 18 0H410C419.941 0 428 8.05888 428 18V314C428 323.941 419.941 332 410 332H18C8.05888 332 0 323.941 0 314V18Z" fill="#F6F6F6"/>
<path d="M104.017 299C116.727 299 127.035 288.732 127.035 276.069V179.759H81V276.069C81 288.732 91.3071 299 104.017 299Z" fill="#CAD1D8"/>
<path d="M127.035 276.069V253.138V143.069V42.1723C127.035 37.1048 131.155 33 136.241 33H338.793C343.88 33 348 37.1048 348 42.1723V276.069C348 288.731 337.693 299 324.983 299H104.017C116.727 299 127.035 288.731 127.035 276.069Z" fill="#424A60"/>
<path d="M150.052 143.069H223.707V55.9312H150.052V143.069Z" fill="#51B3DA"/>
<path d="M251.328 143.069H324.983V55.9312H251.328V143.069Z" fill="#FFDA79"/>
<path d="M223.707 170.586H150.052C147.511 170.586 145.448 168.532 145.448 166C145.448 163.468 147.511 161.414 150.052 161.414H223.707C226.248 161.414 228.311 163.468 228.311 166C228.311 168.532 226.248 170.586 223.707 170.586Z" fill="#CAD1D8"/>
<path d="M223.707 193.518H150.052C147.511 193.518 145.448 191.463 145.448 188.931C145.448 186.399 147.511 184.345 150.052 184.345H223.707C226.248 184.345 228.31 186.399 228.31 188.931C228.31 191.463 226.248 193.518 223.707 193.518Z" fill="#CAD1D8"/>
<path d="M223.707 216.448H150.052C147.511 216.448 145.448 214.393 145.448 211.862C145.448 209.33 147.511 207.275 150.052 207.275H223.707C226.248 207.275 228.31 209.33 228.31 211.862C228.31 214.394 226.248 216.448 223.707 216.448Z" fill="#CAD1D8"/>
<path d="M223.707 239.379H150.052C147.511 239.379 145.448 237.324 145.448 234.793C145.448 232.261 147.511 230.206 150.052 230.206H223.707C226.248 230.206 228.31 232.261 228.31 234.793C228.31 237.324 226.248 239.379 223.707 239.379Z" fill="#CAD1D8"/>
<path d="M223.707 262.31H150.052C147.511 262.31 145.448 260.255 145.448 257.724C145.448 255.192 147.511 253.137 150.052 253.137H223.707C226.248 253.137 228.31 255.192 228.31 257.724C228.31 260.255 226.248 262.31 223.707 262.31Z" fill="#CAD1D8"/>
<path d="M324.983 170.586H251.328C248.787 170.586 246.724 168.532 246.724 166C246.724 163.468 248.787 161.414 251.328 161.414H324.983C327.524 161.414 329.586 163.468 329.586 166C329.586 168.532 327.524 170.586 324.983 170.586Z" fill="#CAD1D8"/>
<path d="M324.983 193.518H251.328C248.787 193.518 246.724 191.463 246.724 188.931C246.724 186.399 248.787 184.345 251.328 184.345H324.983C327.524 184.345 329.586 186.399 329.586 188.931C329.586 191.463 327.524 193.518 324.983 193.518Z" fill="#CAD1D8"/>
<path d="M324.983 216.448H251.328C248.787 216.448 246.724 214.393 246.724 211.862C246.724 209.33 248.787 207.275 251.328 207.275H324.983C327.524 207.275 329.586 209.33 329.586 211.862C329.586 214.394 327.524 216.448 324.983 216.448Z" fill="#CAD1D8"/>
<path d="M324.983 239.379H251.328C248.787 239.379 246.724 237.324 246.724 234.793C246.724 232.261 248.787 230.206 251.328 230.206H324.983C327.524 230.206 329.586 232.261 329.586 234.793C329.586 237.324 327.524 239.379 324.983 239.379Z" fill="#CAD1D8"/>
<path d="M324.983 262.31H251.328C248.787 262.31 246.724 260.255 246.724 257.724C246.724 255.192 248.787 253.137 251.328 253.137H324.983C327.524 253.137 329.586 255.192 329.586 257.724C329.586 260.255 327.524 262.31 324.983 262.31Z" fill="#CAD1D8"/>
<path d="M177.672 285.241H150.051C147.51 285.241 145.448 283.186 145.448 280.655C145.448 278.123 147.51 276.068 150.051 276.068H177.672C180.213 276.068 182.276 278.123 182.276 280.655C182.276 283.186 180.213 285.241 177.672 285.241Z" fill="#CAD1D8"/>
<path d="M297.362 285.241H251.328C248.787 285.241 246.724 283.186 246.724 280.655C246.724 278.123 248.787 276.068 251.328 276.068H297.362C299.904 276.068 301.966 278.123 301.966 280.655C301.965 283.186 299.903 285.241 297.362 285.241Z" fill="#CAD1D8"/>
</svg>
