<svg width="428" height="332" viewBox="0 0 428 332" fill="none" xmlns="http://www.w3.org/2000/svg">
<path d="M0 18C0 8.05887 8.05888 0 18 0H410C419.941 0 428 8.05888 428 18V314C428 323.941 419.941 332 410 332H18C8.05888 332 0 323.941 0 314V18Z" fill="#F6F6F6"/>
<path d="M113.324 33H313.676C315.148 33 316.489 33.6278 317.463 34.6235C318.416 35.6193 319 36.9831 319 38.4767V293.502C319 294.995 318.416 296.381 317.463 297.355C316.489 298.351 315.169 298.978 313.676 298.978H113.324C111.852 298.978 110.511 298.351 109.537 297.355C108.584 296.381 108 295.017 108 293.502V38.4984C108 37.0047 108.584 35.6193 109.537 34.6452C110.511 33.6278 111.852 33 113.324 33ZM157.087 201.112H243.054C243.855 201.112 244.569 201.436 245.088 201.956L245.175 202.064C245.629 202.584 245.932 203.255 245.932 203.991V209.597C245.932 210.377 245.608 211.113 245.088 211.632C244.569 212.152 243.855 212.476 243.054 212.476H157.087C156.286 212.476 155.572 212.152 155.052 211.632L154.966 211.524C154.511 211.004 154.208 210.333 154.208 209.597V203.991C154.208 203.19 154.533 202.475 155.052 201.956C155.593 201.436 156.308 201.112 157.087 201.112ZM138.539 201.112H145.681C146.46 201.112 147.174 201.436 147.715 201.956C148.235 202.475 148.559 203.211 148.559 203.991V209.597C148.559 210.377 148.235 211.113 147.715 211.632C147.196 212.152 146.482 212.476 145.681 212.476H138.539C137.759 212.476 137.024 212.152 136.504 211.632C135.985 211.113 135.66 210.398 135.66 209.597V203.991C135.66 203.19 135.985 202.475 136.504 201.956C137.024 201.436 137.738 201.112 138.539 201.112ZM139.751 248.909H289.976C291.145 248.909 292.184 249.45 292.942 250.316C293.634 251.117 294.089 252.221 294.089 253.433V254.558C294.089 255.771 293.656 256.875 292.942 257.676L292.855 257.762C292.119 258.563 291.102 259.061 289.976 259.061H139.751C138.582 259.061 137.543 258.52 136.786 257.654C136.071 256.853 135.638 255.749 135.638 254.537V253.411C135.638 252.199 136.071 251.095 136.786 250.294L136.872 250.207C137.63 249.406 138.625 248.909 139.751 248.909ZM139.751 224.837H289.976C291.145 224.837 292.184 225.378 292.942 226.244C293.634 227.045 294.089 228.149 294.089 229.361V230.487C294.089 231.699 293.656 232.803 292.942 233.604L292.855 233.691C292.119 234.492 291.102 234.989 289.976 234.989H139.751C138.582 234.989 137.543 234.448 136.786 233.582C136.071 232.781 135.638 231.677 135.638 230.465V229.34C135.638 228.127 136.071 227.023 136.786 226.222L136.872 226.136C137.63 225.335 138.625 224.837 139.751 224.837ZM259.135 154.224L234.375 130.455L229.137 162.58C229.051 163.208 228.856 163.835 228.553 164.398C228.25 164.961 227.839 165.48 227.319 165.913C226.215 166.866 224.787 167.277 223.445 167.169C222.082 167.061 220.761 166.433 219.809 165.307L181.933 120.498L142.196 156.41V168.316H284.825V126.927L261.299 154.029C261.061 154.397 260.628 154.657 260.152 154.657C259.741 154.657 259.395 154.484 259.135 154.224ZM260.044 140.24L284.825 110.518V70.666H142.196V141.95C154.23 131.062 166.653 119.069 178.968 108.7C180.05 107.769 181.392 107.358 182.691 107.445C184.033 107.509 185.353 108.094 186.327 109.155L186.37 109.198C186.435 109.263 186.5 109.328 186.543 109.393L220.393 149.462L225.415 118.571C225.674 117.164 226.475 115.973 227.557 115.194C228.639 114.415 230.025 114.025 231.453 114.242L231.605 114.263C232.102 114.35 232.6 114.523 233.055 114.74C233.552 114.978 234.007 115.302 234.397 115.67L260.044 140.24ZM234.57 72.3329C236.669 72.3329 238.704 72.7658 240.565 73.5234C242.491 74.3244 244.223 75.4933 245.673 76.922C247.123 78.3724 248.292 80.1042 249.092 82.0308C249.871 83.8924 250.283 85.9273 250.283 88.027C250.283 90.1268 249.85 92.1616 249.092 94.0233C248.292 95.9499 247.123 97.7033 245.694 99.132C244.244 100.582 242.513 101.751 240.587 102.531C238.725 103.31 236.712 103.721 234.591 103.721C232.492 103.721 230.457 103.288 228.596 102.531C226.67 101.73 224.938 100.561 223.488 99.132C222.038 97.6816 220.87 95.9499 220.069 94.0233C219.29 92.1616 218.878 90.1484 218.878 88.027C218.878 85.9273 219.311 83.8924 220.069 82.0308C220.87 80.1042 222.038 78.3508 223.467 76.922C224.917 75.4717 226.648 74.3027 228.575 73.5234C230.414 72.7441 232.449 72.3329 234.57 72.3329ZM239.288 83.3512C238.66 82.7235 237.924 82.2256 237.124 81.8792C236.344 81.5545 235.479 81.3814 234.57 81.3814C233.661 81.3814 232.817 81.5545 232.016 81.8792C231.193 82.2256 230.457 82.7235 229.83 83.3296C229.202 83.9574 228.704 84.6934 228.38 85.4943C228.055 86.2736 227.882 87.1395 227.882 88.0487C227.882 88.9362 228.055 89.8021 228.38 90.603C228.726 91.4256 229.224 92.1616 229.83 92.7677C230.457 93.3955 231.193 93.8934 231.994 94.2398C232.773 94.5645 233.639 94.7376 234.548 94.7376C235.435 94.7376 236.301 94.5645 237.102 94.2398C237.924 93.8934 238.66 93.3955 239.266 92.7894C239.894 92.1616 240.392 91.4256 240.738 90.6247C241.063 89.8454 241.236 88.9795 241.236 88.0703C241.236 87.1828 241.063 86.3169 240.738 85.516C240.413 84.6934 239.894 83.9574 239.288 83.3512ZM137.024 60.0156H289.976C291.405 60.0156 292.703 60.6217 293.634 61.5959C294.565 62.5483 295.128 63.8905 295.128 65.3408V173.641C295.128 175.092 294.565 176.412 293.634 177.386C292.703 178.361 291.405 178.967 289.976 178.967H137.024C135.595 178.967 134.297 178.361 133.366 177.386C132.435 176.434 131.873 175.092 131.873 173.641V65.3408C131.873 63.8905 132.435 62.57 133.366 61.5959C134.297 60.6217 135.595 60.0156 137.024 60.0156ZM308.352 43.9751H118.648V288.025H308.352V43.9751Z" fill="#424A60"/>
</svg>
