<svg width="428" height="332" viewBox="0 0 428 332" fill="none" xmlns="http://www.w3.org/2000/svg">
<path d="M0 18C0 8.05887 8.05888 0 18 0H410C419.941 0 428 8.05888 428 18V314C428 323.941 419.941 332 410 332H18C8.05888 332 0 323.941 0 314V18Z" fill="#F6F6F6"/>
<g clip-path="url(#clip0_456_7)">
<path fill-rule="evenodd" clip-rule="evenodd" d="M69.4568 48H354.926C356.729 48.0089 358.457 48.7773 359.732 50.1379C361.008 51.4985 361.728 53.3414 361.736 55.2656V199L351.043 191.293V78.2506H74.1668V256.291H351.043V237.346L361.736 242.473V260.094C361.725 261.587 361.292 263.042 360.495 264.27H397.921C400.644 264.429 403.206 265.694 405.081 267.807C406.955 269.919 408 272.717 408 275.626C408 278.535 406.955 281.334 405.081 283.446C403.206 285.558 400.644 286.824 397.921 286.983H28.2436C26.7967 287.067 25.3488 286.836 23.9884 286.304C22.628 285.771 21.3837 284.948 20.3314 283.885C19.2791 282.823 18.441 281.542 17.8682 280.122C17.2954 278.702 17 277.172 17 275.626C17 274.08 17.2954 272.551 17.8682 271.131C18.441 269.711 19.2791 268.43 20.3314 267.367C21.3837 266.304 22.628 265.482 23.9884 264.949C25.3488 264.416 26.7967 264.185 28.2436 264.27H63.8874C63.077 263.049 62.6432 261.589 62.6462 260.094V55.2656C62.6462 54.3114 62.8224 53.3667 63.1647 52.4852C63.5069 51.6037 64.0086 50.8027 64.641 50.128C65.2734 49.4534 66.0242 48.9182 66.8505 48.5531C67.6768 48.1879 68.5624 48 69.4568 48ZM109.047 59.7132C109.859 59.7132 110.653 59.9701 111.328 60.4513C112.003 60.9326 112.529 61.6166 112.84 62.4169C113.15 63.2171 113.232 64.0978 113.073 64.9473C112.915 65.7969 112.524 66.5773 111.95 67.1898C111.376 67.8023 110.644 68.2195 109.848 68.3885C109.051 68.5575 108.226 68.4707 107.476 68.1392C106.726 67.8077 106.084 67.2464 105.633 66.5261C105.182 65.8059 104.941 64.9591 104.941 64.0929C104.941 62.9313 105.374 61.8173 106.144 60.996C106.914 60.1746 107.958 59.7132 109.047 59.7132ZM94.6939 59.7132C95.5058 59.7132 96.2996 59.9701 96.9747 60.4513C97.6498 60.9326 98.176 61.6166 98.4868 62.4169C98.7975 63.2171 98.8788 64.0978 98.7204 64.9473C98.562 65.7969 98.171 66.5773 97.5968 67.1898C97.0227 67.8023 96.2912 68.2195 95.4948 68.3885C94.6984 68.5575 93.873 68.4707 93.1228 68.1392C92.3726 67.8077 91.7315 67.2464 91.2803 66.5261C90.8292 65.8059 90.5885 64.9591 90.5885 64.0929C90.5885 62.9313 91.021 61.8173 91.7909 60.996C92.5608 60.1746 93.605 59.7132 94.6939 59.7132ZM80.3409 59.7132C81.1528 59.7132 81.9466 59.9701 82.6217 60.4513C83.2968 60.9326 83.823 61.6166 84.1338 62.4169C84.4445 63.2171 84.5258 64.0978 84.3674 64.9473C84.209 65.7969 83.818 66.5773 83.2438 67.1898C82.6697 67.8023 81.9382 68.2195 81.1418 68.3885C80.3454 68.5575 79.52 68.4707 78.7698 68.1392C78.0196 67.8077 77.3784 67.2464 76.9273 66.5261C76.4762 65.8059 76.2355 64.9591 76.2355 64.0929C76.2355 62.9313 76.668 61.8173 77.4379 60.996C78.2078 60.1746 79.252 59.7132 80.3409 59.7132ZM201.912 270.211H224.189C224.691 270.211 225.187 270.316 225.651 270.521C226.114 270.726 226.535 271.026 226.89 271.404C227.244 271.783 227.525 272.232 227.717 272.726C227.909 273.22 228.008 273.75 228.008 274.285C228.008 274.82 227.909 275.35 227.717 275.844C227.525 276.339 227.244 276.788 226.89 277.166C226.535 277.544 226.114 277.845 225.651 278.049C225.187 278.254 224.691 278.359 224.189 278.359H201.912C201.41 278.359 200.914 278.254 200.45 278.049C199.987 277.845 199.566 277.544 199.211 277.166C198.857 276.788 198.575 276.339 198.383 275.844C198.192 275.35 198.093 274.82 198.093 274.285C198.093 273.75 198.192 273.22 198.383 272.726C198.575 272.232 198.857 271.783 199.211 271.404C199.566 271.026 199.987 270.726 200.45 270.521C200.914 270.316 201.41 270.211 201.912 270.211Z" fill="#424A60"/>
<path fill-rule="evenodd" clip-rule="evenodd" d="M136.528 208.641C133.601 208.641 133.601 196.446 136.528 196.446H254.006C258.884 200.196 264.559 202.435 270.457 202.936C274.883 203.438 279.354 202.991 283.631 201.617L289.644 208.748L136.528 208.641ZM98.6946 208.641C95.799 208.641 95.799 196.446 98.6946 196.446H126.187C129.082 196.446 129.082 208.641 126.187 208.641H98.6946ZM97.7719 183.146C94.8444 183.146 94.8444 170.95 97.7719 170.95H125.232C128.128 170.95 128.128 183.146 125.232 183.146H97.7719ZM136.528 183.146C133.601 183.146 133.601 170.95 136.528 170.95H238.51L238.828 171.735C240.451 175.657 242.01 179.508 243.888 183.146H136.528Z" fill="#CAD1D8"/>
<path fill-rule="evenodd" clip-rule="evenodd" d="M266.703 94.356H320.796C321.961 94.3228 323.121 94.5491 324.208 95.0217C325.295 95.4943 326.287 96.2039 327.128 97.1093C327.968 98.0147 328.64 99.0979 329.104 100.296C329.569 101.495 329.816 102.784 329.833 104.091V142.78C329.824 145.387 328.896 147.885 327.251 149.729C325.606 151.573 323.377 152.613 321.051 152.622H302.818C301.335 149.389 299.462 146.401 297.249 143.743C290.561 135.996 281.965 130.658 272.557 128.41C267.728 127.228 262.8 126.63 257.857 126.627V104.091C257.89 101.49 258.838 99.0085 260.494 97.1858C262.15 95.3632 264.381 94.3463 266.703 94.356Z" fill="#83B3D7"/>
<path fill-rule="evenodd" clip-rule="evenodd" d="M185.626 94.356H239.719C242.04 94.3747 244.261 95.4188 245.899 97.2614C247.538 99.1041 248.461 101.597 248.47 104.198V127.197C244.047 127.697 239.974 128.41 236.569 129.123C232.852 129.936 229.571 132.356 227.433 135.859C225.295 139.362 224.474 143.667 225.146 147.844C225.414 149.543 225.93 151.182 226.673 152.693H185.626C183.302 152.684 181.077 151.643 179.436 149.798C177.796 147.953 176.875 145.456 176.875 142.851V104.091C176.901 101.505 177.833 99.0347 179.47 97.2131C181.107 95.3915 183.319 94.3652 185.626 94.356Z" fill="#3A91BE"/>
<path fill-rule="evenodd" clip-rule="evenodd" d="M104.55 94.3561H158.643C160.975 94.3275 163.222 95.336 164.892 97.1607C166.562 98.9853 167.519 101.477 167.552 104.091V142.78C167.536 145.385 166.605 147.877 164.962 149.719C163.318 151.56 161.094 152.603 158.77 152.622H104.677C102.353 152.613 100.128 151.572 98.4874 149.727C96.8473 147.882 95.9264 145.384 95.9264 142.78V104.091C95.9509 101.53 96.8652 99.0803 98.4754 97.2627C100.085 95.445 102.264 94.4023 104.55 94.3561Z" fill="#E99688"/>
<path fill-rule="evenodd" clip-rule="evenodd" d="M239.306 144.884C254.07 155.903 252.034 184.536 271.953 186.89C274.779 187.193 277.631 186.839 280.33 185.852C283.029 184.864 285.518 183.263 287.64 181.149C290.088 178.652 291.609 175.216 291.904 171.521C293.176 156.723 281.085 147.059 269.63 144.135C259.627 142.179 249.38 142.434 239.465 144.884H239.306ZM299.763 174.16C299.012 179.802 296.358 184.907 292.349 188.423L307.559 206.252C314.567 198.209 319.646 188.31 322.323 177.476C314.713 177.306 307.145 176.17 299.763 174.088V174.16ZM326.142 181.042C323.293 191.523 318.427 201.175 311.886 209.319L382.431 244.799C383.902 245.655 385.462 246.302 387.076 246.725C388.326 247.002 389.619 246.919 390.833 246.482C392.046 246.045 393.14 245.27 394.012 244.228C394.885 243.187 395.506 241.914 395.818 240.529C396.129 239.144 396.122 237.693 395.795 236.312C395.092 234.137 393.729 232.307 391.945 231.142L326.142 181.22V181.042Z" fill="#424A60"/>
</g>
<defs>
<clipPath id="clip0_456_7">
<rect width="391" height="251" fill="white" transform="translate(18 36)"/>
</clipPath>
</defs>
</svg>
