<svg width="428" height="332" viewBox="0 0 428 332" fill="none" xmlns="http://www.w3.org/2000/svg">
<rect width="428" height="332" rx="18" fill="#F6F6F6"/>
<path d="M149.955 213.204H118.265V236.312H149.955V213.204Z" fill="#FF7700"/>
<path d="M203.553 187.207H171.856V236.312H203.553V187.207Z" fill="#FF7700"/>
<path d="M257.144 159.292H225.454V236.312H257.144V159.292Z" fill="#FF7700"/>
<path d="M310.741 48.7649H279.045V236.312H310.741V48.7649Z" fill="#FF7700"/>
<path d="M101.197 129.739H278.063H279.045V236.312H310.742V129.739H311.807H327.809V258.13H101.197V129.739ZM257.144 236.312V159.292H225.454V236.312H257.144ZM203.553 236.312V187.207H171.856V236.312H203.553ZM149.955 236.312V213.204H118.265V236.312H149.955Z" fill="#F2F2F2"/>
<path d="M342.573 126.709V272.893H86.4337V126.709C86.4337 120.226 91.6844 114.976 98.1674 114.976H279.045V129.739H101.197V258.13H327.809V129.739H310.742V114.976H330.839C334.081 114.976 337.008 116.285 339.132 118.41C340.326 119.604 341.27 121.054 341.86 122.672C341.931 122.852 341.989 123.038 342.046 123.217C342.162 123.583 342.258 123.962 342.335 124.341C342.489 125.105 342.573 125.901 342.573 126.709Z" fill="#3F3D56"/>
<path d="M342.573 272.893H360C360 286.193 349.223 296.97 335.929 296.97H93.0708C86.4208 296.97 80.4064 294.274 76.0479 289.916C71.6959 285.564 69 279.543 69 272.893H86.4337H342.573Z" fill="#3F3D56"/>
<path opacity="0.23" d="M342.573 126.709V272.893H222.013L229.697 258.13L279.045 163.303L296.511 129.739L310.741 102.863V114.976H330.839C334.081 114.976 337.008 116.285 339.132 118.41C340.326 119.604 341.27 121.054 341.86 122.672C341.931 122.852 341.989 123.038 342.046 123.217C342.162 123.583 342.258 123.962 342.335 124.341C342.489 125.105 342.573 125.901 342.573 126.709Z" fill="#F2F2F2"/>
<path opacity="0.23" d="M144.281 114.976V127.512L143.125 129.739L138.523 138.578L130.929 153.174L114.266 185.192L106.313 200.482L101.197 210.309L90.9462 230.008L86.4337 238.68V126.709C86.4337 120.226 91.6908 114.976 98.1674 114.976H144.281Z" fill="#F2F2F2"/>
<path opacity="0.23" d="M295.908 48.7649L281.587 76.2826L279.045 81.1674V48.7649H295.908Z" fill="#F2F2F2"/>
<path opacity="0.23" d="M360 272.893C360 280.127 356.803 286.623 351.752 291.033H273.711L283.147 272.893H360Z" fill="#F2F2F2"/>
</svg>
