<svg width="811" height="811" viewBox="0 0 811 811" fill="none" xmlns="http://www.w3.org/2000/svg">
<path d="M685.149 291.96C688.831 253.908 697.639 217.883 682.067 181.291C653.488 114.14 567.278 78.4886 500.29 110.296C466.033 126.516 436.74 150.246 399.012 158.956C297.183 182.459 140.011 57.2404 84.5873 203.026C65.5613 253.048 73.2333 318.966 107.636 360.781C118.682 374.195 132.177 385.874 140.352 401.218C162.719 443.211 131.058 489.357 116.784 528.529C82.8842 621.096 210.698 672.319 280.071 681.759C394.746 697.46 489.341 566.078 603.384 619.604C682.862 656.91 752.608 566.078 738.01 475.246C728.457 415.783 680.088 358.867 684.614 298.27C684.776 296.177 684.954 294.085 685.149 291.96Z" fill="#FF7700"/>
<path opacity="0.7" d="M685.149 291.96C688.831 253.908 697.638 217.883 682.067 181.291C653.488 114.14 567.278 78.4886 500.29 110.296C466.033 126.516 436.74 150.246 399.012 158.956C297.183 182.459 140.011 57.2404 84.5873 203.026C65.5613 253.048 73.2333 318.966 107.636 360.781C118.682 374.195 132.177 385.874 140.352 401.218C162.719 443.212 131.058 489.357 116.784 528.529C82.8842 621.096 210.698 672.319 280.071 681.759C394.746 697.46 489.341 566.078 603.384 619.604C682.862 656.91 752.608 566.078 738.01 475.246C728.456 415.783 680.088 358.868 684.614 298.27C684.776 296.177 684.954 294.085 685.149 291.96Z" fill="white"/>
<path d="M139.119 316.712C170.051 316.712 195.127 291.636 195.127 260.704C195.127 229.772 170.051 204.696 139.119 204.696C108.187 204.696 83.1112 229.772 83.1112 260.704C83.1112 291.636 108.187 316.712 139.119 316.712Z" fill="white" stroke="#2E353A" stroke-linecap="round" stroke-linejoin="round"/>
<path d="M134.95 311.148C165.882 311.148 190.958 286.073 190.958 255.141C190.958 224.208 165.882 199.133 134.95 199.133C104.018 199.133 78.9426 224.208 78.9426 255.141C78.9426 286.073 104.018 311.148 134.95 311.148Z" fill="white" stroke="#2E353A" stroke-linecap="round" stroke-linejoin="round"/>
<path d="M134.95 305.585C162.81 305.585 185.395 283 185.395 255.141C185.395 227.281 162.81 204.696 134.95 204.696C107.091 204.696 84.5061 227.281 84.5061 255.141C84.5061 283 107.091 305.585 134.95 305.585Z" fill="#2E353A" stroke="#2E353A" stroke-linecap="round" stroke-linejoin="round"/>
<path d="M129.03 217.218C129.03 217.218 123.467 203.302 113.735 193.57C104.003 183.838 64.3285 177.56 64.3285 177.56C70.7349 183.74 76.5607 190.494 81.7325 197.738C90.7671 210.26 120.661 238.791 120.661 238.791C120.661 238.791 106.063 226.269 92.827 224.874C79.5915 223.479 46.2107 230.438 44.167 230.438C42.1233 230.438 56.6888 236.001 67.1345 240.867C77.5802 245.733 117.919 249.918 117.919 249.918C117.919 249.918 100.532 254.784 88.7233 258.969C76.9152 263.153 65.7234 293.744 65.7234 293.744C65.7234 293.744 81.0351 279.828 94.2544 276.356C107.474 272.885 126.256 266.624 126.256 266.624C126.256 266.624 114.432 279.844 111.658 288.894C108.885 297.945 110.961 318.804 110.961 318.804C110.961 318.804 117.222 299.34 124.878 291.668C132.534 283.996 140.854 270.874 140.854 270.874C144.708 277.156 148.196 283.654 151.3 290.338C156.864 302.162 160.335 319.534 160.335 319.534C160.335 319.534 169.385 300.07 168.688 290.338C167.99 280.606 157.561 263.202 157.561 263.202C157.561 263.202 164.519 258.336 174.949 262.505C185.378 266.673 203.48 284.077 203.48 284.077C203.48 284.077 199.295 261.11 192.337 252.075C185.378 243.041 155.469 240.234 155.469 240.234C155.469 240.234 172.175 230.502 182.605 228.41C193.034 226.318 206.935 231.2 206.935 231.2C206.935 231.2 190.942 208.93 178.42 207.535C165.898 206.14 147.115 225.572 147.115 225.572L152.695 197.738C154.074 190.78 151.3 173.408 151.3 173.408C151.3 173.408 143.644 177.577 134.594 190.796C131.945 194.603 130.087 198.904 129.132 203.443C128.176 207.982 128.142 212.666 129.03 217.218Z" fill="#FF7700"/>
<path opacity="0.5" d="M129.03 217.218C129.03 217.218 123.467 203.302 113.735 193.57C104.003 183.838 64.3285 177.56 64.3285 177.56C70.7349 183.74 76.5607 190.494 81.7325 197.738C90.7671 210.26 120.661 238.791 120.661 238.791C120.661 238.791 106.063 226.269 92.827 224.874C79.5915 223.479 46.2107 230.438 44.167 230.438C42.1233 230.438 56.6888 236.001 67.1345 240.867C77.5802 245.733 117.919 249.918 117.919 249.918C117.919 249.918 100.532 254.784 88.7233 258.969C76.9152 263.153 65.7234 293.744 65.7234 293.744C65.7234 293.744 81.0351 279.828 94.2544 276.356C107.474 272.885 126.256 266.624 126.256 266.624C126.256 266.624 114.432 279.844 111.658 288.894C108.885 297.945 110.961 318.804 110.961 318.804C110.961 318.804 117.222 299.34 124.878 291.668C132.534 283.996 140.854 270.874 140.854 270.874C144.708 277.156 148.196 283.654 151.3 290.338C156.864 302.162 160.335 319.534 160.335 319.534C160.335 319.534 169.385 300.07 168.688 290.338C167.99 280.606 157.561 263.202 157.561 263.202C157.561 263.202 164.519 258.336 174.949 262.505C185.378 266.673 203.48 284.077 203.48 284.077C203.48 284.077 199.295 261.11 192.337 252.075C185.378 243.041 155.469 240.234 155.469 240.234C155.469 240.234 172.175 230.502 182.605 228.41C193.034 226.318 206.935 231.2 206.935 231.2C206.935 231.2 190.942 208.93 178.42 207.535C165.898 206.14 147.115 225.572 147.115 225.572L152.695 197.738C154.074 190.78 151.3 173.408 151.3 173.408C151.3 173.408 143.644 177.577 134.594 190.796C131.945 194.603 130.087 198.904 129.132 203.443C128.176 207.982 128.142 212.666 129.03 217.218Z" fill="black"/>
<path d="M142.736 196.035C143.223 194.04 143.758 192.045 144.358 190.082" stroke="#2E353A" stroke-width="0.5" stroke-linecap="round" stroke-linejoin="round"/>
<path d="M96.2656 196.035C102.754 200.787 110.864 207.389 115.113 213.05C122.769 223.479 138.081 245.749 138.081 245.749C137.642 230.791 138.828 215.83 141.617 201.128" stroke="#2E353A" stroke-width="0.5" stroke-linecap="round" stroke-linejoin="round"/>
<path d="M86.5985 189.385C86.5985 189.385 88.626 190.682 91.6591 192.775" stroke="#2E353A" stroke-width="0.5" stroke-linecap="round" stroke-linejoin="round"/>
<path d="M138.081 245.749C138.081 245.749 164.519 219.311 175.646 217.218C186.773 215.126 196.521 223.479 196.521 223.479" stroke="#2E353A" stroke-width="0.5" stroke-linecap="round" stroke-linejoin="round"/>
<path d="M90.832 267.857C84.344 271.945 83.8087 274.345 83.8087 274.345" stroke="#2E353A" stroke-width="0.5" stroke-linecap="round" stroke-linejoin="round"/>
<path d="M195.824 270.095C195.824 270.095 191.655 259.65 177.041 254.784C162.427 249.918 139.492 249.22 139.492 249.22C139.492 249.22 107.295 259.763 95.5195 265.262" stroke="#2E353A" stroke-width="0.5" stroke-linecap="round" stroke-linejoin="round"/>
<path d="M125.413 245.246C133.199 247.517 139.476 249.22 139.476 249.22" stroke="#2E353A" stroke-width="0.5" stroke-linecap="round" stroke-linejoin="round"/>
<path d="M76.4124 232.887C83.9709 233.341 93.7029 234.379 99.1204 236.698C103.532 238.596 112.226 241.337 120.433 243.787" stroke="#2E353A" stroke-width="0.5" stroke-linecap="round" stroke-linejoin="round"/>
<path d="M65.7234 232.53C65.7234 232.53 68.2699 232.53 72.0168 232.676" stroke="#2E353A" stroke-width="0.5" stroke-linecap="round" stroke-linejoin="round"/>
<path d="M138.081 253.389C138.081 253.389 118.617 282.585 117.206 289.576C116.37 293.7 115.903 297.89 115.811 302.098" stroke="#2E353A" stroke-width="0.5" stroke-linecap="round" stroke-linejoin="round"/>
<path d="M146.742 262.586C150.489 267.452 154.982 273.94 156.864 279.13C159.054 285.463 160.682 291.976 161.73 298.594" stroke="#2E353A" stroke-width="0.5" stroke-linecap="round" stroke-linejoin="round"/>
<path d="M140.854 255.481C140.854 255.481 142.476 257.201 144.569 259.844" stroke="#2E353A" stroke-width="0.5" stroke-linecap="round" stroke-linejoin="round"/>
<path d="M120.19 223.22C120.19 223.22 116.606 208.622 118.828 195.078C121.05 181.534 149.646 153.263 149.646 153.263C148.056 162.018 147.269 170.9 147.294 179.799C147.294 195.24 139.589 235.855 139.589 235.855C139.589 235.855 144.147 217.17 154.074 208.281C164 199.393 195.191 185.573 196.878 184.389C198.565 183.205 189.952 196.213 184.324 206.27C178.696 216.326 148.316 243.3 148.316 243.3C148.316 243.3 165.282 237.104 177.317 233.568C189.352 230.032 216.245 248.426 216.245 248.426C216.245 248.426 195.694 246.057 182.929 250.94C170.164 255.822 151.251 261.694 151.251 261.694C151.251 261.694 168.574 265.538 176.101 271.263C183.627 276.989 194.137 295.204 194.137 295.204C194.137 295.204 177.69 283.023 167.001 281.271C156.312 279.519 141.828 273.664 141.828 273.664C142.377 281.011 143.341 288.322 144.715 295.561C147.099 308.423 154.447 324.578 154.447 324.578C154.447 324.578 135.745 314.035 130.62 305.715C125.494 297.394 123.84 277.184 123.84 277.184C123.84 277.184 115.34 277.281 109.242 286.753C103.143 296.226 98.65 320.913 98.65 320.913C98.65 320.913 88.6585 299.827 89.0316 288.473C89.4046 277.119 112.08 257.363 112.08 257.363C112.08 257.363 92.8432 259.196 83.1437 263.575C73.4441 267.954 64.9773 280.038 64.9773 280.038C64.9773 280.038 64.9773 252.627 74.3525 244.192C83.7276 235.758 110.345 240.624 110.345 240.624L89.583 221.273C84.3926 216.407 76.5097 200.674 76.5097 200.674C76.5097 200.674 85.1712 199.603 100.223 205.07C104.599 206.601 108.621 208.998 112.051 212.116C115.481 215.234 118.249 219.01 120.19 223.22V223.22Z" fill="#FF7700"/>
<path d="M96.7036 214.007C95.0816 212.66 93.5569 211.363 91.9349 210.098" stroke="#2E353A" stroke-width="0.5" stroke-linecap="round" stroke-linejoin="round"/>
<path d="M134.448 186.903C131.933 194.559 129.127 204.632 129.063 211.703C128.933 224.679 129.484 251.653 129.484 251.653C121.112 239.251 111.415 227.797 100.564 217.494" stroke="#2E353A" stroke-width="0.5" stroke-linecap="round" stroke-linejoin="round"/>
<path d="M138.438 175.857C138.438 175.857 137.529 178.096 136.297 181.55" stroke="#2E353A" stroke-width="0.5" stroke-linecap="round" stroke-linejoin="round"/>
<path d="M129.484 251.653C129.484 251.653 92.5837 245.603 82.3326 250.404C72.0816 255.205 69.0322 267.63 69.0322 267.63" stroke="#2E353A" stroke-width="0.5" stroke-linecap="round" stroke-linejoin="round"/>
<path d="M180.772 242.051C188.379 241.629 190.196 243.17 190.196 243.17" stroke="#2E353A" stroke-width="0.5" stroke-linecap="round" stroke-linejoin="round"/>
<path d="M96.7847 305.114C96.7847 305.114 94.0922 294.198 103.11 281.725C112.129 269.252 130.393 255.303 130.393 255.303C130.393 255.303 162.687 245.068 175.452 242.684" stroke="#2E353A" stroke-width="0.5" stroke-linecap="round" stroke-linejoin="round"/>
<path d="M139.492 243.868C134.496 250.242 130.409 255.303 130.409 255.303" stroke="#2E353A" stroke-width="0.5" stroke-linecap="round" stroke-linejoin="round"/>
<path d="M172.078 205.248C166.206 210.114 158.907 216.602 155.858 221.581C153.376 225.701 147.91 232.935 142.671 239.764" stroke="#2E353A" stroke-width="0.5" stroke-linecap="round" stroke-linejoin="round"/>
<path d="M180.545 198.711C180.545 198.711 178.485 200.203 175.517 202.507" stroke="#2E353A" stroke-width="0.5" stroke-linecap="round" stroke-linejoin="round"/>
<path d="M133.945 257.898C133.945 257.898 166.823 270.258 171.997 275.107C175.082 277.969 177.905 281.101 180.431 284.466" stroke="#2E353A" stroke-width="0.5" stroke-linecap="round" stroke-linejoin="round"/>
<path d="M132.274 270.387C132.047 276.519 132.161 284.385 133.701 289.738C135.614 296.169 138.094 302.416 141.114 308.407" stroke="#2E353A" stroke-width="0.5" stroke-linecap="round" stroke-linejoin="round"/>
<path d="M132.907 261.142C132.907 261.142 132.647 263.445 132.453 266.851" stroke="#2E353A" stroke-width="0.5" stroke-linecap="round" stroke-linejoin="round"/>
<path d="M228.426 297.523H596.085C600.675 297.523 605.077 299.347 608.323 302.592C611.568 305.838 613.392 310.24 613.392 314.83V553.264C613.392 555.75 612.902 558.211 611.951 560.508C611 562.804 609.605 564.891 607.848 566.649C606.09 568.407 604.003 569.801 601.707 570.752C599.41 571.703 596.949 572.193 594.463 572.193H230.048C227.562 572.193 225.101 571.703 222.805 570.752C220.508 569.801 218.421 568.407 216.664 566.649C214.906 564.891 213.512 562.804 212.56 560.508C211.609 558.211 211.12 555.75 211.12 553.264V314.83C211.12 310.24 212.943 305.838 216.189 302.592C219.434 299.347 223.836 297.523 228.426 297.523Z" fill="#F6F6F6" stroke="#2E353A" stroke-linecap="round" stroke-linejoin="round"/>
<path d="M362.987 324.562H340.344V339.436H362.987V324.562Z" fill="#2E353A"/>
<path d="M289.624 416.319H268.603V437.178H289.624V416.319Z" fill="#2E353A"/>
<path d="M382.5 343.004H361.317V363.863H382.5V343.004Z" fill="#2E353A"/>
<path d="M336.76 324.562H314.116V339.436H336.76V324.562Z" fill="#2E353A"/>
<path d="M407.252 343.004H386.068V363.863H407.252V343.004Z" fill="#2E353A"/>
<path d="M389.199 324.562H366.556V339.436H389.199V324.562Z" fill="#2E353A"/>
<path d="M276.924 391.875H237.088V412.734H276.924V391.875Z" fill="#2E353A"/>
<path d="M332.98 343.004H311.797V363.863H332.98V343.004Z" fill="#2E353A"/>
<path d="M265.035 416.319H237.088V437.178H265.035V416.319Z" fill="#2E353A"/>
<path d="M415.427 324.562H392.783V339.436H415.427V324.562Z" fill="#2E353A"/>
<path d="M283.461 343.004H262.277V363.863H283.461V343.004Z" fill="#2E353A"/>
<path d="M284.32 324.562H261.677V339.436H284.32V324.562Z" fill="#2E353A"/>
<path d="M310.548 324.562H287.905V339.436H310.548V324.562Z" fill="#2E353A"/>
<path d="M308.212 343.004H287.029V363.863H308.212V343.004Z" fill="#2E353A"/>
<path d="M357.732 343.004H336.549V363.863H357.732V343.004Z" fill="#2E353A"/>
<path d="M520.321 324.562H497.678V339.436H520.321V324.562Z" fill="#2E353A"/>
<path d="M546.533 324.562H523.89V339.436H546.533V324.562Z" fill="#2E353A"/>
<path d="M531.059 343.004H509.876V363.863H531.059V343.004Z" fill="#2E353A"/>
<path d="M555.827 343.004H534.644V363.863H555.827V343.004Z" fill="#2E353A"/>
<path d="M594.998 416.319H563.807V437.178H594.998V416.319Z" fill="#2E353A"/>
<path d="M572.761 324.562H550.117V339.436H572.761V324.562Z" fill="#2E353A"/>
<path d="M258.709 343.004H237.088V363.863H258.709V343.004Z" fill="#2E353A"/>
<path d="M441.654 324.562H419.011V339.436H441.654V324.562Z" fill="#2E353A"/>
<path d="M467.866 324.562H445.223V339.436H467.866V324.562Z" fill="#2E353A"/>
<path d="M456.788 343.004H435.604V363.863H456.788V343.004Z" fill="#2E353A"/>
<path d="M506.307 343.004H485.124V363.863H506.307V343.004Z" fill="#2E353A"/>
<path d="M432.02 343.004H410.836V363.863H432.02V343.004Z" fill="#2E353A"/>
<path d="M481.539 343.004H460.356V363.863H481.539V343.004Z" fill="#2E353A"/>
<path d="M494.094 324.562H471.45V339.436H494.094V324.562Z" fill="#2E353A"/>
<path d="M461.832 416.319H440.811V437.178H461.832V416.319Z" fill="#2E353A"/>
<path d="M572.128 391.875H551.107V412.734H572.128V391.875Z" fill="#2E353A"/>
<path d="M547.522 391.875H526.501V412.734H547.522V391.875Z" fill="#2E353A"/>
<path d="M560.223 416.319H539.201V437.178H560.223V416.319Z" fill="#2E353A"/>
<path d="M535.633 416.319H514.612V437.178H535.633V416.319Z" fill="#2E353A"/>
<path d="M486.422 416.319H465.4V437.178H486.422V416.319Z" fill="#2E353A"/>
<path d="M511.027 416.319H490.006V437.178H511.027V416.319Z" fill="#2E353A"/>
<path d="M522.917 391.875H501.896V412.734H522.917V391.875Z" fill="#2E353A"/>
<path d="M498.327 391.875H477.306V412.734H498.327V391.875Z" fill="#2E353A"/>
<path d="M595.014 324.562H576.345V339.436H595.014V324.562Z" fill="#2E353A"/>
<path d="M258.109 324.562H237.088V339.436H258.109V324.562Z" fill="#2E353A"/>
<path d="M595.014 440.746H237.088V462.432H595.014V440.746Z" fill="#2E353A"/>
<path d="M594.998 343.004H559.395V363.863H594.998V343.004Z" fill="#2E353A"/>
<path d="M594.998 391.875H575.696V412.734H594.998V391.875Z" fill="#2E353A"/>
<path d="M569.76 388.145H566.175V367.448H545.154V388.145H541.586V367.448H520.565V388.145H516.98V367.448H495.959V388.145H492.374V367.448H471.353V388.145H467.785V367.448H446.764V388.145H443.179V367.448H422.158V388.145H418.573V367.448H397.552V388.145H393.984V367.448H372.963V388.145H369.378V367.448H348.357V388.145H344.772V367.448H323.751V388.145H320.183V367.448H299.162V388.145H295.577V367.448H274.556V388.145H270.971V367.448H237.088V388.307H594.998V367.448H569.76V388.145Z" fill="#2E353A"/>
<path d="M399.92 391.875H378.899V412.734H399.92V391.875Z" fill="#2E353A"/>
<path d="M473.721 391.875H452.7V412.734H473.721V391.875Z" fill="#2E353A"/>
<path d="M350.725 391.875H329.704V412.734H350.725V391.875Z" fill="#2E353A"/>
<path d="M363.425 416.319H342.404V437.178H363.425V416.319Z" fill="#2E353A"/>
<path d="M375.315 391.875H354.293V412.734H375.315V391.875Z" fill="#2E353A"/>
<path d="M326.119 391.875H305.098V412.734H326.119V391.875Z" fill="#2E353A"/>
<path d="M314.23 416.319H293.209V437.178H314.23V416.319Z" fill="#2E353A"/>
<path d="M338.82 416.319H317.798V437.178H338.82V416.319Z" fill="#2E353A"/>
<path d="M424.526 391.875H403.505V412.734H424.526V391.875Z" fill="#2E353A"/>
<path d="M437.226 416.319H416.205V437.178H437.226V416.319Z" fill="#2E353A"/>
<path d="M449.116 391.875H428.094V412.734H449.116V391.875Z" fill="#2E353A"/>
<path d="M388.031 416.319H367.01V437.178H388.031V416.319Z" fill="#2E353A"/>
<path d="M412.62 416.319H391.599V437.178H412.62V416.319Z" fill="#2E353A"/>
<path d="M301.514 391.875H280.492V412.734H301.514V391.875Z" fill="#2E353A"/>
<path d="M636.359 148.299H185.995C183.786 148.301 181.608 148.811 179.627 149.789C177.647 150.767 175.918 152.187 174.575 153.94C173.231 155.693 172.309 157.731 171.878 159.898C171.448 162.064 171.522 164.3 172.094 166.433L205.021 289.024C205.841 292.084 207.648 294.788 210.161 296.718C212.674 298.647 215.753 299.694 218.921 299.697H264.889V308.18H559.59V299.746H603.384C606.552 299.743 609.631 298.696 612.144 296.767C614.657 294.837 616.464 292.133 617.285 289.073L650.211 166.482C650.791 164.35 650.872 162.112 650.449 159.943C650.026 157.775 649.109 155.732 647.77 153.974C646.431 152.216 644.705 150.79 642.726 149.806C640.748 148.822 638.569 148.307 636.359 148.299V148.299Z" fill="#2E353A" stroke="#2E353A" stroke-linecap="round" stroke-linejoin="round"/>
<path d="M585.428 288.878H236.926L202.069 163.449H620.269L585.428 288.878Z" fill="#F6F6F6" stroke="#2E353A" stroke-linecap="round" stroke-linejoin="round"/>
<path d="M260.055 233.828V235.45H253.908V233.828H260.055Z" fill="#2E353A"/>
<path d="M267.711 233.828V235.45H261.547V233.828H267.711Z" fill="#2E353A"/>
<path d="M275.367 233.828V235.45H269.252V233.828H275.367Z" fill="#2E353A"/>
<path d="M283.007 233.828V235.45H276.859V233.828H283.007Z" fill="#2E353A"/>
<path d="M290.662 233.828V235.45H284.499V233.828H290.662Z" fill="#2E353A"/>
<path d="M298.318 233.828V235.45H292.155V233.828H298.318Z" fill="#2E353A"/>
<path d="M305.958 233.828V235.45H299.81V233.828H305.958Z" fill="#2E353A"/>
<path d="M313.533 242.375L306.753 224.306H308.375L315.155 242.375H313.533Z" fill="#2E353A"/>
<path d="M253.859 207.519V209.141H247.712V207.519H253.859Z" fill="#2E353A"/>
<path d="M261.515 207.519V209.141H255.368V207.519H261.515Z" fill="#2E353A"/>
<path d="M269.252 207.519V209.141H263.088V207.519H269.252Z" fill="#2E353A"/>
<path d="M276.827 207.519V209.141H270.663V207.519H276.827Z" fill="#2E353A"/>
<path d="M284.466 207.519V209.141H278.319V207.519H284.466Z" fill="#2E353A"/>
<path d="M297.41 207.519V209.141H291.246V207.519H297.41Z" fill="#2E353A"/>
<path d="M305.049 207.519V209.141H298.902V207.519H305.049Z" fill="#2E353A"/>
<path d="M312.705 207.519V209.141H306.558V207.519H312.705Z" fill="#2E353A"/>
<path d="M320.361 207.519V209.141H314.198V207.519H320.361Z" fill="#2E353A"/>
<path d="M328.001 207.519V209.141H321.853V207.519H328.001Z" fill="#2E353A"/>
<path d="M335.657 207.519V209.141H329.509V207.519H335.657Z" fill="#2E353A"/>
<path d="M343.313 207.519V209.141H337.149V207.519H343.313Z" fill="#2E353A"/>
<path d="M356.24 207.519V209.141H350.092V207.519H356.24Z" fill="#2E353A"/>
<path d="M363.896 207.519V209.141H357.732V207.519H363.896Z" fill="#2E353A"/>
<path d="M371.552 207.519V209.141H365.388V207.519H371.552Z" fill="#2E353A"/>
<path d="M384.414 207.519V209.141H378.267V207.519H384.414Z" fill="#2E353A"/>
<path d="M392.135 207.519V209.141H386.036V207.519H392.135Z" fill="#2E353A"/>
<path d="M399.791 207.519V209.141H393.627V207.519H399.791Z" fill="#2E353A"/>
<path d="M428.565 207.519V209.141H422.417V207.519H428.565Z" fill="#2E353A"/>
<path d="M436.221 207.519V209.141H430.057V207.519H436.221Z" fill="#2E353A"/>
<path d="M443.877 207.519V209.141H437.713V207.519H443.877Z" fill="#2E353A"/>
<path d="M451.516 207.519V209.141H445.369V207.519H451.516Z" fill="#2E353A"/>
<path d="M459.172 207.519V209.141H453.008V207.519H459.172Z" fill="#2E353A"/>
<path d="M472.099 207.519V209.141H465.952V207.519H472.099Z" fill="#2E353A"/>
<path d="M479.755 207.519V209.141H473.624V207.519H479.755Z" fill="#2E353A"/>
<path d="M487.411 207.519V209.141H481.247V207.519H487.411Z" fill="#2E353A"/>
<path d="M500.338 207.519V209.141H494.191V207.519H500.338Z" fill="#2E353A"/>
<path d="M513.282 207.519V209.141H507.118V207.519H513.282Z" fill="#2E353A"/>
<path d="M615.857 474.094L598.502 541.051L614.916 545.868L615.857 474.094Z" fill="white" stroke="#2E353A" stroke-linecap="round" stroke-linejoin="round"/>
<path d="M623.643 403.327C621.684 400.317 620.969 396.666 621.648 393.14C622.54 386.539 630.504 385.03 630.504 385.03C630.504 385.03 632.239 383.717 638.614 386.133C644.988 388.55 694.281 395.233 725.78 399.499C757.279 403.764 767.482 401.007 767.044 411.826C766.606 422.645 738.967 519.737 738.545 522.787C738.124 525.836 623.643 403.327 623.643 403.327Z" fill="white" stroke="#2E353A" stroke-miterlimit="10"/>
<path d="M756.135 421.292L623.629 403.329L602.217 561.279L734.723 579.241L756.135 421.292Z" fill="white" stroke="#2E353A" stroke-linecap="round" stroke-linejoin="round"/>
<path d="M731.506 452.798L739.21 453.852" stroke="#2E353A" stroke-width="0.5" stroke-linecap="round" stroke-linejoin="round"/>
<path d="M683.251 446.261L725.407 451.987" stroke="#2E353A" stroke-width="0.5" stroke-linecap="round" stroke-linejoin="round"/>
<path d="M632.158 439.335L677.153 445.434" stroke="#2E353A" stroke-width="0.5" stroke-linecap="round" stroke-linejoin="round"/>
<path d="M719.438 465.465L737.312 467.898" stroke="#2E353A" stroke-width="0.5" stroke-linecap="round" stroke-linejoin="round"/>
<path d="M630.26 453.381L701.158 462.984" stroke="#2E353A" stroke-width="0.5" stroke-linecap="round" stroke-linejoin="round"/>
<path d="M666.236 472.553L735.415 481.929" stroke="#2E353A" stroke-width="0.5" stroke-linecap="round" stroke-linejoin="round"/>
<path d="M628.346 467.412L659.116 471.596" stroke="#2E353A" stroke-width="0.5" stroke-linecap="round" stroke-linejoin="round"/>
<path d="M689.22 489.974L733.501 495.975" stroke="#2E353A" stroke-width="0.5" stroke-linecap="round" stroke-linejoin="round"/>
<path d="M651.638 484.864L684.143 489.276" stroke="#2E353A" stroke-width="0.5" stroke-linecap="round" stroke-linejoin="round"/>
<path d="M626.449 481.458L646.042 484.118" stroke="#2E353A" stroke-width="0.5" stroke-linecap="round" stroke-linejoin="round"/>
<path d="M715.756 507.864L731.603 510.005" stroke="#2E353A" stroke-width="0.5" stroke-linecap="round" stroke-linejoin="round"/>
<path d="M624.551 495.505L705.1 506.421" stroke="#2E353A" stroke-width="0.5" stroke-linecap="round" stroke-linejoin="round"/>
<path d="M684.906 517.969L729.705 524.052" stroke="#2E353A" stroke-width="0.5" stroke-linecap="round" stroke-linejoin="round"/>
<path d="M622.637 509.535L677.282 516.948" stroke="#2E353A" stroke-width="0.5" stroke-linecap="round" stroke-linejoin="round"/>
<path d="M698.741 534.157L727.791 538.082" stroke="#2E353A" stroke-width="0.5" stroke-linecap="round" stroke-linejoin="round"/>
<path d="M639.83 526.161L691.637 533.184" stroke="#2E353A" stroke-width="0.5" stroke-linecap="round" stroke-linejoin="round"/>
<path d="M620.739 523.582L633.731 525.333" stroke="#2E353A" stroke-width="0.5" stroke-linecap="round" stroke-linejoin="round"/>
<path d="M756.144 421.298C756.144 421.298 758.415 399.272 766.525 408.128" stroke="#2E353A" stroke-linecap="round" stroke-linejoin="round"/>
<path d="M711.214 590.976L711.068 604.974L702.91 593.457L670.162 483.307L678.466 480.826L711.214 590.976Z" fill="white" stroke="#2E353A" stroke-linecap="round" stroke-linejoin="round"/>
<path d="M675.216 485.533L670.685 486.854L702.862 597.176L707.393 595.855L675.216 485.533Z" fill="#FF7700" stroke="#2E353A" stroke-width="0.5" stroke-linecap="round" stroke-linejoin="round"/>
<path d="M711.214 591.008L702.926 593.474L711.068 604.974L711.214 591.008Z" stroke="#2E353A" stroke-linecap="round" stroke-linejoin="round"/>
<path d="M706.997 599.215L711.069 604.974L711.15 597.983L706.997 599.215Z" fill="#2E353A" stroke="#2E353A" stroke-linecap="round" stroke-linejoin="round"/>
<path d="M670.648 469.731C669.549 470.062 668.626 470.813 668.079 471.822C667.532 472.831 667.406 474.015 667.729 475.116L670.162 483.307L678.466 480.842L676.033 472.651C675.703 471.552 674.951 470.628 673.942 470.081C672.934 469.534 671.749 469.409 670.648 469.731V469.731Z" fill="white" stroke="#2E353A" stroke-linecap="round" stroke-linejoin="round"/>
<path d="M670.648 469.731C669.549 470.062 668.626 470.813 668.079 471.822C667.532 472.831 667.406 474.015 667.729 475.116L668.896 479.025L677.185 476.56L676.033 472.651C675.703 471.552 674.951 470.628 673.942 470.081C672.934 469.534 671.749 469.409 670.648 469.731V469.731Z" fill="#2E353A" stroke="#2E353A" stroke-linecap="round" stroke-linejoin="round"/>
<path d="M262.196 404.673C261.158 406.133 260.136 407.657 259.115 409.263" stroke="white" stroke-linecap="round" stroke-linejoin="round"/>
<path d="M279.162 385.144C274.643 389.333 270.462 393.873 266.657 398.72" stroke="white" stroke-linecap="round" stroke-linejoin="round"/>
<path d="M260.753 393.757C256.321 399.972 252.306 406.475 248.734 413.221" stroke="white" stroke-linecap="round" stroke-linejoin="round"/>
<path d="M375.152 429.424C374.13 430.884 373.092 432.409 372.071 433.999" stroke="white" stroke-linecap="round" stroke-linejoin="round"/>
<path d="M392.119 409.896C387.607 414.088 383.431 418.627 379.629 423.472" stroke="white" stroke-linecap="round" stroke-linejoin="round"/>
<path d="M373.725 418.476C369.296 424.727 365.281 431.262 361.706 438.037" stroke="white" stroke-linecap="round" stroke-linejoin="round"/>
<path d="M537.06 389.28C535.584 388.274 534.027 387.269 532.422 386.263" stroke="white" stroke-linecap="round" stroke-linejoin="round"/>
<path d="M556.849 405.954C552.583 401.511 547.979 397.406 543.078 393.676" stroke="white" stroke-linecap="round" stroke-linejoin="round"/>
<path d="M547.96 387.658C541.648 383.323 535.06 379.406 528.237 375.931" stroke="white" stroke-linecap="round" stroke-linejoin="round"/>
<path d="M370.222 489.844C369.378 495.943 368.113 504.442 366.848 509.486" stroke="#2E353A" stroke-linecap="round" stroke-linejoin="round"/>
<path d="M371.162 482.431C371.162 482.431 371.033 483.583 370.789 485.448" stroke="#2E353A" stroke-linecap="round" stroke-linejoin="round"/>
<path d="M375.493 499.738C373.722 505.646 371.554 511.428 369.005 517.045" stroke="#2E353A" stroke-linecap="round" stroke-linejoin="round"/>
<path d="M456.593 508.383C456.593 508.383 457.68 522.446 465.238 530.021" stroke="#2E353A" stroke-linecap="round" stroke-linejoin="round"/>
<path d="M455.506 522.446C455.506 522.446 458.75 532.178 465.238 536.509" stroke="#2E353A" stroke-linecap="round" stroke-linejoin="round"/>
<g style="mix-blend-mode:multiply">
<path d="M235.19 597.61C235.19 597.61 242.392 591.819 242.392 542.04C242.392 492.261 250.68 455.896 260.899 439.951C271.117 424.007 280.671 417.616 285.148 417.616C289.624 417.616 286.413 423.358 280.038 431.647C273.664 439.935 267.922 444.412 265.359 454.63C262.797 464.849 262.813 477.598 266.008 476.317C269.203 475.035 274.296 449.521 278.757 439.951C283.217 430.381 294.085 418.249 300.459 412.507C306.834 406.765 320.88 389.54 327.255 394C333.629 398.461 329.818 404.851 325.99 407.398C322.162 409.944 306.834 425.24 299.827 434.842C292.82 444.444 288.343 468.661 292.171 469.293C295.999 469.926 307.483 434.209 313.857 426.554C320.232 418.898 345.762 397.828 351.504 397.195C357.246 396.563 357.894 405.484 352.785 409.961C347.676 414.437 330.45 433.561 324.708 445.044C318.966 456.528 316.404 477.598 321.464 472.489C326.525 467.379 334.862 446.326 341.885 439.302C348.908 432.279 369.962 409.961 375.071 412.507C380.181 415.054 378.899 421.444 374.439 425.905C369.978 430.365 352.736 454.63 348.276 467.379C343.815 480.128 338.69 515.877 341.253 510.784C343.815 505.691 352.104 479.512 356.564 468.612C361.025 457.712 369.962 452.668 371.243 457.761C372.525 462.854 369.962 465.417 366.767 476.917C363.571 488.417 363.523 519.089 354.018 536.249C344.513 553.41 306.363 590.132 301.27 602.881C297.581 611.662 293.176 620.125 288.1 628.184" fill="#CAC4BF"/>
</g>
<g style="mix-blend-mode:multiply">
<path d="M589.678 601.924C589.678 601.924 582.298 591.819 582.298 542.04C582.298 492.261 573.993 455.896 563.791 439.951C553.589 424.007 544.003 417.616 539.542 417.616C535.082 417.616 538.261 423.358 544.651 431.647C551.042 439.935 556.768 444.412 559.249 454.63C561.731 464.849 561.812 477.598 558.617 476.317C555.421 475.035 550.328 449.521 545.852 439.951C541.375 430.381 530.54 418.249 524.166 412.507C517.791 406.765 503.745 389.54 497.354 394C490.963 398.461 494.807 404.851 498.635 407.398C502.463 409.944 517.775 425.24 524.798 434.842C531.821 444.444 536.282 468.661 532.454 469.293C528.626 469.926 517.191 434.209 510.816 426.586C504.442 418.963 478.896 397.86 473.154 397.228C467.412 396.595 466.779 405.516 471.888 409.993C476.998 414.47 494.223 433.593 499.965 445.077C505.707 456.561 508.254 477.63 503.209 472.521C498.165 467.412 489.812 446.358 482.805 439.335C475.798 432.312 454.728 409.993 449.618 412.539C444.509 415.086 445.79 421.477 450.251 425.937C454.711 430.398 471.953 454.663 476.414 467.412C480.874 480.161 485.984 515.91 483.437 510.816C480.891 505.723 472.586 479.544 468.125 468.644C463.665 457.745 454.728 452.7 453.446 457.793C452.165 462.886 454.728 465.449 457.907 476.949C461.086 488.449 461.151 519.121 470.672 536.282C480.193 553.443 517.256 586.937 522.365 599.702C527.474 612.467 536.72 632.58 536.72 632.58" fill="#CAC4BF"/>
</g>
<path d="M232.757 609.872C232.757 609.872 242.327 578.616 242.327 528.772C242.327 478.928 250.615 442.628 260.834 426.683C271.052 410.739 280.606 404.348 285.083 404.348C289.56 404.348 286.348 410.09 279.974 418.379C273.599 426.667 267.857 431.144 265.294 441.346C262.732 451.549 262.748 464.33 265.943 463.049C269.139 461.767 274.232 436.253 278.692 426.683C283.153 417.114 294.02 404.981 300.394 399.239C306.769 393.497 320.815 376.272 327.19 380.732C333.564 385.193 329.753 391.583 325.925 394.13C322.097 396.676 306.769 411.972 299.762 421.574C292.755 431.176 288.278 455.393 292.106 456.025C295.934 456.658 307.418 420.941 313.792 413.269C320.167 405.597 345.697 384.56 351.439 383.927C357.181 383.295 357.83 392.216 352.72 396.693C347.611 401.169 330.385 420.293 324.643 431.776C318.901 443.26 316.339 464.33 321.399 459.221C326.46 454.111 334.797 433.058 341.82 426.035C348.844 419.011 369.897 396.693 375.006 399.239C380.116 401.786 378.834 408.176 374.374 412.637C369.913 417.097 352.672 441.346 348.211 454.111C343.751 466.876 338.625 502.609 341.188 497.5C343.751 492.391 352.039 466.244 356.499 455.328C360.96 444.412 369.897 439.367 371.179 444.477C372.46 449.586 369.897 452.132 366.702 463.616C363.507 475.1 363.458 505.788 353.953 522.965C344.448 540.142 307.369 586.775 302.26 599.54C297.15 612.305 285.667 640.382 285.667 640.382" fill="white"/>
<path d="M232.757 609.872C232.757 609.872 242.327 578.616 242.327 528.772C242.327 478.928 250.615 442.628 260.834 426.683C271.052 410.739 280.606 404.348 285.083 404.348C289.56 404.348 286.348 410.09 279.974 418.379C273.599 426.667 267.857 431.144 265.294 441.346C262.732 451.549 262.748 464.33 265.943 463.049C269.139 461.767 274.232 436.253 278.692 426.683C283.153 417.114 294.02 404.981 300.394 399.239C306.769 393.497 320.815 376.272 327.19 380.732C333.564 385.193 329.753 391.583 325.925 394.13C322.097 396.676 306.769 411.972 299.762 421.574C292.755 431.176 288.278 455.393 292.106 456.025C295.934 456.658 307.418 420.941 313.792 413.269C320.167 405.597 345.697 384.56 351.439 383.927C357.181 383.295 357.83 392.216 352.72 396.693C347.611 401.169 330.385 420.293 324.643 431.776C318.901 443.26 316.339 464.33 321.399 459.221C326.46 454.111 334.797 433.058 341.82 426.035C348.844 419.011 369.897 396.693 375.006 399.239C380.116 401.786 378.834 408.176 374.374 412.637C369.913 417.097 352.672 441.346 348.211 454.111C343.751 466.876 338.625 502.609 341.188 497.5C343.751 492.391 352.039 466.244 356.499 455.328C360.96 444.412 369.897 439.367 371.179 444.477C372.46 449.586 369.897 452.132 366.702 463.616C363.507 475.1 363.458 505.788 353.953 522.965C344.448 540.142 307.369 586.775 302.26 599.54C297.15 612.305 285.667 640.382 285.667 640.382" stroke="#2E353A" stroke-linecap="round" stroke-linejoin="round"/>
<path d="M591.852 609.872C591.852 609.872 582.282 578.616 582.282 528.772C582.282 478.928 573.977 442.628 563.775 426.683C553.572 410.739 543.986 404.348 539.526 404.348C535.065 404.348 538.244 410.09 544.635 418.379C551.026 426.667 556.751 431.144 559.233 441.346C561.715 451.549 561.796 464.33 558.601 463.049C555.405 461.767 550.312 436.253 545.835 426.683C541.359 417.114 530.524 404.981 524.149 399.239C517.775 393.497 503.728 376.272 497.338 380.732C490.947 385.193 494.791 391.583 498.619 394.13C502.447 396.676 517.759 411.972 524.782 421.574C531.805 431.176 536.266 455.393 532.438 456.025C528.61 456.658 517.126 420.941 510.752 413.269C504.377 405.597 478.831 384.56 473.089 383.927C467.347 383.295 466.714 392.216 471.824 396.693C476.933 401.169 494.159 420.293 499.9 431.776C505.642 443.26 508.189 464.33 503.144 459.221C498.1 454.111 489.747 433.058 482.74 426.035C475.733 419.011 454.663 396.693 449.553 399.239C444.444 401.786 445.726 408.176 450.186 412.637C454.647 417.097 471.888 441.346 476.349 454.111C480.809 466.876 485.919 502.609 483.372 497.5C480.826 492.391 472.521 466.244 468.061 455.328C463.6 444.412 454.663 439.367 453.381 444.477C452.1 449.586 454.663 452.132 457.842 463.616C461.021 475.1 461.086 505.788 470.607 522.965C480.128 540.142 517.191 586.775 522.3 599.54C527.41 612.305 538.893 640.382 538.893 640.382" fill="white"/>
<path d="M591.852 609.872C591.852 609.872 582.282 578.616 582.282 528.772C582.282 478.928 573.977 442.628 563.775 426.683C553.572 410.739 543.986 404.348 539.526 404.348C535.065 404.348 538.244 410.09 544.635 418.379C551.026 426.667 556.751 431.144 559.233 441.346C561.715 451.549 561.796 464.33 558.601 463.049C555.405 461.767 550.312 436.253 545.835 426.683C541.359 417.114 530.524 404.981 524.149 399.239C517.775 393.497 503.728 376.272 497.338 380.732C490.947 385.193 494.791 391.583 498.619 394.13C502.447 396.676 517.759 411.972 524.782 421.574C531.805 431.176 536.266 455.393 532.438 456.025C528.61 456.658 517.126 420.941 510.752 413.269C504.377 405.597 478.831 384.56 473.089 383.927C467.347 383.295 466.714 392.216 471.824 396.693C476.933 401.169 494.159 420.293 499.9 431.776C505.642 443.26 508.189 464.33 503.144 459.221C498.1 454.111 489.747 433.058 482.74 426.035C475.733 419.011 454.663 396.693 449.553 399.239C444.444 401.786 445.726 408.176 450.186 412.637C454.647 417.097 471.888 441.346 476.349 454.111C480.809 466.876 485.919 502.609 483.372 497.5C480.826 492.391 472.521 466.244 468.061 455.328C463.6 444.412 454.663 439.367 453.381 444.477C452.1 449.586 454.663 452.132 457.842 463.616C461.021 475.1 461.086 505.788 470.607 522.965C480.128 540.142 517.191 586.775 522.3 599.54C527.41 612.305 538.893 640.382 538.893 640.382" stroke="#2E353A" stroke-linecap="round" stroke-linejoin="round"/>
<path d="M192.369 707.192H289.689C290.954 702.326 292.544 696.876 294.555 690.972C302.211 668.037 326.995 639.36 326.995 639.36C309.232 623.716 288.359 612.008 265.749 605.006C228.443 593.522 201.128 596.896 201.128 596.896C206.156 617.627 206.709 639.192 202.75 660.154C197.884 683.77 194.64 698.709 192.369 707.192Z" fill="#2E353A" stroke="#2E353A" stroke-linecap="round" stroke-linejoin="round"/>
<path d="M534.287 707.192H635.402C632.158 698.79 625.151 680.543 618.144 662.295C608.575 637.446 612.402 604 608.575 604C604.747 604 561.747 601.129 540.726 607.812C519.705 614.495 495.797 633.618 495.797 633.618C506.62 646.194 515.924 660 523.517 674.752C528.398 685.093 532.014 695.985 534.287 707.192V707.192Z" fill="#2E353A" stroke="#2E353A" stroke-linecap="round" stroke-linejoin="round"/>
<path d="M253.162 616.684C252.464 613.927 242.084 618.079 242.084 618.079C242.084 618.079 245.555 604.941 240.024 604.941C234.493 604.941 233.795 614.673 233.795 614.673C233.795 614.673 223.414 610.537 223.414 616.749C223.414 622.962 230.324 622.848 230.324 622.848C230.324 622.848 222.019 633.229 228.248 635.289C234.476 637.349 238.612 629.758 238.612 629.758C238.612 629.758 242.765 636.684 248.344 633.91C253.924 631.136 249.723 624.924 249.723 624.924C249.723 624.924 253.843 619.458 253.162 616.684ZM239.326 627.065C238.804 626.949 238.325 626.688 237.945 626.311C237.565 625.935 237.299 625.459 237.178 624.938C237.057 624.417 237.085 623.873 237.26 623.367C237.434 622.862 237.748 622.416 238.165 622.081C238.583 621.746 239.086 621.536 239.617 621.475C240.148 621.413 240.686 621.503 241.169 621.734C241.651 621.965 242.058 622.328 242.344 622.78C242.629 623.233 242.78 623.757 242.781 624.292C242.664 625.106 242.242 625.845 241.601 626.36C240.959 626.875 240.146 627.127 239.326 627.065V627.065ZM268.376 694.216C267.679 691.459 257.298 695.611 257.298 695.611C257.298 695.611 260.769 682.473 255.222 682.473C249.675 682.473 249.009 692.205 249.009 692.205C249.009 692.205 238.629 688.052 238.629 694.265C238.629 700.477 245.555 700.493 245.555 700.493C245.555 700.493 237.25 710.874 243.478 712.95C249.707 715.026 253.843 707.403 253.843 707.403C253.843 707.403 257.995 714.329 263.575 711.555C269.155 708.782 264.954 702.569 264.954 702.569C264.954 702.569 269.057 696.909 268.376 694.216ZM254.54 704.597C254.018 704.481 253.54 704.219 253.16 703.843C252.78 703.467 252.514 702.991 252.392 702.47C252.271 701.949 252.299 701.404 252.474 700.899C252.649 700.393 252.963 699.947 253.38 699.613C253.797 699.278 254.3 699.068 254.831 699.006C255.363 698.945 255.901 699.035 256.383 699.266C256.865 699.497 257.273 699.86 257.558 700.312C257.843 700.765 257.995 701.288 257.995 701.823C257.878 702.631 257.453 703.362 256.809 703.864C256.166 704.366 255.353 704.6 254.54 704.516V704.597ZM207.502 704.597C206.805 701.823 196.44 705.976 196.44 705.976C196.44 705.976 199.895 692.837 194.364 692.837C188.833 692.837 188.136 702.569 188.136 702.569C188.136 702.569 177.755 698.417 177.755 704.645C177.755 710.874 184.681 710.874 184.681 710.874C184.681 710.874 176.376 721.239 182.605 723.315C188.833 725.391 192.969 717.784 192.969 717.784C192.969 717.784 197.122 724.693 202.701 721.936C208.281 719.179 204.096 712.95 204.096 712.95C204.096 712.95 208.2 707.273 207.519 704.516L207.502 704.597ZM193.667 714.961C193.144 714.845 192.665 714.583 192.285 714.206C191.904 713.829 191.638 713.352 191.518 712.83C191.397 712.309 191.426 711.763 191.602 711.258C191.778 710.752 192.094 710.306 192.513 709.972C192.931 709.638 193.436 709.429 193.968 709.37C194.5 709.31 195.038 709.403 195.52 709.636C196.002 709.869 196.408 710.234 196.692 710.689C196.975 711.143 197.124 711.668 197.122 712.204C197.001 713.006 196.577 713.731 195.937 714.229C195.297 714.727 194.49 714.96 193.683 714.88L193.667 714.961ZM282.877 650.649H290.484C296.015 650.649 299.47 656.878 299.47 656.878C287.727 660.251 282.893 650.568 282.893 650.568L282.877 650.649ZM275.27 704.597H282.877C288.408 704.597 291.863 710.825 291.863 710.825C280.119 714.199 275.286 704.516 275.286 704.516L275.27 704.597ZM208.897 694.216H216.505C222.036 694.216 225.49 700.444 225.49 700.444C213.731 703.818 208.897 694.216 208.897 694.216ZM245.668 645.41L250.112 651.59C253.356 656.099 250.291 662.522 250.291 662.522C240.624 654.915 245.668 645.329 245.668 645.329V645.41ZM207.616 666.074L211.087 659.311C213.634 654.445 220.738 654.153 220.738 654.153C218.354 666.188 207.616 666.074 207.616 666.074Z" fill="white"/>
<path d="M578.876 629.823C578.178 627.065 567.797 631.218 567.797 631.218C567.797 631.218 571.268 618.079 565.737 618.079C560.206 618.079 559.509 627.811 559.509 627.811C559.509 627.811 549.128 623.675 549.128 629.887C549.128 636.1 556.054 636.116 556.054 636.116C556.054 636.116 547.749 646.497 553.978 648.573C560.206 650.649 564.342 643.026 564.342 643.026C564.342 643.026 568.495 649.952 574.074 647.178C579.654 644.404 575.453 638.192 575.453 638.192C575.453 638.192 579.557 632.58 578.876 629.823ZM565.04 640.203C564.518 640.087 564.039 639.826 563.659 639.45C563.279 639.073 563.013 638.597 562.892 638.076C562.77 637.555 562.799 637.011 562.973 636.505C563.148 636 563.462 635.554 563.879 635.219C564.296 634.884 564.8 634.674 565.331 634.613C565.862 634.552 566.4 634.642 566.882 634.873C567.365 635.104 567.772 635.466 568.057 635.919C568.343 636.371 568.494 636.895 568.495 637.43C568.397 638.252 567.98 639.004 567.334 639.523C566.688 640.041 565.864 640.286 565.04 640.203V640.203ZM611.364 683.77C610.683 680.997 600.302 685.149 600.302 685.149C600.302 685.149 603.757 672.011 598.226 672.011C592.695 672.011 592.014 681.743 592.014 681.743C592.014 681.743 581.633 677.59 581.633 683.819C581.633 690.047 588.543 690.047 588.543 690.047C588.543 690.047 580.254 700.412 586.483 702.488C592.711 704.564 596.847 696.957 596.847 696.957C596.847 696.957 601 703.867 606.579 701.109C612.159 698.352 607.958 692.124 607.958 692.124C607.958 692.124 612.062 686.528 611.364 683.77ZM597.545 694.216C597.022 694.1 596.543 693.838 596.163 693.461C595.782 693.084 595.516 692.607 595.396 692.085C595.275 691.563 595.304 691.018 595.48 690.512C595.656 690.006 595.972 689.561 596.391 689.227C596.809 688.893 597.314 688.684 597.846 688.624C598.378 688.565 598.916 688.657 599.398 688.89C599.88 689.124 600.286 689.489 600.57 689.943C600.853 690.398 601.002 690.923 601 691.459C600.898 692.278 600.48 693.026 599.834 693.541C599.188 694.056 598.367 694.299 597.545 694.216ZM576.799 704.597C576.102 701.823 565.737 705.975 565.737 705.975C565.737 705.975 569.192 692.837 563.661 692.837C558.13 692.837 557.433 702.569 557.433 702.569C557.433 702.569 547.052 698.417 547.052 704.645C547.052 710.874 553.978 710.874 553.978 710.874C553.978 710.874 545.673 721.239 551.902 723.315C558.13 725.391 562.266 717.784 562.266 717.784C562.266 717.784 566.419 724.693 571.998 721.936C577.578 719.179 573.393 712.95 573.393 712.95C573.393 712.95 577.432 707.273 576.799 704.516V704.597ZM562.964 714.961C562.441 714.845 561.962 714.583 561.582 714.206C561.201 713.829 560.935 713.352 560.815 712.83C560.694 712.309 560.723 711.763 560.899 711.258C561.075 710.752 561.391 710.306 561.81 709.972C562.228 709.638 562.733 709.429 563.265 709.37C563.797 709.31 564.335 709.402 564.817 709.636C565.299 709.869 565.705 710.234 565.989 710.689C566.272 711.143 566.421 711.668 566.419 712.204C566.298 713.009 565.871 713.736 565.228 714.235C564.584 714.733 563.773 714.964 562.964 714.88V714.961ZM608.607 663.787H616.214C621.745 663.787 625.2 670.016 625.2 670.016C613.44 673.389 608.607 663.706 608.607 663.706V663.787ZM527.004 703.137H534.611C540.142 703.137 543.597 709.349 543.597 709.349C531.838 712.82 527.004 703.137 527.004 703.137ZM571.382 658.532L575.826 664.712C579.07 669.221 576.005 675.644 576.005 675.644C566.338 668.053 571.382 658.532 571.382 658.532ZM616.36 697.2L620.788 703.38C624.032 707.873 620.966 714.313 620.966 714.313C611.299 706.77 616.36 697.2 616.36 697.2ZM533.265 679.212L536.736 672.449C539.283 667.583 546.468 667.291 546.468 667.291C544.067 679.326 533.249 679.212 533.249 679.212H533.265Z" fill="white"/>
</svg>
