<svg width="42" height="40" viewBox="0 0 42 40" fill="none" xmlns="http://www.w3.org/2000/svg">
<path d="M35.9309 8.32191C35.5696 8.22717 35.3976 7.99922 35.1638 7.88062C34.9484 7.77127 34.7432 7.63256 34.5171 7.55504C33.7248 7.28312 32.9862 7.78776 32.9537 8.62898C32.9343 9.13189 32.9674 9.63653 32.9634 10.1403C32.9621 10.3033 33.0068 10.4874 32.8531 10.6289C32.6278 10.5268 32.5913 10.2957 32.5044 10.1086C31.2661 7.44352 29.4279 5.34395 26.798 4.03612C24.647 2.96652 22.3371 2.72526 19.9765 2.90736C18.232 3.04188 16.5552 3.43255 15.0103 4.31889C12.8513 5.55743 11.3158 7.38943 10.0786 9.51981C8.54485 12.1611 7.91605 15.0385 7.88664 18.0737C7.8635 20.4546 7.97296 22.8238 8.47003 25.1619C9.0329 27.8094 9.9841 30.2707 11.8798 32.2488C13.7183 34.1671 15.9608 35.2846 18.6035 35.5406C18.9934 35.5783 19.0703 35.6939 18.8763 36.0286C18.5914 36.5199 18.3689 37.0205 18.3651 37.6069C18.363 37.9101 18.1266 37.8782 17.9245 37.8443C16.2046 37.555 14.5158 37.1218 12.9639 36.3143C7.60325 33.5249 4.40713 29.0559 3.19349 23.118C2.69437 20.6759 2.51025 18.1858 3.02493 15.7335C4.43813 8.99911 8.02041 3.97219 14.6166 1.68314C19.9088 -0.15348 25.182 0.155757 30.2247 2.75361C32.2499 3.79704 33.8237 5.40469 35.2086 7.20588C35.4593 7.53146 35.7257 7.8488 35.9309 8.32191Z" fill="#FF7700"/>
<path d="M36.9269 30.5079C36.7337 30.8915 36.4153 30.9929 36.184 31.1883C34.465 32.6409 32.5202 33.6701 30.354 34.2286C28.7765 34.6353 27.2479 34.4087 25.8127 33.6147C25.6814 33.5421 25.4904 33.4866 25.4996 33.2993C25.5085 33.1168 25.6955 33.076 25.8338 33.0065C29.2081 31.3144 31.6455 28.7333 33.0966 25.2005C33.5133 24.1859 33.8017 23.1339 34.1079 22.085C34.1973 21.779 34.1047 21.4571 34.2386 21.1593C34.0092 21.1301 34.0059 21.3024 33.9453 21.4369C32.847 23.8807 31.6327 26.2537 29.9294 28.3392C28.8718 29.6343 27.5598 30.6164 26.1918 31.5289C24.8961 32.3933 23.6209 33.2779 22.5611 34.4411C21.8105 35.2649 21.2725 36.2266 20.8007 37.2309C20.7336 37.3738 20.678 37.5223 20.6125 37.6661C20.4638 37.9921 20.2121 38.125 19.8824 37.9856C19.5434 37.8421 19.5431 37.5411 19.6648 37.2537C19.9968 36.4702 20.4297 35.7409 20.9204 35.0507C21.6584 34.0128 22.5559 33.1331 23.6103 32.4284C23.9285 32.2158 24.0314 31.9638 23.981 31.593C23.6666 29.2815 23.9845 26.9945 24.259 24.7065C24.2724 24.5954 24.2749 24.4324 24.404 24.4272C24.5753 24.4202 24.5542 24.6051 24.5752 24.7212C24.6773 25.2862 24.9473 25.7361 25.4149 26.0711C25.682 26.2626 25.8239 26.2322 25.8625 25.8858C26.1517 23.29 27.4786 21.2257 29.1319 19.3256C29.9334 18.4047 30.8956 17.651 31.7147 16.7493C33.345 14.9545 34.0244 12.7861 34.1399 10.3986C34.1574 10.0391 34.1513 9.67835 34.1542 9.3182C34.158 8.86129 34.2894 8.77928 34.6878 9.02719C35.5403 9.55772 36.2105 10.2786 36.7208 11.1444C37.7234 12.8458 37.9319 14.7142 37.8209 16.6478C37.8058 16.9107 37.6254 17.3128 37.8646 17.408C38.1627 17.5266 38.2583 17.0815 38.4363 16.8795C38.5567 16.7428 38.6267 16.561 38.7209 16.4003C38.7705 16.3155 38.8082 16.1909 38.9235 16.2071C39.05 16.2248 39.0312 16.3608 39.0415 16.4548C39.1476 17.4149 39.1958 18.3782 39.1527 19.3435C38.9731 23.369 37.3251 26.8157 35.0376 30.0075C34.7762 30.3722 34.7834 30.4255 35.2002 30.5552C35.4732 30.6401 35.7528 30.7004 36.0403 30.6596C36.3048 30.6223 36.5671 30.5702 36.9269 30.5079Z" fill="#FF7700"/>
<path d="M20.0825 27.5865C20.7028 28.8891 21.2764 30.1998 21.1505 31.706C21.1038 32.2646 20.9977 32.3499 20.5039 32.072C20.0047 31.791 19.5728 31.4139 19.1341 31.0493C18.9773 30.919 18.7961 30.7392 19.2024 30.676C19.4041 30.6446 19.4134 30.505 19.2914 30.3631C18.4401 29.3725 18.1682 28.1601 17.9721 26.9099C17.829 25.9975 17.3247 25.298 16.6059 24.7481C16.4854 24.6558 16.2956 24.5923 16.3477 24.3997C16.3937 24.2299 16.5777 24.1947 16.7286 24.1639C17.54 23.998 18.2792 24.1584 18.9402 24.6746C19.0738 24.7789 19.2045 25.028 19.3342 24.6177C19.4041 24.3966 19.6572 24.5899 19.7926 24.6901C20.4515 25.1777 21.0256 25.7529 21.48 26.4436C21.8439 26.9967 22.1513 27.5803 22.3657 28.2093C22.4602 28.4864 22.5587 28.5667 22.733 28.2683C22.7756 28.1954 22.8302 28.1005 22.9261 28.1529C22.9714 28.1776 22.9947 28.2753 22.9986 28.3417C23.0629 29.4066 22.9957 30.4454 22.3785 31.3669C22.3069 31.4738 22.2291 31.5794 22.1385 31.6697C21.9767 31.8311 21.778 32.0415 21.5628 31.9704C21.3378 31.8959 21.4544 31.6112 21.4639 31.4274C21.5393 29.9754 21.1937 28.6616 20.2635 27.53C20.2208 27.3058 20.0841 27.1747 19.8331 27.074C19.8793 27.305 19.9313 27.4691 20.0825 27.5865Z" fill="#FF7700"/>
<path d="M22.3799 38.0177C21.9538 38.0429 21.8503 37.9072 22.0273 37.5142C22.2753 36.9634 22.5809 36.4449 22.9271 35.9498C23.1191 35.6753 23.3902 35.5839 23.6941 35.5465C24.3156 35.4703 24.9342 35.3795 25.5259 35.1614C25.7697 35.0715 26.003 35.1037 26.2313 35.2019C27.5207 35.7571 28.8623 35.7195 30.2145 35.5669C30.271 35.5606 30.3271 35.5493 30.3837 35.5451C30.5157 35.5351 30.6583 35.5337 30.6927 35.6971C30.7254 35.8526 30.6099 35.9255 30.4834 35.9776C29.8779 36.2263 29.2801 36.4968 28.666 36.7219C26.6349 37.4662 24.5332 37.8732 22.3799 38.0177Z" fill="#FF7700"/>
<path d="M20.0824 27.5865C19.9313 27.4692 19.8792 27.305 19.8328 27.0737C20.0838 27.1744 20.2205 27.3056 20.2632 27.5296C20.2029 27.5484 20.1427 27.5674 20.0824 27.5865Z" fill="#FF7700"/>
</svg>
