<svg width="264" height="264" viewBox="0 0 264 264" fill="none" xmlns="http://www.w3.org/2000/svg">
<path d="M12.375 8.24997H251.625C258.459 8.24997 263.999 13.7904 263.999 20.6249V243.375C263.999 250.209 258.459 255.75 251.625 255.75H12.375C5.54038 255.75 0 250.209 0 243.375V20.6249C0 13.7904 5.54038 8.24997 12.375 8.24997Z" fill="#3F3D56"/>
<path d="M12.3759 28.8713C14.6535 28.8713 16.4999 27.025 16.4999 24.7474C16.4999 22.4698 14.6535 20.6234 12.3759 20.6234C10.0983 20.6234 8.25195 22.4698 8.25195 24.7474C8.25195 27.025 10.0983 28.8713 12.3759 28.8713Z" fill="#FF6868"/>
<path d="M28.8759 28.8713C31.1535 28.8713 32.9999 27.025 32.9999 24.7474C32.9999 22.4698 31.1535 20.6234 28.8759 20.6234C26.5983 20.6234 24.752 22.4698 24.752 24.7474C24.752 27.025 26.5983 28.8713 28.8759 28.8713Z" fill="#FFF599"/>
<path d="M45.3759 28.8713C47.6535 28.8713 49.4999 27.025 49.4999 24.7474C49.4999 22.4698 47.6535 20.6234 45.3759 20.6234C43.0983 20.6234 41.252 22.4698 41.252 24.7474C41.252 27.025 43.0983 28.8713 45.3759 28.8713Z" fill="#91FF95"/>
<path d="M12.375 41.2499H251.625C253.903 41.2499 255.75 43.0969 255.75 45.3749V243.375C255.75 245.653 253.903 247.5 251.625 247.5H12.375C10.097 247.5 8.25 245.653 8.25 243.375V45.3749C8.25 43.0969 10.097 41.2499 12.375 41.2499Z" fill="white"/>
<path d="M61.875 20.625H251.625C253.903 20.625 255.75 22.4719 255.75 24.75C255.75 27.028 253.903 28.875 251.625 28.875H61.875C59.597 28.875 57.75 27.028 57.75 24.75C57.75 22.4719 59.597 20.625 61.875 20.625Z" fill="#E2E5E7"/>
<path d="M57.7473 103.124C66.86 103.124 74.2472 95.7365 74.2472 86.6238C74.2472 77.5111 66.86 70.1238 57.7473 70.1238C48.6346 70.1238 41.2473 77.5111 41.2473 86.6238C41.2473 95.7365 48.6346 103.124 57.7473 103.124Z" fill="#FEE4CD"/>
<path d="M70.1254 97.5148C69.8552 96.069 68.924 94.8326 67.6092 94.1736L63.4847 91.6573C62.9815 91.3645 62.4401 91.1427 61.876 90.9973V89.1411C64.4226 86.8631 64.6407 82.9515 62.3632 80.4038C60.0852 77.8572 56.1737 77.6391 53.626 79.9166C51.0783 82.1941 50.8612 86.1061 53.1387 88.6538C53.2919 88.825 53.4543 88.9874 53.626 89.1411V90.9973C53.0902 91.1495 52.5772 91.3712 52.0997 91.6573L47.9747 94.1736C46.6594 94.8326 45.7287 96.0685 45.4585 97.5148C51.5114 104.327 61.9404 104.941 68.7523 98.8879C69.236 98.4579 69.6944 97.999 70.1254 97.5148Z" fill="#3F3D56"/>
<path d="M98.9998 86.6254H222.75C225.028 86.6254 226.875 88.4723 226.875 90.7504C226.875 93.0284 225.028 94.8759 222.75 94.8759H98.9998C96.7218 94.8759 94.8743 93.0289 94.8743 90.7504C94.8753 88.4718 96.7218 86.6254 98.9998 86.6254Z" fill="#CAD1D8"/>
<path d="M98.9998 119.625H198C200.278 119.625 202.125 121.472 202.125 123.75C202.125 126.028 200.278 127.876 198 127.876H98.9998C96.7218 127.876 94.8743 126.029 94.8743 123.75C94.8753 121.472 96.7218 119.625 98.9998 119.625Z" fill="#CAD1D8"/>
<path d="M98.9998 103.125H177.375C179.653 103.125 181.5 104.972 181.5 107.25C181.5 109.528 179.653 111.376 177.375 111.376H98.9998C96.7218 111.376 94.8743 109.529 94.8743 107.25C94.8753 104.972 96.7218 103.125 98.9998 103.125Z" fill="#CAD1D8"/>
<path d="M98.9999 78.3712C101.278 78.3712 103.124 76.5249 103.124 74.2473C103.124 71.9697 101.278 70.1233 98.9999 70.1233C96.7223 70.1233 94.876 71.9697 94.876 74.2473C94.876 76.5249 96.7223 78.3712 98.9999 78.3712Z" fill="#3CB54A"/>
<path d="M148.5 74.2498C148.5 76.5279 146.653 78.3754 144.375 78.3754H115.5C113.222 78.3754 111.374 76.5284 111.374 74.2498C111.374 71.9718 113.221 70.1243 115.5 70.1243H144.375C146.653 70.1254 148.5 71.9718 148.5 74.2498Z" fill="#595A66"/>
<path d="M57.7473 189.747C66.86 189.747 74.2472 182.36 74.2472 173.247C74.2472 164.134 66.86 156.747 57.7473 156.747C48.6346 156.747 41.2473 164.134 41.2473 173.247C41.2473 182.36 48.6346 189.747 57.7473 189.747Z" fill="#FEE4CD"/>
<path d="M70.1254 184.14C69.8552 182.694 68.924 181.457 67.6092 180.798L63.4847 178.282C62.9815 177.989 62.4401 177.768 61.876 177.622V175.766C64.4226 173.488 64.6407 169.576 62.3632 167.029C60.0852 164.482 56.1737 164.264 53.626 166.541C51.0783 168.819 50.8612 172.731 53.1387 175.279C53.2919 175.45 53.4543 175.612 53.626 175.766V177.622C53.0902 177.774 52.5772 177.996 52.0997 178.282L47.9747 180.798C46.6594 181.457 45.7287 182.693 45.4585 184.14C51.5114 190.952 61.9404 191.566 68.7523 185.513C69.236 185.083 69.6944 184.624 70.1254 184.14Z" fill="#3F3D56"/>
<path d="M98.9998 173.25H222.75C225.028 173.25 226.875 175.097 226.875 177.375C226.875 179.653 225.028 181.5 222.75 181.5H98.9998C96.7218 181.5 94.8743 179.653 94.8743 177.375C94.8753 175.097 96.7218 173.25 98.9998 173.25Z" fill="#CAD1D8"/>
<path d="M98.9998 206.25H198C200.278 206.25 202.125 208.097 202.125 210.375C202.125 212.653 200.278 214.5 198 214.5H98.9998C96.7218 214.5 94.8743 212.653 94.8743 210.375C94.8753 208.097 96.7218 206.25 98.9998 206.25Z" fill="#CAD1D8"/>
<path d="M98.9998 189.75H177.375C179.653 189.75 181.5 191.597 181.5 193.875C181.5 196.153 179.653 198 177.375 198H98.9998C96.7218 198 94.8743 196.153 94.8743 193.875C94.8753 191.597 96.7218 189.75 98.9998 189.75Z" fill="#CAD1D8"/>
<path d="M98.9999 165C101.278 165 103.124 163.153 103.124 160.876C103.124 158.598 101.278 156.752 98.9999 156.752C96.7223 156.752 94.876 158.598 94.876 160.876C94.876 163.153 96.7223 165 98.9999 165Z" fill="#3CB54A"/>
<path d="M148.5 160.875C148.5 163.153 146.653 165 144.375 165H115.5C113.222 165 111.374 163.153 111.374 160.875C111.374 158.597 113.221 156.75 115.5 156.75H144.375C146.653 156.75 148.5 158.597 148.5 160.875Z" fill="#595A66"/>
</svg>
