<svg width="428" height="332" viewBox="0 0 428 332" fill="none" xmlns="http://www.w3.org/2000/svg">
<rect width="428" height="332" rx="18" fill="#F6F6F6"/>
<path d="M268.972 85.256H160.504V108.836H268.972V85.256Z" fill="#CAD1D8"/>
<path d="M217.62 125.08H212.38V181.148H217.62V125.08Z" fill="#3F3D56"/>
<path d="M285.74 226.212H280.5V199.488C280.5 191.628 273.688 184.816 265.828 184.816H164.172C156.312 184.816 149.5 191.628 149.5 199.488V226.212H144.26V199.488C144.26 188.484 153.168 179.576 164.172 179.576H265.304C276.308 179.576 285.216 188.484 285.216 199.488V226.212H285.74Z" fill="#3F3D56"/>
<path d="M215 196.868C223.103 196.868 229.672 190.299 229.672 182.196C229.672 174.093 223.103 167.524 215 167.524C206.897 167.524 200.328 174.093 200.328 182.196C200.328 190.299 206.897 196.868 215 196.868Z" fill="#ED6F62"/>
<path d="M164.696 275.992H119.108V283.852H164.696V275.992Z" fill="#CAD1D8"/>
<path d="M168.888 283.328H114.916C112.296 283.328 110.2 285.424 110.2 288.044C110.2 290.664 112.296 292.76 114.916 292.76H168.888C171.508 292.76 173.604 290.664 173.604 288.044C173.604 285.424 171.508 283.328 168.888 283.328Z" fill="#3F3D56"/>
<path d="M184.608 204.728H99.196C93.956 204.728 89.24 208.92 89.24 214.684V267.084C89.24 272.848 93.956 277.04 99.196 277.04H184.608C190.372 277.04 194.564 272.324 194.564 267.084V214.684C194.564 208.92 189.848 204.728 184.608 204.728Z" fill="#3F3D56"/>
<path d="M99.1961 264.464C96.5761 264.464 93.9561 262.368 93.9561 259.224V214.16C93.9561 211.54 96.0521 208.92 99.1961 208.92H184.608C187.228 208.92 189.848 211.016 189.848 214.16V259.224C189.848 261.844 187.752 264.464 184.608 264.464H99.1961Z" fill="white"/>
<path d="M189.848 217.304V214.16C189.848 211.54 187.752 208.92 184.608 208.92H99.1961C96.5761 208.92 93.9561 211.016 93.9561 214.16V217.304H189.848Z" fill="#88D6FF"/>
<path d="M128.54 221.496H99.196V259.748H128.54V221.496Z" fill="#FF7700"/>
<path d="M184.084 221.496H133.78V236.168H184.084V221.496Z" fill="#86BE57"/>
<path d="M184.084 240.36H133.78V244.552H184.084V240.36Z" fill="#D3D3D3"/>
<path d="M184.084 248.22H133.78V252.412H184.084V248.22Z" fill="#D3D3D3"/>
<path d="M184.084 255.556H133.78V259.748H184.084V255.556Z" fill="#D3D3D3"/>
<path d="M310.892 275.992H265.304V283.852H310.892V275.992Z" fill="#CAD1D8"/>
<path d="M315.084 283.328H261.112C258.492 283.328 256.396 285.424 256.396 288.044C256.396 290.664 258.492 292.76 261.112 292.76H315.084C317.704 292.76 319.8 290.664 319.8 288.044C319.8 285.424 317.704 283.328 315.084 283.328Z" fill="#3F3D56"/>
<path d="M330.804 204.728H245.392C239.628 204.728 235.436 209.444 235.436 214.684V267.084C235.436 272.848 240.152 277.04 245.392 277.04H330.804C336.568 277.04 340.76 272.324 340.76 267.084V214.684C340.76 208.92 336.044 204.728 330.804 204.728Z" fill="#3F3D56"/>
<path d="M245.392 264.464C242.772 264.464 240.152 262.368 240.152 259.224V214.16C240.152 211.54 242.248 208.92 245.392 208.92H330.804C333.424 208.92 336.044 211.016 336.044 214.16V259.224C336.044 261.844 333.948 264.464 330.804 264.464H245.392Z" fill="white"/>
<path d="M336.044 217.304V214.16C336.044 211.54 333.948 208.92 330.804 208.92H245.392C242.772 208.92 240.152 211.016 240.152 214.16V217.304H336.044Z" fill="#88D6FF"/>
<path d="M274.736 221.496H245.392V259.748H274.736V221.496Z" fill="#86BE57"/>
<path d="M330.804 221.496H280.5V236.168H330.804V221.496Z" fill="#FF7700"/>
<path d="M330.804 240.36H280.5V244.552H330.804V240.36Z" fill="#D3D3D3"/>
<path d="M330.804 248.22H280.5V252.412H330.804V248.22Z" fill="#D3D3D3"/>
<path d="M330.804 255.556H280.5V259.748H330.804V255.556Z" fill="#D3D3D3"/>
<path d="M275.784 41.24H154.216C147.404 41.24 141.64 47.004 141.64 53.816V75.824C141.64 82.636 147.404 88.4 154.216 88.4H275.26C282.072 88.4 287.836 82.636 287.836 75.824V53.816C287.836 47.004 282.596 41.24 275.784 41.24Z" fill="#3F3D56"/>
<path d="M164.696 73.728C169.616 73.728 173.604 69.7397 173.604 64.82C173.604 59.9002 169.616 55.912 164.696 55.912C159.776 55.912 155.788 59.9002 155.788 64.82C155.788 69.7397 159.776 73.728 164.696 73.728Z" fill="#FF6868"/>
<path d="M187.752 73.728C192.672 73.728 196.66 69.7397 196.66 64.82C196.66 59.9002 192.672 55.912 187.752 55.912C182.832 55.912 178.844 59.9002 178.844 64.82C178.844 69.7397 182.832 73.728 187.752 73.728Z" fill="#C9FF9B"/>
<path d="M210.808 73.728C215.728 73.728 219.716 69.7397 219.716 64.82C219.716 59.9002 215.728 55.912 210.808 55.912C205.888 55.912 201.9 59.9002 201.9 64.82C201.9 69.7397 205.888 73.728 210.808 73.728Z" fill="#88D6FF"/>
<path d="M275.784 102.548H154.216C147.404 102.548 141.64 108.312 141.64 115.124V137.132C141.64 143.944 147.404 149.708 154.216 149.708H275.26C282.072 149.708 287.836 143.944 287.836 137.132V114.6C287.836 107.788 282.596 102.548 275.784 102.548Z" fill="#3F3D56"/>
<path d="M164.696 134.512C169.616 134.512 173.604 130.524 173.604 125.604C173.604 120.684 169.616 116.696 164.696 116.696C159.776 116.696 155.788 120.684 155.788 125.604C155.788 130.524 159.776 134.512 164.696 134.512Z" fill="#FF6868"/>
<path d="M187.752 134.512C192.672 134.512 196.66 130.524 196.66 125.604C196.66 120.684 192.672 116.696 187.752 116.696C182.832 116.696 178.844 120.684 178.844 125.604C178.844 130.524 182.832 134.512 187.752 134.512Z" fill="#C9FF9B"/>
<path d="M210.808 134.512C215.728 134.512 219.716 130.524 219.716 125.604C219.716 120.684 215.728 116.696 210.808 116.696C205.888 116.696 201.9 120.684 201.9 125.604C201.9 130.524 205.888 134.512 210.808 134.512Z" fill="#88D6FF"/>
</svg>
