<svg width="428" height="332" viewBox="0 0 428 332" fill="none" xmlns="http://www.w3.org/2000/svg">
<rect width="428" height="332" rx="18" fill="#F6F6F6"/>
<path d="M300.081 119.696C305.709 119.696 310.267 124.858 310.267 131.231C310.267 137.604 305.709 142.766 300.081 142.766C294.454 142.766 289.895 137.604 289.895 131.231C289.895 124.858 294.454 119.696 300.081 119.696Z" fill="#FF7700"/>
<path d="M292.06 137.719C292.06 131.346 296.618 126.184 302.246 126.184C305.491 126.184 308.373 127.906 310.238 130.581C309.939 124.512 305.515 119.696 300.081 119.696C294.454 119.696 289.895 124.858 289.895 131.231C289.895 133.929 290.719 136.405 292.089 138.369C292.078 138.153 292.06 137.939 292.06 137.719Z" fill="#D65B5B"/>
<path d="M320.453 194.672V286.95H106.546V194.672H269.523H320.453Z" fill="#D7DEED"/>
<path d="M112.276 201.449H275.253H320.453V194.672H269.523H106.546V286.95H112.276V201.449Z" fill="#AFB9D2"/>
<path d="M300.081 56.255L274.8 85.8992C274.794 79.2841 274.759 72.7323 274.855 65.6385C231.983 45.3719 193.372 46.4389 157.477 63.5276C157.39 69.9525 157.426 76.4754 157.467 82.9983L157.355 83.4135L132.012 56.255L216.882 15.8834L300.081 56.255Z" fill="#3F3D56"/>
<path d="M274.797 72.8206C274.786 75.653 274.788 78.4294 274.793 81.1896C274.8 78.4698 274.817 75.7037 274.856 72.8477C274.837 72.8385 274.817 72.8298 274.797 72.8206Z" fill="#414A56"/>
<path d="M216.882 23.0926L295.733 61.3539L300.081 56.255L216.882 15.8834L132.012 56.255L136.671 61.2478L216.882 23.0926Z" fill="#414A56"/>
<path d="M223.686 95.4096C201.567 94.6195 179.504 98.103 157.477 105.105C157.573 97.8089 157.517 90.4036 157.466 82.9982C157.426 76.4754 157.39 69.9525 157.477 63.5276C193.372 46.4389 231.982 45.3719 274.856 65.6385C274.759 72.7323 274.794 79.2841 274.8 85.8992C274.81 92.0819 274.789 98.3164 274.617 105.105C257.6 99.1353 240.63 96.0152 223.686 95.4096Z" fill="#3F3D56"/>
<path d="M162.617 103.543C162.631 98.3539 162.595 93.1281 162.559 87.9005C162.519 81.3776 162.483 74.8547 162.57 68.4299C197.029 52.0252 233.993 50.3976 274.825 68.2228C274.834 67.3687 274.843 66.5076 274.856 65.6385C231.982 45.3719 193.372 46.4389 157.477 63.5276C157.39 69.9525 157.426 76.4754 157.466 82.9982C157.517 90.4036 157.573 97.8089 157.477 105.105C159.19 104.56 160.903 104.045 162.617 103.543Z" fill="#414A56"/>
<path d="M300.081 258.113H289.895V269.648H300.081V258.113Z" fill="black"/>
<path d="M300.081 235.043H289.895V246.578H300.081V235.043Z" fill="black"/>
<path d="M300.081 211.974H289.895V223.509H300.081V211.974Z" fill="black"/>
<path d="M279.709 258.113H269.523V269.648H279.709V258.113Z" fill="black"/>
<path d="M279.709 235.043H269.523V246.578H279.709V235.043Z" fill="black"/>
<path d="M279.709 211.974H269.523V223.509H279.709V211.974Z" fill="black"/>
<path d="M259.337 258.113H249.151V269.648H259.337V258.113Z" fill="black"/>
<path d="M259.337 235.043H249.151V246.578H259.337V235.043Z" fill="black"/>
<path d="M259.337 211.974H249.151V223.509H259.337V211.974Z" fill="black"/>
<path d="M238.965 258.113H167.663V269.648H238.965V258.113Z" fill="black"/>
<path d="M238.965 235.043H228.779V246.578H238.965V235.043Z" fill="black"/>
<path d="M238.965 211.974H228.779V223.509H238.965V211.974Z" fill="black"/>
<path d="M218.593 235.043H208.407V246.578H218.593V235.043Z" fill="black"/>
<path d="M218.593 211.974H208.407V223.509H218.593V211.974Z" fill="black"/>
<path d="M198.221 235.043H188.035V246.578H198.221V235.043Z" fill="black"/>
<path d="M198.221 211.974H188.035V223.509H198.221V211.974Z" fill="black"/>
<path d="M177.849 235.043H167.663V246.578H177.849V235.043Z" fill="black"/>
<path d="M177.849 211.974H167.663V223.509H177.849V211.974Z" fill="black"/>
<path d="M157.477 258.113H147.291V269.648H157.477V258.113Z" fill="black"/>
<path d="M157.477 235.043H147.291V246.578H157.477V235.043Z" fill="black"/>
<path d="M157.477 211.974H147.291V223.509H157.477V211.974Z" fill="black"/>
<path d="M137.105 258.113H126.919V269.648H137.105V258.113Z" fill="black"/>
<path d="M137.105 235.043H126.919V246.578H137.105V235.043Z" fill="black"/>
<path d="M137.105 211.974H126.919V223.509H137.105V211.974Z" fill="black"/>
<path d="M274.799 88.7829C274.162 88.7829 273.525 88.5141 273.03 87.9737C272.019 86.8675 271.991 85.0416 272.968 83.8962L295.685 57.259L216.872 19.0156L136.599 57.2008L158.053 80.1924C158.106 80.2068 158.159 80.223 158.212 80.2408C159.557 80.7068 160.313 82.3194 159.902 83.842L159.789 84.2572C159.532 85.2117 158.856 85.9471 158.004 86.202C157.154 86.4575 156.245 86.1945 155.605 85.5082L130.262 58.3496C129.636 57.6795 129.353 56.6973 129.507 55.7387C129.661 54.7796 130.232 53.9739 131.026 53.5967L215.896 13.2251C216.533 12.9224 217.251 12.9252 217.885 13.2332L301.085 53.6048C301.854 53.978 302.412 54.756 302.578 55.6851C302.744 56.6142 302.495 57.5762 301.913 58.2585L276.632 87.9028C276.132 88.4882 275.466 88.7829 274.799 88.7829Z" fill="black"/>
<path d="M157.477 107.988C156.921 107.988 156.374 107.782 155.923 107.39C155.287 106.835 154.919 105.971 154.93 105.061C155.023 98.0303 154.973 90.7588 154.925 83.7266L154.92 83.0207C154.884 77.3099 154.84 70.205 154.93 63.4838C154.946 62.3389 155.558 61.3129 156.49 60.8694C174.861 52.1232 193.784 47.6887 212.732 47.6887C233.144 47.6887 254.376 52.8326 275.836 62.9774C276.798 63.4318 277.417 64.5034 277.401 65.6829C277.323 71.4456 277.332 76.9344 277.341 82.2427L277.346 85.8958C277.356 91.7825 277.339 98.1958 277.162 105.188C277.139 106.088 276.745 106.926 276.097 107.45C275.449 107.974 274.621 108.125 273.862 107.858C257.496 102.117 240.587 98.8983 223.606 98.2916C221.585 98.2195 219.532 98.1831 217.502 98.1831C198.373 98.1831 178.41 101.446 158.165 107.881C157.939 107.953 157.707 107.988 157.477 107.988ZM160.001 65.4648C159.942 71.55 159.981 77.8335 160.013 82.9775L160.018 83.6817C160.058 89.4802 160.099 95.4402 160.06 101.314C179.634 95.4079 198.941 92.4158 217.502 92.4158C219.586 92.4158 221.693 92.4533 223.766 92.5271C240.095 93.1107 256.354 96.0446 272.153 101.255C272.252 95.7804 272.261 90.6706 272.253 85.9038L272.248 82.2531C272.24 77.5244 272.232 72.6527 272.285 67.5567C251.993 58.1985 231.964 53.4549 212.731 53.4549C194.993 53.4554 177.261 57.4955 160.001 65.4648Z" fill="black"/>
<path d="M300.081 122.58C298.675 122.58 297.535 121.288 297.535 119.696V56.255C297.535 54.6626 298.675 53.3713 300.081 53.3713C301.488 53.3713 302.628 54.6626 302.628 56.255V119.696C302.628 121.288 301.488 122.58 300.081 122.58Z" fill="black"/>
<path d="M300.081 145.649C293.061 145.649 287.349 139.181 287.349 131.231C287.349 123.28 293.061 116.812 300.081 116.812C307.102 116.812 312.814 123.28 312.814 131.231C312.814 139.181 307.102 145.649 300.081 145.649ZM300.081 122.58C295.869 122.58 292.442 126.461 292.442 131.231C292.442 136.001 295.869 139.882 300.081 139.882C304.294 139.882 307.721 136.001 307.721 131.231C307.721 126.461 304.294 122.58 300.081 122.58Z" fill="black"/>
<path d="M269.523 197.556C268.116 197.556 266.977 196.265 266.977 194.672V174.486C266.977 169.863 265.388 165.518 262.502 162.251C259.617 158.983 255.78 157.184 251.698 157.184H137.105C133.021 157.184 129.184 155.384 126.299 152.118C123.414 148.851 121.825 144.506 121.825 139.882C121.825 130.341 128.68 122.58 137.105 122.58H210.953C216.57 122.58 221.139 117.405 221.139 111.045V79.3244C221.139 77.732 222.279 76.4407 223.686 76.4407C225.093 76.4407 226.232 77.732 226.232 79.3244V111.045C226.232 120.585 219.378 128.347 210.953 128.347H137.105C131.488 128.347 126.918 133.522 126.918 139.882C126.918 142.964 127.978 145.862 129.9 148.04C131.823 150.218 134.382 151.417 137.105 151.417H251.698C257.14 151.417 262.256 153.816 266.103 158.173C269.951 162.53 272.07 168.323 272.07 174.486V194.672C272.07 196.265 270.93 197.556 269.523 197.556Z" fill="black"/>
<path d="M320.453 289.833H106.547C105.14 289.833 104 288.543 104 286.95V194.672C104 193.079 105.14 191.788 106.547 191.788H320.453C321.86 191.788 323 193.079 323 194.672V286.95C323 288.543 321.86 289.833 320.453 289.833ZM109.093 284.066H317.907V197.556H109.093V284.066Z" fill="#3F3D56"/>
</svg>
