<svg width="428" height="332" viewBox="0 0 428 332" fill="none" xmlns="http://www.w3.org/2000/svg">
<rect width="428" height="332" rx="18" fill="#F6F6F6"/>
<rect x="152.852" y="48" width="122.407" height="227.561" rx="23" fill="white"/>
<path d="M170.717 188.621H255.219C256.775 188.621 258.036 190.445 258.036 192.695C258.036 194.945 256.775 196.769 255.219 196.769H170.717C169.162 196.769 167.9 194.945 167.9 192.695C167.901 190.444 169.162 188.621 170.717 188.621Z" fill="#CAD1D8"/>
<path d="M170.717 221.213H238.319C239.874 221.213 241.136 223.037 241.136 225.287C241.136 227.537 239.874 229.362 238.319 229.362H170.717C169.162 229.362 167.9 227.538 167.9 225.287C167.901 223.037 169.162 221.213 170.717 221.213Z" fill="#CAD1D8"/>
<path d="M170.717 204.917H224.235C225.791 204.917 227.052 206.741 227.052 208.991C227.052 211.241 225.791 213.066 224.235 213.066H170.717C169.162 213.066 167.9 211.241 167.9 208.991C167.901 206.741 169.162 204.917 170.717 204.917Z" fill="#CAD1D8"/>
<path d="M254.733 44.1441H173.551C167.572 44.1521 161.84 47.2132 157.612 52.6558C153.384 58.0984 151.006 65.4778 151 73.1748V247.359C151.005 255.056 153.383 262.436 157.611 267.879C161.839 273.322 167.572 276.382 173.551 276.389H254.733C260.712 276.382 266.445 273.322 270.673 267.879C274.901 262.436 277.278 255.056 277.284 247.359V73.1748C277.277 65.4778 274.9 58.0984 270.672 52.6558C266.444 47.2132 260.712 44.1521 254.733 44.1441ZM229.399 55.7563L224.889 67.3686H203.395L198.885 55.7563H229.399ZM268.263 247.359C268.259 251.977 266.833 256.404 264.296 259.67C261.759 262.935 258.32 264.772 254.733 264.777H173.551C169.963 264.772 166.524 262.935 163.988 259.67C161.451 256.404 160.024 251.977 160.02 247.359V73.1748C160.024 68.5567 161.451 64.1293 163.988 60.8638C166.524 57.5984 169.963 55.7616 173.551 55.7563H188.803L196.577 75.7713C196.951 76.7359 197.527 77.5471 198.24 78.114C198.953 78.6809 199.774 78.9811 200.611 78.9809H227.672C228.51 78.9811 229.331 78.6809 230.044 78.114C230.756 77.5471 231.332 76.7359 231.707 75.7713L239.481 55.7563H254.733C258.32 55.7616 261.759 57.5984 264.296 60.8638C266.833 64.1293 268.259 68.5567 268.263 73.1748V247.359Z" fill="#3F3D56"/>
<path d="M213.773 159.554C228.885 159.554 241.136 146.732 241.136 130.916C241.136 115.099 228.885 102.277 213.773 102.277C198.661 102.277 186.41 115.099 186.41 130.916C186.41 146.732 198.661 159.554 213.773 159.554Z" fill="#FC9338" fill-opacity="0.25"/>
<path d="M234.697 149.973C234.257 147.472 232.737 145.333 230.593 144.193L223.864 139.841C223.043 139.335 222.16 138.951 221.24 138.7V135.489C225.394 131.549 225.75 124.783 222.035 120.377C218.319 115.972 211.938 115.595 207.782 119.534C203.626 123.473 203.272 130.24 206.987 134.646C207.237 134.942 207.502 135.223 207.782 135.489V138.7C206.908 138.963 206.071 139.346 205.292 139.841L198.563 144.193C196.417 145.333 194.899 147.471 194.458 149.973C204.332 161.755 221.345 162.818 232.457 152.348C233.246 151.604 233.994 150.81 234.697 149.973Z" fill="#3F3D56"/>
</svg>
