<svg width="428" height="332" viewBox="0 0 428 332" fill="none" xmlns="http://www.w3.org/2000/svg">
<rect width="428" height="332" rx="18" fill="#F6F6F6"/>
<path d="M85.75 42.5H332.249C339.291 42.5 344.999 48.2083 344.999 55.25V284.75C344.999 291.791 339.291 297.5 332.249 297.5H85.75C78.7083 297.5 73 291.791 73 284.75V55.25C73 48.2083 78.7083 42.5 85.75 42.5Z" fill="#3F3D56"/>
<path d="M85.751 63.7462C88.0976 63.7462 89.9999 61.8439 89.9999 59.4973C89.9999 57.1507 88.0976 55.2484 85.751 55.2484C83.4044 55.2484 81.5021 57.1507 81.5021 59.4973C81.5021 61.8439 83.4044 63.7462 85.751 63.7462Z" fill="#FF6868"/>
<path d="M102.751 63.7462C105.098 63.7462 107 61.8439 107 59.4973C107 57.1507 105.098 55.2484 102.751 55.2484C100.404 55.2484 98.5021 57.1507 98.5021 59.4973C98.5021 61.8439 100.404 63.7462 102.751 63.7462Z" fill="#FFF599"/>
<path d="M119.751 63.7462C122.098 63.7462 124 61.8439 124 59.4973C124 57.1507 122.098 55.2484 119.751 55.2484C117.404 55.2484 115.502 57.1507 115.502 59.4973C115.502 61.8439 117.404 63.7462 119.751 63.7462Z" fill="#91FF95"/>
<path d="M85.75 76.4999H332.25C334.597 76.4999 336.5 78.4029 336.5 80.7499V284.75C336.5 287.097 334.597 289 332.25 289H85.75C83.4029 289 81.5 287.097 81.5 284.75V80.7499C81.5 78.4029 83.4029 76.4999 85.75 76.4999Z" fill="white"/>
<rect x="96.1111" y="103.561" width="226.667" height="105.233" fill="#3F3D56"/>
<rect x="96.1111" y="230.197" width="104.889" height="16.0525" rx="8.02623" fill="#3F3D56"/>
<rect x="96.1111" y="259.626" width="226.667" height="16.0525" rx="8.02623" fill="#3F3D56"/>
<rect x="219.667" y="230.197" width="103.111" height="16.0525" rx="8.02623" fill="#3F3D56"/>
<path d="M146.979 182.221C142.883 182.221 139.427 181.474 136.611 179.981C133.837 178.487 131.747 176.269 130.339 173.325C128.931 170.338 128.227 166.669 128.227 162.317V134.861H139.043V163.021C139.043 166.306 139.683 168.866 140.963 170.701C142.285 172.535 144.291 173.453 146.979 173.453C149.667 173.453 151.672 172.535 152.995 170.701C154.317 168.866 154.979 166.306 154.979 163.021V134.861H165.795V162.317C165.795 166.669 165.069 170.338 163.619 173.325C162.211 176.269 160.12 178.487 157.347 179.981C154.573 181.474 151.117 182.221 146.979 182.221ZM171.959 134.861H182.839V181.453H171.959V134.861ZM203.967 134.093H211.455L194.495 183.117H186.943L203.967 134.093ZM233.349 182.221C229.253 182.221 225.797 181.474 222.981 179.981C220.207 178.487 218.117 176.269 216.709 173.325C215.301 170.338 214.597 166.669 214.597 162.317V134.861H225.413V163.021C225.413 166.306 226.053 168.866 227.333 170.701C228.655 172.535 230.661 173.453 233.349 173.453C236.037 173.453 238.042 172.535 239.365 170.701C240.687 168.866 241.349 166.306 241.349 163.021V134.861H252.165V162.317C252.165 166.669 251.439 170.338 249.989 173.325C248.581 176.269 246.49 178.487 243.717 179.981C240.943 181.474 237.487 182.221 233.349 182.221ZM293.337 181.453L280.601 157.581L275.929 156.749L267.545 134.861H255.449L268.185 158.733L272.857 159.565L281.241 181.453H293.337ZM267.545 181.453L275.929 159.565L280.601 158.733L293.337 134.861H281.241L272.857 156.749L268.185 157.581L255.449 181.453H267.545Z" fill="white"/>
</svg>
