<svg width="428" height="332" viewBox="0 0 428 332" fill="none" xmlns="http://www.w3.org/2000/svg">
<rect width="428" height="332" rx="18" fill="#F6F6F6"/>
<path d="M94.375 42.25H333.625C340.459 42.25 345.999 47.7904 345.999 54.6249V277.375C345.999 284.209 340.459 289.75 333.625 289.75H94.375C87.5404 289.75 82 284.209 82 277.375V54.6249C82 47.7904 87.5404 42.25 94.375 42.25Z" fill="#3F3D56"/>
<path d="M94.3759 62.8713C96.6535 62.8713 98.4999 61.025 98.4999 58.7474C98.4999 56.4698 96.6535 54.6234 94.3759 54.6234C92.0983 54.6234 90.252 56.4698 90.252 58.7474C90.252 61.025 92.0983 62.8713 94.3759 62.8713Z" fill="#FF6868"/>
<path d="M110.876 62.8713C113.154 62.8713 115 61.025 115 58.7474C115 56.4698 113.154 54.6234 110.876 54.6234C108.598 54.6234 106.752 56.4698 106.752 58.7474C106.752 61.025 108.598 62.8713 110.876 62.8713Z" fill="#FFF599"/>
<path d="M127.376 62.8713C129.654 62.8713 131.5 61.025 131.5 58.7474C131.5 56.4698 129.654 54.6234 127.376 54.6234C125.098 54.6234 123.252 56.4698 123.252 58.7474C123.252 61.025 125.098 62.8713 127.376 62.8713Z" fill="#91FF95"/>
<path d="M94.375 75.2499H333.625C335.903 75.2499 337.75 77.0969 337.75 79.3749V277.375C337.75 279.653 335.903 281.5 333.625 281.5H94.375C92.097 281.5 90.25 279.653 90.25 277.375V79.3749C90.25 77.0969 92.097 75.2499 94.375 75.2499Z" fill="white"/>
<path d="M143.875 54.625H333.625C335.903 54.625 337.75 56.4719 337.75 58.75C337.75 61.028 335.903 62.875 333.625 62.875H143.875C141.597 62.875 139.75 61.028 139.75 58.75C139.75 56.4719 141.597 54.625 143.875 54.625Z" fill="#E2E5E7"/>
<path d="M139.747 137.124C148.86 137.124 156.247 129.736 156.247 120.624C156.247 111.511 148.86 104.124 139.747 104.124C130.635 104.124 123.247 111.511 123.247 120.624C123.247 129.736 130.635 137.124 139.747 137.124Z" fill="#FEE4CD"/>
<path d="M152.125 131.515C151.855 130.069 150.924 128.833 149.609 128.174L145.485 125.657C144.981 125.364 144.44 125.143 143.876 124.997V123.141C146.423 120.863 146.641 116.952 144.363 114.404C142.085 111.857 138.174 111.639 135.626 113.917C133.078 116.194 132.861 120.106 135.139 122.654C135.292 122.825 135.454 122.987 135.626 123.141V124.997C135.09 125.149 134.577 125.371 134.1 125.657L129.975 128.174C128.659 128.833 127.729 130.069 127.458 131.515C133.511 138.327 143.94 138.941 150.752 132.888C151.236 132.458 151.694 131.999 152.125 131.515Z" fill="#3F3D56"/>
<path d="M181 120.625H304.75C307.028 120.625 308.875 122.472 308.875 124.75C308.875 127.028 307.028 128.876 304.75 128.876H181C178.722 128.876 176.874 127.029 176.874 124.75C176.875 122.472 178.722 120.625 181 120.625Z" fill="#CAD1D8"/>
<path d="M181 153.625H280C282.278 153.625 284.125 155.472 284.125 157.75C284.125 160.028 282.278 161.876 280 161.876H181C178.722 161.876 176.874 160.029 176.874 157.75C176.875 155.472 178.722 153.625 181 153.625Z" fill="#CAD1D8"/>
<path d="M181 137.125H259.375C261.653 137.125 263.5 138.972 263.5 141.25C263.5 143.528 261.653 145.376 259.375 145.376H181C178.722 145.376 176.874 143.529 176.874 141.25C176.875 138.972 178.722 137.125 181 137.125Z" fill="#CAD1D8"/>
<path d="M181 112.371C183.278 112.371 185.124 110.525 185.124 108.247C185.124 105.97 183.278 104.123 181 104.123C178.722 104.123 176.876 105.97 176.876 108.247C176.876 110.525 178.722 112.371 181 112.371Z" fill="#3CB54A"/>
<path d="M230.5 108.25C230.5 110.528 228.653 112.375 226.375 112.375H197.5C195.222 112.375 193.374 110.528 193.374 108.25C193.374 105.972 195.221 104.124 197.5 104.124H226.375C228.653 104.125 230.5 105.972 230.5 108.25Z" fill="#595A66"/>
<path d="M139.747 223.747C148.86 223.747 156.247 216.36 156.247 207.247C156.247 198.134 148.86 190.747 139.747 190.747C130.635 190.747 123.247 198.134 123.247 207.247C123.247 216.36 130.635 223.747 139.747 223.747Z" fill="#FEE4CD"/>
<path d="M152.125 218.14C151.855 216.694 150.924 215.457 149.609 214.798L145.485 212.282C144.981 211.989 144.44 211.768 143.876 211.622V209.766C146.423 207.488 146.641 203.576 144.363 201.029C142.085 198.482 138.174 198.264 135.626 200.541C133.078 202.819 132.861 206.731 135.139 209.279C135.292 209.45 135.454 209.612 135.626 209.766V211.622C135.09 211.774 134.577 211.996 134.1 212.282L129.975 214.798C128.659 215.457 127.729 216.693 127.458 218.14C133.511 224.952 143.94 225.566 150.752 219.513C151.236 219.083 151.694 218.624 152.125 218.14Z" fill="#3F3D56"/>
<path d="M181 207.25H304.75C307.028 207.25 308.875 209.097 308.875 211.375C308.875 213.653 307.028 215.5 304.75 215.5H181C178.722 215.5 176.874 213.653 176.874 211.375C176.875 209.097 178.722 207.25 181 207.25Z" fill="#CAD1D8"/>
<path d="M181 240.25H280C282.278 240.25 284.125 242.097 284.125 244.375C284.125 246.653 282.278 248.5 280 248.5H181C178.722 248.5 176.874 246.653 176.874 244.375C176.875 242.097 178.722 240.25 181 240.25Z" fill="#CAD1D8"/>
<path d="M181 223.75H259.375C261.653 223.75 263.5 225.597 263.5 227.875C263.5 230.153 261.653 232 259.375 232H181C178.722 232 176.874 230.153 176.874 227.875C176.875 225.597 178.722 223.75 181 223.75Z" fill="#CAD1D8"/>
<path d="M181 199C183.278 199 185.124 197.153 185.124 194.876C185.124 192.598 183.278 190.752 181 190.752C178.722 190.752 176.876 192.598 176.876 194.876C176.876 197.153 178.722 199 181 199Z" fill="#3CB54A"/>
<path d="M230.5 194.875C230.5 197.153 228.653 199 226.375 199H197.5C195.222 199 193.374 197.153 193.374 194.875C193.374 192.597 195.221 190.75 197.5 190.75H226.375C228.653 190.75 230.5 192.597 230.5 194.875Z" fill="#595A66"/>
</svg>
