<svg width="428" height="332" viewBox="0 0 428 332" fill="none" xmlns="http://www.w3.org/2000/svg">
<rect width="428" height="332" rx="18" fill="#F6F6F6"/>
<g clip-path="url(#clip0_592_116)">
<path d="M189.381 55.9609L224.991 35.3885C226.871 34.292 229.168 35.6495 229.168 37.7903V49.0686H251.203C275.691 49.0686 295.637 69.0144 295.637 93.5029H277.049C277.049 79.2484 265.457 67.6569 251.203 67.6569H229.168V78.9351C229.168 81.0759 226.871 82.4335 224.991 81.337L189.381 60.7646C187.553 59.7203 187.553 57.0052 189.381 55.9609ZM238.358 265.235L202.748 244.663C200.868 243.567 198.571 244.924 198.571 247.065V258.343H176.536C162.282 258.343 150.69 246.752 150.69 232.497H132.102C132.102 256.986 152.048 276.931 176.536 276.931H198.571V288.21C198.571 290.35 200.868 291.708 202.748 290.612L238.358 270.039C240.185 268.995 240.185 266.28 238.358 265.235ZM266.762 152.087C261.228 152.087 256.685 156.578 256.685 162.165C256.685 167.699 261.176 172.242 266.762 172.242C272.297 172.242 276.84 167.751 276.84 162.165C276.84 156.578 272.297 152.087 266.762 152.087ZM161.185 152.087C155.651 152.087 151.108 156.578 151.108 162.165C151.108 167.699 155.598 172.242 161.185 172.242C166.72 172.242 171.263 167.751 171.263 162.165C171.263 156.578 166.72 152.087 161.185 152.087ZM309.578 119.558V204.771C309.578 213.909 302.164 221.323 293.026 221.323H134.974C125.836 221.323 118.422 213.909 118.422 204.771V119.558C118.422 110.42 125.836 103.006 134.974 103.006H293.026C302.111 102.954 309.578 110.42 309.578 119.558ZM295.428 137.467C294.123 137.781 292.713 137.989 291.303 137.989C282.061 137.989 274.542 130.471 274.542 121.229C274.542 119.819 274.699 118.461 275.064 117.156H151.943C152.152 118.148 152.257 119.192 152.257 120.237C152.257 129.478 144.738 136.997 135.496 136.997C134.504 136.997 133.512 136.893 132.572 136.736V187.645C133.512 187.488 134.504 187.384 135.496 187.384C144.738 187.384 152.257 194.903 152.257 204.145C152.257 205.189 152.152 206.233 151.943 207.225H274.595C274.49 206.547 274.438 205.868 274.438 205.137C274.438 195.895 281.957 188.376 291.199 188.376C292.608 188.376 294.018 188.585 295.324 188.898V137.467H295.428V137.467ZM250.263 162.165C250.263 182.215 234.024 198.453 213.974 198.453C193.924 198.453 177.685 182.215 177.685 162.165C177.685 142.114 193.924 125.876 213.974 125.876C234.024 125.823 250.263 142.114 250.263 162.165ZM210.58 152.714C210.58 151.408 210.893 150.364 211.52 149.529C212.146 148.693 213.138 148.276 214.496 148.276C215.801 148.276 216.898 148.798 217.681 149.79C218.308 150.625 218.673 151.722 218.83 153.236C218.882 153.915 219.509 154.385 220.187 154.385L226.975 154.28C227.706 154.28 228.333 153.654 228.281 152.923C228.124 149.946 227.132 147.44 225.409 145.456C223.633 143.367 221.232 142.01 218.255 141.436V136.319C218.255 135.692 217.733 135.17 217.107 135.17H212.982C212.355 135.17 211.833 135.692 211.833 136.319V141.279C208.7 141.749 206.142 142.898 204.158 144.777C202.017 146.866 200.92 149.477 200.92 152.662C200.92 156.212 201.912 158.875 203.949 160.703C205.985 162.53 209.222 164.305 213.713 166.133C215.54 166.916 216.846 167.751 217.524 168.535C218.255 169.37 218.621 170.519 218.621 172.033C218.621 173.338 218.255 174.383 217.577 175.166C216.898 175.949 215.854 176.367 214.496 176.367C212.877 176.367 211.572 175.845 210.528 174.8C209.692 173.965 209.17 172.66 209.066 170.937C209.014 170.258 208.387 169.736 207.708 169.788L200.92 169.892C200.189 169.892 199.563 170.519 199.615 171.25C199.772 174.853 200.973 177.62 203.113 179.604C205.463 181.745 208.387 182.998 211.833 183.416V188.063C211.833 188.689 212.355 189.212 212.982 189.212H217.107C217.733 189.212 218.255 188.689 218.255 188.063V183.259C221.075 182.737 223.32 181.64 225.096 179.917C227.184 177.933 228.228 175.27 228.228 171.981C228.228 168.535 227.184 165.872 225.148 163.992C223.059 162.112 219.874 160.285 215.488 158.405C213.608 157.57 212.303 156.734 211.624 155.951C210.893 155.063 210.58 154.019 210.58 152.714Z" fill="#3F3D56"/>
</g>
<defs>
<clipPath id="clip0_592_116">
<rect width="256" height="256" fill="white" transform="translate(86 35)"/>
</clipPath>
</defs>
</svg>
