<svg width="309" height="180" viewBox="0 0 309 180" fill="none" xmlns="http://www.w3.org/2000/svg">
<g clip-path="url(#clip0_205_938)">
<g opacity="0.1">
<path d="M227.187 177.345C230.485 177.345 233.159 173.835 233.159 169.505C233.159 165.175 230.485 161.665 227.187 161.665C223.889 161.665 221.215 165.175 221.215 169.505C221.215 173.835 223.889 177.345 227.187 177.345Z" fill="#3F3D56"/>
<path d="M231.912 135.964C232.749 134.507 233.183 132.853 233.169 131.172C233.169 126.832 230.496 123.331 227.198 123.331C223.899 123.331 221.228 126.841 221.228 131.172C221.212 132.852 221.642 134.506 222.475 135.964C221.657 137.427 221.228 139.077 221.228 140.754C221.228 142.432 221.657 144.081 222.475 145.545C221.657 147.009 221.228 148.659 221.228 150.337C221.228 152.015 221.657 153.665 222.475 155.129C221.642 156.587 221.212 158.241 221.228 159.921C221.228 164.26 223.902 167.761 227.198 167.761C230.493 167.761 233.169 164.252 233.169 159.921C233.186 158.241 232.756 156.587 231.923 155.129C232.74 153.665 233.169 152.015 233.169 150.337C233.169 148.659 232.74 147.009 231.923 145.545C232.74 144.081 233.169 142.432 233.169 140.754C233.169 139.077 232.74 137.427 231.923 135.964H231.912Z" fill="#3F3D56"/>
<path d="M227.187 129.43C230.485 129.43 233.159 125.92 233.159 121.59C233.159 117.26 230.485 113.75 227.187 113.75C223.889 113.75 221.215 117.26 221.215 121.59C221.215 125.92 223.889 129.43 227.187 129.43Z" fill="#3F3D56"/>
<path d="M227.187 119.846C230.485 119.846 233.159 116.336 233.159 112.006C233.159 107.676 230.485 104.166 227.187 104.166C223.889 104.166 221.215 107.676 221.215 112.006C221.215 116.336 223.889 119.846 227.187 119.846Z" fill="#3F3D56"/>
<path d="M249.538 46.4258C250.353 45.3836 251.096 44.2862 251.761 43.1417L236.081 40.5572L253.05 40.6847C254.676 37.1317 255.563 33.2833 255.656 29.3748C255.749 25.4663 255.046 21.5799 253.591 17.9531L230.823 29.7935L251.823 14.3191C249.855 10.9121 247.209 7.94786 244.05 5.61098C240.89 3.27411 237.285 1.61459 233.459 0.735735C229.633 -0.143121 225.667 -0.222504 221.809 0.50253C217.951 1.22756 214.282 2.74149 211.033 4.95008C207.783 7.15867 205.021 10.0146 202.919 13.3402C200.817 16.6658 199.42 20.3898 198.815 24.2804C198.21 28.171 198.409 32.1449 199.401 35.9548C200.393 39.7647 202.156 43.329 204.581 46.4258C203.31 48.0472 202.217 49.8011 201.32 51.6572L221.685 62.2718L199.971 54.9495C198.444 59.4692 198.064 64.2998 198.866 69.004C199.669 73.7081 201.628 78.1371 204.567 81.89C201.249 86.1218 199.185 91.2049 198.611 96.5581C198.037 101.911 198.976 107.318 201.321 112.162C203.666 117.005 207.322 121.088 211.871 123.945C216.42 126.802 221.679 128.317 227.046 128.317C232.413 128.317 237.672 126.802 242.221 123.945C246.771 121.088 250.427 117.005 252.772 112.162C255.116 107.318 256.055 101.911 255.481 96.5581C254.907 91.2049 252.843 86.1218 249.525 81.89C253.49 76.8332 255.646 70.5862 255.646 64.1525C255.646 57.7188 253.49 51.4718 249.525 46.415L249.538 46.4258Z" fill="#FF7700"/>
<path opacity="0.1" d="M198.46 64.1646C198.45 70.5995 200.607 76.8492 204.581 81.9008C201.263 86.1326 199.198 91.2157 198.624 96.5689C198.05 101.922 198.989 107.329 201.334 112.172C203.679 117.015 207.335 121.099 211.884 123.956C216.434 126.812 221.693 128.327 227.06 128.327C232.427 128.327 237.686 126.812 242.235 123.956C246.784 121.099 250.44 117.015 252.785 112.172C255.13 107.329 256.069 101.922 255.495 96.5689C254.921 91.2157 252.857 86.1326 249.539 81.9008C253.372 77.0193 198.46 60.9428 198.46 64.1646Z" fill="black"/>
</g>
<g opacity="0.1">
<path d="M59.6941 168.96C61.7007 168.96 63.3274 166.823 63.3274 164.187C63.3274 161.551 61.7007 159.414 59.6941 159.414C57.6874 159.414 56.0607 161.551 56.0607 164.187C56.0607 166.823 57.6874 168.96 59.6941 168.96Z" fill="#3F3D56"/>
<path d="M62.584 143.768C63.0912 142.881 63.3534 141.874 63.3437 140.85C63.3437 138.214 61.7216 136.077 59.7076 136.077C57.6935 136.077 56.0742 138.214 56.0742 140.85C56.0636 141.873 56.3249 142.881 56.8311 143.768C56.3349 144.66 56.0744 145.664 56.0744 146.685C56.0744 147.706 56.3349 148.71 56.8311 149.602C56.3349 150.493 56.0744 151.497 56.0744 152.519C56.0744 153.54 56.3349 154.544 56.8311 155.435C56.3245 156.322 56.0632 157.329 56.0742 158.351C56.0742 160.989 57.6962 163.126 59.7076 163.126C61.7189 163.126 63.3437 160.989 63.3437 158.351C63.3538 157.328 63.0916 156.322 62.584 155.435C63.0818 154.544 63.3431 153.54 63.3431 152.519C63.3431 151.497 63.0818 150.493 62.584 149.602C63.0818 148.711 63.3431 147.707 63.3431 146.685C63.3431 145.664 63.0818 144.66 62.584 143.768Z" fill="#3F3D56"/>
<path d="M59.6941 139.79C61.7007 139.79 63.3274 137.653 63.3274 135.017C63.3274 132.381 61.7007 130.244 59.6941 130.244C57.6874 130.244 56.0607 132.381 56.0607 135.017C56.0607 137.653 57.6874 139.79 59.6941 139.79Z" fill="#3F3D56"/>
<path d="M59.6941 133.957C61.7007 133.957 63.3274 131.82 63.3274 129.184C63.3274 126.548 61.7007 124.411 59.6941 124.411C57.6874 124.411 56.0607 126.548 56.0607 129.184C56.0607 131.82 57.6874 133.957 59.6941 133.957Z" fill="#3F3D56"/>
<path d="M46.0932 89.2583C45.597 88.6243 45.1453 87.9565 44.7415 87.2596L54.2926 85.6867L43.9629 85.7653C42.974 83.6035 42.4344 81.2621 42.3773 78.8842C42.3201 76.5063 42.7465 74.1416 43.6304 71.9344L57.4799 79.1509L44.7009 69.7133C45.8995 67.6406 47.5104 65.8375 49.4335 64.4162C51.3566 62.9948 53.5506 61.9857 55.8792 61.4515C58.2077 60.9173 60.6209 60.8695 62.9687 61.3111C65.3164 61.7526 67.5485 62.6741 69.526 64.0182C71.5035 65.3622 73.1841 67.1001 74.4634 69.1238C75.7426 71.1474 76.593 73.4134 76.9617 75.7809C77.3305 78.1484 77.2096 80.5666 76.6067 82.8852C76.0038 85.2039 74.9317 87.3732 73.4571 89.2583C74.2306 90.244 74.8959 91.3106 75.4414 92.4394L63.0436 98.9047L76.2633 94.4544C77.1917 97.2068 77.4213 100.148 76.9313 103.012C76.4414 105.876 75.2473 108.572 73.4571 110.856C75.4769 113.432 76.7332 116.527 77.0826 119.785C77.4319 123.044 76.8602 126.336 75.4327 129.284C74.0052 132.232 71.7795 134.718 69.0102 136.457C66.2409 138.196 63.0396 139.118 59.7724 139.118C56.5053 139.118 53.304 138.196 50.5347 136.457C47.7653 134.718 45.5397 132.232 44.1122 129.284C42.6847 126.336 42.1129 123.044 42.4623 119.785C42.8116 116.527 44.068 113.432 46.0878 110.856C43.6743 107.777 42.3622 103.974 42.3622 100.057C42.3622 96.1405 43.6743 92.3372 46.0878 89.2583H46.0932Z" fill="#FF7700"/>
<path opacity="0.1" d="M77.1824 100.057C77.1882 103.975 75.8755 107.78 73.4571 110.856C75.4768 113.432 76.7332 116.527 77.0826 119.785C77.4319 123.044 76.8602 126.336 75.4327 129.284C74.0051 132.232 71.7795 134.718 69.0102 136.457C66.2408 138.196 63.0396 139.118 59.7724 139.118C56.5052 139.118 53.304 138.196 50.5347 136.457C47.7653 134.718 45.5397 132.232 44.1122 129.284C42.6847 126.336 42.1129 123.044 42.4623 119.785C42.8116 116.527 44.068 113.432 46.0877 110.856C43.7547 107.897 77.1824 98.0965 77.1824 100.057Z" fill="black"/>
</g>
<g opacity="0.1">
<path d="M141.607 173.114C144.293 173.114 146.471 170.255 146.471 166.728C146.471 163.2 144.293 160.341 141.607 160.341C138.921 160.341 136.744 163.2 136.744 166.728C136.744 170.255 138.921 173.114 141.607 173.114Z" fill="#3F3D56"/>
<path d="M145.457 139.402C146.135 138.214 146.485 136.866 146.471 135.497C146.471 131.971 144.308 129.11 141.605 129.11C138.901 129.11 136.739 131.971 136.739 135.497C136.724 136.866 137.075 138.215 137.755 139.402C137.089 140.595 136.739 141.939 136.739 143.306C136.739 144.673 137.089 146.017 137.755 147.21C137.089 148.402 136.739 149.746 136.739 151.112C136.739 152.479 137.089 153.823 137.755 155.015C137.075 156.202 136.724 157.551 136.739 158.92C136.739 162.446 138.918 165.307 141.605 165.307C144.292 165.307 146.471 162.446 146.471 158.92C146.485 157.551 146.135 156.203 145.457 155.015C146.122 153.822 146.471 152.479 146.471 151.112C146.471 149.746 146.122 148.402 145.457 147.21C146.122 146.017 146.471 144.673 146.471 143.306C146.471 141.939 146.122 140.595 145.457 139.402Z" fill="#3F3D56"/>
<path d="M141.607 134.079C144.293 134.079 146.471 131.219 146.471 127.692C146.471 124.165 144.293 121.305 141.607 121.305C138.921 121.305 136.744 124.165 136.744 127.692C136.744 131.219 138.921 134.079 141.607 134.079Z" fill="#3F3D56"/>
<path d="M141.607 126.271C144.293 126.271 146.471 123.411 146.471 119.884C146.471 116.357 144.293 113.498 141.607 113.498C138.921 113.498 136.744 116.357 136.744 119.884C136.744 123.411 138.921 126.271 141.607 126.271Z" fill="#3F3D56"/>
<path d="M123.411 66.4589C122.746 65.6108 122.141 64.7173 121.599 63.785L134.378 61.6805L120.559 61.7835C119.233 58.8893 118.509 55.7541 118.432 52.5697C118.356 49.3854 118.927 46.2188 120.113 43.2637L138.658 52.9128L121.553 40.3022C123.151 37.5164 125.305 35.0911 127.88 33.1779C130.454 31.2647 133.394 29.9048 136.517 29.183C139.639 28.4612 142.876 28.3931 146.025 28.9829C149.175 29.5728 152.169 30.8079 154.822 32.6111C157.474 34.4144 159.727 36.747 161.44 39.4631C163.153 42.1793 164.289 45.2207 164.778 48.3972C165.266 51.5738 165.096 54.8173 164.278 57.925C163.461 61.0327 162.013 63.9379 160.026 66.4589C161.061 67.7803 161.951 69.2096 162.68 70.7221L146.092 79.3678L163.781 73.4015C165.023 77.0846 165.331 81.0204 164.675 84.8526C164.019 88.6849 162.421 92.2926 160.026 95.3493C162.729 98.7968 164.41 102.938 164.877 107.298C165.345 111.659 164.58 116.064 162.669 120.009C160.759 123.954 157.781 127.28 154.075 129.608C150.369 131.935 146.085 133.169 141.713 133.169C137.341 133.169 133.057 131.935 129.351 129.608C125.645 127.28 122.667 123.954 120.756 120.009C118.846 116.064 118.081 111.659 118.548 107.298C119.016 102.938 120.697 98.7968 123.4 95.3493C120.171 91.2291 118.415 86.1399 118.415 80.8987C118.415 75.6575 120.171 70.5683 123.4 66.4481L123.411 66.4589Z" fill="#FF7700"/>
<path opacity="0.1" d="M165.011 80.911C165.019 86.1532 163.262 91.2445 160.026 95.3602C162.729 98.8077 164.41 102.949 164.877 107.309C165.345 111.67 164.58 116.075 162.669 120.02C160.759 123.965 157.781 127.291 154.075 129.619C150.369 131.946 146.085 133.18 141.713 133.18C137.341 133.18 133.057 131.946 129.351 129.619C125.645 127.291 122.667 123.965 120.756 120.02C118.846 116.075 118.081 111.67 118.548 107.309C119.016 102.949 120.697 98.8077 123.4 95.3602C120.277 91.3845 165.011 78.2858 165.011 80.911Z" fill="black"/>
</g>
<path d="M309 172.54C309 174.403 295.423 176.106 272.977 177.421C268.895 177.657 264.521 177.882 259.882 178.094C255.873 178.274 251.672 178.445 247.278 178.606C243.021 178.758 238.601 178.899 234.018 179.029C219.544 179.444 203.543 179.742 186.544 179.892C182.418 179.93 178.238 179.959 174.002 179.978C169.59 179.998 165.128 180.007 160.615 180.006C78.6638 180.006 12.2329 176.667 12.2329 172.548C12.2329 168.428 78.6638 165.09 160.615 165.09C195.897 165.09 228.298 165.711 253.764 166.741L256.548 166.855H256.565C288.643 168.219 309 170.272 309 172.54Z" fill="#3F3D56"/>
<path opacity="0.15" d="M309 172.54C309 174.403 295.423 176.106 272.977 177.421C268.895 177.657 264.521 177.882 259.882 178.094C255.873 178.274 251.672 178.445 247.278 178.606C243.021 178.758 238.601 178.899 234.018 179.029C219.544 179.444 203.543 179.742 186.544 179.892C182.418 179.93 178.238 179.959 174.002 179.978C169.59 179.998 165.128 180.007 160.615 180.006C78.6638 180.006 12.2329 176.667 12.2329 172.548C12.2329 168.428 78.6638 165.09 160.615 165.09C195.897 165.09 228.298 165.711 253.764 166.741L256.548 166.855H256.565C288.643 168.219 309 170.272 309 172.54Z" fill="black"/>
<path d="M296.767 171.227C296.767 172.783 283.191 174.21 260.744 175.295C256.665 175.493 252.288 175.68 247.651 175.856C243.641 176.008 239.44 176.151 235.048 176.285C230.791 176.411 226.371 176.53 221.788 176.64C207.311 176.987 191.31 177.236 174.311 177.361C170.189 177.392 166.008 177.415 161.769 177.432C157.358 177.448 152.896 177.456 148.385 177.456C66.4336 177.456 0 174.666 0 171.219C0 167.772 66.4336 164.981 148.385 164.981C183.664 164.981 216.065 165.499 241.531 166.362L244.315 166.457H244.334C276.424 167.615 296.767 169.32 296.767 171.227Z" fill="#3F3D56"/>
<path d="M38.3236 114.566L34.5983 103.125L123.811 102.146L127.466 113.473L38.3236 114.566Z" fill="#3F3D56"/>
<path opacity="0.15" d="M38.3236 114.566L34.5983 103.125L123.811 102.146L127.466 113.473L38.3236 114.566Z" fill="black"/>
<path d="M32.3761 114.566L28.6508 103.125L117.863 102.146L121.518 113.473L32.3761 114.566Z" fill="#3F3D56"/>
<path d="M184.673 96.9845C175.449 96.9845 168.179 93.3117 162.864 85.9659C157.549 78.6201 154.892 69.7213 154.892 59.2695C154.892 48.7472 157.462 39.8664 162.602 32.6273C167.742 25.3882 174.993 21.7723 184.354 21.7796C194.281 21.7796 201.76 25.5935 206.792 33.2213C211.824 40.8491 214.341 49.6773 214.343 59.7061C214.343 69.6626 211.738 78.3661 206.53 85.8167C201.321 93.2674 194.036 96.99 184.673 96.9845ZM184.943 88.7212C191.011 88.7212 195.547 86.0681 198.549 80.7617C201.552 75.4553 203.053 68.7658 203.053 60.6933C203.053 51.7077 201.517 44.3502 198.444 38.6207C195.371 32.8913 190.658 30.0257 184.305 30.0239C172.23 30.0239 166.192 39.6459 166.192 58.8898C166.192 78.7792 172.441 88.723 184.938 88.7212H184.943ZM187.982 167.853H174.64L261.982 23.2521H275.072L187.982 167.853ZM265.251 169.337C255.888 169.337 248.589 165.63 243.353 158.218C238.117 150.805 235.489 141.905 235.467 131.518C235.467 121.067 238.019 112.221 243.123 104.982C248.227 97.743 255.496 94.1271 264.929 94.1343C274.786 94.1343 282.213 97.9482 287.21 105.576C292.208 113.204 294.708 122.031 294.71 132.058C294.71 141.95 292.123 150.637 286.948 158.12C281.774 165.603 274.54 169.342 265.245 169.337H265.251ZM265.407 160.862C271.447 160.862 275.958 158.254 278.941 153.038C281.924 147.822 283.415 141.159 283.415 133.051C283.415 124.372 281.905 117.095 278.887 111.217C275.868 105.339 271.165 102.396 264.778 102.387C252.632 102.387 246.559 112.009 246.559 131.253C246.556 150.994 252.837 160.864 265.402 160.862H265.407Z" fill="#3F3D56"/>
<path d="M184.673 96.9845C175.449 96.9845 168.179 93.3117 162.864 85.9659C157.549 78.6201 154.892 69.7213 154.892 59.2695C154.892 48.7472 157.462 39.8664 162.602 32.6273C167.742 25.3882 174.993 21.7723 184.354 21.7796C194.281 21.7796 201.76 25.5935 206.792 33.2213C211.824 40.8491 214.341 49.6773 214.343 59.7061C214.343 69.6626 211.738 78.3661 206.53 85.8167C201.321 93.2674 194.036 96.99 184.673 96.9845ZM184.943 88.7212C191.011 88.7212 195.547 86.0681 198.549 80.7617C201.552 75.4553 203.053 68.7658 203.053 60.6933C203.053 51.7077 201.517 44.3502 198.444 38.6207C195.371 32.8913 190.658 30.0257 184.305 30.0239C172.23 30.0239 166.192 39.6459 166.192 58.8898C166.192 78.7792 172.441 88.723 184.938 88.7212H184.943ZM187.982 167.853H174.64L261.982 23.2521H275.072L187.982 167.853ZM265.251 169.337C255.888 169.337 248.589 165.63 243.353 158.218C238.117 150.805 235.489 141.905 235.467 131.518C235.467 121.067 238.019 112.221 243.123 104.982C248.227 97.743 255.496 94.1271 264.929 94.1343C274.786 94.1343 282.213 97.9482 287.21 105.576C292.208 113.204 294.708 122.031 294.71 132.058C294.71 141.95 292.123 150.637 286.948 158.12C281.774 165.603 274.54 169.342 265.245 169.337H265.251ZM265.407 160.862C271.447 160.862 275.958 158.254 278.941 153.038C281.924 147.822 283.415 141.159 283.415 133.051C283.415 124.372 281.905 117.095 278.887 111.217C275.868 105.339 271.165 102.396 264.778 102.387C252.632 102.387 246.559 112.009 246.559 131.253C246.556 150.994 252.837 160.864 265.402 160.862H265.407Z" fill="#3F3D56"/>
<path opacity="0.15" d="M184.673 96.9845C175.449 96.9845 168.179 93.3117 162.864 85.9659C157.549 78.6201 154.892 69.7213 154.892 59.2695C154.892 48.7472 157.462 39.8664 162.602 32.6273C167.742 25.3882 174.993 21.7723 184.354 21.7796C194.281 21.7796 201.76 25.5935 206.792 33.2213C211.824 40.8491 214.341 49.6773 214.343 59.7061C214.343 69.6626 211.738 78.3661 206.53 85.8167C201.321 93.2674 194.036 96.99 184.673 96.9845ZM184.943 88.7212C191.011 88.7212 195.547 86.0681 198.549 80.7617C201.552 75.4553 203.053 68.7658 203.053 60.6933C203.053 51.7077 201.517 44.3502 198.444 38.6207C195.371 32.8913 190.658 30.0257 184.305 30.0239C172.23 30.0239 166.192 39.6459 166.192 58.8898C166.192 78.7792 172.441 88.723 184.938 88.7212H184.943ZM187.982 167.853H174.64L261.982 23.2521H275.072L187.982 167.853ZM265.251 169.337C255.888 169.337 248.589 165.63 243.353 158.218C238.117 150.805 235.489 141.905 235.467 131.518C235.467 121.067 238.019 112.221 243.123 104.982C248.227 97.743 255.496 94.1271 264.929 94.1343C274.786 94.1343 282.213 97.9482 287.21 105.576C292.208 113.204 294.708 122.031 294.71 132.058C294.71 141.95 292.123 150.637 286.948 158.12C281.774 165.603 274.54 169.342 265.245 169.337H265.251ZM265.407 160.862C271.447 160.862 275.958 158.254 278.941 153.038C281.924 147.822 283.415 141.159 283.415 133.051C283.415 124.372 281.905 117.095 278.887 111.217C275.868 105.339 271.165 102.396 264.778 102.387C252.632 102.387 246.559 112.009 246.559 131.253C246.556 150.994 252.837 160.864 265.402 160.862H265.407Z" fill="black"/>
<path d="M176.292 96.9845C167.068 96.9845 159.799 93.3117 154.484 85.9659C149.169 78.6201 146.511 69.7213 146.511 59.2695C146.511 48.7472 149.082 39.8664 154.222 32.6273C159.362 25.3882 166.612 21.7723 175.973 21.7796C185.9 21.7796 193.38 25.5935 198.412 33.2213C203.444 40.8491 205.96 49.6773 205.962 59.7061C205.962 69.6626 203.358 78.3661 198.149 85.8167C192.941 93.2674 185.655 96.99 176.292 96.9845ZM176.563 88.7212C182.631 88.7212 187.166 86.0681 190.169 80.7617C193.171 75.4553 194.673 68.7658 194.673 60.6933C194.673 51.7077 193.136 44.3502 190.063 38.6207C186.991 32.8913 182.278 30.0257 175.925 30.0239C163.849 30.0239 157.812 39.6459 157.812 58.8898C157.812 78.7792 164.06 88.723 176.557 88.7212H176.563ZM179.601 167.853H166.26L253.602 23.2521H266.692L179.601 167.853ZM256.87 169.337C247.507 169.337 240.208 165.63 234.973 158.218C229.737 150.805 227.108 141.905 227.087 131.518C227.087 121.067 229.639 112.221 234.743 104.982C239.847 97.743 247.115 94.1271 256.548 94.1343C266.405 94.1343 273.832 97.9482 278.83 105.576C283.828 113.204 286.327 122.031 286.329 132.058C286.329 141.95 283.742 150.637 278.568 158.12C273.393 165.603 266.159 169.342 256.865 169.337H256.87ZM257.027 160.862C263.066 160.862 267.577 158.254 270.56 153.038C273.543 147.822 275.034 141.159 275.034 133.051C275.034 124.372 273.525 117.095 270.506 111.217C267.487 105.339 262.783 102.396 256.392 102.387C244.246 102.387 238.173 112.009 238.173 131.253C238.173 150.994 244.456 160.864 257.022 160.862H257.027Z" fill="#3F3D56"/>
<path d="M205.478 171.482C206.592 169.41 205.327 166.871 203.872 165.022C202.418 163.172 200.645 161.252 200.682 158.896C200.736 155.514 204.316 153.515 207.171 151.72C209.294 150.389 211.252 148.811 213.004 147.017C213.738 146.326 214.345 145.511 214.797 144.609C215.389 143.286 215.37 141.78 215.338 140.332C215.213 135.501 214.975 130.678 214.624 125.861" stroke="#3F3D56" stroke-width="4" stroke-miterlimit="10"/>
<path d="M220.063 125.596C220.023 124.712 219.761 123.853 219.302 123.097C218.843 122.342 218.202 121.714 217.438 121.273L216.259 123.61L216.295 120.779C215.732 120.614 215.147 120.544 214.562 120.57C213.522 120.619 212.521 120.976 211.684 121.596C210.847 122.216 210.212 123.071 209.859 124.053C209.506 125.035 209.451 126.1 209.702 127.113C209.952 128.126 210.497 129.041 211.266 129.744C212.035 130.447 212.995 130.905 214.024 131.061C215.053 131.216 216.105 131.062 217.046 130.618C217.988 130.174 218.777 129.46 219.314 128.566C219.851 127.672 220.112 126.638 220.063 125.596Z" fill="#FF7700"/>
<path d="M210.682 161.323C210.13 162.399 209.226 163.252 208.122 163.738C207.018 164.225 205.78 164.316 204.617 163.996C203.453 163.676 202.435 162.965 201.733 161.981C201.03 160.997 200.686 159.801 200.758 158.593C200.831 157.385 201.315 156.239 202.129 155.347C202.944 154.454 204.04 153.87 205.233 153.692C206.426 153.514 207.644 153.752 208.682 154.368C209.721 154.984 210.517 155.939 210.936 157.073L207.649 159.755L211.272 158.909C211.27 159.749 211.068 160.577 210.682 161.323Z" fill="#FF7700"/>
<path d="M208.084 151.069C207.394 151.101 206.704 150.997 206.054 150.762C205.404 150.527 204.807 150.166 204.296 149.699C203.785 149.233 203.371 148.67 203.077 148.042C202.783 147.415 202.615 146.736 202.583 146.044C202.542 145.217 202.698 144.393 203.037 143.638C203.351 142.933 203.816 142.306 204.398 141.8C204.98 141.295 205.665 140.923 206.406 140.712L206.376 142.882L207.568 140.517C208.962 140.451 210.325 140.944 211.356 141.886C212.388 142.829 213.004 144.144 213.069 145.542C213.135 146.94 212.644 148.307 211.704 149.342C210.765 150.377 209.454 150.995 208.06 151.061L208.084 151.069Z" fill="#FF7700"/>
<path d="M220.855 142.545C220.157 142.592 219.456 142.498 218.794 142.27C218.133 142.042 217.523 141.683 217.001 141.215C216.479 140.748 216.055 140.181 215.754 139.547C215.453 138.913 215.281 138.225 215.249 137.524C215.216 136.822 215.323 136.122 215.564 135.462C215.804 134.803 216.173 134.198 216.649 133.684C217.126 133.169 217.699 132.755 218.337 132.466C218.975 132.177 219.664 132.018 220.363 131.999C221.346 131.951 222.323 132.183 223.18 132.668L222.25 135.223L224.164 133.382C225.191 134.321 225.805 135.631 225.87 137.024C225.894 137.512 225.848 138.002 225.735 138.477C225.473 139.596 224.855 140.598 223.975 141.332C223.094 142.066 221.999 142.492 220.855 142.545Z" fill="#FF7700"/>
<path opacity="0.1" d="M219.355 127.003C218.141 127.136 216.962 127.516 215.743 127.592C214.524 127.668 213.186 127.375 212.415 126.423C211.999 125.913 211.793 125.265 211.442 124.706C211.11 124.186 210.655 123.757 210.117 123.456C209.78 124.125 209.588 124.858 209.555 125.608C209.522 126.357 209.648 127.104 209.926 127.8C210.204 128.497 210.626 129.125 211.165 129.645C211.704 130.165 212.347 130.563 213.051 130.814C213.756 131.065 214.505 131.162 215.25 131.099C215.995 131.037 216.718 130.816 217.371 130.451C218.024 130.086 218.592 129.585 219.037 128.983C219.482 128.381 219.794 127.69 219.952 126.957C219.752 126.968 219.555 126.982 219.355 127.003Z" fill="black"/>
<path opacity="0.1" d="M220.855 142.545C219.949 142.587 219.047 142.392 218.237 141.981C217.427 141.57 216.737 140.956 216.234 140.199C215.73 139.441 215.431 138.566 215.364 137.658C215.297 136.75 215.465 135.84 215.851 135.017C216.268 135.3 216.627 135.661 216.908 136.08C217.284 136.647 217.511 137.303 217.952 137.824C218.763 138.792 220.171 139.106 221.439 139.05C222.707 138.993 223.934 138.629 225.2 138.507C225.375 138.491 225.554 138.48 225.74 138.475C225.479 139.594 224.86 140.597 223.979 141.332C223.097 142.067 222 142.493 220.855 142.545Z" fill="black"/>
<path opacity="0.1" d="M208.084 151.069C207.394 151.101 206.704 150.997 206.054 150.762C205.404 150.527 204.807 150.166 204.296 149.699C203.785 149.233 203.371 148.67 203.077 148.042C202.783 147.415 202.615 146.736 202.583 146.044C202.542 145.217 202.698 144.393 203.037 143.638C203.471 143.928 203.848 144.296 204.148 144.723C204.556 145.301 204.813 145.968 205.292 146.502C206.178 147.492 207.671 147.842 209.014 147.809C210.358 147.777 211.572 147.462 212.867 147.362C212.546 148.398 211.915 149.309 211.059 149.972C210.203 150.636 209.165 151.019 208.084 151.069Z" fill="black"/>
<path opacity="0.1" d="M210.682 161.323C210.07 162.53 209.019 163.454 207.746 163.906C206.473 164.357 205.076 164.3 203.844 163.747C202.612 163.193 201.639 162.186 201.127 160.934C200.614 159.681 200.601 158.278 201.091 157.016C201.524 157.302 201.913 157.65 202.245 158.05C202.745 158.663 203.075 159.357 203.653 159.926C204.735 160.984 206.465 161.421 208.011 161.461C208.904 161.469 209.795 161.422 210.682 161.323Z" fill="black"/>
<path d="M286.851 171.211C287.965 169.139 286.7 166.6 285.245 164.751C283.791 162.901 282.017 160.981 282.055 158.625C282.109 155.243 285.688 153.244 288.543 151.449C290.666 150.118 292.625 148.54 294.377 146.746C295.111 146.055 295.718 145.24 296.17 144.338C296.762 143.015 296.743 141.509 296.71 140.061C296.586 135.23 296.348 130.407 295.997 125.59" stroke="#3F3D56" stroke-width="4" stroke-miterlimit="10"/>
<path d="M301.436 125.324C301.395 124.441 301.133 123.582 300.675 122.826C300.216 122.071 299.575 121.443 298.811 121.002L297.632 123.339L297.667 120.508C297.105 120.343 296.52 120.273 295.934 120.299C294.895 120.348 293.894 120.705 293.056 121.325C292.219 121.945 291.584 122.8 291.232 123.782C290.879 124.764 290.824 125.828 291.075 126.841C291.325 127.854 291.869 128.77 292.639 129.473C293.408 130.176 294.368 130.634 295.397 130.789C296.426 130.945 297.477 130.791 298.419 130.347C299.361 129.903 300.15 129.189 300.687 128.295C301.224 127.401 301.484 126.367 301.436 125.324Z" fill="#FF7700"/>
<path d="M292.055 161.052C291.503 162.128 290.599 162.98 289.495 163.467C288.39 163.954 287.153 164.045 285.989 163.725C284.826 163.405 283.808 162.693 283.105 161.71C282.403 160.726 282.059 159.53 282.131 158.322C282.203 157.114 282.687 155.968 283.502 155.075C284.317 154.183 285.412 153.599 286.605 153.421C287.799 153.242 289.016 153.481 290.055 154.097C291.093 154.712 291.889 155.668 292.309 156.802L289.022 159.484L292.644 158.638C292.643 159.478 292.441 160.306 292.055 161.052Z" fill="#FF7700"/>
<path d="M289.457 150.798C288.767 150.83 288.077 150.726 287.427 150.491C286.777 150.256 286.18 149.895 285.669 149.428C285.158 148.962 284.744 148.399 284.45 147.771C284.156 147.144 283.988 146.465 283.956 145.772C283.915 144.946 284.07 144.121 284.41 143.367C284.724 142.662 285.189 142.035 285.77 141.529C286.352 141.024 287.038 140.652 287.778 140.441L287.749 142.61L288.941 140.246H288.954C289.644 140.213 290.334 140.317 290.984 140.552C291.634 140.787 292.232 141.149 292.742 141.615C293.253 142.082 293.668 142.645 293.961 143.272C294.255 143.899 294.423 144.578 294.456 145.271C294.488 145.963 294.384 146.655 294.15 147.307C293.916 147.959 293.556 148.558 293.09 149.071C292.625 149.583 292.064 149.999 291.439 150.294C290.813 150.589 290.136 150.757 289.446 150.79L289.457 150.798Z" fill="#FF7700"/>
<path d="M302.228 142.274C301.53 142.321 300.829 142.227 300.167 141.999C299.505 141.77 298.896 141.412 298.374 140.944C297.852 140.477 297.428 139.909 297.127 139.275C296.826 138.641 296.654 137.954 296.621 137.252C296.589 136.551 296.696 135.85 296.936 135.191C297.177 134.532 297.546 133.927 298.022 133.413C298.499 132.898 299.072 132.484 299.71 132.195C300.348 131.905 301.036 131.746 301.736 131.727C302.719 131.679 303.696 131.912 304.553 132.397L303.623 134.952L305.537 133.11C306.564 134.05 307.178 135.36 307.243 136.753C307.267 137.241 307.221 137.731 307.108 138.206C306.846 139.324 306.228 140.327 305.348 141.061C304.467 141.795 303.372 142.221 302.228 142.274Z" fill="#FF7700"/>
<path opacity="0.1" d="M300.728 126.732C299.514 126.865 298.335 127.245 297.116 127.321C295.897 127.396 294.558 127.104 293.788 126.152C293.372 125.642 293.166 124.994 292.815 124.435C292.483 123.915 292.028 123.485 291.49 123.185C291.152 123.854 290.961 124.587 290.928 125.336C290.895 126.085 291.021 126.833 291.299 127.529C291.576 128.225 291.999 128.854 292.538 129.374C293.076 129.893 293.719 130.292 294.424 130.543C295.128 130.793 295.878 130.891 296.623 130.828C297.368 130.765 298.091 130.544 298.744 130.179C299.397 129.814 299.965 129.314 300.41 128.712C300.855 128.109 301.167 127.419 301.325 126.686C301.125 126.697 300.928 126.71 300.728 126.732Z" fill="black"/>
<path opacity="0.1" d="M302.228 142.274C301.321 142.316 300.42 142.121 299.61 141.71C298.8 141.299 298.11 140.685 297.607 139.928C297.103 139.17 296.804 138.295 296.736 137.387C296.669 136.479 296.837 135.569 297.224 134.746C297.641 135.029 298 135.39 298.281 135.809C298.657 136.376 298.884 137.032 299.325 137.553C300.136 138.521 301.544 138.835 302.812 138.779C304.08 138.722 305.307 138.358 306.572 138.236C306.748 138.22 306.927 138.209 307.113 138.204C306.852 139.323 306.233 140.326 305.351 141.061C304.47 141.796 303.373 142.222 302.228 142.274Z" fill="black"/>
<path opacity="0.1" d="M289.457 150.798C288.767 150.83 288.077 150.726 287.427 150.491C286.777 150.256 286.18 149.895 285.669 149.428C285.158 148.962 284.744 148.398 284.45 147.771C284.156 147.144 283.988 146.465 283.956 145.772C283.915 144.946 284.07 144.121 284.41 143.367C284.844 143.657 285.22 144.025 285.521 144.452C285.929 145.029 286.186 145.697 286.664 146.231C287.551 147.221 289.043 147.57 290.387 147.538C291.69 147.511 292.944 147.191 294.239 147.09C293.918 148.126 293.287 149.038 292.432 149.701C291.576 150.365 290.537 150.747 289.457 150.798Z" fill="black"/>
<path opacity="0.1" d="M292.055 161.052C291.443 162.259 290.392 163.183 289.119 163.634C287.846 164.085 286.449 164.029 285.217 163.475C283.985 162.922 283.012 161.915 282.499 160.662C281.987 159.41 281.974 158.007 282.463 156.745C282.896 157.031 283.285 157.379 283.618 157.778C284.118 158.391 284.448 159.086 285.026 159.655C286.108 160.713 287.838 161.149 289.384 161.19C290.276 161.197 291.168 161.151 292.055 161.052Z" fill="black"/>
<path d="M29.7187 167.685C28.6048 165.613 29.87 163.075 31.3245 161.225C32.7789 159.376 34.5524 157.456 34.5145 155.099C34.4604 151.717 30.8811 149.718 28.0263 147.923C25.9031 146.593 23.9448 145.014 22.1924 143.221C21.4585 142.53 20.8518 141.715 20.4 140.812C19.8079 139.489 19.8269 137.984 19.8593 136.536C19.9837 131.705 20.2216 126.881 20.573 122.065" stroke="#3F3D56" stroke-width="4" stroke-miterlimit="10"/>
<path d="M15.1337 121.799C15.1743 120.915 15.4361 120.056 15.8949 119.301C16.3536 118.545 16.9946 117.918 17.7587 117.476L18.9374 119.814L18.9022 116.983C19.4645 116.818 20.05 116.747 20.6351 116.774C21.6744 116.823 22.676 117.18 23.5131 117.799C24.3502 118.419 24.9853 119.274 25.338 120.256C25.6908 121.238 25.7454 122.303 25.4949 123.316C25.2444 124.329 24.7001 125.245 23.9307 125.948C23.1614 126.65 22.2017 127.108 21.1728 127.264C20.144 127.419 19.0922 127.265 18.1506 126.821C17.209 126.377 16.4198 125.663 15.8828 124.769C15.3458 123.875 15.0851 122.842 15.1337 121.799Z" fill="#FF7700"/>
<path d="M24.5145 157.526C25.0665 158.602 25.9705 159.455 27.0749 159.942C28.1793 160.428 29.4169 160.519 30.5802 160.199C31.7435 159.879 32.7618 159.168 33.4643 158.184C34.1668 157.201 34.5107 156.004 34.4385 154.797C34.3663 153.589 33.8822 152.442 33.0676 151.55C32.2529 150.658 31.1571 150.073 29.964 149.895C28.7709 149.717 27.553 149.956 26.5146 150.571C25.4761 151.187 24.6802 152.142 24.2604 153.277L27.5477 155.959L23.9252 155.113C23.9267 155.953 24.1288 156.78 24.5145 157.526Z" fill="#FF7700"/>
<path d="M27.1126 147.272C27.8027 147.305 28.4925 147.201 29.1425 146.966C29.7925 146.731 30.39 146.369 30.9009 145.903C31.4117 145.436 31.826 144.873 32.1199 144.246C32.4138 143.619 32.5817 142.939 32.614 142.247C32.6549 141.42 32.4993 140.596 32.1598 139.842C31.8456 139.137 31.3811 138.509 30.7991 138.004C30.2172 137.498 29.5318 137.127 28.7914 136.915L28.8211 139.085L27.6289 136.72C26.2351 136.655 24.8724 137.147 23.8407 138.09C22.809 139.032 22.1927 140.347 22.1275 141.745C22.0622 143.144 22.5533 144.511 23.4928 145.546C24.4322 146.581 25.7431 147.199 27.1369 147.264L27.1126 147.272Z" fill="#FF7700"/>
<path d="M14.3416 138.749C15.0399 138.795 15.7405 138.702 16.4023 138.473C17.0641 138.245 17.6739 137.886 18.196 137.419C18.718 136.951 19.1419 136.384 19.4427 135.75C19.7436 135.116 19.9154 134.428 19.9481 133.727C19.9808 133.026 19.8738 132.325 19.6333 131.665C19.3928 131.006 19.0236 130.402 18.5473 129.887C18.0711 129.373 17.4973 128.959 16.8597 128.669C16.222 128.38 15.5332 128.221 14.8336 128.202C13.8549 128.156 12.8833 128.389 12.0302 128.872L12.9601 131.426L11.0326 129.593C10.0073 130.53 9.3939 131.837 9.32675 133.227C9.30281 133.716 9.34832 134.205 9.46192 134.681C9.72355 135.799 10.3415 136.801 11.2221 137.535C12.1027 138.269 13.1979 138.695 14.3416 138.749Z" fill="#FF7700"/>
<path opacity="0.1" d="M15.842 123.206C17.0558 123.339 18.2345 123.719 19.4537 123.795C20.673 123.871 22.0111 123.578 22.7816 122.626C23.1979 122.116 23.4034 121.468 23.7548 120.909C24.0867 120.389 24.5418 119.96 25.0795 119.659C25.4172 120.328 25.6089 121.062 25.6419 121.811C25.6749 122.56 25.5484 123.307 25.2708 124.003C24.9931 124.7 24.5708 125.329 24.032 125.848C23.4931 126.368 22.85 126.766 22.1456 127.017C21.4412 127.268 20.6916 127.365 19.9467 127.302C19.2018 127.24 18.4789 127.019 17.8259 126.654C17.1729 126.289 16.6049 125.789 16.1598 125.186C15.7147 124.584 15.4027 123.893 15.2445 123.16C15.4446 123.171 15.6419 123.185 15.842 123.206Z" fill="black"/>
<path opacity="0.1" d="M14.3416 138.749C15.2482 138.79 16.15 138.596 16.9597 138.185C17.7694 137.773 18.4594 137.159 18.9629 136.402C19.4663 135.645 19.7661 134.769 19.8332 133.862C19.9003 132.954 19.7323 132.044 19.3456 131.22C18.9288 131.504 18.57 131.864 18.2886 132.283C17.9128 132.85 17.6857 133.506 17.2451 134.027C16.4341 134.995 15.0256 135.31 13.7577 135.253C12.4898 135.196 11.2624 134.833 9.99723 134.71C9.8215 134.694 9.64308 134.683 9.45654 134.678C9.71792 135.797 10.3365 136.801 11.2182 137.536C12.0999 138.27 13.1966 138.696 14.3416 138.749Z" fill="black"/>
<path opacity="0.1" d="M27.1125 147.272C27.8027 147.305 28.4925 147.201 29.1425 146.966C29.7925 146.731 30.39 146.369 30.9008 145.903C31.4117 145.436 31.8259 144.873 32.1199 144.246C32.4138 143.619 32.5817 142.939 32.614 142.247C32.6549 141.42 32.4992 140.596 32.1598 139.842C31.726 140.131 31.3493 140.499 31.0487 140.926C30.6405 141.504 30.3837 142.171 29.9052 142.705C29.0184 143.695 27.5262 144.045 26.1826 144.013C24.8795 143.985 23.6251 143.665 22.3302 143.565C22.6512 144.601 23.2824 145.513 24.1381 146.176C24.9938 146.839 26.0323 147.222 27.1125 147.272Z" fill="black"/>
<path opacity="0.1" d="M24.5145 157.526C25.1267 158.733 26.1779 159.658 27.4507 160.109C28.7234 160.56 30.1204 160.503 31.3525 159.95C32.5846 159.397 33.5575 158.389 34.0701 157.137C34.5827 155.884 34.5956 154.481 34.1062 153.219C33.6731 153.505 33.2842 153.854 32.9519 154.253C32.4517 154.866 32.1219 155.56 31.5434 156.129C30.462 157.187 28.7318 157.624 27.1855 157.664C26.2932 157.672 25.4013 157.625 24.5145 157.526Z" fill="black"/>
<path d="M182.075 142.271C182.08 141.614 181.931 140.964 181.641 140.375C181.351 139.785 180.927 139.272 180.404 138.876C180.339 136.389 178.571 134.358 176.298 134.043C176.122 133.198 175.728 132.415 175.154 131.771C174.581 131.128 173.849 130.647 173.032 130.377C172.833 130.314 172.63 130.266 172.424 130.233H172.364L172.259 130.219H172.17H172.08H171.964H171.894H171.702C169.382 130.219 167.452 131.999 167.055 134.344C165.554 133.997 164.178 134.447 163.932 135.399C163.869 135.652 163.883 135.917 163.973 136.161C164.227 136.899 165.054 137.604 166.176 137.954L166.322 137.997C166.395 138.019 166.468 138.035 166.541 138.052H166.59C166.177 138.934 166.119 139.941 166.426 140.866C166.734 141.79 167.384 142.56 168.241 143.017C168.208 143.036 168.175 143.057 168.144 143.08C168.006 143.207 167.895 143.362 167.82 143.535C167.549 144.012 167.338 144.522 167.193 145.051C167.084 145.504 167.065 145.979 166.922 146.426C166.676 147.24 166.044 147.953 165.971 148.818C165.938 149.203 166 149.656 165.727 149.919C165.659 149.978 165.587 150.031 165.511 150.079C165.32 150.21 165.158 150.38 165.035 150.578C164.956 150.742 164.849 150.89 164.719 151.017C164.473 151.205 164.067 151.186 163.946 151.473C163.824 151.76 164.138 152.099 164.065 152.414C164.005 152.669 163.727 152.786 163.524 152.956C163.297 153.203 163.139 153.505 163.064 153.832C162.661 153.911 162.244 153.898 161.846 153.797C161.447 153.695 161.076 153.506 160.758 153.244C160.867 153.523 160.947 153.813 160.996 154.109C160.675 153.765 160.145 153.664 159.753 153.485C159.247 153.253 158.796 152.917 158.428 152.498L159.136 152.4L156 147.627L155.076 147.438L155.906 149.035C155.838 149.068 155.778 149.115 155.731 149.175C155.685 149.234 155.652 149.303 155.635 149.377C155.591 149.554 155.58 149.738 155.603 149.919C155.647 150.347 155.718 150.772 155.817 151.191L156.057 152.314C156.078 152.419 156.104 152.523 156.136 152.626C155.822 152.614 155.509 152.65 155.206 152.731C154.584 152.501 153.937 152.347 153.278 152.273C153.133 152.248 152.984 152.255 152.843 152.295C152.682 152.369 152.543 152.483 152.437 152.626C151.897 153.253 151.417 153.93 151.004 154.649C149.32 157.588 147.071 160.154 144.965 162.812C143.511 163.406 142.045 163.97 140.577 164.528L137.423 165.735C136.793 165.976 136.138 166.223 135.468 166.18C135.165 166.161 134.798 166.115 134.627 166.372C134.544 166.5 134.48 166.639 134.435 166.785C134.324 166.785 134.214 166.812 134.111 166.817H134.092C133.892 166.318 133.719 165.784 133.335 165.421C133.258 165.432 133.185 165.463 133.122 165.511C133.06 165.558 133.01 165.62 132.978 165.692C132.902 165.833 132.856 165.987 132.77 166.118C132.6 166.367 132.305 166.489 132.094 166.701C131.883 166.912 131.751 167.243 131.524 167.449C131.206 167.681 130.833 167.826 130.442 167.869C129.857 168.008 129.293 168.223 128.764 168.509C128.568 168.63 128.36 168.726 128.142 168.797C127.902 168.843 127.657 168.851 127.415 168.821L125.744 168.699C125.595 168.68 125.444 168.686 125.298 168.718C125.126 168.782 124.979 168.9 124.881 169.056C124.784 169.211 124.74 169.395 124.757 169.578C124.777 169.76 124.835 169.935 124.925 170.094C125.016 170.252 125.138 170.391 125.284 170.5C125.574 170.713 125.895 170.881 126.236 170.996C127.688 171.56 129.184 172 130.71 172.312V172.651C131.767 173.185 132.935 173.463 134.119 173.464C134.206 173.471 134.294 173.455 134.373 173.418C134.483 173.336 134.558 173.216 134.587 173.082C134.941 172.018 135.165 170.915 135.254 169.798C135.463 169.784 135.668 169.732 135.857 169.643C136.433 169.486 137.004 169.882 137.596 169.947C138.325 170.025 139.004 169.6 139.693 169.337C139.793 169.299 139.893 169.266 139.994 169.234C139.797 169.489 139.565 169.714 139.304 169.903C139.018 170.11 138.696 170.261 138.415 170.476C138.181 170.69 137.931 170.885 137.666 171.059C137.479 171.146 137.287 171.22 137.09 171.281C136.805 171.385 136.533 171.523 136.279 171.691C136.052 171.825 135.859 172.011 135.717 172.233C135.645 172.337 135.601 172.457 135.588 172.583C135.576 172.709 135.596 172.836 135.647 172.951C135.697 173.067 135.776 173.168 135.876 173.245C135.977 173.321 136.095 173.371 136.22 173.388C136.445 173.428 136.676 173.435 136.903 173.407C137.806 173.339 138.707 173.255 139.607 173.174C139.988 173.149 140.367 173.094 140.74 173.011C140.937 172.962 141.132 172.897 141.329 172.846C141.666 172.757 142.011 172.705 142.359 172.691C142.46 172.683 142.562 172.693 142.659 172.721C142.87 172.789 143.019 172.992 143.232 173.047C143.371 173.06 143.511 173.041 143.64 172.99C144.299 172.846 144.972 172.774 145.646 172.775C145.941 172.759 146.287 172.702 146.425 172.428C146.593 172.089 146.311 171.71 146.201 171.343C146.144 171.111 146.113 170.872 146.109 170.633C146.057 170.042 145.888 169.467 145.611 168.943C145.464 168.699 145.34 168.441 145.241 168.173C146.533 167.68 147.769 167.051 148.928 166.297C149.593 165.882 150.28 165.434 151.032 165.282C151.907 165.106 152.81 165.339 153.673 165.589C155.727 166.185 157.748 166.892 159.726 167.707C160.672 168.095 161.618 168.507 162.586 168.791C162.869 169.174 163.211 169.51 163.6 169.784C164.249 170.204 165.041 170.326 165.803 170.386C166.833 170.481 167.867 170.519 168.901 170.503C169.69 170.489 170.504 170.435 171.21 170.074C171.382 169.985 171.544 169.878 171.694 169.754C172.234 169.852 172.789 169.562 173.213 169.19C173.775 168.711 174.18 168.073 174.375 167.36C174.624 166.381 174.432 165.239 175.032 164.439C175.192 164.225 175.4 164.051 175.557 163.834C175.75 163.544 175.845 163.198 175.827 162.85L175.854 162.809C175.99 162.494 176.081 162.162 176.125 161.822C176.196 161.556 176.286 161.296 176.395 161.043C176.7 160.287 176.965 159.515 177.19 158.73C177.346 158.21 177.469 157.68 177.557 157.144C177.622 156.715 177.66 156.284 177.695 155.853C177.739 155.178 177.87 154.511 178.085 153.87C178.618 152.34 178.92 150.739 178.979 149.119C178.979 149.086 178.979 149.057 178.979 149.024C179.764 148.938 180.489 148.561 181.011 147.967C181.534 147.373 181.817 146.605 181.804 145.813C181.805 145.336 181.706 144.864 181.512 144.427C181.885 143.771 182.079 143.027 182.075 142.271ZM166.787 160.905C166.833 161.071 166.887 161.236 166.941 161.401C166.692 161.155 166.446 160.9 166.195 160.656C166.295 160.685 166.395 160.718 166.492 160.753C166.596 160.794 166.696 160.845 166.79 160.905H166.787ZM165.576 160.092C164.1 158.806 162.391 157.808 160.88 156.566C161.691 156.976 162.502 157.45 163.313 157.906C164.258 158.448 165.213 158.967 166.179 159.462C166.02 159.704 165.819 159.913 165.584 160.081L165.576 160.092ZM166.206 156.854L166.276 156.78C166.276 156.962 166.276 157.133 166.276 157.287C166.144 157.244 166.006 157.201 165.879 157.152C165.995 157.056 166.106 156.953 166.208 156.843L166.206 156.854ZM153.21 160.336C153.818 159.646 154.347 158.89 154.787 158.082C155.371 159.11 156.322 159.85 157.133 160.71C155.83 160.525 154.524 160.382 153.213 160.325L153.21 160.336Z" fill="url(#paint0_linear_205_938)"/>
<path d="M155.319 147.833L156.252 148.023L159.428 152.731L158.025 152.921L155.319 147.833Z" fill="#2F2E41"/>
<path d="M132.732 166.942C132.984 167.776 133.294 168.592 133.659 169.383C134.712 169.162 135.747 168.866 136.758 168.496C136.562 168.19 136.347 167.898 136.114 167.62C135.866 167.343 135.569 167.114 135.238 166.945C134.917 166.804 134.519 166.909 134.176 166.928C133.695 166.947 133.213 166.951 132.732 166.942Z" fill="#FBBEBE"/>
<path d="M135.244 168.2C134.719 168.035 134.397 167.503 134.184 166.991C133.97 166.478 133.797 165.92 133.392 165.543C133.315 165.555 133.242 165.586 133.179 165.633C133.117 165.681 133.067 165.743 133.035 165.814C132.957 165.95 132.911 166.104 132.821 166.234C132.654 166.478 132.356 166.598 132.143 166.806C131.929 167.015 131.797 167.333 131.567 167.541C131.248 167.771 130.876 167.915 130.486 167.959C129.896 168.093 129.327 168.305 128.793 168.588C128.596 168.703 128.385 168.794 128.166 168.859C127.925 168.906 127.677 168.914 127.433 168.884L125.749 168.762C125.6 168.743 125.448 168.75 125.301 168.784C125.129 168.843 124.982 168.959 124.884 169.113C124.786 169.266 124.742 169.448 124.76 169.63C124.782 169.81 124.842 169.985 124.935 170.141C125.028 170.297 125.152 170.433 125.301 170.538C125.593 170.748 125.916 170.913 126.258 171.026C127.725 171.58 129.235 172.012 130.772 172.32V172.653C131.841 173.184 133.016 173.462 134.208 173.467C134.301 173.475 134.394 173.459 134.479 173.421C134.588 173.34 134.665 173.223 134.695 173.09C135.099 171.905 135.335 170.669 135.395 169.418C135.426 169.102 135.402 168.783 135.325 168.474C135.233 168.171 135.546 168.298 135.254 168.179" fill="#2F2E41"/>
<path d="M167.533 161.833C162.54 162.136 157.609 160.666 152.608 160.509C151.987 160.471 151.364 160.511 150.753 160.629C150.116 160.8 149.5 161.04 148.915 161.344C146.236 162.595 143.462 163.631 140.691 164.667L137.512 165.854C136.874 166.09 136.217 166.332 135.538 166.291C135.235 166.272 134.865 166.226 134.692 166.481C134.176 167.248 134.422 168.379 134.762 169.242C134.873 169.513 135.06 169.825 135.357 169.857C135.567 169.843 135.774 169.79 135.965 169.703C136.544 169.548 137.122 169.939 137.717 170.001C138.455 170.08 139.139 169.659 139.834 169.402C140.986 168.976 142.245 168.989 143.457 168.786C145.49 168.447 147.371 167.501 149.134 166.421C149.804 166.012 150.485 165.572 151.253 165.423C152.137 165.25 153.048 165.477 153.916 165.724C155.985 166.312 158.022 167.008 160.018 167.81C161.057 168.263 162.122 168.652 163.208 168.976C165.574 169.601 168.077 169.455 170.356 168.558C171.167 168.241 172.021 167.682 172.067 166.817C172.094 166.324 171.713 165.89 171.458 165.461C171.294 165.19 171.131 164.919 170.953 164.661C170.093 163.403 169.05 161.74 167.533 161.833Z" fill="#2F2E41"/>
<path opacity="0.1" d="M167.533 161.833C162.54 162.136 157.609 160.666 152.608 160.509C151.987 160.471 151.364 160.511 150.753 160.629C150.116 160.8 149.5 161.04 148.915 161.344C146.236 162.595 143.462 163.631 140.691 164.667L137.512 165.854C136.874 166.09 136.217 166.332 135.538 166.291C135.235 166.272 134.865 166.226 134.692 166.481C134.176 167.248 134.422 168.379 134.762 169.242C134.873 169.513 135.06 169.825 135.357 169.857C135.567 169.843 135.774 169.79 135.965 169.703C136.544 169.548 137.122 169.939 137.717 170.001C138.455 170.08 139.139 169.659 139.834 169.402C140.986 168.976 142.245 168.989 143.457 168.786C145.49 168.447 147.371 167.501 149.134 166.421C149.804 166.012 150.485 165.572 151.253 165.423C152.137 165.25 153.048 165.477 153.916 165.724C155.985 166.312 158.022 167.008 160.018 167.81C161.057 168.263 162.122 168.652 163.208 168.976C165.574 169.601 168.077 169.455 170.356 168.558C171.167 168.241 172.021 167.682 172.067 166.817C172.094 166.324 171.713 165.89 171.458 165.461C171.294 165.19 171.131 164.919 170.953 164.661C170.093 163.403 169.05 161.74 167.533 161.833Z" fill="black"/>
<path d="M142.316 167.186C143.098 167.452 143.885 167.698 144.678 167.924C145.125 167.189 145.957 166.679 146.146 165.841C146.157 165.805 146.157 165.766 146.146 165.73C146.126 165.694 146.095 165.666 146.057 165.648C145.487 165.333 144.855 165.148 144.205 165.106C143.692 165.073 143.459 165.61 143.227 165.987C143.146 166.139 142.524 167.256 142.316 167.186Z" fill="#FBBEBE"/>
<path d="M143.416 166.649C143.183 166.61 142.96 166.523 142.762 166.392C142.564 166.262 142.396 166.092 142.267 165.892C142.156 165.7 142.04 165.44 141.818 165.453C141.597 165.467 141.521 165.711 141.475 165.914C141.325 166.674 141.109 167.419 140.829 168.141C140.546 168.864 140.068 169.495 139.447 169.96C139.158 170.161 138.836 170.313 138.553 170.524C138.316 170.736 138.063 170.928 137.796 171.099C137.607 171.186 137.413 171.258 137.214 171.316C136.923 171.418 136.645 171.554 136.384 171.72C136.156 171.854 135.963 172.04 135.819 172.263C135.75 172.376 135.71 172.504 135.701 172.636C135.693 172.769 135.717 172.901 135.771 173.022C135.829 173.12 135.907 173.205 136 173.271C136.094 173.337 136.2 173.383 136.311 173.405C136.539 173.443 136.771 173.448 137.001 173.421C137.912 173.353 138.82 173.272 139.729 173.19C140.113 173.166 140.495 173.114 140.872 173.033C141.072 172.984 141.267 172.919 141.464 172.868C141.805 172.781 142.154 172.73 142.505 172.716C142.607 172.708 142.709 172.718 142.808 172.746C143.019 172.813 143.167 173.017 143.384 173.066C143.523 173.08 143.664 173.062 143.794 173.011C144.459 172.87 145.137 172.799 145.817 172.8C146.114 172.784 146.465 172.727 146.601 172.458C146.771 172.125 146.49 171.75 146.376 171.392C146.32 171.163 146.288 170.929 146.282 170.693C146.23 170.11 146.06 169.544 145.781 169.03C145.549 168.602 145.241 168.13 145.395 167.674C145.478 167.532 145.53 167.374 145.549 167.21C145.511 166.476 143.827 166.747 143.416 166.649Z" fill="#2F2E41"/>
<path d="M160.047 153.8C159.163 153.408 158.454 152.702 158.058 151.818C157.977 151.628 157.906 151.43 157.828 151.237C157.565 150.601 157.158 150.034 156.638 149.583C156.583 149.522 156.515 149.473 156.439 149.441C156.363 149.408 156.28 149.393 156.198 149.396C156.118 149.42 156.046 149.464 155.989 149.525C155.932 149.586 155.892 149.661 155.873 149.743C155.827 149.92 155.815 150.104 155.838 150.285C155.884 150.706 155.957 151.124 156.055 151.536L156.298 152.642C156.329 152.812 156.379 152.978 156.449 153.136C156.553 153.321 156.691 153.486 156.855 153.621C157.076 153.827 157.301 154.025 157.528 154.218C157.653 154.331 157.79 154.431 157.936 154.516C158.176 154.63 158.432 154.705 158.696 154.738C159.688 154.923 160.696 155.189 161.532 155.823C161.532 155.823 161.532 155.083 161.513 155.01C161.503 154.795 161.429 154.588 161.302 154.416C160.988 154.077 160.448 153.976 160.047 153.8Z" fill="#FBBEBE"/>
<path opacity="0.1" d="M160.047 153.8C159.163 153.408 158.454 152.702 158.058 151.818C157.977 151.628 157.906 151.43 157.828 151.237C157.565 150.601 157.158 150.034 156.638 149.583C156.583 149.522 156.515 149.473 156.439 149.441C156.363 149.408 156.28 149.393 156.198 149.396C156.118 149.42 156.046 149.464 155.989 149.525C155.932 149.586 155.892 149.661 155.873 149.743C155.827 149.92 155.815 150.104 155.838 150.285C155.884 150.706 155.957 151.124 156.055 151.536L156.298 152.642C156.329 152.812 156.379 152.978 156.449 153.136C156.553 153.321 156.691 153.486 156.855 153.621C157.076 153.827 157.301 154.025 157.528 154.218C157.653 154.331 157.79 154.431 157.936 154.516C158.176 154.63 158.432 154.705 158.696 154.738C159.688 154.923 160.696 155.189 161.532 155.823C161.532 155.823 161.532 155.083 161.513 155.01C161.503 154.795 161.429 154.588 161.302 154.416C160.988 154.077 160.448 153.976 160.047 153.8Z" fill="black"/>
<path d="M170.212 145.339C170.883 145.339 171.426 144.79 171.426 144.113C171.426 143.436 170.883 142.887 170.212 142.887C169.542 142.887 168.998 143.436 168.998 144.113C168.998 144.79 169.542 145.339 170.212 145.339Z" fill="#2F2E41"/>
<path d="M169.461 143.373C169.135 143.298 168.793 143.347 168.501 143.511C168.361 143.635 168.249 143.789 168.174 143.961C167.901 144.429 167.688 144.931 167.541 145.453C167.433 145.9 167.414 146.367 167.271 146.809C167.022 147.622 166.384 148.314 166.311 149.163C166.279 149.542 166.341 149.99 166.065 150.247C165.997 150.305 165.923 150.357 165.846 150.402C165.654 150.531 165.491 150.699 165.368 150.895C165.285 151.072 165.17 151.231 165.03 151.365C164.781 151.549 164.373 151.53 164.251 151.815C164.13 152.1 164.443 152.43 164.37 152.74C164.311 152.992 164.029 153.108 163.829 153.282C163.602 153.524 163.442 153.823 163.367 154.147C162.961 154.224 162.543 154.211 162.142 154.111C161.741 154.01 161.367 153.824 161.045 153.564C161.383 154.402 161.391 155.327 161.404 156.23C161.443 156.519 161.367 156.811 161.191 157.043C162.159 157.065 163.1 157.315 164.043 157.54C164.446 157.675 164.883 157.675 165.287 157.54C165.502 157.423 165.695 157.269 165.857 157.084C166.371 156.561 166.909 155.999 167.033 155.27C167.066 154.859 167.073 154.447 167.055 154.036C167.104 153.528 167.208 153.027 167.365 152.542C167.637 151.534 167.818 150.504 167.906 149.464C167.963 148.821 168.514 148.306 168.806 147.731C169.347 146.646 169.915 145.52 169.958 144.305C169.996 143.91 169.861 143.424 169.461 143.373Z" fill="#2F2E41"/>
<path opacity="0.1" d="M169.461 143.373C169.135 143.298 168.793 143.347 168.501 143.511C168.361 143.635 168.249 143.789 168.174 143.961C167.901 144.429 167.688 144.931 167.541 145.453C167.433 145.9 167.414 146.367 167.271 146.809C167.022 147.622 166.384 148.314 166.311 149.163C166.279 149.542 166.341 149.99 166.065 150.247C165.997 150.305 165.923 150.357 165.846 150.402C165.654 150.531 165.491 150.699 165.368 150.895C165.285 151.072 165.17 151.231 165.03 151.365C164.781 151.549 164.373 151.53 164.251 151.815C164.13 152.1 164.443 152.43 164.37 152.74C164.311 152.992 164.029 153.108 163.829 153.282C163.602 153.524 163.442 153.823 163.367 154.147C162.961 154.224 162.543 154.211 162.142 154.111C161.741 154.01 161.367 153.824 161.045 153.564C161.383 154.402 161.391 155.327 161.404 156.23C161.443 156.519 161.367 156.811 161.191 157.043C162.159 157.065 163.1 157.315 164.043 157.54C164.446 157.675 164.883 157.675 165.287 157.54C165.502 157.423 165.695 157.269 165.857 157.084C166.371 156.561 166.909 155.999 167.033 155.27C167.066 154.859 167.073 154.447 167.055 154.036C167.104 153.528 167.208 153.027 167.365 152.542C167.637 151.534 167.818 150.504 167.906 149.464C167.963 148.821 168.514 148.306 168.806 147.731C169.347 146.646 169.915 145.52 169.958 144.305C169.996 143.91 169.861 143.424 169.461 143.373Z" fill="black"/>
<path d="M168.325 162.888C167.284 162.391 166.525 161.466 165.684 160.675C164.078 159.161 162.115 158.093 160.429 156.674C159.312 155.736 158.312 154.643 157.082 153.857C156 153.164 154.773 152.733 153.497 152.596C153.351 152.57 153.202 152.578 153.059 152.617C152.898 152.69 152.758 152.802 152.651 152.943C152.106 153.559 151.621 154.226 151.205 154.936C149.066 158.576 146.03 161.637 143.513 165.025C143.433 165.104 143.385 165.212 143.379 165.325C143.374 165.439 143.411 165.55 143.484 165.637L143.995 166.644C144.281 167.205 144.741 167.861 145.346 167.75C145.624 167.67 145.873 167.511 146.063 167.292L148.361 165.087L150.769 162.776C152.18 161.42 153.616 160.037 154.538 158.307C155.257 159.557 156.533 160.376 157.409 161.523C157.741 161.957 158.012 162.437 158.309 162.898C158.788 163.639 159.328 164.333 159.869 165.025L162.635 168.564C162.983 169.068 163.416 169.508 163.913 169.865C164.567 170.28 165.365 170.391 166.135 170.459C167.173 170.554 168.216 170.592 169.258 170.573C170.053 170.56 170.88 170.508 171.583 170.153C172.286 169.798 172.883 169.068 172.845 168.273C172.802 167.857 172.667 167.456 172.448 167.099C171.472 165.282 170.18 163.763 168.325 162.888Z" fill="#2F2E41"/>
<path d="M170.958 145.903C171.473 145.903 171.891 145.481 171.891 144.962C171.891 144.442 171.473 144.021 170.958 144.021C170.443 144.021 170.026 144.442 170.026 144.962C170.026 145.481 170.443 145.903 170.958 145.903Z" fill="#E8E8F0"/>
<path d="M170.753 144.254C170.964 144.675 171.001 145.162 170.856 145.61C170.712 146.05 170.51 146.47 170.256 146.857C170.037 147.257 169.775 147.632 169.474 147.975C170.915 148.045 172.313 147.478 173.583 146.789C174.608 146.247 175.63 145.555 176.176 144.522C176.013 144.561 175.845 144.565 175.68 144.535C175.516 144.505 175.36 144.44 175.222 144.346C174.947 144.154 174.7 143.924 174.489 143.663L173.767 142.849C173.597 142.67 173.447 142.473 173.321 142.26C173.163 141.972 173.096 141.642 173.129 141.314C172.842 141.616 172.521 141.883 172.172 142.111C171.656 142.45 171.091 142.694 170.569 143.028C170.385 143.147 169.977 143.34 170.083 143.57C170.188 143.801 170.607 143.993 170.753 144.254Z" fill="#FBBEBE"/>
<path opacity="0.1" d="M170.753 144.254C170.964 144.675 171.001 145.162 170.856 145.61C170.712 146.05 170.51 146.47 170.256 146.857C170.037 147.257 169.775 147.632 169.474 147.975C170.915 148.045 172.313 147.478 173.583 146.789C174.608 146.247 175.63 145.555 176.176 144.522C176.013 144.561 175.845 144.565 175.68 144.535C175.516 144.505 175.36 144.44 175.222 144.346C174.947 144.154 174.7 143.924 174.489 143.663L173.767 142.849C173.597 142.67 173.447 142.473 173.321 142.26C173.163 141.972 173.096 141.642 173.129 141.314C172.842 141.616 172.521 141.883 172.172 142.111C171.656 142.45 171.091 142.694 170.569 143.028C170.385 143.147 169.977 143.34 170.083 143.57C170.188 143.801 170.607 143.993 170.753 144.254Z" fill="black"/>
<path d="M170.772 144.395C170.626 144.601 170.548 144.848 170.548 145.101C170.548 145.354 170.626 145.601 170.772 145.808C170.812 145.859 170.966 146.182 171.042 146.185C171.106 146.179 171.165 146.149 171.207 146.101C171.534 145.758 171.839 145.396 172.121 145.016C172.406 144.631 172.818 144.36 173.283 144.251C173.848 144.162 174.392 144.463 174.886 144.75C175.099 144.856 175.284 145.01 175.427 145.2C175.531 145.389 175.593 145.598 175.608 145.813C175.75 147.106 175.804 148.407 175.77 149.708C175.797 150.645 175.735 151.583 175.587 152.509C175.495 152.986 175.357 153.453 175.292 153.936C175.245 154.36 175.226 154.788 175.235 155.216V157.005C175.223 157.333 175.247 157.662 175.305 157.984C175.417 158.37 175.548 158.749 175.697 159.121C175.829 159.563 175.92 160.017 175.968 160.477L176.211 162.329C176.289 162.915 176.346 163.552 175.992 164.021C175.835 164.235 175.624 164.404 175.451 164.615C174.843 165.391 175.046 166.516 174.776 167.479C174.576 168.185 174.166 168.814 173.602 169.282C173.172 169.649 172.616 169.939 172.059 169.825C171.31 169.684 170.858 168.9 170.653 168.16C170.447 167.419 170.383 166.611 169.931 165.99C169.569 165.478 169.009 165.158 168.504 164.791C167.998 164.425 167.501 163.956 167.39 163.338C167.341 163.067 167.371 162.795 167.344 162.524C167.304 162.179 167.172 161.85 166.961 161.573C166.751 161.297 166.471 161.082 166.149 160.951C165.765 160.802 165.289 160.748 165.068 160.409C165.618 160.062 166.019 159.521 166.192 158.893C166.36 158.274 166.451 157.636 166.463 156.995L166.592 154.841C166.649 153.879 166.676 152.924 167.098 152.059C167.287 151.674 167.522 151.31 167.717 150.928C167.978 150.391 168.2 149.837 168.382 149.268C168.687 148.387 168.996 147.503 169.269 146.611C169.378 146.178 169.541 145.762 169.755 145.371C170.007 144.964 170.339 144.476 170.772 144.395Z" fill="#E8E8F0"/>
<path d="M166.006 158.386L166.573 158.405L166.695 157.545C166.711 157.373 166.751 157.204 166.814 157.043C166.908 156.874 167.018 156.713 167.141 156.563C167.701 155.772 167.66 154.719 167.798 153.757C167.982 152.474 168.517 151.27 169.047 150.087L170.15 147.622C170.248 147.419 170.327 147.208 170.385 146.99C170.433 146.75 170.456 146.506 170.453 146.261C170.453 145.881 170.577 144.495 170.585 144.113C170.585 143.972 170.277 144.051 170.212 143.926C170.074 143.655 169.885 144.392 169.626 144.555C169.381 144.743 169.203 145.004 169.117 145.301C168.879 145.922 168.733 146.575 168.512 147.199C168.317 147.838 167.963 148.416 167.482 148.878C167.257 149.078 166.995 149.236 166.782 149.447C166.095 150.128 166.03 151.202 166.006 152.159C165.989 152.753 165.879 158.386 166.006 158.386Z" fill="#2F2E41"/>
<path d="M174.184 143.367C173.643 143.584 173.329 144.181 173.175 144.761C173.021 145.341 172.956 145.954 172.659 146.47C171.967 147.679 170.201 148.032 169.712 149.339C169.588 149.78 169.521 150.236 169.515 150.695C169.428 151.63 169.12 152.536 169.028 153.472C168.98 154.2 168.998 154.93 169.08 155.655L169.699 163.04C169.819 164.127 169.756 165.227 169.512 166.294C170.147 166.386 170.795 166.279 171.367 165.987C171.948 165.716 172.478 165.358 173.035 165.049C173.994 164.507 175.054 164.141 175.892 163.422C176.044 163.303 176.175 163.159 176.279 162.996C176.413 162.686 176.504 162.358 176.549 162.023C176.62 161.761 176.711 161.506 176.819 161.258C177.13 160.513 177.401 159.753 177.63 158.98C177.788 158.467 177.912 157.944 178.001 157.415C178.068 156.995 178.104 156.569 178.141 156.146C178.185 155.48 178.316 154.824 178.533 154.193C179.07 152.689 179.373 151.111 179.434 149.515C179.452 149.284 179.437 149.052 179.388 148.826C179.294 148.552 179.169 148.29 179.015 148.045C178.758 147.56 178.604 147.026 178.36 146.535C177.82 145.423 176.849 144.579 175.835 143.872C175.316 143.527 174.746 143.153 174.184 143.367Z" fill="#2F2E41"/>
<path d="M161.277 155.416C160.838 155.186 160.441 154.883 160.101 154.521C159.947 154.34 159.831 154.136 159.664 153.957C159.266 153.533 158.751 153.238 158.185 153.111C157.622 152.987 157.047 152.931 156.471 152.946C156.086 152.919 155.7 152.966 155.333 153.084C155.148 153.145 154.982 153.251 154.85 153.393C154.717 153.535 154.623 153.709 154.576 153.898C154.492 154.359 154.792 154.806 155.152 155.099C155.486 155.373 155.879 155.565 156.3 155.66C156.644 155.72 156.991 155.761 157.339 155.782C159.382 155.997 161.207 157.111 162.997 158.128C164.57 159.02 166.174 159.854 167.809 160.631C167.874 160.141 167.901 159.646 167.89 159.151C167.89 158.782 167.863 158.218 167.514 158.001C167.109 157.746 166.433 157.689 165.984 157.537C164.931 157.192 163.902 156.775 162.905 156.29C162.34 156.016 161.799 155.725 161.277 155.416Z" fill="#FBBEBE"/>
<path d="M170.212 143.834C172.223 143.834 173.854 142.188 173.854 140.159C173.854 138.129 172.223 136.484 170.212 136.484C168.201 136.484 166.571 138.129 166.571 140.159C166.571 142.188 168.201 143.834 170.212 143.834Z" fill="#FBBEBE"/>
<path d="M175.224 147.533C174.935 147.941 174.697 148.385 174.519 148.853C174.067 149.783 173.362 150.581 173.01 151.565C172.637 152.588 172.651 153.805 171.929 154.611C171.784 154.733 171.674 154.892 171.613 155.072C171.608 155.184 171.596 155.295 171.575 155.405C171.472 155.698 170.994 155.712 170.904 156.01C170.88 156.097 170.904 156.192 170.861 156.281C170.788 156.474 170.537 156.501 170.366 156.618C170.012 156.859 170.096 157.418 169.826 157.765C169.716 157.894 169.574 157.991 169.414 158.047C169.255 158.103 169.083 158.116 168.917 158.085C168.586 158.015 168.267 157.895 167.971 157.729C167.867 157.671 167.752 157.635 167.633 157.624C167.492 157.627 167.355 157.673 167.241 157.757C166.568 158.185 166.252 159.037 166.257 159.839C166.305 160.642 166.494 161.43 166.817 162.166C166.855 162.293 166.918 162.412 167.003 162.513C167.225 162.749 167.614 162.711 167.912 162.578C168.19 162.413 168.487 162.28 168.796 162.182C169.358 162.079 169.909 162.47 170.48 162.437C170.897 162.374 171.29 162.2 171.618 161.933C172.197 161.58 172.716 161.136 173.154 160.618C173.402 160.29 173.586 159.915 173.805 159.565C174.085 159.136 174.392 158.724 174.724 158.334L176.825 155.755C177.036 155.511 177.225 155.249 177.39 154.971C177.579 154.596 177.727 154.202 177.83 153.794C178.055 153.115 178.202 152.411 178.266 151.698C178.276 151.108 178.225 150.518 178.112 149.938C178.041 149.362 177.889 148.798 177.66 148.265C177.192 147.316 176.081 146.529 175.224 147.533Z" fill="#2F2E41"/>
<path d="M182.54 142.746C182.543 142.094 182.391 141.452 182.098 140.87C181.805 140.289 181.378 139.786 180.853 139.402C180.837 138.246 180.412 137.132 179.654 136.26C178.896 135.389 177.854 134.815 176.714 134.643C176.493 133.547 175.895 132.565 175.023 131.869C174.151 131.172 173.063 130.807 171.949 130.837C170.835 130.868 169.768 131.291 168.935 132.033C168.102 132.776 167.556 133.789 167.395 134.895C165.881 134.553 164.497 134.998 164.246 135.934C163.975 136.913 165.057 138.057 166.657 138.491C167.159 138.633 167.681 138.685 168.201 138.646C168.573 139.194 169.055 139.658 169.617 140.008C170.178 140.358 170.806 140.587 171.461 140.68C171.653 141.564 172.088 142.377 172.716 143.027C173.344 143.678 174.141 144.139 175.016 144.36C175.258 144.947 175.634 145.469 176.114 145.884C176.114 145.998 176.095 146.114 176.095 146.234C176.077 146.65 176.144 147.067 176.291 147.457C176.438 147.847 176.663 148.204 176.95 148.505C177.238 148.806 177.584 149.046 177.967 149.209C178.349 149.373 178.761 149.457 179.177 149.457C179.593 149.457 180.004 149.373 180.387 149.209C180.77 149.046 181.115 148.806 181.403 148.505C181.691 148.204 181.915 147.847 182.062 147.457C182.209 147.067 182.276 146.65 182.259 146.234C182.259 145.766 182.158 145.303 181.964 144.878C182.344 144.232 182.543 143.496 182.54 142.746Z" fill="#F86D70"/>
<path opacity="0.1" d="M165.273 136.121C165.525 135.185 166.895 134.74 168.423 135.082C168.6 133.959 169.168 132.935 170.025 132.19C170.882 131.446 171.974 131.03 173.108 131.014C173.213 131.014 173.318 131.014 173.421 131.014C172.983 130.88 172.528 130.812 172.07 130.813C170.936 130.829 169.844 131.245 168.987 131.99C168.13 132.734 167.562 133.758 167.384 134.881C165.871 134.54 164.486 134.984 164.235 135.92C163.965 136.899 165.046 138.044 166.646 138.477C166.944 138.56 167.249 138.613 167.558 138.635C166.038 138.19 165.016 137.078 165.273 136.121Z" fill="black"/>
<path opacity="0.1" d="M177.122 146.423C177.122 146.304 177.122 146.188 177.141 146.071C176.661 145.657 176.286 145.136 176.043 144.55C175.169 144.327 174.373 143.864 173.745 143.214C173.117 142.564 172.682 141.751 172.488 140.867C171.834 140.775 171.205 140.546 170.644 140.196C170.082 139.846 169.6 139.381 169.228 138.833C168.925 138.857 168.621 138.849 168.32 138.808C168.694 139.314 169.164 139.739 169.703 140.061C170.242 140.382 170.84 140.592 171.461 140.68C171.653 141.564 172.088 142.377 172.716 143.028C173.344 143.678 174.141 144.139 175.016 144.36C175.258 144.947 175.634 145.469 176.114 145.884C176.114 145.998 176.095 146.114 176.095 146.234C176.081 147.065 176.396 147.868 176.97 148.468C177.544 149.067 178.332 149.415 179.16 149.434C178.556 149.2 178.037 148.786 177.672 148.248C177.308 147.71 177.116 147.074 177.122 146.423Z" fill="black"/>
<path d="M171.878 141.505C172.126 141.317 172.123 140.896 171.873 140.566C171.623 140.235 171.22 140.12 170.972 140.309C170.725 140.497 170.727 140.918 170.977 141.248C171.228 141.578 171.631 141.694 171.878 141.505Z" fill="#FBBEBE"/>
<path d="M84.8331 159.791L88.434 157.667C87.9474 156.833 87.3251 156.086 86.593 155.457L79.802 157.575L85.1223 154.437C83.8049 153.713 82.3223 153.346 80.8205 153.372C79.3186 153.397 77.8493 153.815 76.5571 154.583C75.2649 155.351 74.1943 156.444 73.4507 157.753C72.7071 159.062 72.3161 160.543 72.3163 162.05C72.3163 166.842 76.1903 167.007 80.9672 167.007C85.7441 167.007 89.6181 166.842 89.6181 162.05C89.621 160.835 89.3676 159.634 88.8747 158.524L84.8331 159.791Z" fill="#FF7700"/>
<path opacity="0.1" d="M85.7495 164.45C85.366 164.064 84.9376 163.726 84.4735 163.444C83.822 163.007 83.1435 162.562 82.373 162.416C81.6971 162.286 80.9996 162.397 80.3103 162.356C79.1133 162.283 77.9865 161.765 77.15 160.903C76.658 160.393 76.2714 159.766 75.6793 159.376C75.0176 158.981 74.2368 158.838 73.4788 158.972C73.259 159.002 73.0415 159.047 72.8272 159.105C72.4884 160.049 72.3155 161.046 72.3163 162.05C72.3163 166.842 76.1903 167.007 80.9672 167.007C83.2867 167.007 85.39 166.969 86.9444 166.381L86.6741 165.895C86.4286 165.376 86.1179 164.89 85.7495 164.45Z" fill="black"/>
</g>
<defs>
<linearGradient id="paint0_linear_205_938" x1="153.419" y1="173.467" x2="153.419" y2="130.173" gradientUnits="userSpaceOnUse">
<stop stop-color="#808080" stop-opacity="0.25"/>
<stop offset="0.54" stop-color="#808080" stop-opacity="0.12"/>
<stop offset="1" stop-color="#808080" stop-opacity="0.1"/>
</linearGradient>
<clipPath id="clip0_205_938">
<rect width="309" height="180" fill="white"/>
</clipPath>
</defs>
</svg>
