<svg width="372" height="249" viewBox="0 0 372 249" fill="none" xmlns="http://www.w3.org/2000/svg">
<path d="M111.913 25.0396H81.9492V66.2092H111.913V25.0396Z" fill="#F5F5F5"/>
<path d="M104.319 30.2236H74.3555V71.3933H104.319V30.2236Z" fill="#E0E0E0"/>
<path d="M245.555 86.5226H245.361H244.781H242.524L234.058 86.5525L204.848 86.6521H204.769V86.5724C204.448 85.47 204.391 84.3072 204.603 83.1787C204.815 82.0501 205.289 80.9877 205.987 80.078C206.685 79.1684 207.587 78.4371 208.62 77.9439C209.653 77.4507 210.788 77.2095 211.931 77.2399L211.827 77.3843C211.642 76.7374 211.565 76.0644 211.599 75.3923C211.633 74.2661 211.959 73.1683 212.546 72.2076C213.132 71.2468 213.958 70.4563 214.942 69.9143C215.899 69.4129 216.964 69.154 218.044 69.1601C219.123 69.1662 220.185 69.437 221.137 69.9491L220.983 70.0039C221.512 68.7746 222.289 67.6686 223.264 66.7558C224.24 65.8429 225.394 65.143 226.652 64.7002C227.811 64.2606 229.046 64.0638 230.283 64.1221C231.52 64.1803 232.732 64.4923 233.844 65.0389C235.85 66.1005 237.427 67.8268 238.308 69.9242C239.113 71.7648 239.305 73.8172 238.854 75.7757L238.775 75.6811C239.926 75.5615 241.089 75.7327 242.157 76.1791C243.108 76.5646 243.964 77.1524 244.667 77.9022C244.986 78.2397 245.252 78.6243 245.456 79.0426C245.636 79.4291 245.778 79.8328 245.877 80.2478C246.048 80.9731 246.144 81.714 246.165 82.4589C246.2 83.4817 246.111 84.505 245.902 85.5067C245.846 85.768 245.775 86.0257 245.689 86.2786L245.6 86.5276" fill="#EBEBEB"/>
<path d="M323.462 66.9562C322.079 67.1879 320.789 67.8056 319.74 68.7387C318.691 69.6719 317.925 70.8828 317.529 72.2328C317.133 73.5828 317.124 75.0174 317.503 76.3724C317.881 77.7274 318.632 78.9481 319.669 79.8947C320.706 80.8413 321.987 81.4757 323.367 81.7251C324.746 81.9746 326.168 81.8291 327.469 81.3053C328.77 80.7815 329.897 79.9005 330.723 78.7632C331.548 77.6259 332.038 76.2782 332.137 74.8744L334.185 74.5308L335.296 72.2101L336.893 74.0727L339.458 73.6444L340.554 71.3337L342.151 73.1962L344.353 72.8277L345.023 71.4183L346.015 72.5538L347.299 72.3396L348.708 70.4671L346.292 67.7979L331.04 70.3426C330.252 69.0889 329.112 68.0979 327.763 67.4951C326.414 66.8923 324.917 66.7048 323.462 66.9562ZM319.305 75.2529C319.236 74.8338 319.292 74.4035 319.466 74.0163C319.64 73.6291 319.924 73.3022 320.283 73.077C320.642 72.8518 321.059 72.7382 321.482 72.7507C321.905 72.7631 322.314 72.901 322.659 73.1469C323.004 73.3929 323.269 73.7358 323.42 74.1326C323.571 74.5294 323.602 74.9623 323.509 75.3766C323.415 75.7909 323.202 76.1681 322.895 76.4607C322.588 76.7533 322.202 76.9482 321.785 77.0208C321.506 77.0693 321.221 77.062 320.945 76.9993C320.67 76.9365 320.409 76.8196 320.178 76.6553C319.948 76.4909 319.752 76.2824 319.602 76.0417C319.452 75.8011 319.351 75.533 319.305 75.2529Z" fill="#EBEBEB"/>
<path d="M315.888 124.246L316.81 141.228C316.825 141.52 316.951 141.794 317.161 141.996C317.371 142.198 317.65 142.311 317.941 142.314L348.371 142.533C348.52 142.534 348.669 142.506 348.808 142.449C348.947 142.393 349.073 142.31 349.18 142.204C349.287 142.099 349.372 141.973 349.431 141.835C349.489 141.696 349.52 141.548 349.521 141.397L349.616 128.18C349.617 128.029 349.588 127.879 349.532 127.739C349.475 127.599 349.391 127.471 349.285 127.364C349.179 127.257 349.053 127.171 348.914 127.113C348.775 127.055 348.625 127.025 348.475 127.025H329.761C329.611 127.026 329.463 126.996 329.325 126.938C329.187 126.88 329.062 126.794 328.957 126.686L325.728 123.449C325.516 123.237 325.23 123.115 324.93 123.111L317.038 123.056C316.884 123.054 316.731 123.085 316.588 123.144C316.446 123.204 316.317 123.292 316.209 123.404C316.101 123.515 316.017 123.647 315.962 123.792C315.907 123.937 315.882 124.091 315.888 124.246Z" fill="#EBEBEB"/>
<path d="M349.642 125.033L316.391 124.788L316.245 144.737L349.496 144.982L349.642 125.033Z" fill="#F5F5F5"/>
<path d="M313.735 126.557L316.121 147.373C316.14 147.553 316.225 147.719 316.358 147.84C316.492 147.961 316.665 148.029 316.845 148.031L349.249 148.265C349.433 148.267 349.611 148.198 349.747 148.073C349.884 147.949 349.968 147.777 349.983 147.592L351.768 126.801C351.777 126.699 351.765 126.597 351.732 126.501C351.7 126.404 351.648 126.316 351.579 126.241C351.51 126.166 351.427 126.106 351.334 126.065C351.241 126.024 351.141 126.004 351.039 126.004L314.464 125.735C314.36 125.734 314.258 125.756 314.163 125.798C314.068 125.84 313.983 125.902 313.914 125.98C313.845 126.058 313.793 126.15 313.763 126.249C313.732 126.349 313.722 126.453 313.735 126.557Z" fill="#EBEBEB"/>
<path d="M312.049 218C304.336 212.591 302.585 202.562 302.892 193.518C302.942 192.024 302.778 190.42 303.493 189.101C304.207 187.781 305.868 186.875 307.213 187.507C308.329 188.035 308.815 189.34 309.44 190.415C310.27 191.852 311.49 193.023 312.956 193.792C313.913 194.29 315.099 194.594 316.041 194.071C317.336 193.353 317.49 191.556 317.48 190.057C317.46 187.261 317.442 184.469 317.425 181.68C317.335 180.182 317.487 178.678 317.877 177.228C318.343 175.804 319.365 174.484 320.788 174.081C322.212 173.678 323.962 174.504 324.26 175.973C324.316 176.594 324.329 177.218 324.3 177.841C324.344 178.463 324.632 179.151 325.217 179.335C325.803 179.519 326.413 179.086 326.859 178.643C328.402 177.149 329.443 175.181 330.42 173.244C331.397 171.307 332.35 169.32 333.749 167.667C335.147 166.013 337.077 164.709 339.205 164.589C341.332 164.469 343.624 165.794 344.165 167.901C344.705 170.007 343.475 172.159 342.141 173.877C340.157 176.414 337.818 178.65 335.197 180.515C334.694 180.802 334.295 181.241 334.056 181.77C333.734 182.766 334.676 183.762 335.658 184.091C336.769 184.464 337.979 184.345 339.13 184.484C340.281 184.624 341.556 185.136 341.997 186.242C342.607 187.771 341.332 189.379 340.077 190.43C337.567 192.535 334.715 194.191 331.645 195.326C330.544 195.729 329.389 196.083 328.506 196.859C327.623 197.636 327.082 198.981 327.618 200.037C328.154 201.092 329.528 201.431 330.678 201.217C331.829 201.003 332.856 200.375 333.952 199.962C336.005 199.185 338.654 199.325 339.968 201.107C340.369 201.72 340.623 202.417 340.709 203.145C340.795 203.873 340.711 204.611 340.464 205.301C339.964 206.675 339.195 207.935 338.203 209.006C334.949 212.917 330.719 215.892 325.946 217.626C321.19 219.284 316.78 219.733 312.058 217.995" fill="#EBEBEB"/>
<path d="M311.929 224.693C312.35 220.507 313.167 216.372 314.37 212.342C315.864 207.43 317.638 202.608 319.682 197.9L321.264 194.185C321.79 192.965 322.306 191.755 322.886 190.604C324.004 188.395 325.244 186.25 326.601 184.18C327.881 182.188 329.165 180.356 330.381 178.648C331.596 176.939 332.766 175.371 333.887 173.986C335.649 171.782 337.583 169.722 339.671 167.826C340.405 167.159 340.995 166.661 341.397 166.332L341.858 165.953C341.907 165.906 341.962 165.866 342.022 165.834L341.878 165.978C341.764 166.073 341.62 166.207 341.432 166.372C341.04 166.72 340.44 167.233 339.74 167.911C337.689 169.826 335.783 171.892 334.036 174.091C332.925 175.48 331.774 177.054 330.564 178.762C329.354 180.47 328.084 182.318 326.809 184.3C325.467 186.376 324.238 188.523 323.129 190.734C322.554 191.879 322.038 193.075 321.517 194.3L319.93 198.015C317.893 202.726 316.117 207.548 314.613 212.457C313.407 216.469 312.576 220.585 312.133 224.752" fill="#E0E0E0"/>
<path d="M322.966 190.575C322.897 190.366 322.848 190.151 322.822 189.932C322.742 189.519 322.648 188.936 322.544 188.169C322.331 186.675 322.112 184.609 321.874 182.323C321.636 180.037 321.378 177.975 321.155 176.491C321.041 175.749 320.942 175.147 320.872 174.733C320.818 174.52 320.79 174.301 320.788 174.081C320.874 174.284 320.937 174.496 320.977 174.714C321.081 175.117 321.21 175.71 321.349 176.457C321.631 177.951 321.914 180.007 322.147 182.293C322.38 184.579 322.579 186.586 322.737 188.145C322.812 188.847 322.876 189.444 322.926 189.917C322.964 190.134 322.978 190.355 322.966 190.575Z" fill="#E0E0E0"/>
<path d="M342.161 186.969C341.908 187.027 341.651 187.059 341.392 187.064C340.896 187.109 340.187 187.169 339.309 187.268C337.553 187.462 335.132 187.811 332.484 188.309C329.835 188.807 327.449 189.38 325.738 189.833C324.88 190.057 324.191 190.256 323.715 190.391C323.47 190.473 323.22 190.535 322.966 190.575C323.196 190.457 323.437 190.36 323.685 190.286C324.151 190.117 324.836 189.893 325.669 189.644C327.37 189.146 329.751 188.543 332.409 188.035C334.68 187.597 336.971 187.276 339.274 187.074C340.157 186.994 340.871 186.964 341.367 186.954C341.632 186.939 341.897 186.944 342.161 186.969Z" fill="#E0E0E0"/>
<path d="M314.608 211.989C314.554 211.915 314.509 211.835 314.474 211.75C314.385 211.565 314.276 211.331 314.147 211.052C313.864 210.45 313.477 209.558 313.016 208.453C312.088 206.247 310.908 203.159 309.648 199.733C308.388 196.307 307.232 193.204 306.355 190.983C305.923 189.902 305.571 188.991 305.303 188.349L305.025 187.632C304.987 187.549 304.959 187.462 304.941 187.373C304.995 187.446 305.04 187.527 305.075 187.612L305.402 188.309C305.685 188.911 306.072 189.803 306.533 190.908C307.461 193.115 308.641 196.202 309.901 199.633C311.161 203.065 312.316 206.157 313.194 208.378L314.246 211.013L314.524 211.73C314.562 211.812 314.59 211.899 314.608 211.989Z" fill="#E0E0E0"/>
<path d="M340.112 203.732C340.033 203.778 339.948 203.813 339.859 203.837L339.115 204.086L336.387 204.977C334.081 205.729 330.906 206.8 327.405 207.965C323.903 209.13 320.709 210.206 318.387 210.908C317.227 211.262 316.284 211.536 315.63 211.71L314.876 211.909C314.789 211.936 314.699 211.955 314.608 211.964C314.687 211.916 314.772 211.879 314.861 211.854L315.6 211.61L318.333 210.719C320.639 209.967 323.789 208.896 327.315 207.701C330.842 206.506 334.006 205.465 336.328 204.763C337.488 204.409 338.431 204.135 339.086 203.961L339.844 203.762C339.932 203.742 340.022 203.732 340.112 203.732Z" fill="#E0E0E0"/>
<path d="M343.43 224.712C343.43 224.787 272.12 224.842 184.175 224.842C96.2289 224.842 24.8992 224.787 24.8992 224.712C24.8992 224.638 96.1942 224.598 184.175 224.598C272.155 224.598 343.43 224.643 343.43 224.712Z" fill="#263238"/>
<path d="M306.692 207.327C307.555 208.448 309.107 207.985 309.802 207.238C310.496 206.491 310.749 205.455 310.982 204.459C311.508 202.193 312.039 199.818 311.448 197.567C311.297 196.882 310.962 196.252 310.481 195.744C310.237 195.496 309.932 195.316 309.597 195.224C309.262 195.131 308.908 195.128 308.572 195.216C307.788 195.465 307.337 196.267 307.019 197.029C306.08 199.269 305.651 201.692 305.764 204.12C305.743 205.259 306.066 206.377 306.692 207.327Z" fill="#FC9338"/>
<g opacity="0.2">
<path d="M306.692 207.327C307.555 208.448 309.107 207.985 309.802 207.238C310.496 206.491 310.749 205.455 310.982 204.459C311.508 202.193 312.039 199.818 311.448 197.567C311.297 196.882 310.962 196.252 310.481 195.744C310.237 195.496 309.932 195.316 309.597 195.224C309.262 195.131 308.908 195.128 308.572 195.216C307.788 195.465 307.337 196.267 307.019 197.029C306.08 199.269 305.651 201.692 305.764 204.12C305.743 205.259 306.066 206.377 306.692 207.327Z" fill="black"/>
</g>
<path d="M310 213.044C311.323 212.336 312.837 212.073 314.32 212.292C315.125 212.326 315.897 212.627 316.512 213.149C317.083 213.717 317.237 214.758 316.646 215.3C316.26 215.588 315.788 215.734 315.307 215.714C314.156 215.758 312.872 215.619 311.989 216.361C311.493 216.779 311.171 217.457 310.555 217.686C310.245 217.774 309.915 217.758 309.615 217.641C309.314 217.524 309.059 217.313 308.889 217.038C308.563 216.476 308.463 215.809 308.611 215.176C308.663 214.737 308.816 214.316 309.057 213.947C309.297 213.577 309.62 213.268 310 213.044Z" fill="#FC9338"/>
<path d="M304.544 209.105C304.931 208.539 305.175 207.887 305.254 207.205C305.334 206.523 305.247 205.832 305 205.191C304.486 203.908 303.627 202.793 302.52 201.969C301.269 200.96 299.833 200.206 298.295 199.748C297.699 199.542 297.066 199.467 296.439 199.529C296.13 199.562 295.833 199.67 295.574 199.844C295.315 200.017 295.101 200.251 294.951 200.525C294.56 201.376 295.026 202.357 295.517 203.149C296.376 204.552 297.345 205.884 298.414 207.133C299.277 208.129 300.254 209.125 301.504 209.529C302.754 209.932 304.033 209.817 304.643 208.931" fill="#FC9338"/>
<path d="M307.52 224.817C307.553 224.643 307.568 224.466 307.565 224.289C307.565 223.901 307.609 223.418 307.634 222.84C307.659 222.262 307.723 221.51 307.847 220.719C307.994 219.86 308.208 219.014 308.487 218.189C308.761 217.366 309.148 216.587 309.638 215.873C310.039 215.292 310.564 214.809 311.176 214.459C311.588 214.223 312.035 214.054 312.5 213.961C312.668 213.945 312.835 213.912 312.996 213.861C312.82 213.84 312.641 213.84 312.465 213.861C311.981 213.922 311.512 214.07 311.081 214.299C310.437 214.642 309.881 215.131 309.459 215.729C308.947 216.454 308.544 217.251 308.264 218.094C307.98 218.931 307.769 219.79 307.634 220.664C307.532 221.375 307.474 222.092 307.461 222.81C307.461 223.423 307.461 223.921 307.461 224.259C307.459 224.447 307.479 224.634 307.52 224.817Z" fill="#263238"/>
<path d="M307.56 223.707C307.566 223.625 307.566 223.544 307.56 223.463C307.56 223.278 307.56 223.044 307.525 222.76C307.49 222.158 307.446 221.266 307.426 220.191C307.371 218.02 307.426 215.022 307.599 211.725C307.773 208.428 308.125 205.43 308.453 203.284C308.532 202.746 308.611 202.263 308.686 201.84C308.76 201.416 308.82 201.048 308.884 200.749C308.949 200.45 308.978 200.251 309.013 200.062C309.03 199.981 309.04 199.9 309.043 199.818C309.007 199.892 308.982 199.97 308.968 200.052L308.8 200.734C308.725 201.028 308.651 201.391 308.567 201.815C308.482 202.238 308.388 202.721 308.304 203.259C307.846 206.062 307.538 208.888 307.381 211.725C307.188 215.037 307.178 218.049 307.272 220.221C307.312 221.311 307.381 222.188 307.441 222.795L307.515 223.493C307.521 223.566 307.536 223.638 307.56 223.707Z" fill="#263238"/>
<path d="M307.282 217.915C307.287 217.672 307.272 217.428 307.237 217.188C307.163 216.527 307.055 215.871 306.915 215.221C306.71 214.256 306.449 213.305 306.131 212.372C305.753 211.224 305.294 210.104 304.757 209.021C303.823 207.025 302.536 205.216 300.958 203.682C300.684 203.42 300.394 203.176 300.09 202.95C299.956 202.85 299.837 202.751 299.718 202.671L299.386 202.462C299.183 202.329 298.973 202.207 298.756 202.098C299.488 202.623 300.188 203.19 300.854 203.797C302.377 205.347 303.625 207.147 304.544 209.12C305.078 210.193 305.539 211.301 305.923 212.437C306.244 213.362 306.519 214.303 306.746 215.256C306.94 216.067 307.059 216.75 307.138 217.198C307.166 217.44 307.214 217.68 307.282 217.915Z" fill="#263238"/>
<path d="M73.3485 112.922H17.2708V150.63H73.3485V112.922Z" fill="#FAFAFA"/>
<path d="M58.1113 135.795H56.6233V126.766C56.5872 125.747 56.1588 124.783 55.4284 124.075C54.698 123.367 53.7225 122.972 52.7074 122.972C51.6923 122.972 50.7168 123.367 49.9864 124.075C49.256 124.783 48.8276 125.747 48.7915 126.766V135.795H47.3035V126.766C47.3461 125.354 47.9346 124.014 48.9443 123.031C49.954 122.047 51.3055 121.497 52.7123 121.497C54.1192 121.497 55.4707 122.047 56.4804 123.031C57.4901 124.014 58.0786 125.354 58.1212 126.766L58.1113 135.795Z" fill="#263238"/>
<path d="M58.4189 131.776H46.9861C46.0575 131.776 45.3047 132.532 45.3047 133.464V139.619C45.3047 140.552 46.0575 141.308 46.9861 141.308H58.4189C59.3476 141.308 60.1004 140.552 60.1004 139.619V133.464C60.1004 132.532 59.3476 131.776 58.4189 131.776Z" fill="#263238"/>
<path d="M52.705 136.542C52.4607 136.542 52.222 136.469 52.0189 136.333C51.8158 136.197 51.6575 136.003 51.564 135.776C51.4705 135.55 51.446 135.3 51.4937 135.06C51.5414 134.819 51.659 134.598 51.8317 134.425C52.0044 134.252 52.2245 134.133 52.4641 134.086C52.7036 134.038 52.952 134.062 53.1776 134.156C53.4033 134.25 53.5962 134.409 53.7319 134.613C53.8676 134.817 53.94 135.057 53.94 135.302C53.94 135.631 53.8099 135.946 53.5783 136.179C53.3467 136.411 53.0326 136.542 52.705 136.542Z" fill="#455A64"/>
<path d="M53.0422 135.795H52.3677V138.349H53.0422V135.795Z" fill="#455A64"/>
<path d="M44.9376 135.685C46.0087 135.211 46.9177 134.432 47.5517 133.444C48.1857 132.456 48.5167 131.303 48.5038 130.127C48.5038 126.806 46.0238 124.102 42.9139 124.087C39.804 124.072 37.2892 126.751 37.2744 130.063C37.2486 131.25 37.5754 132.417 38.2132 133.417C38.851 134.416 39.7709 135.203 40.8555 135.675C32.24 136.995 32.607 146.412 32.607 146.412L53.0372 146.507C53.0372 146.507 53.5035 136.985 44.9376 135.685Z" fill="#FC9338"/>
<path d="M73.3435 150.635C73.3435 150.635 73.3435 150.396 73.3435 149.943C73.3435 149.49 73.3435 148.822 73.3435 147.951C73.3435 146.203 73.3435 143.643 73.3137 140.366C73.3137 133.813 73.284 124.4 73.2641 112.922L73.3633 113.026H17.3153L17.4443 112.897C17.4443 126.343 17.4443 139.106 17.4443 150.61L17.3302 150.491L57.7195 150.545L69.2664 150.58H72.3366H73.1302H73.403H72.3664H69.316L57.7989 150.615L17.3302 150.67H17.2112V150.555C17.2112 139.052 17.2112 126.278 17.2112 112.842V112.712H17.3451L73.4179 112.742H73.5221V112.842C73.5221 124.346 73.4824 133.783 73.4675 140.351C73.4675 143.618 73.4675 146.173 73.4427 147.916C73.4427 148.778 73.4427 149.435 73.4427 149.908C73.4427 150.381 73.3435 150.635 73.3435 150.635Z" fill="#263238"/>
<path d="M73.3335 117.453C73.3335 117.523 60.7847 117.583 45.3144 117.583C29.8442 117.583 17.2954 117.523 17.2954 117.453C17.2954 117.384 29.8392 117.324 45.3144 117.324C60.7896 117.324 73.3335 117.384 73.3335 117.453Z" fill="#263238"/>
<path d="M20.9609 115.193C20.9609 115.308 20.9269 115.42 20.8631 115.516C20.7994 115.612 20.7087 115.687 20.6027 115.731C20.4967 115.775 20.38 115.786 20.2674 115.764C20.1548 115.742 20.0514 115.686 19.9703 115.605C19.8891 115.523 19.8338 115.419 19.8114 115.306C19.7891 115.193 19.8005 115.076 19.8445 114.97C19.8884 114.863 19.9628 114.772 20.0582 114.708C20.1536 114.644 20.2658 114.61 20.3806 114.61C20.5345 114.61 20.6821 114.671 20.791 114.781C20.8998 114.89 20.9609 115.038 20.9609 115.193Z" fill="#263238"/>
<path d="M22.8606 115.193C22.8606 115.347 22.7995 115.495 22.6906 115.605C22.5818 115.714 22.4342 115.775 22.2803 115.775C22.1264 115.775 21.9788 115.714 21.8699 115.605C21.7611 115.495 21.7 115.347 21.7 115.193C21.7 115.038 21.7611 114.89 21.8699 114.781C21.9788 114.671 22.1264 114.61 22.2803 114.61C22.4342 114.61 22.5818 114.671 22.6906 114.781C22.7995 114.89 22.8606 115.038 22.8606 115.193Z" fill="#263238"/>
<path d="M24.8992 115.192C24.8991 115.307 24.8654 115.419 24.8023 115.515C24.7392 115.61 24.6494 115.685 24.5442 115.729C24.439 115.774 24.3231 115.786 24.211 115.765C24.0988 115.743 23.9954 115.689 23.9137 115.609C23.832 115.529 23.7756 115.427 23.7515 115.315C23.7275 115.203 23.7369 115.086 23.7785 114.98C23.8202 114.873 23.8923 114.781 23.9857 114.715C24.0792 114.649 24.1899 114.613 24.304 114.61C24.3814 114.608 24.4585 114.621 24.5306 114.65C24.6028 114.678 24.6685 114.721 24.724 114.775C24.7794 114.829 24.8235 114.894 24.8536 114.966C24.8837 115.038 24.8992 115.115 24.8992 115.192Z" fill="#263238"/>
<path d="M73.3435 150.635C73.3435 150.635 73.3435 150.396 73.3435 149.943C73.3435 149.49 73.3435 148.822 73.3435 147.951C73.3435 146.203 73.3435 143.643 73.3137 140.366C73.3137 133.813 73.284 124.4 73.2641 112.922L73.3633 113.026H17.3153L17.4443 112.897C17.4443 126.343 17.4443 139.106 17.4443 150.61L17.3302 150.491L57.7195 150.545L69.2664 150.58H72.3366H73.1302H73.403H72.3664H69.316L57.7989 150.615L17.3302 150.67H17.2112V150.555C17.2112 139.052 17.2112 126.278 17.2112 112.842V112.712H17.3451L73.4179 112.742H73.5221V112.842C73.5221 124.346 73.4824 133.783 73.4675 140.351C73.4675 143.618 73.4675 146.173 73.4427 147.916C73.4427 148.778 73.4427 149.435 73.4427 149.908C73.4427 150.381 73.3435 150.635 73.3435 150.635Z" fill="#263238"/>
<path d="M44.9424 151.89C44.873 151.89 44.8135 151.611 44.8135 151.268C44.8135 150.924 44.873 150.645 44.9424 150.645C45.0119 150.645 45.0764 150.924 45.0764 151.268C45.0764 151.611 45.0168 151.89 44.9424 151.89Z" fill="#263238"/>
<path d="M44.9424 157.328C44.8165 156.885 44.7728 156.423 44.8135 155.964C44.7725 155.506 44.8162 155.046 44.9424 154.604C45.0745 155.044 45.12 155.506 45.0763 155.964C45.1198 156.423 45.0743 156.886 44.9424 157.328Z" fill="#263238"/>
<path d="M44.9424 162.776C44.8165 162.333 44.7728 161.871 44.8135 161.412C44.7725 160.954 44.8162 160.494 44.9424 160.052C45.0745 160.492 45.12 160.954 45.0763 161.412C45.1198 161.871 45.0743 162.334 44.9424 162.776Z" fill="#263238"/>
<path d="M44.9424 168.225C44.8165 167.781 44.7728 167.319 44.8135 166.86C44.7725 166.403 44.8162 165.942 44.9424 165.5C45.0745 165.941 45.12 166.402 45.0763 166.86C45.1198 167.319 45.0743 167.783 44.9424 168.225Z" fill="#263238"/>
<path d="M44.9424 173.673C44.8165 173.229 44.7728 172.767 44.8135 172.308C44.7725 171.851 44.8162 171.39 44.9424 170.948C45.0745 171.389 45.12 171.85 45.0763 172.308C45.1198 172.767 45.0743 173.231 44.9424 173.673Z" fill="#263238"/>
<path d="M46.1824 177.642C45.782 177.768 45.3602 177.812 44.9424 177.771L44.8135 177.642V177.174C44.8135 177.024 44.8135 176.89 44.8432 176.775C44.8432 176.551 44.8978 176.412 44.9325 176.412C44.9672 176.412 45.002 176.551 45.0268 176.775C45.0268 176.89 45.0268 177.024 45.0268 177.174V177.408V177.642C44.9672 177.582 45.1508 177.771 44.8928 177.512C45.327 177.464 45.7664 177.508 46.1824 177.642Z" fill="#263238"/>
<path d="M51.0582 177.642C50.6645 177.768 50.2493 177.812 49.838 177.771C49.4284 177.812 49.0148 177.768 48.6228 177.642C49.0148 177.516 49.4284 177.472 49.838 177.512C50.2493 177.471 50.6645 177.515 51.0582 177.642Z" fill="#263238"/>
<path d="M55.934 177.642C55.5403 177.768 55.1251 177.812 54.7138 177.771C54.3026 177.812 53.8873 177.768 53.4937 177.642C53.8873 177.515 54.3026 177.471 54.7138 177.512C55.1251 177.471 55.5403 177.515 55.934 177.642Z" fill="#263238"/>
<path d="M60.8095 177.642C60.4158 177.768 60.0006 177.812 59.5893 177.771C59.178 177.812 58.7628 177.768 58.3691 177.642C58.7628 177.515 59.178 177.471 59.5893 177.512C60.0006 177.471 60.4158 177.515 60.8095 177.642Z" fill="#263238"/>
<path d="M65.6802 177.642C64.8776 177.814 64.0476 177.814 63.2449 177.642C64.0476 177.469 64.8776 177.469 65.6802 177.642Z" fill="#263238"/>
<path d="M70.556 177.642C69.7533 177.814 68.9233 177.814 68.1206 177.642C68.9233 177.469 69.7533 177.469 70.556 177.642Z" fill="#263238"/>
<path d="M75.4318 177.642C74.6274 177.814 73.7958 177.814 72.9915 177.642C73.7958 177.469 74.6274 177.469 75.4318 177.642Z" fill="#263238"/>
<path d="M80.3023 177.642C79.4996 177.814 78.6696 177.814 77.8669 177.642C78.6696 177.469 79.4996 177.469 80.3023 177.642Z" fill="#263238"/>
<path d="M85.178 177.642C84.3753 177.814 83.5454 177.814 82.7427 177.642C83.5454 177.469 84.3753 177.469 85.178 177.642Z" fill="#263238"/>
<path d="M90.0538 177.642C89.2495 177.814 88.4179 177.814 87.6135 177.642C88.4179 177.469 89.2495 177.469 90.0538 177.642Z" fill="#263238"/>
<path d="M94.9244 177.642C94.1217 177.814 93.2917 177.814 92.489 177.642C93.2917 177.469 94.1217 177.469 94.9244 177.642Z" fill="#263238"/>
<path d="M98.6047 177.642C98.6047 177.711 98.327 177.771 97.9847 177.771C97.6425 177.771 97.3647 177.711 97.3647 177.642C97.3647 177.572 97.6425 177.512 97.9847 177.512C98.327 177.512 98.6047 177.572 98.6047 177.642Z" fill="#263238"/>
<path d="M99.185 36.5483H69.2217V77.718H99.185V36.5483Z" fill="white"/>
<path d="M99.2 77.6881C99.2 77.6881 99.2 77.6184 99.2 77.4839C99.2 77.3495 99.2 77.1503 99.2 76.9013C99.2 76.4033 99.2 75.6264 99.2 74.6503C99.2 72.6832 99.2 69.8147 99.1603 66.1843C99.1603 58.9384 99.1058 48.6647 99.071 36.5085L99.2049 36.6429L69.2465 36.6778L69.3953 36.5284V77.6981L69.2763 77.5785L91.0358 77.6234L97.092 77.6532H98.6842H99.2397C99.2397 77.6532 99.0661 77.6532 98.7139 77.6532H97.1416L91.1102 77.6881L69.2862 77.7678H69.1622V77.6433C69.1622 66.0897 69.1275 51.8519 69.1077 36.4736V36.3242H69.2614H99.2198H99.3587V36.4637C99.3587 48.6547 99.324 58.9633 99.3091 66.2291C99.3091 69.8396 99.3091 72.7031 99.2794 74.6553C99.2794 75.6214 99.2794 76.3634 99.2794 76.8764C99.2794 77.1204 99.2794 77.3096 99.2794 77.4441C99.261 77.5278 99.2344 77.6096 99.2 77.6881Z" fill="#263238"/>
<path d="M87.5391 44.8202C87.5391 44.9049 84.2804 44.9696 80.2578 44.9746C76.2353 44.9796 72.9766 44.9148 72.9766 44.8302C72.9766 44.7455 76.2353 44.6758 80.2578 44.6758C84.2804 44.6758 87.5391 44.7355 87.5391 44.8202Z" fill="#263238"/>
<path d="M95.4156 48.3907C95.4156 48.4753 90.3911 48.545 84.1961 48.55C78.001 48.555 72.9766 48.4903 72.9766 48.4056C72.9766 48.3209 78.001 48.2512 84.1961 48.2512C90.3911 48.2512 95.4156 48.306 95.4156 48.3907Z" fill="#263238"/>
<path d="M95.4205 52.1256C95.4205 52.2053 90.396 52.275 84.201 52.28C78.0059 52.285 72.9814 52.2203 72.9814 52.1406C72.9814 52.0609 78.0059 51.9862 84.201 51.9812C90.396 51.9762 95.4205 52.041 95.4205 52.1256Z" fill="#263238"/>
<path d="M95.4204 55.8559C95.4204 55.9405 90.4009 56.0102 84.2059 56.0152C78.0108 56.0202 72.9863 55.9555 72.9863 55.8708C72.9863 55.7861 78.0059 55.7164 84.2059 55.7114C90.4059 55.7065 95.4204 55.7762 95.4204 55.8559Z" fill="#263238"/>
<path d="M95.4254 59.5858C95.4254 59.6704 90.4009 59.7401 84.2059 59.7451C78.0108 59.7501 72.9863 59.6854 72.9863 59.6057C72.9863 59.526 78.0108 59.4513 84.2059 59.4463C90.4009 59.4413 95.4254 59.5061 95.4254 59.5858Z" fill="#263238"/>
<path d="M95.4255 63.3207C95.4255 63.4053 90.406 63.4751 84.211 63.48C78.0159 63.485 72.9915 63.4203 72.9915 63.3356C72.9915 63.251 78.011 63.1812 84.211 63.1763C90.411 63.1713 95.4255 63.246 95.4255 63.3207Z" fill="#263238"/>
<path d="M95.4305 67.0508C95.4305 67.1355 90.406 67.2052 84.211 67.2102C78.0159 67.2152 72.9915 67.1504 72.9915 67.0708C72.9915 66.9911 78.0159 66.9164 84.211 66.9114C90.406 66.9064 95.4305 66.9712 95.4305 67.0508Z" fill="#263238"/>
<path d="M85.0541 70.7909C85.0541 70.8756 82.3559 70.9453 79.0277 70.9453C75.6995 70.9453 72.9963 70.8855 72.9963 70.8009C72.9963 70.7162 75.6946 70.6465 79.0277 70.6465C82.3608 70.6465 85.0541 70.7162 85.0541 70.7909Z" fill="#263238"/>
<path d="M96.581 80.7009C99.9422 80.7009 102.667 77.9652 102.667 74.5904C102.667 71.2157 99.9422 68.48 96.581 68.48C93.2199 68.48 90.4951 71.2157 90.4951 74.5904C90.4951 77.9652 93.2199 80.7009 96.581 80.7009Z" fill="#FC9338"/>
<path d="M100.073 72.2351C100.331 72.4791 99.1356 74.1872 97.4046 76.0547C97.1219 76.3535 96.8491 76.6374 96.5862 76.9013L96.1646 77.3196L95.743 76.9661C94.2302 75.6912 93.2382 74.5956 93.4217 74.3565C93.6052 74.1175 94.9097 74.8197 96.5118 75.98L95.6735 76.0448C95.9166 75.7659 96.1695 75.4671 96.4572 75.1683C98.2081 73.3008 99.8102 71.991 100.073 72.2351Z" fill="#E0E0E0"/>
<path d="M81.9341 79.9639C81.7622 79.1429 81.7622 78.2949 81.9341 77.4739C82.1061 78.2949 82.1061 79.1429 81.9341 79.9639Z" fill="#263238"/>
<path d="M81.9341 84.9439C81.7622 84.1228 81.7622 83.2749 81.9341 82.4539C82.1061 83.2749 82.1061 84.1228 81.9341 84.9439Z" fill="#263238"/>
<path d="M81.9341 89.9241C81.7622 89.1031 81.7622 88.2551 81.9341 87.4341C82.1061 88.2551 82.1061 89.1031 81.9341 89.9241Z" fill="#263238"/>
<path d="M81.9341 94.9041C81.7622 94.083 81.7622 93.2351 81.9341 92.4141C82.1061 93.2351 82.1061 94.083 81.9341 94.9041Z" fill="#263238"/>
<path d="M81.9341 99.884C81.7622 99.063 81.7622 98.2151 81.9341 97.394C82.1061 98.2151 82.1061 99.063 81.9341 99.884Z" fill="#263238"/>
<path d="M81.9341 104.864C81.7622 104.043 81.7622 103.195 81.9341 102.374C82.1061 103.195 82.1061 104.043 81.9341 104.864Z" fill="#263238"/>
<path d="M81.9341 109.844C81.7622 109.023 81.7622 108.175 81.9341 107.354C82.1061 108.175 82.1061 109.023 81.9341 109.844Z" fill="#263238"/>
<path d="M81.9341 114.824C81.7622 114.003 81.7622 113.155 81.9341 112.334C82.1061 113.155 82.1061 114.003 81.9341 114.824Z" fill="#263238"/>
<path d="M84.3201 117.399C83.9196 117.525 83.4979 117.569 83.0801 117.528C82.6933 117.538 82.3064 117.511 81.9244 117.449H81.8699V117.414C81.8699 117.359 81.8996 117.329 81.9145 117.329C81.9294 117.329 81.9492 117.359 81.9641 117.414L81.9145 117.369C82.2959 117.301 82.6831 117.273 83.0702 117.284C83.4903 117.237 83.9155 117.276 84.3201 117.399Z" fill="#263238"/>
<path d="M89.28 117.399C88.4623 117.571 87.6178 117.571 86.8 117.399C87.6178 117.226 88.4623 117.226 89.28 117.399Z" fill="#263238"/>
<path d="M94.24 117.399C93.4223 117.571 92.5777 117.571 91.76 117.399C92.5777 117.226 93.4223 117.226 94.24 117.399Z" fill="#263238"/>
<path d="M99.2 117.399C98.3822 117.571 97.5377 117.571 96.72 117.399C97.5377 117.226 98.3822 117.226 99.2 117.399Z" fill="#263238"/>
<path d="M104.16 117.399C103.342 117.571 102.498 117.571 101.68 117.399C102.498 117.226 103.342 117.226 104.16 117.399Z" fill="#263238"/>
<path d="M186.779 72.3496C186.607 71.5286 186.607 70.6806 186.779 69.8596C186.951 70.6806 186.951 71.5286 186.779 72.3496Z" fill="#263238"/>
<path d="M186.779 77.3296C186.607 76.5086 186.607 75.6606 186.779 74.8396C186.951 75.6606 186.951 76.5086 186.779 77.3296Z" fill="#263238"/>
<path d="M186.779 82.3096C186.607 81.4886 186.607 80.6406 186.779 79.8196C186.951 80.6406 186.951 81.4886 186.779 82.3096Z" fill="#263238"/>
<path d="M186.779 87.2847C186.607 86.4637 186.607 85.6157 186.779 84.7947C186.951 85.6157 186.951 86.4637 186.779 87.2847Z" fill="#263238"/>
<path d="M186.779 92.2695C186.608 91.4484 186.608 90.6006 186.779 89.7795C186.95 90.6006 186.95 91.4484 186.779 92.2695Z" fill="#263238"/>
<path d="M186.779 97.2495C186.607 96.4285 186.607 95.5805 186.779 94.7595C186.951 95.5805 186.951 96.4285 186.779 97.2495Z" fill="#263238"/>
<path d="M186.779 102.23C186.607 101.408 186.607 100.561 186.779 99.7395C186.951 100.561 186.951 101.408 186.779 102.23Z" fill="#263238"/>
<path d="M186.779 107.209C186.607 106.388 186.607 105.541 186.779 104.719C186.951 105.541 186.951 106.388 186.779 107.209Z" fill="#263238"/>
<path d="M220.462 75.5468H220.169H219.291H215.874L203.057 75.5916L158.819 75.6962H158.72L158.685 75.5817C158.199 73.9125 158.113 72.1516 158.434 70.4425C158.754 68.7335 159.472 67.1247 160.53 65.7474C161.587 64.3701 162.954 63.2632 164.519 62.5169C166.083 61.7707 167.801 61.4063 169.533 61.4534L169.369 61.6676C169.097 60.6962 168.982 59.6875 169.027 58.6796C169.161 55.2434 171.105 51.9267 174.091 50.3928C175.539 49.6326 177.15 49.2397 178.784 49.2484C180.418 49.257 182.025 49.6671 183.465 50.4426L183.237 50.5273C184.035 48.6691 185.208 46.9975 186.683 45.6182C188.157 44.2389 189.901 43.182 191.803 42.5145C195.454 41.1798 199.501 41.3541 202.685 43.0125C205.714 44.6203 208.094 47.2318 209.421 50.4028C210.64 53.1892 210.933 56.2959 210.254 59.2622L210.13 59.1228C211.877 58.9369 213.643 59.1955 215.264 59.8748C216.704 60.4601 218 61.3521 219.063 62.4893C219.549 62.9972 219.953 63.5786 220.259 64.2123C220.532 64.7988 220.746 65.411 220.899 66.04C221.156 67.1362 221.302 68.2558 221.335 69.3816C221.389 70.9327 221.254 72.4847 220.933 74.003C220.849 74.3954 220.743 74.7827 220.616 75.1634C220.527 75.4223 220.477 75.5468 220.477 75.5468" fill="#FC9338"/>
<path d="M214.852 58.4902H212.943V46.9565C212.943 45.6239 212.416 44.3458 211.477 43.4034C210.538 42.4611 209.265 41.9317 207.938 41.9317C206.611 41.9317 205.338 42.4611 204.399 43.4034C203.461 44.3458 202.934 45.6239 202.934 46.9565V58.4902H201.024V46.9565C201.024 45.1154 201.752 43.3496 203.049 42.0477C204.346 40.7458 206.104 40.0144 207.938 40.0144C209.772 40.0144 211.531 40.7458 212.827 42.0477C214.124 43.3496 214.852 45.1154 214.852 46.9565V58.4902Z" fill="#E0E0E0"/>
<path d="M215.71 53.3557H200.166C199.237 53.3557 198.484 54.1116 198.484 55.0439V63.8486C198.484 64.781 199.237 65.5368 200.166 65.5368H215.71C216.639 65.5368 217.392 64.781 217.392 63.8486V55.0439C217.392 54.1116 216.639 53.3557 215.71 53.3557Z" fill="#E0E0E0"/>
<path d="M207.938 59.4463C207.625 59.4473 207.318 59.3548 207.057 59.1806C206.796 59.0064 206.593 58.7584 206.472 58.4679C206.352 58.1774 206.32 57.8576 206.381 57.549C206.442 57.2403 206.593 56.9568 206.814 56.7343C207.036 56.5119 207.318 56.3605 207.626 56.2993C207.933 56.2382 208.252 56.2701 208.541 56.3909C208.83 56.5118 209.077 56.7162 209.251 56.9782C209.424 57.2402 209.516 57.548 209.515 57.8626C209.515 58.2826 209.349 58.6854 209.053 58.9824C208.758 59.2794 208.356 59.4463 207.938 59.4463Z" fill="#455A64"/>
<path d="M208.37 58.4902H207.507V61.7521H208.37V58.4902Z" fill="#455A64"/>
<path d="M324.191 54.6604C325.613 53.3321 326.633 51.6287 327.136 49.7451C327.638 47.8615 327.602 45.8739 327.032 44.0098C326.462 42.1457 325.38 40.4805 323.911 39.2049C322.443 37.9293 320.645 37.0948 318.726 36.7969C316.807 36.499 314.843 36.7499 313.058 37.5207C311.274 38.2915 309.743 39.5512 308.639 41.1554C307.534 42.7596 306.903 44.6436 306.815 46.5917C306.728 48.5397 307.189 50.4731 308.145 52.1704L306.037 54.1624L306.533 57.6484L303.274 56.7719L300.641 59.2619L301.137 62.7479L297.868 61.8266L295.616 63.9332L295.924 66.0696L293.94 65.5118L292.64 66.7319L292.442 69.9839L297.268 71.204L312.926 56.5329C314.78 57.3654 316.836 57.6318 318.839 57.2988C320.842 56.9659 322.703 56.0482 324.191 54.6604ZM322.663 41.8917C323.066 42.3231 323.333 42.865 323.429 43.4486C323.525 44.0323 323.446 44.6315 323.203 45.1702C322.96 45.709 322.562 46.1631 322.062 46.475C321.561 46.7869 320.979 46.9426 320.391 46.9224C319.802 46.9021 319.232 46.7068 318.754 46.3612C318.276 46.0156 317.911 45.5352 317.704 44.981C317.498 44.4267 317.461 43.8236 317.597 43.2479C317.732 42.6722 318.035 42.15 318.467 41.7473C319.043 41.2095 319.808 40.9228 320.595 40.9499C321.381 40.9769 322.125 41.3156 322.663 41.8917Z" fill="#263238"/>
<path d="M322.663 41.8917C322.663 41.8917 322.47 41.7074 322.073 41.4634C321.514 41.1229 320.857 40.9792 320.208 41.055C319.68 41.1114 319.178 41.3143 318.759 41.6409C318.34 41.9675 318.019 42.4049 317.834 42.9041C317.648 43.4033 317.605 43.9445 317.708 44.4671C317.812 44.9897 318.058 45.473 318.42 45.8628C318.782 46.2527 319.245 46.5337 319.756 46.6742C320.268 46.8148 320.809 46.8095 321.318 46.6588C321.827 46.5081 322.284 46.218 322.638 45.8211C322.992 45.4242 323.229 44.9361 323.323 44.4116C323.441 43.764 323.344 43.0953 323.045 42.5092C322.832 42.0959 322.643 41.9066 322.663 41.8917C322.683 41.8767 322.718 41.9265 322.807 42.0212C322.933 42.1552 323.043 42.304 323.134 42.4644C323.486 43.0646 323.617 43.7691 323.506 44.4564C323.439 44.8599 323.293 45.2459 323.075 45.5919C322.858 45.9378 322.574 46.2366 322.24 46.4709C321.906 46.7051 321.529 46.8701 321.13 46.956C320.732 47.0419 320.321 47.0471 319.92 46.9713C319.274 46.851 318.684 46.5249 318.238 46.0414C317.791 45.5579 317.511 44.9427 317.44 44.2871C317.392 43.8796 317.426 43.4666 317.54 43.0725C317.653 42.6784 317.845 42.3112 318.102 41.9927C318.36 41.6741 318.679 41.4107 319.039 41.218C319.4 41.0253 319.796 40.9072 320.203 40.8708C320.887 40.804 321.574 40.9802 322.142 41.3688C322.295 41.4708 322.435 41.5912 322.559 41.7273C322.602 41.7762 322.637 41.8317 322.663 41.8917Z" fill="#263238"/>
<path d="M324.191 54.6605C324.145 54.7125 324.095 54.7608 324.042 54.8049L323.585 55.2133C322.972 55.7109 322.307 56.1401 321.601 56.4931C320.243 57.1453 318.761 57.4942 317.255 57.5157C315.75 57.5372 314.258 57.2308 312.882 56.6176H312.966L297.337 71.3136L297.288 71.3535H297.228L292.402 70.1383L292.303 70.1134V70.0138C292.362 69.0178 292.427 67.8924 292.496 66.7669V66.7171L292.536 66.6822L293.85 65.4472L293.9 65.4024H293.969L295.953 65.9651L295.795 66.1045C295.7 65.4372 295.596 64.7052 295.487 63.9681V63.8984L295.532 63.8536L297.798 61.7321L297.848 61.6823H297.917L301.186 62.6036L301.022 62.743C300.864 61.6325 300.69 60.4373 300.526 59.257V59.1923L300.571 59.1425L301.27 58.4901L303.205 56.6774L303.259 56.6276H303.329L306.597 57.5489L306.434 57.6883C306.265 56.5097 306.1 55.3477 305.938 54.2023V54.1376L305.987 54.0928L308.09 52.1008L308.066 52.2552C307.257 50.8064 306.797 49.1881 306.721 47.5291C306.684 46.7233 306.743 45.9158 306.895 45.1238C307.036 44.3456 307.267 43.5867 307.584 42.8629C308.374 41.0241 309.673 39.4516 311.326 38.3321C312.98 37.2126 314.918 36.5933 316.912 36.5476C318.906 36.502 320.871 37.032 322.573 38.0747C324.276 39.1174 325.645 40.6289 326.517 42.4296C327.337 44.1314 327.679 46.0251 327.509 47.9076C327.396 49.3011 327.001 50.6567 326.348 51.8916L326.155 52.2601L325.946 52.5888C325.803 52.798 325.688 53.0071 325.55 53.1765C325.272 53.5151 325.054 53.8189 324.845 54.033L324.349 54.531L324.181 54.6854L324.334 54.5111L324.796 54.0131C324.999 53.799 325.207 53.5151 325.475 53.1565C325.609 52.9822 325.723 52.7731 325.857 52.5639L326.065 52.2352L326.249 51.8667C326.985 50.4238 327.375 48.8284 327.389 47.2074C327.403 45.5864 327.04 43.9845 326.328 42.5292C325.238 40.3275 323.399 38.5904 321.143 37.6322C318.888 36.6739 316.366 36.558 314.032 37.3052C312.648 37.7488 311.373 38.4831 310.293 39.4593C309.213 40.4356 308.352 41.6314 307.768 42.9675C307.459 43.6739 307.235 44.4144 307.098 45.1736C306.949 45.9459 306.894 46.7335 306.935 47.5192C307.007 49.1408 307.459 50.7225 308.254 52.1356L308.299 52.2203L308.229 52.29L306.126 54.282L306.166 54.1725C306.331 55.3278 306.497 56.4898 306.662 57.6585L306.692 57.8527L306.503 57.8029L303.235 56.8816L303.359 56.8517L301.424 58.6644L300.725 59.3168L300.764 59.2072C300.938 60.4074 301.107 61.6026 301.26 62.6932L301.29 62.8875L301.102 62.8377L297.833 61.9164L297.957 61.8865L295.69 64.008L295.73 63.8934C295.834 64.6305 295.938 65.3625 296.038 66.0298V66.2241L295.854 66.1743L293.87 65.6115L293.989 65.5816L292.675 66.8167L292.714 66.732C292.645 67.8575 292.576 68.968 292.511 69.979L292.422 69.8545L297.248 71.0796H297.139L312.822 56.4433L312.857 56.4085H312.907C314.264 57.0194 315.736 57.3303 317.223 57.32C318.711 57.3097 320.178 56.9784 321.527 56.3487C322.238 56.0096 322.912 55.5956 323.536 55.1137C323.739 54.9493 323.893 54.8199 324.002 54.7252L324.191 54.6605Z" fill="#263238"/>
<path d="M323.843 53.4851C325.265 52.1569 326.286 50.4534 326.789 48.5698C327.291 46.6862 327.255 44.6986 326.685 42.8345C326.115 40.9704 325.033 39.3052 323.564 38.0296C322.095 36.754 320.298 35.9195 318.379 35.6216C316.459 35.3237 314.495 35.5746 312.711 36.3454C310.927 37.1162 309.396 38.3759 308.291 39.9801C307.187 41.5843 306.555 43.4683 306.468 45.4164C306.381 47.3644 306.842 49.2978 307.798 50.9951L305.695 52.9871L306.191 56.4731L302.922 55.5518L300.288 58.0418L300.784 61.5278L297.516 60.6065L295.269 62.7479L295.576 64.8843L293.592 64.3266L292.278 65.5616L292.08 68.8086L296.906 70.0287L312.564 55.3626C314.42 56.1977 316.48 56.465 318.486 56.1311C320.492 55.7971 322.355 54.8768 323.843 53.4851ZM322.316 40.7114C322.72 41.1426 322.987 41.6845 323.083 42.2684C323.18 42.8522 323.102 43.4518 322.859 43.9909C322.616 44.5301 322.218 44.9846 321.717 45.2968C321.217 45.609 320.635 45.7648 320.046 45.7445C319.456 45.7242 318.887 45.5287 318.408 45.1828C317.93 44.8368 317.565 44.3561 317.359 43.8014C317.153 43.2468 317.116 42.6433 317.252 42.0674C317.389 41.4916 317.692 40.9694 318.125 40.567C318.701 40.0308 319.465 39.745 320.25 39.7721C321.035 39.7991 321.778 40.1368 322.316 40.7114Z" fill="#E0E0E0"/>
<path d="M322.316 40.7115C322.316 40.7115 322.122 40.5323 321.725 40.2882C321.167 39.9457 320.511 39.8002 319.861 39.8749C319.333 39.9322 318.832 40.1358 318.413 40.4629C317.995 40.79 317.675 41.2277 317.49 41.7269C317.305 42.226 317.262 42.7671 317.366 43.2893C317.471 43.8116 317.717 44.2945 318.079 44.6838C318.441 45.0732 318.904 45.3537 319.416 45.494C319.927 45.6342 320.468 45.6286 320.977 45.4779C321.485 45.3271 321.942 45.0371 322.296 44.6403C322.65 44.2436 322.887 43.7557 322.98 43.2314C323.1 42.585 323 41.9171 322.698 41.334C322.484 40.9207 322.296 40.7315 322.316 40.7115C322.336 40.6916 322.37 40.7514 322.46 40.841C322.586 40.975 322.696 41.1239 322.787 41.2842C323.138 41.8845 323.27 42.589 323.159 43.2762C323.094 43.6814 322.949 44.0694 322.732 44.4174C322.515 44.7655 322.232 45.0667 321.898 45.3032C321.564 45.5398 321.186 45.707 320.787 45.7951C320.388 45.8831 319.975 45.8903 319.573 45.816C318.927 45.6932 318.338 45.3657 317.892 44.8817C317.445 44.3976 317.165 43.7825 317.093 43.1268C317.02 42.5184 317.132 41.9019 317.415 41.3589C317.651 40.8999 317.998 40.5081 318.424 40.22C318.851 39.9318 319.343 39.7565 319.856 39.7106C320.54 39.6467 321.225 39.8227 321.795 40.2086C321.949 40.3091 322.089 40.4296 322.212 40.5671C322.288 40.6601 322.322 40.7082 322.316 40.7115Z" fill="#263238"/>
<path d="M323.843 53.4851C323.796 53.5344 323.747 53.581 323.695 53.6246L323.243 54.0329C322.63 54.5307 321.965 54.9598 321.259 55.3128C319.901 55.965 318.418 56.3139 316.913 56.3354C315.408 56.3569 313.916 56.0505 312.54 55.4373H312.624L296.975 70.1183L296.93 70.1632H296.866L292.04 68.948H291.941V68.8484C292 67.8524 292.065 66.722 292.134 65.5965V65.5467L292.169 65.5168C292.576 65.1334 293.027 64.7051 293.483 64.2818L293.538 64.232H293.602L295.586 64.7897L295.428 64.9292C295.328 64.2619 295.224 63.5298 295.12 62.7928V62.728L295.165 62.6782L297.431 60.5617L297.481 60.5119H297.55L300.819 61.4282L300.655 61.5727C300.497 60.4571 300.323 59.2669 300.159 58.0867V58.0219L300.209 57.9771L300.903 57.3197L302.838 55.507L302.892 55.4572H302.962L306.23 56.3785L306.067 56.5229C305.898 55.3377 305.729 54.1724 305.571 53.0369V52.9722L305.62 52.9274L307.723 50.9354V51.0898C306.911 49.6423 306.449 48.0235 306.374 46.3637C306.308 44.7645 306.603 43.1709 307.237 41.7025C308.027 39.8637 309.325 38.2912 310.979 37.1717C312.632 36.0522 314.571 35.4329 316.565 35.3872C318.559 35.3416 320.524 35.8716 322.226 36.9143C323.929 37.957 325.298 39.4685 326.17 41.2692C326.994 42.9593 327.345 44.8423 327.186 46.7173C327.074 48.1109 326.679 49.4667 326.026 50.7013L325.837 51.0698L325.624 51.3985C325.48 51.6127 325.366 51.8168 325.232 51.9911C324.949 52.3298 324.736 52.6286 324.528 52.8427L324.032 53.3407C323.923 53.4503 323.863 53.5001 323.863 53.5001C323.863 53.5001 323.913 53.4353 324.017 53.3258L324.478 52.8278C324.682 52.6136 324.89 52.3298 325.163 51.9662C325.292 51.7919 325.406 51.5828 325.54 51.3736L325.748 51.0449L325.937 50.6764C326.518 49.4558 326.854 48.1321 326.926 46.781C326.998 45.4299 326.804 44.0778 326.355 42.8019C325.907 41.5261 325.212 40.3514 324.311 39.3451C323.411 38.3387 322.321 37.5203 321.105 36.9366C319.89 36.3529 318.571 36.0154 317.226 35.9433C315.88 35.8711 314.533 36.0658 313.263 36.5163C311.992 36.9667 310.822 37.664 309.82 38.5683C308.817 39.4727 308.002 40.5665 307.421 41.7871C306.803 43.2232 306.518 44.7812 306.588 46.3438C306.659 47.9639 307.111 49.544 307.907 50.9553L307.957 51.0449L307.882 51.1097L305.779 53.1017L305.819 52.9921C305.981 54.1475 306.146 55.3095 306.315 56.4781L306.345 56.6773L306.156 56.6225L302.887 55.7012L303.011 55.6714L301.077 57.4841L300.378 58.1414L300.417 58.0269C300.591 59.2271 300.76 60.4223 300.913 61.5129L300.943 61.7121L300.755 61.6573L297.496 60.7559L297.62 60.7261L295.353 62.8475L295.393 62.738C295.497 63.475 295.606 64.232 295.7 64.8744L295.725 65.0636L295.542 65.0138L293.558 64.4511L293.677 64.4212L292.357 65.6563L292.397 65.5716C292.328 66.6971 292.258 67.8076 292.194 68.8186L292.104 68.6941L296.93 69.9191L296.821 69.949L312.48 55.3078L312.52 55.273H312.564C314.121 55.9718 315.823 56.2779 317.524 56.1644C318.788 56.0702 320.024 55.7498 321.175 55.2182C321.876 54.8738 322.54 54.4601 323.159 53.9831L323.625 53.5897L323.843 53.4851Z" fill="#263238"/>
<path d="M322.896 52.6734C323.405 52.1258 323.87 51.5379 324.285 50.9155C324.757 50.1772 325.115 49.3712 325.346 48.5251C325.665 47.4078 325.766 46.2395 325.644 45.0839C325.502 43.6848 325.035 42.3388 324.28 41.1547C323.413 39.7948 322.201 38.6913 320.768 37.9575C320 37.5581 319.175 37.2793 318.323 37.1308C317.883 37.0515 317.439 37 316.994 36.9764C316.538 36.97 316.082 36.9933 315.63 37.0462C313.731 37.2657 311.953 38.091 310.557 39.4007C309.16 40.7104 308.219 42.4353 307.872 44.3219C307.789 44.7711 307.734 45.2252 307.708 45.6815C307.701 46.1305 307.721 46.5795 307.768 47.0261C307.862 47.884 308.083 48.7232 308.423 49.5161C309.051 51.0026 310.063 52.2938 311.354 53.2561C312.383 54.0173 313.56 54.5516 314.809 54.8236C316.058 55.0957 317.35 55.0995 318.601 54.8347C319.458 54.6624 320.284 54.3601 321.051 53.9383C321.698 53.5635 322.314 53.1389 322.896 52.6684C322.896 52.6684 322.861 52.7083 322.792 52.773L322.469 53.0618C322.297 53.2251 322.111 53.3734 321.914 53.5051C321.654 53.6887 321.382 53.855 321.1 54.0031C320.327 54.4456 319.491 54.7663 318.62 54.9542C317.346 55.2378 316.027 55.2464 314.75 54.9794C313.472 54.7124 312.266 54.1759 311.21 53.4055C309.884 52.4236 308.841 51.1053 308.19 49.5858C307.839 48.7766 307.613 47.9185 307.52 47.041C307.466 46.585 307.444 46.1256 307.455 45.6665C307.475 45.1966 307.53 44.7289 307.619 44.2672C307.977 42.3281 308.946 40.5557 310.383 39.211C311.819 37.8662 313.648 37.0201 315.6 36.7972C316.064 36.7433 316.531 36.7217 316.998 36.7324C317.456 36.7551 317.912 36.8084 318.362 36.8918C319.238 37.049 320.084 37.3395 320.872 37.7533C322.337 38.5101 323.574 39.6466 324.453 41.0451C325.221 42.2582 325.691 43.6376 325.822 45.0689C325.932 46.2422 325.816 47.4257 325.48 48.5549C325.233 49.4094 324.857 50.2207 324.364 50.9603C324.192 51.2334 324 51.4931 323.789 51.7372C323.638 51.9175 323.472 52.0842 323.293 52.2352L322.98 52.5389C322.936 52.6435 322.896 52.6784 322.896 52.6734Z" fill="#263238"/>
<path d="M322.474 45.3179C322.474 45.3179 322.693 45.0938 322.97 44.6307C323.311 44.0775 323.489 43.439 323.483 42.7888C323.478 42.1385 323.29 41.503 322.941 40.9554C322.614 40.4462 322.156 40.0349 321.616 39.7652C321.027 39.4606 320.359 39.3425 319.702 39.4266C318.993 39.5081 318.328 39.8156 317.806 40.3041C317.284 40.7926 316.931 41.4363 316.8 42.1407C316.673 42.7956 316.744 43.4737 317.004 44.0879C317.189 44.5242 317.463 44.9171 317.808 45.2418C318.153 45.5665 318.561 45.8161 319.006 45.9747C319.452 46.1333 319.925 46.1975 320.396 46.1633C320.868 46.1291 321.327 45.9973 321.745 45.7761C322.241 45.5171 322.445 45.2781 322.464 45.3179C322.484 45.3578 322.42 45.3827 322.311 45.4823C322.161 45.6293 321.995 45.758 321.815 45.8657C321.226 46.2064 320.551 46.3684 319.873 46.3321C319.194 46.2959 318.54 46.063 317.991 45.6615C317.442 45.2622 317.017 44.7146 316.766 44.0825C316.515 43.4505 316.448 42.7598 316.572 42.0909C316.712 41.3329 317.09 40.6402 317.652 40.1147C318.214 39.5893 318.929 39.259 319.692 39.1726C320.165 39.1154 320.645 39.1542 321.103 39.2869C321.561 39.4195 321.988 39.6432 322.358 39.9447C322.728 40.2462 323.034 40.6193 323.258 41.0419C323.481 41.4645 323.618 41.9279 323.66 42.4046C323.734 43.2101 323.527 44.0164 323.075 44.6855C322.954 44.8662 322.814 45.0332 322.658 45.1835C322.604 45.2372 322.542 45.2825 322.474 45.3179Z" fill="#263238"/>
<path d="M295.616 69.4561C295.566 69.4063 299.088 66.0248 303.488 61.9064C307.887 57.7879 311.493 54.4862 311.543 54.541C311.592 54.5957 308.071 57.9722 303.666 62.0956C299.262 66.2191 295.68 69.5108 295.616 69.4561Z" fill="#263238"/>
<path d="M280.394 114.445C279.576 114.618 278.732 114.618 277.914 114.445C278.732 114.273 279.576 114.273 280.394 114.445Z" fill="#263238"/>
<path d="M285.354 114.445C284.536 114.618 283.692 114.618 282.874 114.445C283.692 114.273 284.536 114.273 285.354 114.445Z" fill="#263238"/>
<path d="M290.314 114.445C289.496 114.618 288.651 114.618 287.834 114.445C288.651 114.273 289.496 114.273 290.314 114.445Z" fill="#263238"/>
<path d="M295.274 114.445C294.456 114.618 293.611 114.618 292.794 114.445C293.611 114.273 294.456 114.273 295.274 114.445Z" fill="#263238"/>
<path d="M300.234 114.445C299.416 114.618 298.572 114.618 297.754 114.445C298.572 114.273 299.416 114.273 300.234 114.445Z" fill="#263238"/>
<path d="M305.194 114.445C304.376 114.618 303.532 114.618 302.714 114.445C303.532 114.273 304.376 114.273 305.194 114.445Z" fill="#263238"/>
<path d="M309.405 113.693C309.454 113.693 309.504 114.002 309.524 114.445V114.54H309.4H308.904C308.486 114.581 308.064 114.537 307.664 114.41C308.064 114.284 308.486 114.24 308.904 114.281H309.4L309.281 114.401C309.306 114.002 309.35 113.693 309.405 113.693Z" fill="#263238"/>
<path d="M309.405 108.713C309.577 109.534 309.577 110.382 309.405 111.203C309.233 110.382 309.233 109.534 309.405 108.713Z" fill="#263238"/>
<path d="M309.405 103.733C309.577 104.554 309.577 105.402 309.405 106.223C309.233 105.402 309.233 104.554 309.405 103.733Z" fill="#263238"/>
<path d="M309.405 98.7534C309.577 99.5744 309.577 100.422 309.405 101.243C309.233 100.422 309.233 99.5744 309.405 98.7534Z" fill="#263238"/>
<path d="M309.405 93.7734C309.577 94.5945 309.577 95.4424 309.405 96.2634C309.233 95.4424 309.233 94.5945 309.405 93.7734Z" fill="#263238"/>
<path d="M309.405 88.7935C309.577 89.6145 309.577 90.4624 309.405 91.2835C309.233 90.4624 309.233 89.6145 309.405 88.7935Z" fill="#263238"/>
<path d="M309.405 83.8132C309.577 84.6343 309.577 85.4822 309.405 86.3032C309.233 85.4822 309.233 84.6343 309.405 83.8132Z" fill="#263238"/>
<path d="M309.405 78.8333C309.577 79.6543 309.577 80.5022 309.405 81.3233C309.233 80.5022 309.233 79.6543 309.405 78.8333Z" fill="#263238"/>
<path d="M309.405 73.8533C309.577 74.6743 309.577 75.5222 309.405 76.3433C309.233 75.5222 309.233 74.6743 309.405 73.8533Z" fill="#263238"/>
<path d="M309.405 68.8733C309.577 69.6943 309.577 70.5423 309.405 71.3633C309.233 70.5423 309.233 69.6943 309.405 68.8733Z" fill="#263238"/>
<path d="M309.405 63.8933C309.577 64.7143 309.577 65.5623 309.405 66.3833C309.233 65.5623 309.233 64.7143 309.405 63.8933Z" fill="#263238"/>
<path d="M272.215 164.081C271.397 164.254 270.553 164.254 269.735 164.081C270.553 163.908 271.397 163.908 272.215 164.081Z" fill="#263238"/>
<path d="M277.175 164.081C276.357 164.254 275.513 164.254 274.695 164.081C275.513 163.908 276.357 163.908 277.175 164.081Z" fill="#263238"/>
<path d="M282.135 164.081C281.317 164.254 280.473 164.254 279.655 164.081C280.473 163.908 281.317 163.908 282.135 164.081Z" fill="#263238"/>
<path d="M287.095 164.081C286.277 164.254 285.432 164.254 284.615 164.081C285.432 163.908 286.277 163.908 287.095 164.081Z" fill="#263238"/>
<path d="M292.055 164.081C291.237 164.254 290.393 164.254 289.575 164.081C290.393 163.908 291.237 163.908 292.055 164.081Z" fill="#263238"/>
<path d="M297.015 164.081C296.197 164.254 295.353 164.254 294.535 164.081C295.353 163.908 296.197 163.908 297.015 164.081Z" fill="#263238"/>
<path d="M301.975 164.081C301.157 164.254 300.313 164.254 299.495 164.081C300.313 163.908 301.157 163.908 301.975 164.081Z" fill="#263238"/>
<path d="M306.935 164.081C306.117 164.254 305.273 164.254 304.455 164.081C305.273 163.908 306.117 163.908 306.935 164.081Z" fill="#263238"/>
<path d="M311.895 164.081C311.077 164.254 310.233 164.254 309.415 164.081C310.233 163.908 311.077 163.908 311.895 164.081Z" fill="#263238"/>
<path d="M316.855 164.081C316.037 164.254 315.192 164.254 314.375 164.081C315.192 163.908 316.037 163.908 316.855 164.081Z" fill="#263238"/>
<path d="M321.354 163.618C321.398 163.618 321.428 163.797 321.453 164.086V164.176H321.344C321.135 164.176 320.848 164.201 320.57 164.201C320.152 164.244 319.73 164.2 319.33 164.071C319.73 163.945 320.152 163.901 320.57 163.942C320.867 163.942 321.135 163.942 321.344 163.972L321.244 164.071C321.274 163.797 321.314 163.618 321.354 163.618Z" fill="#263238"/>
<path d="M321.408 158.638C321.533 159.04 321.574 159.464 321.527 159.883C321.564 160.303 321.515 160.727 321.383 161.128C321.261 160.725 321.222 160.301 321.269 159.883C321.232 159.463 321.279 159.039 321.408 158.638Z" fill="#263238"/>
<path d="M321.453 153.658C321.575 154.061 321.616 154.484 321.572 154.903C321.609 155.323 321.56 155.747 321.428 156.148C321.306 155.745 321.267 155.321 321.314 154.903C321.277 154.483 321.324 154.059 321.453 153.658Z" fill="#263238"/>
<path d="M321.502 148.678C321.625 149.081 321.665 149.504 321.621 149.923C321.656 150.343 321.607 150.766 321.478 151.168C321.355 150.765 321.315 150.342 321.359 149.923C321.324 149.502 321.373 149.079 321.502 148.678Z" fill="#263238"/>
<path d="M305.09 133.07L306.002 149.898C306.016 150.187 306.14 150.46 306.349 150.66C306.558 150.861 306.835 150.973 307.123 150.974L337.285 151.198C337.586 151.199 337.874 151.081 338.088 150.869C338.302 150.657 338.423 150.369 338.426 150.067L338.52 136.97C338.521 136.82 338.493 136.671 338.437 136.532C338.381 136.393 338.298 136.267 338.192 136.161C338.087 136.054 337.962 135.969 337.824 135.912C337.686 135.854 337.539 135.824 337.389 135.824H318.839C318.539 135.824 318.252 135.704 318.04 135.491L314.841 132.279C314.737 132.173 314.614 132.09 314.477 132.032C314.341 131.975 314.195 131.945 314.048 131.945L306.226 131.885C306.073 131.885 305.921 131.916 305.78 131.976C305.64 132.036 305.512 132.124 305.406 132.235C305.3 132.346 305.217 132.477 305.163 132.62C305.109 132.764 305.084 132.917 305.09 133.07Z" fill="#FC9338"/>
<path d="M338.542 133.845L305.583 133.602L305.439 153.372L338.397 153.615L338.542 133.845Z" fill="#F5F5F5"/>
<path d="M302.952 135.356L305.318 155.994C305.336 156.172 305.42 156.337 305.553 156.457C305.686 156.576 305.858 156.642 306.037 156.641L338.153 156.88C338.337 156.882 338.514 156.813 338.65 156.688C338.785 156.564 338.868 156.392 338.882 156.208L340.653 135.6C340.661 135.5 340.648 135.399 340.616 135.303C340.583 135.208 340.531 135.12 340.463 135.046C340.395 134.971 340.313 134.912 340.221 134.871C340.129 134.83 340.029 134.809 339.929 134.809L303.681 134.545C303.578 134.544 303.476 134.565 303.382 134.607C303.288 134.649 303.204 134.71 303.135 134.786C303.066 134.863 303.014 134.954 302.983 135.052C302.951 135.15 302.941 135.254 302.952 135.356Z" fill="#FC9338"/>
<path d="M276.034 103.27H110.028C106.036 103.27 102.801 106.519 102.801 110.526V215.833C102.801 219.84 106.036 223.089 110.028 223.089H276.034C280.025 223.089 283.26 219.84 283.26 215.833V110.526C283.26 106.519 280.025 103.27 276.034 103.27Z" fill="#263238"/>
<path d="M95.2319 214.23H290.77V215.848C290.77 218.199 289.84 220.454 288.184 222.116C286.528 223.779 284.283 224.713 281.941 224.713H104.086C101.744 224.713 99.4984 223.779 97.8426 222.116C96.1869 220.454 95.2567 218.199 95.2567 215.848V214.23H95.2319Z" fill="#263238"/>
<path d="M277.914 108.031H107.647V209.215H277.914V108.031Z" fill="#455A64"/>
<path d="M175.242 214.23L177.667 218.104H211.807L214.064 214.23H175.242Z" fill="#455A64"/>
<path d="M273.137 111.457H112.775C111.88 111.457 111.154 112.186 111.154 113.086V207.263C111.154 208.162 111.88 208.891 112.775 208.891H273.137C274.033 208.891 274.759 208.162 274.759 207.263V113.086C274.759 112.186 274.033 111.457 273.137 111.457Z" fill="#EBEBEB"/>
<path d="M274.759 118.599H111.154V208.896H274.759V118.599Z" fill="#FAFAFA"/>
<path d="M124.57 115.222C124.57 115.482 124.493 115.737 124.349 115.953C124.205 116.169 124 116.338 123.761 116.437C123.521 116.537 123.258 116.562 123.004 116.511C122.749 116.46 122.516 116.334 122.333 116.15C122.15 115.966 122.026 115.731 121.976 115.476C121.926 115.22 121.953 114.956 122.053 114.716C122.152 114.475 122.321 114.27 122.537 114.127C122.753 113.983 123.007 113.906 123.266 113.907C123.438 113.907 123.608 113.942 123.766 114.008C123.925 114.074 124.069 114.171 124.19 114.293C124.311 114.415 124.407 114.56 124.472 114.719C124.538 114.879 124.571 115.05 124.57 115.222Z" fill="#263238"/>
<path d="M116.654 115.222C116.654 115.482 116.577 115.736 116.434 115.953C116.29 116.169 116.085 116.337 115.846 116.437C115.607 116.536 115.343 116.562 115.089 116.512C114.835 116.461 114.602 116.336 114.419 116.152C114.236 115.968 114.111 115.734 114.061 115.479C114.01 115.224 114.036 114.959 114.135 114.719C114.234 114.479 114.402 114.274 114.617 114.129C114.833 113.985 115.086 113.907 115.345 113.907C115.692 113.907 116.025 114.046 116.271 114.293C116.516 114.539 116.654 114.874 116.654 115.222Z" fill="#263238"/>
<path d="M120.454 115.222C120.454 115.482 120.377 115.737 120.233 115.953C120.088 116.169 119.884 116.338 119.644 116.437C119.405 116.537 119.141 116.562 118.887 116.511C118.633 116.46 118.399 116.334 118.216 116.15C118.034 115.966 117.909 115.731 117.859 115.476C117.809 115.22 117.836 114.956 117.936 114.716C118.036 114.475 118.204 114.27 118.42 114.127C118.636 113.983 118.89 113.906 119.149 113.907C119.321 113.907 119.491 113.942 119.649 114.008C119.808 114.074 119.952 114.171 120.073 114.293C120.194 114.415 120.29 114.56 120.356 114.719C120.421 114.879 120.454 115.05 120.454 115.222Z" fill="#263238"/>
<path d="M281.728 214.23C281.728 214.294 241.676 214.349 192.279 214.349C142.883 214.349 102.816 214.294 102.816 214.23C102.816 214.165 142.863 214.11 192.279 214.11C241.696 214.11 281.728 214.165 281.728 214.23Z" fill="#455A64"/>
<path d="M159.826 164.086H122.492V166.596H159.826V164.086Z" fill="#E0E0E0"/>
<path d="M208.047 129.271H170.713V131.781H208.047V129.271Z" fill="#E0E0E0"/>
<path d="M263.574 138.608C263.574 138.673 242.787 138.728 217.144 138.728C191.501 138.728 170.713 138.673 170.713 138.608C170.713 138.544 191.501 138.494 217.144 138.494C242.787 138.494 263.574 138.544 263.574 138.608Z" fill="#E0E0E0"/>
<path d="M263.574 144.086C263.574 144.151 242.787 144.201 217.144 144.201C191.501 144.201 170.713 144.151 170.713 144.086C170.713 144.022 191.501 143.967 217.144 143.967C242.787 143.967 263.574 144.022 263.574 144.086Z" fill="#E0E0E0"/>
<path d="M263.574 149.559C263.574 149.624 242.787 149.679 217.144 149.679C191.501 149.679 170.713 149.624 170.713 149.559C170.713 149.495 191.501 149.445 217.144 149.445C242.787 149.445 263.574 149.495 263.574 149.559Z" fill="#E0E0E0"/>
<path d="M263.574 155.037C263.574 155.102 242.787 155.152 217.144 155.152C191.501 155.152 170.713 155.102 170.713 155.037C170.713 154.973 191.501 154.918 217.144 154.918C242.787 154.918 263.574 154.973 263.574 155.037Z" fill="#E0E0E0"/>
<path d="M263.574 160.51C263.574 160.575 242.787 160.63 217.144 160.63C191.501 160.63 170.713 160.575 170.713 160.51C170.713 160.446 191.501 160.396 217.144 160.396C242.787 160.396 263.574 160.446 263.574 160.51Z" fill="#E0E0E0"/>
<path d="M206.961 165.988C206.961 166.053 198.846 166.103 188.837 166.103C178.828 166.103 170.713 166.053 170.713 165.988C170.713 165.924 178.828 165.869 188.837 165.869C198.846 165.869 206.961 165.924 206.961 165.988Z" fill="#E0E0E0"/>
<path d="M262.88 176.611C262.88 176.675 249.215 176.73 232.366 176.73C215.517 176.73 201.847 176.675 201.847 176.611C201.847 176.546 215.507 176.496 232.366 176.496C249.225 176.496 262.88 176.546 262.88 176.611Z" fill="#E0E0E0"/>
<path d="M262.88 182.427C262.88 182.492 249.215 182.542 232.366 182.542C215.517 182.542 201.847 182.492 201.847 182.427C201.847 182.363 215.507 182.308 232.366 182.308C249.225 182.308 262.88 182.363 262.88 182.427Z" fill="#E0E0E0"/>
<path d="M262.88 188.244C262.88 188.309 249.215 188.359 232.366 188.359C215.517 188.359 201.872 188.304 201.872 188.244C201.872 188.184 215.532 188.125 232.391 188.125C249.25 188.125 262.88 188.174 262.88 188.244Z" fill="#E0E0E0"/>
<path d="M262.88 194.051C262.88 194.115 249.215 194.165 232.366 194.165C215.517 194.165 201.847 194.115 201.847 194.051C201.847 193.986 215.507 193.931 232.366 193.931C249.225 193.931 262.88 193.986 262.88 194.051Z" fill="#E0E0E0"/>
<path d="M159.92 176.058C159.92 176.123 151.776 176.173 141.727 176.173C131.678 176.173 123.534 176.123 123.534 176.058C123.534 175.993 131.678 175.938 141.727 175.938C151.776 175.938 159.92 175.993 159.92 176.058Z" fill="#E0E0E0"/>
<path d="M159.92 180.62C159.92 180.684 151.776 180.739 141.727 180.739C131.678 180.739 123.534 180.684 123.534 180.62C123.534 180.555 131.678 180.505 141.727 180.505C151.776 180.505 159.92 180.555 159.92 180.62Z" fill="#E0E0E0"/>
<path d="M159.92 185.186C159.92 185.251 151.776 185.306 141.727 185.306C131.678 185.306 123.534 185.251 123.534 185.186C123.534 185.121 131.678 185.067 141.727 185.067C151.776 185.067 159.92 185.121 159.92 185.186Z" fill="#E0E0E0"/>
<path d="M159.92 189.738C159.92 189.803 151.776 189.852 141.727 189.852C131.678 189.852 123.534 189.803 123.534 189.738C123.534 189.673 131.678 189.618 141.727 189.618C151.776 189.618 159.92 189.688 159.92 189.738Z" fill="#E0E0E0"/>
<path d="M159.92 194.315C159.92 194.379 151.776 194.434 141.727 194.434C131.678 194.434 123.534 194.379 123.534 194.315C123.534 194.25 131.678 194.2 141.727 194.2C151.776 194.2 159.92 194.25 159.92 194.315Z" fill="#E0E0E0"/>
<path d="M197.175 173.842H170.688V199.573H197.175V173.842Z" fill="#F5F5F5"/>
<path d="M172.742 197.367L180.073 184.125L186.065 192.591L189.71 188.095L195.126 197.367H172.742Z" fill="#EBEBEB"/>
<path d="M188.619 181.551C188.62 181.931 188.508 182.302 188.299 182.618C188.09 182.934 187.791 183.181 187.442 183.326C187.093 183.472 186.709 183.51 186.338 183.437C185.967 183.363 185.626 183.18 185.359 182.912C185.092 182.643 184.91 182.301 184.836 181.929C184.762 181.556 184.801 181.17 184.946 180.82C185.091 180.469 185.337 180.17 185.651 179.96C185.966 179.749 186.336 179.638 186.714 179.639C187.219 179.639 187.704 179.84 188.061 180.199C188.418 180.557 188.619 181.044 188.619 181.551Z" fill="#EBEBEB"/>
<path d="M195.126 197.442C195.121 197.406 195.121 197.369 195.126 197.333C195.126 197.258 195.126 197.158 195.126 197.034C195.126 196.76 195.126 196.376 195.126 195.878C195.126 194.858 195.126 193.388 195.097 191.506C195.097 187.746 195.067 182.398 195.042 175.968L195.151 176.078H172.772L172.896 175.953V181.77C172.896 183.663 172.896 185.515 172.896 187.313C172.896 190.918 172.896 194.325 172.896 197.462L172.786 197.348L188.966 197.407L193.529 197.432H194.739H195.057H195.166H194.764H193.574L189.035 197.457L172.786 197.517H172.672V197.407C172.672 194.27 172.672 190.864 172.672 187.258C172.672 185.46 172.672 183.608 172.672 181.715V175.978L172.801 175.849H195.181H195.29V175.953C195.265 182.427 195.245 187.786 195.235 191.561C195.235 193.423 195.211 194.892 195.206 195.908C195.206 196.396 195.206 196.775 195.206 197.044C195.206 197.163 195.206 197.258 195.206 197.333C195.183 197.372 195.156 197.409 195.126 197.442Z" fill="#EBEBEB"/>
<path d="M159.122 124.988H123.197V159.888H159.122V124.988Z" fill="#F5F5F5"/>
<path d="M125.979 156.9L135.919 138.942L144.048 150.421L148.988 144.325L156.334 156.9H125.979Z" fill="#E0E0E0"/>
<path d="M147.51 135.456C147.51 135.969 147.359 136.471 147.075 136.897C146.791 137.324 146.387 137.657 145.915 137.853C145.443 138.049 144.923 138.101 144.422 138.001C143.921 137.901 143.46 137.653 143.099 137.291C142.738 136.928 142.491 136.465 142.392 135.962C142.292 135.459 142.343 134.937 142.539 134.463C142.734 133.989 143.066 133.584 143.491 133.299C143.915 133.013 144.415 132.861 144.926 132.861C145.612 132.861 146.269 133.135 146.753 133.621C147.238 134.108 147.51 134.768 147.51 135.456Z" fill="#E0E0E0"/>
<path d="M156.334 156.999C156.334 156.999 156.334 156.95 156.334 156.855C156.334 156.76 156.334 156.616 156.334 156.447C156.334 156.078 156.334 155.555 156.334 154.878C156.334 153.493 156.309 151.492 156.294 148.952C156.294 143.852 156.25 136.596 156.22 127.881L156.364 128.026L126.014 128.051C125.974 128.086 126.336 127.727 126.182 127.886V135.715C126.182 138.281 126.182 140.788 126.182 143.235C126.182 148.12 126.182 152.741 126.182 156.994L126.033 156.845L147.981 156.92L154.172 156.96H155.818H156.24H156.389H156.26H155.848H154.236L148.081 156.999L126.033 157.074H125.885V156.925C125.885 152.672 125.885 148.05 125.885 143.165C125.885 140.721 125.885 138.215 125.885 135.645V127.891C125.731 128.041 126.093 127.672 126.058 127.712L156.408 127.737H156.557V127.886C156.528 136.641 156.503 143.932 156.483 149.051C156.483 151.576 156.453 153.568 156.443 154.943C156.443 155.605 156.443 156.123 156.443 156.486C156.443 156.651 156.443 156.775 156.443 156.875C156.417 156.924 156.38 156.967 156.334 156.999Z" fill="#E0E0E0"/>
<path d="M163.938 138.25L165.713 141.86L169.681 142.438L166.81 145.252L167.484 149.221L163.938 147.348L160.386 149.221L161.066 145.252L158.194 142.438L162.162 141.86L163.938 138.25Z" fill="#FC9338"/>
<path d="M176.437 125.7L178.213 129.311L182.181 129.888L179.309 132.702L179.988 136.671L176.437 134.794L172.886 136.671L173.565 132.702L170.693 129.888L174.661 129.311L176.437 125.7Z" fill="#FC9338"/>
<path d="M193.142 120.775L194.918 124.385L198.886 124.963L196.014 127.772L196.694 131.741L193.142 129.868L189.591 131.741L190.271 127.772L187.399 124.963L191.367 124.385L193.142 120.775Z" fill="#FC9338"/>
<path d="M210.433 125.82L212.209 129.43L216.177 130.008L213.305 132.817L213.984 136.786L210.433 134.913L206.882 136.786L207.561 132.817L204.689 130.008L208.657 129.43L210.433 125.82Z" fill="#FC9338"/>
<path d="M222.347 137.782L224.122 141.392L228.09 141.97L225.219 144.784L225.898 148.748L222.347 146.875L218.8 148.748L219.475 144.784L216.603 141.97L220.571 141.392L222.347 137.782Z" fill="#FC9338"/>
<path d="M226.672 155.142L228.448 158.752L232.416 159.33L229.544 162.139L230.218 166.108L226.672 164.235L223.121 166.108L223.8 162.139L220.928 159.33L224.896 158.752L226.672 155.142Z" fill="#FC9338"/>
<path d="M222.466 172.383L224.242 175.993L228.21 176.571L225.338 179.385L226.017 183.354L222.466 181.476L218.914 183.354L219.594 179.385L216.722 176.571L220.69 175.993L222.466 172.383Z" fill="#FC9338"/>
<path d="M209.808 184.35L211.584 187.96L215.552 188.538L212.68 191.347L213.359 195.316L209.808 193.443L206.262 195.316L206.936 191.347L204.069 188.538L208.037 187.96L209.808 184.35Z" fill="#FC9338"/>
<path d="M192.805 189.28L194.581 192.89L198.549 193.468L195.677 196.282L196.356 200.246L192.805 198.373L189.259 200.246L189.933 196.282L187.061 193.468L191.029 192.89L192.805 189.28Z" fill="#FC9338"/>
<path d="M176.566 184.355L178.342 187.965L182.31 188.543L179.438 191.352L180.117 195.321L176.566 193.448L173.02 195.321L173.694 191.352L170.822 188.543L174.795 187.965L176.566 184.355Z" fill="#FC9338"/>
<path d="M163.72 172.069L165.49 175.679L169.458 176.262L166.591 179.071L167.266 183.04L163.72 181.167L160.168 183.04L160.848 179.071L157.976 176.262L161.944 175.679L163.72 172.069Z" fill="#FC9338"/>
<path d="M159.395 155.162L161.17 158.772L165.138 159.35L162.266 162.164L162.946 166.128L159.395 164.255L155.843 166.128L156.523 162.164L153.651 159.35L157.619 158.772L159.395 155.162Z" fill="#FC9338"/>
<path d="M205.389 167.547H201.917V148.573C201.917 146.426 201.067 144.366 199.554 142.847C198.042 141.329 195.991 140.476 193.852 140.476C191.713 140.476 189.661 141.329 188.149 142.847C186.636 144.366 185.787 146.426 185.787 148.573V167.547H182.315V148.573C182.315 147.052 182.613 145.546 183.193 144.14C183.773 142.735 184.622 141.458 185.694 140.382C186.765 139.307 188.037 138.454 189.437 137.871C190.836 137.289 192.337 136.99 193.852 136.99C195.367 136.99 196.867 137.289 198.267 137.871C199.666 138.454 200.938 139.307 202.01 140.382C203.081 141.458 203.931 142.735 204.51 144.14C205.09 145.546 205.389 147.052 205.389 148.573V167.547Z" fill="#263238"/>
<path d="M206.519 159.106H181.184C179.592 159.106 178.302 160.401 178.302 161.999V176.247C178.302 177.845 179.592 179.141 181.184 179.141H206.519C208.111 179.141 209.401 177.845 209.401 176.247V161.999C209.401 160.401 208.111 159.106 206.519 159.106Z" fill="#FC9338"/>
<path d="M196.451 166.511C196.451 167.027 196.298 167.532 196.013 167.961C195.727 168.39 195.321 168.725 194.846 168.922C194.371 169.12 193.849 169.171 193.345 169.071C192.841 168.97 192.377 168.722 192.014 168.357C191.65 167.992 191.403 167.527 191.303 167.02C191.202 166.514 191.254 165.99 191.451 165.513C191.647 165.036 191.98 164.628 192.408 164.342C192.835 164.055 193.338 163.902 193.852 163.902C194.541 163.902 195.202 164.177 195.69 164.666C196.177 165.156 196.451 165.819 196.451 166.511Z" fill="#263238"/>
<path d="M194.561 167.547H193.142V172.916H194.561V167.547Z" fill="#263238"/>
<path d="M179.959 177.238C179.889 177.238 179.83 173.897 179.83 169.768C179.83 165.64 179.889 162.298 179.959 162.298C180.028 162.298 180.088 165.64 180.088 169.768C180.088 173.897 180.048 177.238 179.959 177.238Z" fill="#FAFAFA"/>
<path d="M191.818 169.858C191.818 169.858 191.694 169.818 191.511 169.684C191.254 169.49 191.028 169.259 190.841 168.996C190.519 168.567 190.296 168.071 190.187 167.545C190.077 167.019 190.085 166.475 190.208 165.952C190.332 165.43 190.569 164.94 190.902 164.52C191.235 164.099 191.656 163.757 192.136 163.518C192.421 163.369 192.727 163.265 193.043 163.21C193.158 163.186 193.276 163.186 193.39 163.21C192.99 163.346 192.601 163.513 192.225 163.708C191.784 163.951 191.399 164.285 191.094 164.687C190.789 165.089 190.572 165.551 190.456 166.042C190.339 166.534 190.327 167.044 190.419 167.541C190.511 168.038 190.705 168.51 190.99 168.927C191.241 169.259 191.518 169.57 191.818 169.858Z" fill="#FAFAFA"/>
<path d="M84.4539 150.212C84.1041 151.352 84.1319 152.575 84.5333 153.698C84.9401 154.811 85.4656 155.876 86.1007 156.875C86.9191 154.886 87.6229 152.85 88.2087 150.78C88.3027 150.562 88.3415 150.324 88.3216 150.088C88.3017 149.852 88.2237 149.624 88.0946 149.425C87.9581 149.311 87.799 149.228 87.628 149.181C87.4569 149.134 87.2778 149.124 87.1026 149.151C86.0456 149.216 85.0434 149.645 84.2655 150.366" fill="#263238"/>
<path d="M40.7166 206.072L32.6021 224.693H43.772L51.7278 205.923L40.7166 206.072Z" fill="#263238"/>
<path d="M88.9676 224.474C99.9143 220.833 92.4098 206.297 92.4098 206.297L44.5607 210.813C42.7233 210.813 40.9608 211.545 39.6593 212.847C38.3578 214.149 37.6233 215.916 37.6167 217.761C37.6167 219.61 38.3483 221.383 39.6506 222.691C40.9528 223.998 42.719 224.733 44.5607 224.733L89.0122 224.494" fill="#455A64"/>
<path d="M99.8497 224.713C110.519 221.097 103.485 206.287 103.485 206.287L56.8614 210.699C52.3081 210.759 50.0811 212.965 50.0811 217.636C50.0811 221.471 51.4996 224.708 56.8465 224.608L99.8695 224.718" fill="#455A64"/>
<path d="M89.3395 208.747H89.2106H88.8187L87.3307 208.807L81.845 209.08L63.7459 210.076C62.8581 210.121 61.9851 210.196 61.1271 210.211C60.269 210.226 59.4109 210.261 58.5776 210.311C57.7443 210.36 56.9259 210.425 56.0976 210.51C55.3015 210.568 54.5172 210.736 53.7664 211.008C53.0399 211.281 52.379 211.705 51.8271 212.253C51.3023 212.793 50.8997 213.44 50.6466 214.15C50.4079 214.812 50.2416 215.499 50.1506 216.197C50.0624 216.839 50.0193 217.486 50.0216 218.134C50.0033 219.252 50.2126 220.362 50.6367 221.396C50.9591 222.165 51.4568 222.847 52.0899 223.388C52.477 223.722 52.9251 223.978 53.4093 224.14C53.7367 224.245 53.7466 224.21 53.4093 224.09C52.9403 223.909 52.507 223.646 52.1296 223.313C51.5242 222.773 51.0507 222.1 50.7458 221.346C50.3425 220.328 50.1485 219.239 50.1754 218.144C50.1782 217.506 50.2263 216.868 50.3192 216.237C50.4102 215.556 50.5765 214.888 50.8152 214.245C51.0563 213.565 51.4442 212.948 51.9511 212.437C52.4835 211.912 53.1209 211.506 53.821 211.247C54.5574 210.991 55.3248 210.835 56.1026 210.784C56.8962 210.704 57.7146 210.639 58.5479 210.594C59.3811 210.55 60.2243 210.51 61.0874 210.495C61.9504 210.48 62.8234 210.41 63.7063 210.365L81.84 209.265L87.3258 208.911L88.8138 208.802L89.2006 208.767C89.2478 208.77 89.2951 208.763 89.3395 208.747Z" fill="#263238"/>
<path d="M99.8746 213.333C99.7615 213.419 99.6338 213.483 99.4976 213.522C99.1323 213.655 98.7497 213.734 98.3618 213.757C97.7158 213.806 97.0669 213.712 96.4609 213.482C95.8549 213.252 95.3065 212.892 94.8543 212.426C94.4022 211.96 94.0573 211.4 93.8441 210.786C93.6308 210.172 93.5543 209.518 93.62 208.871C93.6497 208.483 93.7383 208.102 93.8829 207.741C93.9222 207.605 93.988 207.478 94.0763 207.367C93.9397 207.864 93.8484 208.373 93.8035 208.886C93.7634 209.502 93.8527 210.12 94.0658 210.699C94.2789 211.278 94.6109 211.806 95.0403 212.248C95.4697 212.69 95.9869 213.036 96.5582 213.264C97.1296 213.492 97.7424 213.597 98.3568 213.572C98.8694 213.543 99.3778 213.463 99.8746 213.333Z" fill="#263238"/>
<path d="M76.1459 183.886L71.7166 199.095L55.3337 200.858V203.777L79.4096 204.11L82.6832 184.31L76.1459 183.886Z" fill="#FFBE9D"/>
<path d="M97.5086 168C100.415 168 108.287 169.494 108.976 174.823C109.601 179.634 110.534 185.092 110.534 185.092L100.177 185.371L103.704 186.312L105.192 208.767L78.3779 207.83L79.8014 196.287L80.9918 184.758L75.134 184.26C75.134 184.26 77.118 174.215 80.6347 171.113C82.8401 169.324 85.5275 168.236 88.3524 167.99C91.4021 167.817 94.459 167.817 97.5086 167.99" fill="#FC9338"/>
<path d="M81.9541 177.288C82.0186 177.288 81.6069 181.352 81.0415 186.352C80.4761 191.352 79.9652 195.4 79.9007 195.39C79.8362 195.38 80.2479 191.327 80.8183 186.327C81.3887 181.327 81.8946 177.288 81.9541 177.288Z" fill="#263238"/>
<path d="M98.3072 168.035C98.3072 168.035 98.3072 168.1 98.3369 168.224C98.3667 168.349 98.3617 168.533 98.3667 168.767C98.3808 169.443 98.2819 170.116 98.0741 170.759C97.803 171.741 97.2796 172.634 96.5563 173.349C96.1107 173.775 95.5821 174.104 95.0038 174.315C94.3748 174.522 93.7166 174.626 93.0545 174.624C92.3905 174.641 91.7263 174.596 91.0705 174.489C90.4581 174.392 89.8761 174.156 89.3693 173.797C88.5591 173.166 87.9899 172.275 87.7573 171.272C87.5812 170.624 87.506 169.952 87.5341 169.28C87.5341 169.046 87.5589 168.862 87.5737 168.737C87.5771 168.673 87.5888 168.609 87.6085 168.548C87.6222 168.792 87.6222 169.036 87.6085 169.28C87.6123 169.944 87.7075 170.604 87.8912 171.242C88.1365 172.2 88.6955 173.047 89.4784 173.648C89.9632 173.984 90.5178 174.205 91.1003 174.295C91.7365 174.397 92.3807 174.44 93.0248 174.424C93.6631 174.424 94.2975 174.324 94.9046 174.126C95.4594 173.931 95.9666 173.621 96.3926 173.214C97.1 172.527 97.6208 171.67 97.9054 170.724C98.1177 170.096 98.2364 169.44 98.2576 168.777C98.2973 168.324 98.2923 168.035 98.3072 168.035Z" fill="#263238"/>
<g opacity="0.2">
<path d="M99.7457 177.288C98.7537 182.054 97.4591 186.949 96.4671 191.73C96.3266 192.757 95.968 193.742 95.4156 194.618C95.0068 195.12 94.5291 195.561 93.997 195.928C92.0831 197.465 89.9538 198.71 87.678 199.623C91 199.339 94.291 198.764 97.5137 197.905C97.7829 197.89 98.0464 197.821 98.289 197.703C98.5315 197.585 98.7484 197.42 98.9269 197.217C99.1054 197.014 99.2421 196.778 99.329 196.521C99.4159 196.265 99.4513 195.994 99.4332 195.724C100.147 189.614 99.9292 183.453 99.7457 177.298" fill="black"/>
</g>
<path d="M110.702 185.171C110.445 185.216 110.184 185.236 109.923 185.231L107.796 185.311C106.005 185.371 103.525 185.43 100.782 185.485H99.9043H99.7952V185.376C99.696 182.821 99.7406 180.55 99.7952 178.902C99.7952 178.09 99.8497 177.432 99.8795 176.979C99.8805 176.744 99.9021 176.509 99.944 176.277C99.9631 176.511 99.9631 176.746 99.944 176.979C99.944 177.477 99.944 178.12 99.944 178.907C99.944 180.54 99.9142 182.811 100.018 185.351L99.9043 185.241H100.787C103.525 185.186 106.005 185.151 107.801 185.137H109.928C110.187 185.128 110.446 185.14 110.702 185.171Z" fill="#263238"/>
<path d="M34.8142 186.252L43.9654 204.329H72.8227L71.6521 201.974L63.2945 201.72L56.4795 186.491C56.2724 186.027 55.9359 185.634 55.5108 185.358C55.0856 185.082 54.5899 184.936 54.0838 184.937H35.6276C35.4738 184.939 35.3229 184.979 35.1889 185.055C35.0548 185.13 34.9419 185.239 34.8608 185.37C34.7796 185.501 34.7328 185.651 34.7247 185.805C34.7165 185.959 34.7473 186.113 34.8142 186.252Z" fill="#E0E0E0"/>
<path d="M48.1615 195.465C48.7724 195.465 49.2676 194.968 49.2676 194.354C49.2676 193.741 48.7724 193.244 48.1615 193.244C47.5506 193.244 47.0554 193.741 47.0554 194.354C47.0554 194.968 47.5506 195.465 48.1615 195.465Z" fill="#263238"/>
<path d="M98.4509 154.38L97.4193 169.081C97.3365 170.237 96.821 171.319 95.9763 172.109C95.1316 172.899 94.0203 173.338 92.866 173.339C92.2415 173.339 91.6236 173.21 91.0506 172.961C90.4775 172.712 89.9615 172.347 89.5343 171.89C89.1071 171.432 88.7779 170.892 88.5669 170.302C88.3559 169.712 88.2677 169.084 88.3077 168.459C88.402 167.059 88.4813 165.909 88.4813 165.909C88.4813 165.909 84.9449 165.356 84.8953 161.8C84.8953 160.122 85.0937 156.82 85.3417 153.688C85.4823 151.934 86.2743 150.298 87.5606 149.103C88.8469 147.909 90.5335 147.243 92.2857 147.239C93.1619 147.289 94.0192 147.515 94.8069 147.903C95.5946 148.292 96.2966 148.835 96.8715 149.501C97.4463 150.167 97.8823 150.942 98.1536 151.78C98.4249 152.618 98.526 153.502 98.4509 154.38Z" fill="#FFBE9D"/>
<path d="M88.4616 166.093C90.099 166.125 91.7085 165.665 93.0843 164.773C93.0843 164.773 91.9881 167.333 88.4517 167.014L88.4616 166.093Z" fill="#EB996E"/>
<path d="M86.4529 156.008C86.4529 156.14 86.5051 156.267 86.5982 156.361C86.6912 156.454 86.8173 156.506 86.9489 156.506C87.0781 156.513 87.2048 156.469 87.3021 156.384C87.3994 156.298 87.4595 156.178 87.4697 156.048C87.4697 155.916 87.4174 155.79 87.3244 155.696C87.2314 155.603 87.1052 155.55 86.9737 155.55C86.8445 155.543 86.7178 155.587 86.6205 155.673C86.5232 155.759 86.463 155.879 86.4529 156.008Z" fill="#263238"/>
<path d="M86.1352 155.311C86.1997 155.376 86.5816 155.092 87.1272 155.092C87.6728 155.092 88.0696 155.366 88.1192 155.301C88.1688 155.237 88.0845 155.152 87.9109 155.022C87.6743 154.86 87.3941 154.773 87.1074 154.773C86.8239 154.774 86.548 154.865 86.3187 155.032C86.16 155.162 86.1055 155.281 86.1352 155.311Z" fill="#263238"/>
<path d="M91.5813 156.158C91.5813 156.29 91.6336 156.417 91.7266 156.51C91.8196 156.603 91.9458 156.656 92.0773 156.656C92.2023 156.656 92.3228 156.609 92.4147 156.524C92.5067 156.439 92.5633 156.323 92.5733 156.198C92.5733 156.066 92.521 155.939 92.428 155.846C92.335 155.752 92.2088 155.7 92.0773 155.7C91.9523 155.699 91.8318 155.746 91.7399 155.831C91.6479 155.916 91.5913 156.033 91.5813 156.158Z" fill="#263238"/>
<path d="M91.4872 155.411C91.5516 155.476 91.9385 155.192 92.4792 155.197C93.0198 155.202 93.4216 155.471 93.4712 155.401C93.5208 155.331 93.4364 155.252 93.2628 155.127C93.0276 154.961 92.7465 154.874 92.4593 154.878C92.1762 154.876 91.8999 154.965 91.6707 155.132C91.5169 155.262 91.4574 155.376 91.4872 155.411Z" fill="#263238"/>
<path d="M89.5132 159.465C89.2264 159.376 88.9299 159.322 88.6303 159.305C88.4914 159.305 88.3575 159.265 88.3327 159.171C88.3218 159.025 88.3546 158.879 88.4269 158.752L88.8386 157.692C89.2184 156.791 89.5268 155.862 89.7612 154.913C89.3097 155.781 88.9266 156.684 88.6154 157.612C88.4815 157.985 88.3476 158.339 88.2236 158.678C88.134 158.847 88.1093 159.044 88.1541 159.23C88.1747 159.279 88.2059 159.323 88.2454 159.358C88.2848 159.394 88.3316 159.42 88.3823 159.435C88.4587 159.453 88.5368 159.463 88.6154 159.465C88.9133 159.506 89.2153 159.506 89.5132 159.465Z" fill="#263238"/>
<path d="M91.1153 159.858C91.026 159.858 91.026 160.446 90.5201 160.854C90.0142 161.263 89.3842 161.213 89.3793 161.292C89.3743 161.372 89.5231 161.407 89.786 161.417C90.1329 161.423 90.4705 161.305 90.7383 161.083C90.9954 160.872 91.1607 160.568 91.1996 160.237C91.2244 159.988 91.155 159.858 91.1153 159.858Z" fill="#263238"/>
<path d="M91.3482 153.27C91.4028 153.419 91.9484 153.349 92.5832 153.424C93.2181 153.499 93.7389 153.678 93.8232 153.543C93.9076 153.409 93.7736 153.339 93.5653 153.195C93.2878 153.018 92.9737 152.908 92.647 152.871C92.3204 152.835 91.9898 152.874 91.6805 152.986C91.4424 153.08 91.3234 153.2 91.3482 153.27Z" fill="#263238"/>
<path d="M86.3387 153.728C86.433 153.852 86.8347 153.728 87.2613 153.728C87.6878 153.728 88.0896 153.812 88.1789 153.678C88.2682 153.544 88.1789 153.494 87.9904 153.374C87.7662 153.232 87.5048 153.16 87.2396 153.168C86.9744 153.176 86.7177 153.263 86.5024 153.419C86.3486 153.539 86.304 153.668 86.3387 153.728Z" fill="#263238"/>
<path d="M97.2556 157.283C97.3151 157.254 99.691 156.561 99.6116 158.992C99.5322 161.422 97.1316 160.844 97.1316 160.774C97.1316 160.705 97.2556 157.283 97.2556 157.283Z" fill="#FFBE9D"/>
<path d="M97.8856 159.858C97.8856 159.858 97.9302 159.888 97.9997 159.923C98.0492 159.944 98.1023 159.954 98.1559 159.954C98.2095 159.954 98.2626 159.944 98.3122 159.923C98.4685 159.827 98.5968 159.691 98.684 159.529C98.7711 159.368 98.814 159.185 98.8082 159.002C98.8182 158.793 98.7844 158.584 98.7089 158.389C98.6877 158.313 98.6488 158.243 98.5953 158.185C98.5419 158.127 98.4754 158.082 98.4014 158.055C98.3537 158.04 98.3023 158.042 98.2561 158.062C98.2098 158.081 98.1717 158.116 98.1485 158.16C98.1138 158.23 98.1485 158.279 98.1138 158.279C98.079 158.279 98.0642 158.24 98.1138 158.14C98.1272 158.08 98.1625 158.026 98.2129 157.991C98.2462 157.966 98.2839 157.949 98.324 157.94C98.364 157.93 98.4055 157.929 98.4461 157.936C98.5452 157.958 98.637 158.005 98.7126 158.073C98.7882 158.141 98.845 158.228 98.8776 158.324C98.9724 158.54 99.0149 158.776 99.0016 159.012C99.0047 159.228 98.9449 159.441 98.8295 159.624C98.7141 159.807 98.5481 159.952 98.3518 160.042C98.2853 160.056 98.2167 160.057 98.1502 160.043C98.0836 160.029 98.0206 160.002 97.9649 159.963C97.8905 159.938 97.8806 159.883 97.8856 159.858Z" fill="#EB996E"/>
<path d="M75.8929 204.359H40.6223V206.087H75.8929V204.359Z" fill="#263238"/>
<path d="M65.0305 205.226L75.759 224.713H85.3665L75.8929 206.087L65.0305 205.226Z" fill="#263238"/>
<path d="M75.888 206.088C75.888 206.157 67.9817 206.257 58.2304 206.307C48.479 206.356 40.5728 206.337 40.5728 206.267C40.5728 206.197 48.479 206.097 58.2304 206.048C67.9817 205.998 75.888 206.018 75.888 206.088Z" fill="#455A64"/>
<path d="M84.3646 152.104C84.6865 152.223 85.03 152.271 85.372 152.247C85.7141 152.222 86.047 152.124 86.3486 151.96C86.2948 152.02 86.2544 152.091 86.23 152.169C86.2056 152.246 86.1979 152.327 86.2073 152.408C86.2167 152.488 86.2429 152.566 86.2844 152.636C86.3259 152.705 86.3815 152.765 86.4478 152.811C86.7264 152.984 87.0553 153.056 87.3802 153.016C89.1428 152.947 90.8184 152.229 92.0873 150.999C92.1153 151.306 92.2328 151.598 92.4251 151.839C92.6173 152.08 92.8759 152.259 93.1686 152.353C93.7592 152.53 94.3883 152.53 94.979 152.353C94.7599 153.253 94.7228 154.188 94.8698 155.102C94.9494 155.557 95.16 155.979 95.4755 156.315C95.7911 156.652 96.1978 156.888 96.6455 156.995C96.7587 157.465 96.7971 157.951 96.7596 158.434C96.7943 158.932 97.0721 159.47 97.5582 159.485C98.0442 159.5 98.2972 159.056 98.3567 158.633C98.4162 158.21 98.1633 157.348 98.4658 156.666C98.7684 155.984 98.6642 156.058 98.9866 155.316C99.309 154.574 99.4826 153.548 99.7505 152.777C100.041 152.008 100.064 151.164 99.815 150.381C99.678 149.998 99.4272 149.665 99.0964 149.429C98.7656 149.193 98.3707 149.065 97.9649 149.061C98.113 148.677 98.1363 148.255 98.0315 147.856C97.9267 147.457 97.6991 147.102 97.3813 146.841C97.0634 146.58 96.6715 146.426 96.2614 146.402C95.8514 146.378 95.4442 146.484 95.098 146.706C95.098 146.706 92.3402 144.823 89.2898 145.864C86.2394 146.905 85.7831 149.684 85.1185 149.769C84.4538 149.853 82.4401 148.773 82.7873 149.45C83.1345 150.127 83.7098 150.809 83.9975 150.839C84.2852 150.869 81.6911 149.769 82.5839 150.755C83.0807 151.32 83.6864 151.78 84.3646 152.104Z" fill="#263238"/>
<path d="M108.679 175.794C108.395 175.452 108.074 175.143 107.721 174.873C106.723 174.183 105.53 173.834 104.319 173.877C102.786 173.877 101.03 174.539 99.3042 175.6C97.5781 176.661 95.8074 178.09 93.6151 179.051C91.5437 179.991 89.1879 180.079 87.053 179.295C86.1343 178.95 85.2769 178.459 84.5135 177.841C83.7943 177.283 83.1594 176.72 82.5295 176.267C81.5903 175.498 80.4434 175.028 79.236 174.918C78.7916 174.907 78.3482 174.966 77.9216 175.092C77.9216 175.092 77.9216 175.092 78.001 175.052C78.08 175.016 78.1612 174.984 78.244 174.957C78.5658 174.861 78.9002 174.814 79.236 174.818C80.4765 174.889 81.665 175.343 82.6386 176.118C83.9083 176.999 85.2029 178.399 87.1026 179.071C89.1842 179.811 91.4693 179.72 93.4861 178.817C95.6288 177.881 97.3847 176.432 99.1554 175.396C100.926 174.36 102.712 173.663 104.289 173.693C105.537 173.665 106.759 174.056 107.761 174.803C108.028 175.006 108.266 175.244 108.47 175.51C108.551 175.596 108.621 175.691 108.679 175.794Z" fill="#FAFAFA"/>
<path d="M99.8546 188.901C99.8546 188.901 99.6116 188.742 99.1701 188.488C98.5445 188.127 97.8668 187.865 97.1613 187.711C96.1203 187.479 95.0392 187.498 94.0068 187.766C92.8362 188.06 91.6409 188.677 90.3116 189.17C89.6609 189.411 88.9855 189.578 88.2978 189.668C87.6561 189.749 87.0076 189.761 86.3634 189.703C85.2741 189.606 84.2109 189.314 83.2237 188.842C82.5571 188.531 81.9376 188.127 81.3836 187.641C81.2298 187.515 81.0856 187.376 80.9521 187.228C80.8578 187.133 80.8082 187.079 80.8181 187.069C80.8281 187.059 81.0413 187.248 81.4481 187.567C82.0176 188.012 82.6388 188.387 83.2981 188.682C84.2751 189.118 85.318 189.386 86.3833 189.474C87.6879 189.576 88.9987 189.387 90.2223 188.921C91.4377 188.39 92.6813 187.926 93.9473 187.532C94.8391 187.309 95.7669 187.27 96.6742 187.418C97.5815 187.566 98.4492 187.898 99.2247 188.393C99.3965 188.504 99.5621 188.623 99.7207 188.752C99.81 188.847 99.8596 188.896 99.8546 188.901Z" fill="#FAFAFA"/>
<path d="M103.758 197.273C103.446 197.149 103.126 197.046 102.801 196.964C101.897 196.817 100.971 196.901 100.108 197.208C99.5083 197.406 98.9274 197.656 98.3717 197.955C97.7666 198.274 97.1367 198.652 96.4571 199.021C95.7456 199.426 94.9922 199.751 94.2103 199.992C93.3544 200.244 92.4501 200.282 91.5765 200.102C89.776 199.708 88.3525 198.662 87.0431 197.88C85.9272 197.101 84.6475 196.59 83.3032 196.386C82.3938 196.29 81.4776 196.489 80.6893 196.954C80.4077 197.138 80.1481 197.353 79.9155 197.597C79.9556 197.517 80.0056 197.444 80.0643 197.378C80.2299 197.185 80.4219 197.017 80.6347 196.88C81.4324 196.36 82.3811 196.125 83.328 196.212C84.5283 196.272 85.8526 196.865 87.177 197.666C88.5013 198.468 89.9149 199.464 91.641 199.838C92.4748 200.01 93.3379 199.976 94.1557 199.738C94.9204 199.504 95.6586 199.19 96.3579 198.802C97.0375 198.443 97.6723 198.07 98.2874 197.751C98.8598 197.456 99.4574 197.212 100.073 197.024C100.962 196.719 101.917 196.662 102.836 196.86C103.083 196.919 103.323 197.008 103.55 197.124C103.689 197.208 103.763 197.263 103.758 197.273Z" fill="#FAFAFA"/>
<path d="M105.023 206.79C104.946 206.838 104.863 206.873 104.775 206.894C104.524 206.966 104.266 207.009 104.006 207.024C103.045 207.024 102.094 206.824 101.214 206.436C100.608 206.198 99.9884 205.997 99.3587 205.834C98.6334 205.681 97.8895 205.637 97.1514 205.704C95.5841 205.839 93.9324 206.436 92.1914 206.944C91.3292 207.202 90.4463 207.383 89.5527 207.487C88.7157 207.566 87.8726 207.554 87.038 207.452C85.6341 207.256 84.2597 206.886 82.946 206.351C82.062 206.004 81.1961 205.612 80.3519 205.176C80.0494 205.027 79.8212 204.897 79.6674 204.813C79.5842 204.774 79.5059 204.726 79.4343 204.668C79.5234 204.688 79.6088 204.721 79.6873 204.768L80.3916 205.087C81.0067 205.365 81.8796 205.769 83.0105 206.187C84.3158 206.691 85.6761 207.037 87.0628 207.218C87.887 207.309 88.7186 207.309 89.5428 207.218C90.4215 207.115 91.2896 206.935 92.1369 206.68C93.8878 206.182 95.5593 205.58 97.1713 205.455C97.9336 205.389 98.7015 205.441 99.4479 205.609C100.085 205.782 100.709 205.996 101.318 206.252C102.175 206.644 103.1 206.867 104.041 206.909C104.371 206.897 104.7 206.857 105.023 206.79Z" fill="#FAFAFA"/>
<path d="M110.112 182.657C110.028 182.778 109.926 182.885 109.809 182.975C109.502 183.235 109.158 183.447 108.788 183.603C108.233 183.834 107.638 183.951 107.037 183.946C106.3 183.919 105.578 183.727 104.924 183.384C104.229 183.05 103.605 182.687 102.994 182.467C102.46 182.273 101.887 182.21 101.323 182.283C100.944 182.332 100.584 182.482 100.281 182.716C100.073 182.896 99.9837 183.025 99.9639 183.01C100.015 182.869 100.1 182.742 100.212 182.642C100.509 182.359 100.884 182.172 101.288 182.104C101.886 181.998 102.5 182.046 103.074 182.243C103.753 182.505 104.415 182.807 105.058 183.15C105.672 183.475 106.348 183.665 107.042 183.707C107.613 183.725 108.182 183.632 108.718 183.434C109.207 183.222 109.674 182.961 110.112 182.657Z" fill="#FAFAFA"/>
<path d="M81.3044 182.408C81.3044 182.408 81.2746 182.492 81.1457 182.582C80.9581 182.698 80.7406 182.755 80.5207 182.746C80.198 182.735 79.883 182.644 79.6031 182.482C79.2906 182.308 78.993 182.064 78.6706 181.855C78.1239 181.494 77.4588 181.36 76.8156 181.481C76.3196 181.571 76.0468 181.755 76.022 181.715C76.2237 181.501 76.4875 181.357 76.7759 181.302C77.1192 181.209 77.4785 181.191 77.8294 181.249C78.1803 181.308 78.5145 181.441 78.8095 181.641C79.1517 181.86 79.4394 182.104 79.7221 182.273C79.9669 182.428 80.2431 182.527 80.5306 182.562C80.7977 182.581 81.065 182.528 81.3044 182.408Z" fill="#FAFAFA"/>
<path d="M67.833 198.488L75.0498 197.616L80.1338 200.963L99.577 196.287L100.147 185.391L108.877 185.171L108.674 197.96C108.653 198.938 108.44 199.903 108.047 200.798C107.653 201.694 107.087 202.502 106.381 203.177C105.676 203.852 104.844 204.38 103.934 204.731C103.024 205.081 102.054 205.248 101.08 205.221L72.5995 204.429L71.3893 201.994L65.2786 201.815L67.833 198.488Z" fill="#FFBE9D"/>
<path d="M99.3338 196.287C99.2139 196.331 99.0913 196.368 98.9668 196.396L97.9103 196.675L94.0068 197.671L81.1108 200.809L79.9154 201.093H79.8658L79.8261 201.063L74.7421 197.706H74.8116L67.5948 198.543H67.6394L65.7348 200.973C65.5165 201.237 65.3479 201.471 65.2388 201.61C65.1825 201.687 65.1194 201.759 65.0503 201.825C65.0963 201.741 65.1494 201.661 65.209 201.586L65.705 200.923L67.5601 198.433H67.5898L74.8017 197.527H74.8413H74.8761L79.965 200.863H79.8757L81.0761 200.575L93.9721 197.502L97.8954 196.596L98.9618 196.362C99.0832 196.325 99.2078 196.3 99.3338 196.287Z" fill="#EB996E"/>
<path d="M71.7761 200.564C70.8447 200.676 69.9061 200.715 68.9687 200.679H68.4727H68.5471C67.9812 201.198 67.3722 201.668 66.7268 202.083C67.2374 201.511 67.7967 200.985 68.3983 200.51L68.433 200.48H68.9836C69.9152 200.432 70.8491 200.46 71.7761 200.564Z" fill="#EB996E"/>
<path d="M102.915 198.468C102.571 197.865 102.084 197.355 101.497 196.984C100.911 196.614 100.243 196.393 99.5522 196.342C99.7526 196.27 99.9681 196.253 100.177 196.292C100.69 196.344 101.184 196.515 101.621 196.79C102.056 197.064 102.422 197.438 102.687 197.88C102.814 198.052 102.893 198.255 102.915 198.468Z" fill="#EB996E"/>
</svg>
