<svg width="250" height="250" viewBox="0 0 250 250" fill="none" xmlns="http://www.w3.org/2000/svg">
<path d="M204.77 104.295C198.155 94.67 182.725 92.795 174.01 100.58C173.92 96.6442 172.677 92.8212 170.436 89.5844C168.195 86.3477 165.054 83.8393 161.401 82.37C157.749 80.9006 153.746 80.5347 149.888 81.3177C146.029 82.1007 142.486 83.9981 139.695 86.775C140.94 82.4 136.35 78.135 131.81 77.9C127.27 77.665 123.065 80.105 119.17 82.45C115.275 84.795 111.045 87.21 106.505 86.905C101.59 86.575 97.5049 83.145 92.9149 81.37C81.6749 77.025 67.4499 84.735 64.9599 96.525C52.5199 91.525 36.5599 99.725 33.4299 112.77L215.57 114.895C214.92 112.305 213.568 109.945 211.662 108.074C209.757 106.204 207.372 104.896 204.77 104.295Z" fill="#F5F5F5"/>
<path d="M197.44 45.6799C197.755 43.3899 194.525 41.5049 192.095 41.3099C190.94 41.2199 189.735 41.3949 188.64 41.0149C186.265 40.1849 185.315 37.1149 183 36.1399C181.265 35.4049 179.27 36.0599 177.59 36.9049C175.91 37.7499 174.25 38.8149 172.37 38.9349C170.74 39.0399 168.965 38.4349 167.54 39.2299C166.475 39.8249 165.915 41.0499 164.935 41.775C163.955 42.4999 162.725 42.6299 161.53 42.6949C160.335 42.7599 159.11 42.7749 158.03 43.2699C156.95 43.7649 156.03 44.9149 156.275 46.0849L197.44 45.6799Z" fill="#FAFAFA"/>
<path d="M38.8848 26.8499C39.0598 25.5699 37.2598 24.5199 35.8848 24.4149C35.2519 24.4357 34.6188 24.3786 33.9998 24.2449C32.6748 23.7849 32.1448 22.0699 30.8498 21.5249C29.8848 21.1199 28.7698 21.4799 27.8498 21.9549C26.9298 22.4299 25.9448 22.9999 24.8998 23.0849C23.9848 23.1449 22.9998 22.8049 22.1998 23.2499C21.6048 23.5849 21.2948 24.2499 20.7498 24.6699C20.1782 25.0169 19.5182 25.1906 18.8498 25.1699C18.1823 25.154 17.5177 25.2625 16.8898 25.4899C16.5756 25.608 16.3083 25.8249 16.1279 26.1081C15.9476 26.3912 15.864 26.7252 15.8898 27.0599L38.8848 26.8499Z" fill="#FAFAFA"/>
<path d="M226.63 69.0249C226.99 66.3949 223.28 64.2299 220.49 64.0249C219.155 63.9149 217.775 64.1199 216.49 63.6799C213.76 62.7299 212.67 59.1799 209.99 58.0749C207.99 57.2349 205.705 57.9849 203.77 58.9549C201.835 59.9249 199.93 61.1499 197.77 61.2899C195.89 61.4099 193.855 60.7149 192.21 61.6299C190.99 62.3149 190.35 63.7249 189.21 64.5549C188.07 65.3849 186.665 65.5549 185.3 65.6149C183.935 65.6749 182.51 65.7049 181.265 66.2749C180.02 66.8449 178.985 68.1649 179.265 69.5099L226.63 69.0249Z" fill="white"/>
<path d="M221.535 23.885C221.79 22.03 219.175 20.51 217.21 20.35C216.275 20.275 215.3 20.42 214.415 20.11C212.49 19.44 211.725 16.955 209.85 16.165C208.445 15.575 206.85 16.1 205.475 16.785C204.1 17.47 202.77 18.33 201.25 18.425C199.93 18.51 198.495 18.02 197.34 18.665C196.48 19.165 196.03 20.165 195.235 20.725C194.414 21.2319 193.464 21.4907 192.5 21.47C191.533 21.4489 190.57 21.6065 189.66 21.935C188.785 22.335 188.06 23.265 188.24 24.215L221.535 23.885Z" fill="white"/>
<path d="M46.41 68.0999C46.6 66.7199 44.655 65.5999 43.195 65.4699C42.4952 65.4987 41.7945 65.4383 41.11 65.2899C39.68 64.7899 39.11 62.9449 37.715 62.3549C36.67 61.9149 35.47 62.3099 34.46 62.8149C33.45 63.3199 32.46 63.9649 31.32 64.0399C30.32 64.0999 29.27 63.7399 28.41 64.2199C27.765 64.5749 27.41 65.3149 26.84 65.7499C26.2244 66.1286 25.5125 66.3214 24.79 66.3049C24.0713 66.2875 23.3557 66.4045 22.68 66.6499C22.3441 66.7803 22.0594 67.0158 21.8683 67.3213C21.6773 67.6268 21.5902 67.9859 21.62 68.3449L46.41 68.0999Z" fill="white"/>
<path d="M97.8099 46.9649C98.2099 44.0549 94.0999 41.6599 91.0149 41.4099C89.5399 41.2899 88.0149 41.5149 86.6149 41.0299C83.6149 39.9749 82.3849 36.0699 79.4399 34.8299C77.2349 33.8999 74.6949 34.7249 72.5599 35.7999C70.4249 36.8749 68.3099 38.2299 65.9199 38.3849C63.8449 38.5149 61.5899 37.7449 59.7699 38.7599C58.4149 39.5149 57.7099 41.0749 56.4599 41.9999C55.2099 42.9249 53.6449 43.0899 52.1299 43.1699C50.6149 43.2499 49.0499 43.2699 47.6699 43.8999C46.2899 44.5299 45.1499 45.9999 45.4349 47.4999L97.8099 46.9649Z" fill="#F5F5F5"/>
<path d="M13.9249 151.455C13.9249 151.455 9.66489 152.06 12.0899 161.385C14.5149 170.71 16.5549 175.5 16.5549 175.5C16.5549 175.5 16.8799 177.615 15.1749 177.555C13.4699 177.495 9.99989 176.14 8.81989 178C7.63989 179.86 8.67489 182.205 11.3599 184.605C14.0449 187.005 19.7199 192.47 20.2299 192.97C20.7399 193.47 21.1149 194.47 19.9499 194.635C18.7849 194.8 10.4999 193.815 10.2649 197.78C10.0299 201.745 18.6199 207.2 19.5449 207.815C20.4699 208.43 20.6149 208.91 20.4099 209.45C20.2049 209.99 17.4449 209.405 15.0699 209.23C12.6949 209.055 9.91989 209.27 9.98989 211.57C10.0599 213.87 14.5649 219.665 27.6749 223.945L33.8799 225.53L38.4449 221C47.6349 210.715 48.6249 203.445 47.5299 201.42C46.4349 199.395 43.9199 200.61 41.9549 201.95C39.9899 203.29 37.8949 205.18 37.4549 204.82C37.0149 204.46 36.8949 203.965 37.3849 202.97C37.8749 201.975 42.5449 192.97 40.3849 189.635C38.2249 186.3 31.4999 191.305 30.4049 191.765C29.3099 192.225 29.1299 191.14 29.3199 190.465C29.5099 189.79 31.6799 182.195 32.8199 178.775C33.9599 175.355 33.7099 172.83 31.6999 171.775C29.6899 170.72 27.4399 173.705 25.9949 174.615C24.5499 175.525 23.7749 173.53 23.7749 173.53C23.7749 173.53 23.1049 168.36 20.4999 159.08C17.8949 149.8 13.8249 151.47 13.8249 151.47" fill="#EBEBEB"/>
<path d="M33.8748 227.07C31.9998 220.245 28.8748 208.07 26.1298 197.61C23.3848 187.15 20.8998 177.71 19.0548 170.875C18.1348 167.465 17.3898 164.7 16.8698 162.785L16.2748 160.58L16.1248 160.01L16.0798 159.81C16.0798 159.81 16.1048 159.875 16.1448 160.005L16.3148 160.57C16.4598 161.07 16.6698 161.815 16.9448 162.76C17.4898 164.665 18.2548 167.425 19.1948 170.835C21.0698 177.66 23.5798 187.11 26.3198 197.56C29.0598 208.01 32.1698 220.2 33.9998 227.035" fill="#E0E0E0"/>
<path d="M13.6099 180.1C13.7512 180.161 13.8867 180.235 14.0149 180.32C14.2749 180.47 14.6399 180.7 15.0899 180.985C15.9849 181.56 17.1999 182.38 18.5299 183.315L21.9199 185.715L22.9499 186.44C23.0834 186.519 23.2075 186.613 23.3199 186.72C23.1753 186.665 23.0377 186.592 22.9099 186.505C22.6499 186.355 22.2849 186.125 21.8399 185.835C20.9499 185.25 19.7399 184.41 18.4149 183.48L14.9999 181.1L13.9999 180.385C13.8561 180.31 13.7246 180.214 13.6099 180.1Z" fill="#E0E0E0"/>
<path d="M23.8349 186.415C23.7849 186.385 25.3749 183.8 27.3799 180.64C29.3849 177.48 31.0499 174.945 31.0949 175C31.1399 175.055 29.5549 177.61 27.5499 180.77C25.5449 183.93 23.8799 186.445 23.8349 186.415Z" fill="#E0E0E0"/>
<path d="M27.3198 202.645C27.4204 202.522 27.5344 202.412 27.6598 202.315L28.6248 201.47C29.4348 200.75 30.5548 199.755 31.7498 198.61C32.9448 197.465 33.9948 196.395 34.7498 195.61L35.6448 194.685C35.7459 194.563 35.8618 194.453 35.9898 194.36C35.906 194.494 35.8088 194.62 35.6998 194.735C35.5048 194.97 35.1998 195.3 34.8548 195.705C34.1298 196.515 33.0948 197.605 31.8898 198.75C30.6848 199.895 29.5598 200.88 28.7198 201.57C28.2998 201.915 27.9548 202.19 27.7198 202.37C27.5989 202.478 27.4645 202.571 27.3198 202.645Z" fill="#E0E0E0"/>
<path d="M16.8149 199C16.9601 199.016 17.1028 199.05 17.2399 199.1L18.3749 199.45C19.3299 199.75 20.6499 200.18 22.0999 200.665C23.5499 201.15 24.8599 201.605 25.8099 201.94L26.9249 202.35C27.0651 202.391 27.1995 202.45 27.3249 202.525C27.18 202.505 27.0375 202.47 26.8999 202.42L25.7649 202.075C24.8049 201.77 23.4899 201.34 22.0349 200.855C20.5799 200.37 19.2749 199.92 18.3299 199.58L17.2149 199.175C17.0758 199.131 16.9417 199.072 16.8149 199Z" fill="#E0E0E0"/>
<path d="M18.0698 213.695C18.255 213.724 18.4374 213.769 18.6148 213.83L20.0698 214.27C21.2998 214.65 22.9898 215.19 24.8598 215.77C26.7298 216.35 28.4098 216.935 29.6248 217.35L31.0648 217.85C31.2376 217.905 31.4049 217.975 31.5648 218.06C31.379 218.034 31.1964 217.989 31.0198 217.925L29.5848 217.5C28.3548 217.12 26.6648 216.58 24.7948 216C22.9248 215.42 21.2448 214.835 20.0298 214.42L18.5898 213.92C18.4087 213.865 18.2342 213.789 18.0698 213.695Z" fill="#E0E0E0"/>
<path d="M31.2898 217.89C31.4159 217.734 31.5565 217.59 31.7098 217.46L32.8948 216.34C33.8948 215.39 35.2648 214.08 36.7448 212.585C38.2248 211.09 39.5248 209.71 40.4598 208.7L41.5698 207.5C41.6988 207.348 41.841 207.207 41.9948 207.08C41.8855 207.246 41.7634 207.403 41.6298 207.55C41.3848 207.85 41.0198 208.275 40.5648 208.79C39.6548 209.825 38.3648 211.225 36.8848 212.72C35.4048 214.215 33.9998 215.5 32.9998 216.445C32.4998 216.9 32.0648 217.27 31.7698 217.52C31.6198 217.656 31.4593 217.78 31.2898 217.89Z" fill="#E0E0E0"/>
<path d="M211.075 227.575C200.71 221.84 196.815 209.075 195.61 197.29C195.41 195.32 194.93 193.29 195.57 191.445C196.21 189.6 198.07 188.15 199.835 188.75C201.29 189.25 202.11 190.855 203.06 192.15C204.297 193.853 205.993 195.169 207.95 195.945C209.205 196.445 210.7 196.63 211.76 195.795C213.215 194.64 213.085 192.295 212.815 190.335L211.285 179.45C211.01 177.5 210.735 175.51 211.055 173.585C211.375 171.66 212.395 169.765 214.055 169.01C215.715 168.255 218.01 169.01 218.63 170.88C218.808 171.678 218.935 172.486 219.01 173.3C219.17 174.1 219.64 174.945 220.39 175.075C221.14 175.205 221.805 174.575 222.27 173.905C223.89 171.675 224.825 168.965 225.675 166.28C226.525 163.595 227.34 160.855 228.76 158.475C230.18 156.095 232.31 154.065 234.895 153.55C237.48 153.035 240.5 154.37 241.525 157C242.55 159.63 241.435 162.65 240.1 165.1C238.148 168.7 235.687 172.001 232.795 174.9C232.214 175.368 231.794 176.006 231.595 176.725C231.375 178.075 232.7 179.225 233.96 179.47C235.38 179.765 236.835 179.41 238.28 179.395C239.725 179.38 241.355 179.835 242.085 181.2C243.085 183.085 241.825 185.39 240.475 186.97C237.803 190.111 234.595 192.754 231 194.775C229.73 195.485 228.38 196.14 227.435 197.275C226.49 198.41 226.07 200.275 226.91 201.555C227.75 202.835 229.485 203.055 230.85 202.555C232.215 202.055 233.35 201.095 234.63 200.37C236.995 199.015 240.255 198.755 242.17 200.845C243.43 202.22 243.81 204.345 243.52 206.215C243.157 208.067 242.439 209.831 241.405 211.41C238.07 217 233.475 221.765 227.955 224.72C222.435 227.675 217.13 229 211.055 227.535" fill="#F5F5F5"/>
<path d="M212.92 219.83C213.877 213.198 215.195 206.623 216.87 200.135C217.305 198.415 217.735 196.71 218.155 195.035C218.575 193.36 219 191.7 219.51 190.105C220.485 187.055 221.621 184.059 222.915 181.13C224.13 178.335 225.38 175.73 226.565 173.305C227.75 170.88 228.9 168.64 230.03 166.65C231.791 163.513 233.797 160.52 236.03 157.7C236.81 156.7 237.44 155.96 237.875 155.46L238.375 154.895C238.429 154.828 238.489 154.766 238.555 154.71C238.51 154.784 238.46 154.854 238.405 154.92L237.93 155.51C237.515 156.01 236.9 156.79 236.135 157.795C233.955 160.645 231.99 163.654 230.255 166.795C229.14 168.795 228.01 171.03 226.83 173.455C225.65 175.88 224.4 178.5 223.2 181.28C221.918 184.2 220.791 187.186 219.825 190.225C219.325 191.815 218.905 193.46 218.48 195.135C218.055 196.81 217.63 198.515 217.195 200.235C215.526 206.709 214.201 213.266 213.225 219.88" fill="#E0E0E0"/>
<path d="M219.605 190.08C219.479 189.823 219.382 189.553 219.315 189.275C219.145 188.75 218.925 187.98 218.665 187.025C218.165 185.12 217.515 182.465 216.83 179.525C216.145 176.585 215.475 173.955 214.93 172.065C214.66 171.12 214.43 170.355 214.275 169.83C214.176 169.561 214.103 169.283 214.055 169C214.199 169.247 214.313 169.511 214.395 169.785C214.595 170.285 214.86 171.05 215.155 171.99C215.76 173.87 216.47 176.49 217.155 179.445C217.84 182.4 218.435 184.945 218.895 186.945C219.11 187.85 219.295 188.61 219.44 189.22C219.522 189.501 219.577 189.789 219.605 190.08Z" fill="#E0E0E0"/>
<path d="M242.405 182.165C242.108 182.279 241.799 182.363 241.485 182.415C240.89 182.555 240.03 182.755 238.985 183.035C236.875 183.58 233.985 184.44 230.83 185.535C227.675 186.63 224.875 187.77 222.865 188.655C221.865 189.085 221.055 189.46 220.495 189.715C220.213 189.863 219.919 189.985 219.615 190.08C219.871 189.884 220.148 189.716 220.44 189.58C220.98 189.285 221.775 188.875 222.77 188.41C225.365 187.199 228.02 186.123 230.725 185.185C233.413 184.231 236.153 183.426 238.93 182.775C239.995 182.53 240.865 182.37 241.47 182.275C241.777 182.207 242.09 182.17 242.405 182.165Z" fill="#E0E0E0"/>
<path d="M213.145 219.325C213.145 219.325 213.065 219.235 212.94 219.045L212.44 218.19C211.99 217.45 211.36 216.36 210.605 215.005C209.105 212.29 207.105 208.47 204.965 204.23C202.825 199.99 200.875 196.15 199.415 193.405L197.675 190.165L197.205 189.275C197.141 189.176 197.093 189.068 197.06 188.955C197.14 189.041 197.209 189.137 197.265 189.24L197.765 190.09C198.215 190.83 198.845 191.92 199.6 193.28C201.1 195.995 203.1 199.81 205.24 204.055C207.38 208.3 209.33 212.13 210.79 214.875L212.53 218.12L213 219C213.062 219.102 213.11 219.211 213.145 219.325Z" fill="#E0E0E0"/>
<path d="M242.835 204.305C242.747 204.378 242.65 204.439 242.545 204.485L241.685 204.93L238.5 206.545C235.815 207.91 232.13 209.84 228.06 211.98C223.99 214.12 220.285 216.015 217.56 217.32C216.205 217.975 215.105 218.49 214.335 218.82L213.45 219.205C213.245 219.29 213.135 219.33 213.13 219.315C213.219 219.244 213.316 219.186 213.42 219.14L214.28 218.69L217.46 217.075C220.14 215.71 223.83 213.78 227.9 211.64C231.97 209.5 235.675 207.605 238.4 206.3C239.755 205.65 240.86 205.13 241.63 204.8L242.515 204.415C242.616 204.363 242.723 204.326 242.835 204.305Z" fill="#E0E0E0"/>
<path d="M242.365 239.175C242.365 239.25 189.59 239.31 124.505 239.31C59.42 239.31 6.63501 239.25 6.63501 239.175C6.63501 239.1 59.4 239.045 124.505 239.045C189.61 239.045 242.365 239.105 242.365 239.175Z" fill="#263238"/>
<path d="M211.675 110.195H35.39C31.3666 110.195 28.105 113.457 28.105 117.48V229.12C28.105 233.143 31.3666 236.405 35.39 236.405H211.675C215.698 236.405 218.96 233.143 218.96 229.12V117.48C218.96 113.457 215.698 110.195 211.675 110.195Z" fill="#455A64"/>
<path d="M20.645 228.255H227.425V230.585C227.425 232.895 226.507 235.111 224.874 236.744C223.24 238.377 221.025 239.295 218.715 239.295H29.355C27.045 239.295 24.8296 238.377 23.1961 236.744C21.5627 235.111 20.645 232.895 20.645 230.585V228.255Z" fill="#455A64"/>
<path d="M213.3 115.21H33.2251V221.795H213.3V115.21Z" fill="#263238"/>
<path d="M104.715 227.075L107.285 231.155H143.39L145.77 227.075H104.715Z" fill="#263238"/>
<path d="M208.33 118.82H38.5701C37.6671 118.82 36.9351 119.552 36.9351 120.455V219.82C36.9351 220.723 37.6671 221.455 38.5701 221.455H208.33C209.233 221.455 209.965 220.723 209.965 219.82V120.455C209.965 119.552 209.233 118.82 208.33 118.82Z" fill="#EBEBEB"/>
<path d="M209.78 221.605H36.75L36.935 126.49H209.78V221.605Z" fill="#FAFAFA"/>
<path d="M51.125 122.785C51.124 123.058 51.0422 123.324 50.89 123.55C50.7377 123.777 50.5219 123.953 50.2696 124.057C50.0174 124.16 49.7401 124.187 49.4727 124.133C49.2053 124.079 48.9599 123.947 48.7674 123.754C48.5749 123.561 48.444 123.315 48.3911 123.048C48.3383 122.78 48.3659 122.503 48.4705 122.251C48.5751 121.999 48.752 121.784 48.9788 121.632C49.2056 121.481 49.4723 121.4 49.745 121.4C49.9266 121.4 50.1065 121.436 50.2742 121.506C50.442 121.575 50.5944 121.677 50.7226 121.806C50.8508 121.935 50.9523 122.088 51.0214 122.256C51.0904 122.424 51.1256 122.604 51.125 122.785Z" fill="#263238"/>
<path d="M42.75 122.785C42.75 123.059 42.6686 123.327 42.5162 123.555C42.3638 123.783 42.1472 123.961 41.8938 124.065C41.6405 124.17 41.3617 124.197 41.0929 124.143C40.8241 124.089 40.5774 123.957 40.3839 123.763C40.1904 123.569 40.0589 123.321 40.006 123.052C39.9531 122.783 39.9813 122.505 40.0869 122.252C40.1924 121.999 40.3707 121.783 40.5992 121.631C40.8276 121.48 41.0958 121.399 41.37 121.4C41.5516 121.4 41.7315 121.436 41.8992 121.506C42.067 121.575 42.2194 121.677 42.3476 121.806C42.4758 121.935 42.5773 122.088 42.6464 122.256C42.7154 122.424 42.7506 122.604 42.75 122.785Z" fill="#263238"/>
<path d="M46.77 122.785C46.769 123.058 46.6872 123.324 46.535 123.55C46.3828 123.777 46.1669 123.953 45.9146 124.057C45.6624 124.16 45.3851 124.187 45.1177 124.133C44.8504 124.079 44.6049 123.947 44.4124 123.754C44.2199 123.561 44.089 123.315 44.0362 123.048C43.9833 122.78 44.0109 122.503 44.1155 122.251C44.2201 121.999 44.397 121.784 44.6238 121.632C44.8507 121.481 45.1173 121.4 45.39 121.4C45.5716 121.4 45.7515 121.436 45.9193 121.506C46.087 121.575 46.2394 121.677 46.3676 121.806C46.4958 121.935 46.5973 122.088 46.6664 122.256C46.7355 122.424 46.7707 122.604 46.77 122.785Z" fill="#263238"/>
<path d="M217.32 227.075C217.32 227.14 174.96 227.195 122.715 227.195C70.47 227.195 28.105 227.14 28.105 227.075C28.105 227.01 70.455 226.95 122.715 226.95C174.975 226.95 217.32 227 217.32 227.075Z" fill="#263238"/>
<path d="M191.555 167.44C189.144 169.519 187.354 172.223 186.384 175.255C185.413 178.287 185.299 181.528 186.055 184.62C183.8 184.175 181.471 184.291 179.271 184.957C177.072 185.623 175.069 186.819 173.44 188.44C171.811 190.061 170.604 192.057 169.927 194.253C169.25 196.449 169.122 198.778 169.555 201.035C164.6 197.625 157.025 198.9 153.46 203.75C153.385 200.55 153.26 197.175 151.58 194.45C149.9 191.725 146.08 190.045 143.385 191.775C144.406 190.611 145.027 189.15 145.155 187.607C145.283 186.064 144.912 184.52 144.097 183.204C143.281 181.888 142.064 180.868 140.625 180.296C139.187 179.724 137.602 179.629 136.105 180.025C136.03 176.185 133.605 148.995 131.605 126.055H114.525C112.525 148.595 110.24 174.485 110.165 178.23C108.664 177.825 107.073 177.915 105.627 178.487C104.182 179.059 102.96 180.083 102.142 181.405C101.325 182.727 100.956 184.278 101.091 185.826C101.226 187.375 101.857 188.839 102.89 190C100.195 188.27 96.3901 189.955 94.6951 192.675C93.0001 195.395 92.8851 198.775 92.8101 201.975C89.2451 197.13 81.6751 195.85 76.7151 199.26C77.1482 197.003 77.0205 194.674 76.3432 192.478C75.6658 190.282 74.4595 188.286 72.8302 186.665C71.2009 185.044 69.1985 183.848 66.9989 183.182C64.7993 182.516 62.4698 182.4 60.2151 182.845C61.0162 179.753 60.9232 176.497 59.9467 173.455C58.9703 170.413 57.1505 167.711 54.6991 165.663C52.2476 163.615 49.2652 162.305 46.0984 161.885C42.9317 161.465 39.7107 161.952 36.8101 163.29V221.555H209.46V165.055C206.546 163.761 203.331 163.298 200.171 163.719C197.01 164.14 194.028 165.428 191.555 167.44Z" fill="#FC9338"/>
<g opacity="0.8">
<path d="M191.555 167.44C189.144 169.519 187.354 172.223 186.384 175.255C185.413 178.287 185.299 181.528 186.055 184.62C183.8 184.175 181.471 184.291 179.271 184.957C177.072 185.623 175.069 186.819 173.44 188.44C171.811 190.061 170.604 192.057 169.927 194.253C169.25 196.449 169.122 198.778 169.555 201.035C164.6 197.625 157.025 198.9 153.46 203.75C153.385 200.55 153.26 197.175 151.58 194.45C149.9 191.725 146.08 190.045 143.385 191.775C144.406 190.611 145.027 189.15 145.155 187.607C145.283 186.064 144.912 184.52 144.097 183.204C143.281 181.888 142.064 180.868 140.625 180.296C139.187 179.724 137.602 179.629 136.105 180.025C136.03 176.185 133.605 148.995 131.605 126.055H114.525C112.525 148.595 110.24 174.485 110.165 178.23C108.664 177.825 107.073 177.915 105.627 178.487C104.182 179.059 102.96 180.083 102.142 181.405C101.325 182.727 100.956 184.278 101.091 185.826C101.226 187.375 101.857 188.839 102.89 190C100.195 188.27 96.3901 189.955 94.6951 192.675C93.0001 195.395 92.8851 198.775 92.8101 201.975C89.2451 197.13 81.6751 195.85 76.7151 199.26C77.1482 197.003 77.0205 194.674 76.3432 192.478C75.6658 190.282 74.4595 188.286 72.8302 186.665C71.2009 185.044 69.1985 183.848 66.9989 183.182C64.7993 182.516 62.4698 182.4 60.2151 182.845C61.0162 179.753 60.9232 176.497 59.9467 173.455C58.9703 170.413 57.1505 167.711 54.6991 165.663C52.2476 163.615 49.2652 162.305 46.0984 161.885C42.9317 161.465 39.7107 161.952 36.8101 163.29V221.555H209.46V165.055C206.546 163.761 203.331 163.298 200.171 163.719C197.01 164.14 194.028 165.428 191.555 167.44Z" fill="white"/>
</g>
<path d="M190.5 209.92C187.402 207.839 183.909 206.415 180.239 205.738C176.568 205.06 172.798 205.143 169.16 205.981C165.523 206.819 162.096 208.394 159.092 210.61C156.088 212.825 153.571 215.633 151.695 218.86C150.176 216.808 148.192 215.146 145.905 214.01C146.067 213.579 146.202 213.138 146.31 212.69C146.753 210.775 146.699 208.778 146.154 206.889C145.609 205 144.59 203.281 143.196 201.896C141.801 200.51 140.075 199.504 138.182 198.972C136.29 198.44 134.293 198.4 132.38 198.855L127.27 126.055H120.57V193C116.42 193.635 113.525 198.55 114.99 202.5C113.544 202.725 112.175 203.298 110.999 204.169C109.823 205.039 108.877 206.183 108.24 207.5C107.84 208.36 107.78 210.18 108.125 212.24C105.596 212.286 103.11 212.909 100.857 214.06C98.6044 215.212 96.644 216.862 95.1251 218.885C93.2497 215.658 90.7321 212.85 87.728 210.635C84.7239 208.419 81.2972 206.844 77.6599 206.006C74.0226 205.168 70.2521 205.085 66.5816 205.763C62.911 206.44 59.4185 207.864 56.3201 209.945C54.5651 201.445 45.0601 195.405 36.6201 197.445V221.71L114.515 221.61C115.05 221.763 115.604 221.84 116.16 221.84L135.2 221.615L210.235 221.71V197.4C201.775 195.38 192.27 201.42 190.5 209.92Z" fill="#FC9338"/>
<g opacity="0.6">
<path d="M190.5 209.92C187.402 207.839 183.909 206.415 180.239 205.738C176.568 205.06 172.798 205.143 169.16 205.981C165.523 206.819 162.096 208.394 159.092 210.61C156.088 212.825 153.571 215.633 151.695 218.86C150.176 216.808 148.192 215.146 145.905 214.01C146.067 213.579 146.202 213.138 146.31 212.69C146.753 210.775 146.699 208.778 146.154 206.889C145.609 205 144.59 203.281 143.196 201.896C141.801 200.51 140.075 199.504 138.182 198.972C136.29 198.44 134.293 198.4 132.38 198.855L127.27 126.055H120.57V193C116.42 193.635 113.525 198.55 114.99 202.5C113.544 202.725 112.175 203.298 110.999 204.169C109.823 205.039 108.877 206.183 108.24 207.5C107.84 208.36 107.78 210.18 108.125 212.24C105.596 212.286 103.11 212.909 100.857 214.06C98.6044 215.212 96.644 216.862 95.1251 218.885C93.2497 215.658 90.7321 212.85 87.728 210.635C84.7239 208.419 81.2972 206.844 77.6599 206.006C74.0226 205.168 70.2521 205.085 66.5816 205.763C62.911 206.44 59.4185 207.864 56.3201 209.945C54.5651 201.445 45.0601 195.405 36.6201 197.445V221.71L114.515 221.61C115.05 221.763 115.604 221.84 116.16 221.84L135.2 221.615L210.235 221.71V197.4C201.775 195.38 192.27 201.42 190.5 209.92Z" fill="white"/>
</g>
<path d="M116.625 103.265C112.785 105.09 111.045 110.35 113.045 114.105C113.835 115.605 115.125 116.89 115.295 118.56C115.555 121.12 113.135 123.12 112.385 125.56C112.004 127.022 112.204 128.575 112.942 129.894C113.68 131.212 114.899 132.194 116.345 132.635C117.66 132.98 119.235 132.92 120.115 133.955C121.24 135.275 120.425 137.455 121.39 138.91C122.255 140.215 124.28 140.28 125.585 139.41C126.89 138.54 127.61 137.035 128.125 135.555C128.64 134.075 129.025 132.52 129.915 131.23C130.915 129.815 132.39 128.845 133.58 127.6C136.44 124.6 137.315 120.1 136.67 115.995C136.025 111.89 134.04 108.135 131.795 104.65" fill="#FC9338"/>
<g opacity="0.3">
<path d="M116.625 103.265C112.785 105.09 111.045 110.35 113.045 114.105C113.835 115.605 115.125 116.89 115.295 118.56C115.555 121.12 113.135 123.12 112.385 125.56C112.004 127.022 112.204 128.575 112.942 129.894C113.68 131.212 114.899 132.194 116.345 132.635C117.66 132.98 119.235 132.92 120.115 133.955C121.24 135.275 120.425 137.455 121.39 138.91C122.255 140.215 124.28 140.28 125.585 139.41C126.89 138.54 127.61 137.035 128.125 135.555C128.64 134.075 129.025 132.52 129.915 131.23C130.915 129.815 132.39 128.845 133.58 127.6C136.44 124.6 137.315 120.1 136.67 115.995C136.025 111.89 134.04 108.135 131.795 104.65" fill="white"/>
</g>
<path d="M120 105.425C116.745 106.86 115.32 111.375 117.16 114.425C118.285 116.285 120.465 117.965 119.935 120.07C119.575 121.5 118.045 122.375 117.605 123.78C117.02 125.65 118.79 127.635 120.74 127.87C122.69 128.105 124.57 127.065 126.045 125.77C131.15 121.27 132.395 112.47 129.21 106.465" fill="#FC9338"/>
<path d="M136.78 76.8049C136.78 76.8049 153.5 87.8649 151.675 107L136.305 100.1L136.78 76.8049Z" fill="#FC9338"/>
<path d="M109 99.7151L112.8 106.01H132.505L136.305 100.075L109 99.7151Z" fill="#263238"/>
<path d="M121.63 36.2C117.88 36.4513 114.372 38.1377 111.833 40.9089C109.295 43.6801 107.922 47.3228 108 51.08L109 100.08H136.305L137.215 51.055C137.253 49.031 136.871 47.0211 136.092 45.1527C135.312 43.2844 134.153 41.5984 132.688 40.2017C131.222 38.805 129.483 37.728 127.579 37.0392C125.676 36.3503 123.65 36.0645 121.63 36.2Z" fill="#FC9338"/>
<g opacity="0.8">
<path d="M121.63 36.2C117.88 36.4513 114.372 38.1377 111.833 40.9089C109.295 43.6801 107.922 47.3228 108 51.08L109 100.08H136.305L137.215 51.055C137.253 49.031 136.871 47.0211 136.092 45.1527C135.312 43.2844 134.153 41.5984 132.688 40.2017C131.222 38.805 129.483 37.728 127.579 37.0392C125.676 36.3503 123.65 36.0645 121.63 36.2Z" fill="white"/>
</g>
<path d="M108.5 76.8049C108.5 76.8049 91.7999 87.8649 93.6299 107L109 100.09L108.5 76.8049Z" fill="#FC9338"/>
<path d="M108.15 49.455C113.925 44.4 132.05 44.51 136.915 48.625C135.665 30.435 121.775 23.625 121.775 23.625C107.565 33.465 108.15 49.455 108.15 49.455Z" fill="#FC9338"/>
<path d="M121.775 23.6299L121.94 23.7799C122.045 23.8799 122.205 24.0249 122.405 24.2199L123.165 24.9399L123.665 25.3999L124.165 25.9599C124.525 26.3549 124.935 26.7899 125.37 27.2799L126.7 28.9399C126.925 29.2449 127.15 29.5749 127.385 29.9049C127.62 30.2349 127.885 30.5749 128.095 30.9499C128.54 31.6899 129.035 32.4499 129.46 33.3249C130.435 35.1846 131.192 37.1511 131.715 39.1849C132.01 40.3156 132.229 41.4649 132.37 42.6249C132.455 43.2249 132.5 43.8349 132.585 44.4399C132.639 45.0683 132.661 45.6992 132.65 46.3299C132.65 51.4049 132.585 56.9849 132.52 62.8299C132.38 74.5499 132.215 85.1549 132.09 92.8299C132.025 96.6649 131.97 99.7699 131.93 101.92C131.93 102.99 131.89 103.825 131.88 104.42C131.88 104.7 131.88 104.92 131.88 105.06C131.88 105.2 131.88 105.28 131.88 105.28C131.88 105.28 131.88 105.205 131.88 105.06C131.88 104.915 131.88 104.7 131.88 104.42C131.88 103.85 131.88 103.015 131.905 101.92C131.93 99.7699 131.97 96.6649 132.015 92.8299C132.115 85.1449 132.25 74.5399 132.405 62.8299C132.47 56.9699 132.545 51.3899 132.545 46.3299C132.559 45.7058 132.537 45.0815 132.48 44.4599C132.4 43.8449 132.355 43.2399 132.275 42.6449C132.135 41.4883 131.918 40.3424 131.625 39.2149C131.109 37.1897 130.362 35.2302 129.4 33.3749C128.95 32.4999 128.455 31.7399 128 30.9999C127.78 30.6249 127.5 30.2949 127.295 29.9549C127.09 29.6149 126.845 29.2949 126.62 28.9899L125.3 27.3249C124.87 26.8249 124.465 26.3999 124.105 25.9999L123.605 25.4349L123.13 24.9699L122.38 24.2399L121.925 23.7899L121.775 23.6299Z" fill="#263238"/>
<path d="M128.161 61.8457C129.019 57.9574 126.786 54.1586 123.173 53.3608C119.559 52.5631 115.934 55.0685 115.076 58.9569C114.217 62.8452 116.451 66.644 120.064 67.4418C123.677 68.2395 127.302 65.7341 128.161 61.8457Z" fill="#FAFAFA"/>
<path d="M123.17 53.36C123.132 53.3656 123.093 53.3656 123.055 53.36L122.73 53.315L122.49 53.275H122.195H121.855C121.73 53.275 121.6 53.275 121.465 53.275C121.161 53.294 120.858 53.334 120.56 53.395C120.205 53.4703 119.857 53.5757 119.52 53.71C118.697 54.0385 117.943 54.5204 117.3 55.13C116.52 55.8659 115.911 56.7636 115.515 57.76C115.405 58.0319 115.313 58.3108 115.24 58.595C115.205 58.74 115.16 58.885 115.125 59.03L115.05 59.48L115.01 59.71V59.94C115.01 60.095 114.985 60.255 114.975 60.41C114.965 60.565 114.975 60.725 114.975 60.885V61.125L115 61.37C115.132 62.7285 115.653 64.0201 116.5 65.09C117.392 66.2528 118.666 67.0638 120.097 67.3802C121.529 67.6966 123.025 67.4983 124.325 66.82C125.538 66.1983 126.548 65.2423 127.235 64.065L127.36 63.86L127.465 63.64L127.675 63.215L127.84 62.775L127.92 62.555L127.985 62.33L128.105 61.89C128.14 61.745 128.155 61.595 128.185 61.45C128.235 61.1606 128.269 60.8684 128.285 60.575C128.351 59.5043 128.181 58.4321 127.785 57.435C127.327 56.268 126.557 55.2493 125.56 54.49C125.314 54.3071 125.057 54.1401 124.79 53.99C124.665 53.93 124.555 53.86 124.445 53.81L124.13 53.68L123.855 53.57L123.625 53.5L123.305 53.405C123.269 53.3957 123.233 53.3823 123.2 53.365H123.31L123.63 53.445L123.87 53.51L124.145 53.615L124.465 53.74L124.815 53.915C125.089 54.0644 125.353 54.2314 125.605 54.415C125.897 54.6362 126.173 54.8785 126.43 55.14C127.052 55.7853 127.544 56.5441 127.88 57.375C128.293 58.3836 128.476 59.4718 128.415 60.56C128.403 60.8585 128.371 61.1558 128.32 61.45C128.29 61.6 128.275 61.75 128.24 61.9C128.205 62.05 128.16 62.2 128.115 62.35L128.055 62.575L127.975 62.795L127.805 63.245L127.595 63.68L127.49 63.905L127.36 64.115C126.666 65.3183 125.638 66.2944 124.4 66.925C123.072 67.6217 121.541 67.8267 120.078 67.5037C118.614 67.1807 117.311 66.3506 116.4 65.16C115.544 64.0643 115.023 62.7448 114.9 61.36V61.115V60.87C114.9 60.71 114.9 60.545 114.9 60.37C114.9 60.195 114.9 60.05 114.94 59.87V59.635L114.975 59.4C115.005 59.25 115.03 59.095 115.055 58.945C115.08 58.795 115.135 58.65 115.175 58.5C115.249 58.2117 115.344 57.9292 115.46 57.655C115.863 56.6421 116.486 55.7317 117.285 54.99C117.941 54.3779 118.708 53.8975 119.545 53.575C119.887 53.4421 120.24 53.3384 120.6 53.265C120.902 53.2073 121.208 53.1705 121.515 53.155C121.655 53.155 121.785 53.155 121.91 53.155H122.255H122.55L122.79 53.2L123.115 53.26L123.17 53.36Z" fill="#263238"/>
<path d="M114.71 59.32C114.71 59.405 113.17 59.365 111.315 59.7C109.46 60.035 108.03 60.595 108 60.515C108.275 60.3149 108.583 60.1643 108.91 60.07C110.441 59.4955 112.065 59.2074 113.7 59.22C114.04 59.1983 114.381 59.232 114.71 59.32Z" fill="#263238"/>
<path d="M136.785 59.3099C136.372 59.3126 135.96 59.2741 135.555 59.1949C134.805 59.1049 133.765 58.9849 132.615 58.8999C131.465 58.8149 130.42 58.7949 129.66 58.7799C129.249 58.8019 128.837 58.7834 128.43 58.7249C128.83 58.6211 129.242 58.574 129.655 58.5849C130.655 58.5395 131.657 58.5529 132.655 58.6249C133.645 58.6937 134.63 58.8189 135.605 58.9999C136.01 59.054 136.406 59.1581 136.785 59.3099Z" fill="#263238"/>
<path d="M136.935 87.35C136.839 87.3632 136.741 87.3632 136.645 87.35L135.82 87.285L132.785 87.055C130.225 86.875 126.68 86.7 122.785 86.705C118.89 86.71 115.325 86.89 112.76 87.075L109.73 87.315L108.905 87.375C108.809 87.3891 108.711 87.3891 108.615 87.375C108.707 87.3425 108.803 87.3224 108.9 87.315L109.72 87.2C110.43 87.105 111.465 86.99 112.72 86.875C115.28 86.635 118.835 86.425 122.76 86.42C126.685 86.415 130.26 86.62 132.795 86.855C134.08 86.97 135.11 87.08 135.825 87.175L136.645 87.285C136.744 87.2935 136.842 87.3154 136.935 87.35Z" fill="#263238"/>
<path d="M115.435 66.345C115.435 66.385 115.265 66.4 115.15 66.595C115.117 66.6452 115.094 66.702 115.085 66.7615C115.075 66.821 115.079 66.8819 115.095 66.94C115.12 67.0015 115.163 67.0542 115.218 67.0915C115.274 67.1288 115.338 67.1492 115.405 67.15C115.472 67.1601 115.54 67.1503 115.601 67.1218C115.663 67.0934 115.714 67.0475 115.75 66.99C115.775 66.935 115.788 66.8753 115.788 66.815C115.788 66.7546 115.775 66.695 115.75 66.64C115.665 66.43 115.5 66.39 115.51 66.35C115.52 66.31 115.74 66.275 115.925 66.545C115.977 66.6256 116.01 66.7174 116.02 66.8129C116.031 66.9084 116.019 67.005 115.985 67.095C115.935 67.2071 115.85 67.3001 115.743 67.3604C115.635 67.4207 115.512 67.4451 115.39 67.43C115.285 67.4244 115.183 67.3893 115.097 67.3287C115.011 67.2681 114.944 67.1844 114.903 67.0873C114.862 66.9902 114.85 66.8836 114.867 66.7797C114.884 66.6759 114.93 66.5789 115 66.5C115.22 66.235 115.455 66.31 115.435 66.345Z" fill="#263238"/>
<path d="M121.385 69.55C121.385 69.595 121.215 69.61 121.1 69.805C121.067 69.8547 121.046 69.9106 121.036 69.9692C121.027 70.0278 121.03 70.0876 121.045 70.145C121.069 70.2078 121.111 70.262 121.167 70.3003C121.222 70.3387 121.288 70.3595 121.355 70.36C121.422 70.3689 121.491 70.3581 121.552 70.3288C121.613 70.2995 121.665 70.253 121.7 70.195C121.723 70.1406 121.735 70.0819 121.735 70.0225C121.735 69.9632 121.723 69.9045 121.7 69.85C121.61 69.64 121.445 69.6 121.455 69.56C121.465 69.52 121.685 69.485 121.87 69.755C121.922 69.8347 121.955 69.9256 121.965 70.0203C121.976 70.115 121.963 70.2109 121.93 70.3C121.88 70.4125 121.795 70.5062 121.688 70.5673C121.581 70.6284 121.457 70.6539 121.335 70.64C121.225 70.6387 121.118 70.6049 121.027 70.543C120.936 70.481 120.865 70.3937 120.823 70.2918C120.782 70.1899 120.771 70.078 120.793 69.9701C120.814 69.8622 120.867 69.763 120.945 69.685C121.17 69.445 121.405 69.5 121.385 69.55Z" fill="#263238"/>
<path d="M127.95 66.8151C127.95 66.8601 127.785 66.8751 127.665 67.0701C127.633 67.1198 127.611 67.1757 127.602 67.2343C127.592 67.2928 127.595 67.3527 127.61 67.4101C127.636 67.4726 127.68 67.5261 127.736 67.5643C127.792 67.6024 127.857 67.6236 127.925 67.6251C127.992 67.635 128.06 67.6246 128.121 67.5951C128.181 67.5657 128.232 67.5186 128.265 67.4601C128.289 67.4056 128.301 67.3469 128.301 67.2876C128.301 67.2283 128.289 67.1696 128.265 67.1151C128.18 66.9051 128.01 66.8651 128.02 66.8201C128.03 66.7751 128.25 66.7501 128.435 67.0201C128.489 67.0989 128.523 67.1896 128.535 67.2846C128.546 67.3795 128.534 67.4758 128.5 67.5651C128.448 67.6771 128.362 67.77 128.254 67.8309C128.147 67.8918 128.023 67.9178 127.9 67.9051C127.777 67.9 127.659 67.8561 127.563 67.7797C127.467 67.7034 127.398 67.5985 127.365 67.4801C127.345 67.3866 127.348 67.2897 127.373 67.1975C127.399 67.1053 127.445 67.0205 127.51 66.9501C127.735 66.7101 127.97 66.7851 127.95 66.8151Z" fill="#263238"/>
<path d="M130.085 61.91C130.085 61.95 129.915 61.965 129.795 62.16C129.763 62.211 129.743 62.2679 129.734 62.3273C129.725 62.3867 129.729 62.4472 129.745 62.505C129.769 62.5678 129.812 62.6219 129.867 62.6603C129.922 62.6986 129.988 62.7195 130.055 62.72C130.122 62.7286 130.189 62.7175 130.25 62.6882C130.31 62.6589 130.361 62.6126 130.395 62.555C130.419 62.5005 130.431 62.4418 130.431 62.3825C130.431 62.3232 130.419 62.2645 130.395 62.21C130.31 62 130.145 61.955 130.15 61.915C130.155 61.875 130.38 61.845 130.57 62.115C130.623 62.1946 130.655 62.2855 130.666 62.3803C130.676 62.475 130.664 62.5709 130.63 62.66C130.579 62.7716 130.494 62.8642 130.387 62.9244C130.28 62.9845 130.157 63.0093 130.035 62.995C129.912 62.9902 129.793 62.9465 129.696 62.8702C129.599 62.7938 129.529 62.6888 129.495 62.57C129.476 62.4765 129.479 62.3797 129.504 62.2876C129.529 62.1955 129.576 62.1106 129.64 62.04C129.865 61.805 130.1 61.88 130.085 61.91Z" fill="#263238"/>
<path d="M113.265 61.4349C113.265 61.4749 113.095 61.4899 112.98 61.6849C112.948 61.7356 112.926 61.7924 112.917 61.8517C112.907 61.9111 112.91 61.9717 112.925 62.0299C112.95 62.0924 112.992 62.1461 113.047 62.1844C113.103 62.2226 113.168 62.2437 113.235 62.2449C113.302 62.2526 113.37 62.2412 113.431 62.212C113.492 62.1828 113.544 62.1371 113.58 62.0799C113.605 62.0258 113.618 61.9669 113.618 61.9074C113.618 61.8479 113.605 61.7891 113.58 61.7349C113.495 61.5249 113.33 61.4799 113.34 61.4399C113.35 61.3999 113.57 61.3699 113.755 61.6399C113.808 61.7195 113.84 61.8104 113.851 61.9052C113.861 61.9999 113.849 62.0958 113.815 62.1849C113.765 62.297 113.68 62.39 113.573 62.4503C113.466 62.5106 113.342 62.535 113.22 62.5199C113.097 62.5151 112.978 62.4714 112.881 62.3951C112.784 62.3187 112.714 62.2137 112.68 62.0949C112.66 62.001 112.664 61.9038 112.69 61.8115C112.716 61.7192 112.764 61.6346 112.83 61.5649C113.05 61.3299 113.285 61.4049 113.265 61.4349Z" fill="#263238"/>
<path d="M127.94 54.7051C127.94 54.6651 128.11 54.6501 128.225 54.4551C128.258 54.4049 128.281 54.3481 128.29 54.2886C128.3 54.229 128.296 54.1681 128.28 54.1101C128.254 54.0484 128.211 53.9953 128.156 53.9572C128.101 53.9191 128.037 53.8976 127.97 53.8951C127.903 53.8865 127.836 53.8976 127.775 53.9269C127.715 53.9562 127.664 54.0025 127.63 54.0601C127.604 54.1138 127.59 54.1728 127.59 54.2326C127.59 54.2923 127.604 54.3513 127.63 54.4051C127.715 54.6151 127.88 54.6601 127.87 54.7001C127.86 54.7401 127.64 54.7701 127.455 54.5001C127.402 54.4205 127.37 54.3296 127.359 54.2348C127.349 54.14 127.361 54.0441 127.395 53.9551C127.445 53.843 127.53 53.75 127.637 53.6897C127.744 53.6294 127.868 53.605 127.99 53.6201C128.1 53.6214 128.207 53.6552 128.298 53.7171C128.389 53.779 128.46 53.8664 128.501 53.9683C128.543 54.0702 128.554 54.1821 128.532 54.29C128.511 54.3979 128.458 54.4971 128.38 54.5751C128.155 54.8151 127.92 54.7351 127.94 54.7051Z" fill="#263238"/>
<path d="M121.375 51.7951C121.375 51.7551 121.545 51.7401 121.66 51.5451C121.692 51.4944 121.714 51.4376 121.723 51.3783C121.733 51.3189 121.73 51.2583 121.715 51.2001C121.688 51.138 121.644 51.0848 121.589 51.0467C121.533 51.0086 121.467 50.9872 121.4 50.9851C121.333 50.9765 121.266 50.9876 121.205 51.0169C121.145 51.0462 121.094 51.0925 121.06 51.1501C121.036 51.2045 121.024 51.2632 121.024 51.3226C121.024 51.3819 121.036 51.4406 121.06 51.4951C121.145 51.7101 121.315 51.7501 121.305 51.7901C121.295 51.8301 121.075 51.8651 120.89 51.5901C120.824 51.5014 120.785 51.3949 120.78 51.2843C120.775 51.1736 120.803 51.064 120.86 50.9693C120.918 50.8747 121.002 50.7994 121.103 50.7532C121.203 50.707 121.316 50.692 121.425 50.7101C121.548 50.7152 121.665 50.7591 121.762 50.8354C121.858 50.9118 121.927 51.0167 121.96 51.1351C121.979 51.2286 121.976 51.3254 121.951 51.4175C121.926 51.5096 121.879 51.5945 121.815 51.6651C121.59 51.9051 121.355 51.8301 121.375 51.7951Z" fill="#263238"/>
<path d="M114.885 54.705C114.885 54.665 115.055 54.65 115.17 54.455C115.202 54.4043 115.224 54.3475 115.233 54.2882C115.243 54.2288 115.24 54.1682 115.225 54.11C115.198 54.0479 115.155 53.9947 115.099 53.9566C115.043 53.9185 114.977 53.8971 114.91 53.895C114.843 53.8864 114.776 53.8975 114.715 53.9268C114.655 53.9561 114.604 54.0024 114.57 54.06C114.546 54.1145 114.534 54.1732 114.534 54.2325C114.534 54.2918 114.546 54.3505 114.57 54.405C114.655 54.615 114.825 54.66 114.815 54.7C114.805 54.74 114.585 54.77 114.4 54.5C114.334 54.4113 114.295 54.3048 114.29 54.1942C114.285 54.0836 114.313 53.9739 114.37 53.8792C114.428 53.7846 114.512 53.7093 114.613 53.6631C114.713 53.6169 114.826 53.6019 114.935 53.62C115.058 53.6251 115.175 53.669 115.272 53.7453C115.368 53.8217 115.437 53.9266 115.47 54.045C115.489 54.1385 115.486 54.2353 115.461 54.3274C115.436 54.4195 115.389 54.5044 115.325 54.575C115.1 54.815 114.865 54.735 114.885 54.705Z" fill="#263238"/>
<path d="M120.545 78.815L121.13 108.07C121.139 108.476 121.309 108.862 121.602 109.143C121.896 109.425 122.289 109.578 122.695 109.57C123.09 109.561 123.466 109.4 123.746 109.121C124.025 108.841 124.186 108.465 124.195 108.07C124.255 102.8 124.45 85.07 124.48 78.785C124.481 78.5014 124.421 78.221 124.303 77.9629C124.185 77.7048 124.013 77.4753 123.799 77.29C123.584 77.1047 123.332 76.9681 123.059 76.8896C122.787 76.8111 122.5 76.7924 122.22 76.835C121.748 76.9064 121.319 77.1464 121.011 77.5105C120.703 77.8746 120.537 78.3381 120.545 78.815Z" fill="#FC9338"/>
<g opacity="0.3">
<path d="M120.545 78.815L121.13 108.07C121.139 108.476 121.309 108.862 121.602 109.143C121.896 109.425 122.289 109.578 122.695 109.57C123.09 109.561 123.466 109.4 123.746 109.121C124.025 108.841 124.186 108.465 124.195 108.07C124.255 102.8 124.45 85.07 124.48 78.785C124.481 78.5014 124.421 78.221 124.303 77.9629C124.185 77.7048 124.013 77.4753 123.799 77.29C123.584 77.1047 123.332 76.9681 123.059 76.8896C122.787 76.8111 122.5 76.7924 122.22 76.835C121.748 76.9064 121.319 77.1464 121.011 77.5105C120.703 77.8746 120.537 78.3381 120.545 78.815Z" fill="black"/>
</g>
<path d="M121.45 25.2999C121.535 25.3999 120.565 26.3399 119.15 27.9899C118.44 28.8099 117.65 29.8299 116.815 30.9899C115.927 32.2628 115.109 33.5831 114.365 34.9449C113.64 36.3148 112.991 37.7236 112.42 39.1649C111.92 40.4999 111.495 41.7249 111.2 42.7699C110.605 44.8599 110.355 46.1899 110.2 46.1699C110.045 46.1499 110.145 44.7899 110.605 42.6249C110.881 41.3597 111.238 40.1137 111.675 38.8949C112.216 37.4018 112.861 35.9483 113.605 34.5449C114.369 33.1564 115.224 31.8202 116.165 30.5449C116.942 29.5079 117.785 28.5225 118.69 27.5949C120.265 25.9999 121.385 25.2249 121.45 25.2999Z" fill="white"/>
<path d="M107.885 79.7151C107.965 79.8401 106.58 80.7151 104.65 82.5251L103.905 83.2351C103.645 83.4851 103.405 83.7701 103.135 84.0451C102.59 84.5951 102.08 85.2451 101.525 85.9101C100.366 87.3887 99.3374 88.9645 98.4499 90.6201C97.5847 92.2895 96.8621 94.029 96.2899 95.8201C96.0549 96.6501 95.7899 97.4401 95.6599 98.1951C95.5799 98.5751 95.4849 98.9351 95.4249 99.2901C95.3649 99.6451 95.3099 99.9801 95.2599 100.29C94.8699 102.895 94.9049 104.54 94.7599 104.545C94.6999 104.545 94.6449 104.14 94.5949 103.39C94.5949 103.2 94.5699 102.99 94.5599 102.765C94.5499 102.54 94.5599 102.29 94.5599 102.025C94.5637 101.422 94.5988 100.82 94.6649 100.22C94.6999 99.8851 94.7399 99.5351 94.7799 99.1701C94.8199 98.8051 94.9049 98.4301 94.9699 98.0451C95.0949 97.2601 95.3199 96.4451 95.5449 95.5851C96.6062 91.8552 98.4372 88.3891 100.92 85.4101C101.458 84.7619 102.029 84.1411 102.63 83.5501C102.91 83.2751 103.175 82.9951 103.45 82.7551L104.25 82.0701C104.708 81.6765 105.187 81.3077 105.685 80.9651C105.9 80.8101 106.1 80.6601 106.29 80.5351L106.825 80.2151C107.5 79.8501 107.85 79.6651 107.885 79.7151Z" fill="white"/>
<path d="M86.3649 175.105C85.6923 174.724 85.1529 174.145 84.8193 173.448C84.4858 172.75 84.3741 171.967 84.4995 171.204C84.6248 170.441 84.9811 169.735 85.5203 169.181C86.0595 168.627 86.7557 168.251 87.5149 168.105C88.8849 167.835 90.5999 168.225 91.4599 167.105C92.2449 166.105 91.6549 164.785 91.9999 163.185C92.3449 161.585 93.7199 160.83 95.2349 160.85C95.9944 160.894 96.7303 161.13 97.3739 161.536C98.0175 161.941 98.5477 162.504 98.9149 163.17C99.726 164.651 100.092 166.335 99.9699 168.02C99.5649 171.475 97.7199 173.245 95.4249 174.71C93.1299 176.175 88.7849 176.51 86.3649 175.075" fill="#FC9338"/>
<g opacity="0.8">
<path d="M86.3649 175.105C85.6923 174.724 85.1529 174.145 84.8193 173.448C84.4858 172.75 84.3741 171.967 84.4995 171.204C84.6248 170.441 84.9811 169.735 85.5203 169.181C86.0595 168.627 86.7557 168.251 87.5149 168.105C88.8849 167.835 90.5999 168.225 91.4599 167.105C92.2449 166.105 91.6549 164.785 91.9999 163.185C92.3449 161.585 93.7199 160.83 95.2349 160.85C95.9944 160.894 96.7303 161.13 97.3739 161.536C98.0175 161.941 98.5477 162.504 98.9149 163.17C99.726 164.651 100.092 166.335 99.9699 168.02C99.5649 171.475 97.7199 173.245 95.4249 174.71C93.1299 176.175 88.7849 176.51 86.3649 175.075" fill="white"/>
</g>
<path d="M142.46 147.41C143.017 146.344 143.887 145.474 144.953 144.916C146.018 144.359 147.229 144.14 148.422 144.289C149.616 144.439 150.735 144.95 151.63 145.753C152.525 146.557 153.153 147.615 153.43 148.785C153.93 150.91 153.43 153.6 155.195 154.885C156.8 156.05 158.83 155.045 161.35 155.485C163.87 155.925 165.13 158.025 165.185 160.395C165.24 162.765 163.79 165.015 161.785 166.275C159.523 167.629 156.919 168.302 154.285 168.215C148.87 167.79 145.995 165.015 143.57 161.525C141.145 158.035 140.365 151.27 142.46 147.41Z" fill="#FC9338"/>
<g opacity="0.8">
<path d="M142.46 147.41C143.017 146.344 143.887 145.474 144.953 144.916C146.018 144.359 147.229 144.14 148.422 144.289C149.616 144.439 150.735 144.95 151.63 145.753C152.525 146.557 153.153 147.615 153.43 148.785C153.93 150.91 153.43 153.6 155.195 154.885C156.8 156.05 158.83 155.045 161.35 155.485C163.87 155.925 165.13 158.025 165.185 160.395C165.24 162.765 163.79 165.015 161.785 166.275C159.523 167.629 156.919 168.302 154.285 168.215C148.87 167.79 145.995 165.015 143.57 161.525C141.145 158.035 140.365 151.27 142.46 147.41Z" fill="white"/>
</g>
<path d="M102.055 140.32C101.452 140.63 100.947 141.1 100.594 141.679C100.241 142.257 100.054 142.922 100.055 143.6C100.08 144.353 100.347 145.078 100.817 145.666C101.287 146.255 101.934 146.677 102.663 146.868C103.392 147.06 104.162 147.011 104.861 146.729C105.56 146.448 106.149 145.948 106.541 145.305C106.933 144.662 107.108 143.91 107.038 143.16C106.968 142.409 106.659 141.702 106.155 141.142C105.651 140.582 104.98 140.2 104.241 140.051C103.502 139.903 102.736 139.998 102.055 140.32Z" fill="#FC9338"/>
<g opacity="0.8">
<path d="M102.055 140.32C101.452 140.63 100.947 141.1 100.594 141.679C100.241 142.257 100.054 142.922 100.055 143.6C100.08 144.353 100.347 145.078 100.817 145.666C101.287 146.255 101.934 146.677 102.663 146.868C103.392 147.06 104.162 147.011 104.861 146.729C105.56 146.448 106.149 145.948 106.541 145.305C106.933 144.662 107.108 143.91 107.038 143.16C106.968 142.409 106.659 141.702 106.155 141.142C105.651 140.582 104.98 140.2 104.241 140.051C103.502 139.903 102.736 139.998 102.055 140.32Z" fill="white"/>
</g>
<path d="M155.215 182.25C154.914 182.406 154.662 182.641 154.486 182.93C154.31 183.219 154.216 183.551 154.215 183.89C154.227 184.268 154.36 184.632 154.596 184.927C154.831 185.223 155.156 185.435 155.521 185.531C155.887 185.628 156.274 185.604 156.624 185.463C156.975 185.322 157.271 185.071 157.467 184.748C157.664 184.426 157.752 184.048 157.716 183.671C157.681 183.295 157.526 182.94 157.272 182.659C157.019 182.379 156.682 182.187 156.312 182.113C155.941 182.04 155.556 182.087 155.215 182.25Z" fill="#FC9338"/>
<g opacity="0.8">
<path d="M155.215 182.25C154.914 182.406 154.662 182.641 154.486 182.93C154.31 183.219 154.216 183.551 154.215 183.89C154.227 184.268 154.36 184.632 154.596 184.927C154.831 185.223 155.156 185.435 155.521 185.531C155.887 185.628 156.274 185.604 156.624 185.463C156.975 185.322 157.271 185.071 157.467 184.748C157.664 184.426 157.752 184.048 157.716 183.671C157.681 183.295 157.526 182.94 157.272 182.659C157.019 182.379 156.682 182.187 156.312 182.113C155.941 182.04 155.556 182.087 155.215 182.25Z" fill="white"/>
</g>
<path d="M141.29 168.565H110.21C104.759 168.565 100.34 172.984 100.34 178.435V179.82C100.34 185.271 104.759 189.69 110.21 189.69H141.29C146.741 189.69 151.16 185.271 151.16 179.82V178.435C151.16 172.984 146.741 168.565 141.29 168.565Z" fill="#FC9338"/>
<path d="M115.535 180.525L115.88 179.76C116.305 180.055 116.808 180.215 117.325 180.22C117.925 180.22 118.17 180.02 118.17 179.75C118.17 178.93 115.62 179.49 115.62 177.865C115.62 177.12 116.225 176.5 117.47 176.5C117.996 176.492 118.513 176.625 118.97 176.885L118.66 177.655C118.291 177.439 117.873 177.322 117.445 177.315C116.84 177.315 116.61 177.54 116.61 177.815C116.61 178.62 119.16 178.065 119.16 179.675C119.16 180.405 118.55 181.035 117.3 181.035C116.674 181.046 116.059 180.868 115.535 180.525Z" fill="white"/>
<path d="M120.72 177.4H119.315V176.575H123.135V177.4H121.735V180.96H120.735L120.72 177.4Z" fill="white"/>
<path d="M126.345 180H124.31L123.925 180.94H122.885L124.835 176.555H125.835L127.795 180.94H126.73L126.345 180ZM126.025 179.23L125.33 177.55L124.635 179.23H126.025Z" fill="white"/>
<path d="M131.05 180.96L130.2 179.735H129.27V180.96H128.27V176.575H130.17C131.34 176.575 132.07 177.18 132.07 178.165C132.082 178.461 132.001 178.752 131.84 179.001C131.679 179.249 131.445 179.441 131.17 179.55L132.17 180.96H131.05ZM130.095 177.4H129.27V178.93H130.095C130.715 178.93 131.03 178.64 131.03 178.165C131.03 177.69 130.715 177.4 130.095 177.4Z" fill="white"/>
<path d="M133.7 177.4H132.3V176.575H136.12V177.4H134.715V180.96H133.715L133.7 177.4Z" fill="white"/>
<path d="M202.59 229.375L208.5 231.45L208.435 237.13C205.605 237.93 205.21 239.36 205.21 239.36L211.125 239.225L216.27 228.76L212.2 226.1L204.59 222.77" fill="#FC9338"/>
<g opacity="0.6">
<path d="M216.27 228.76L211.125 239.225L205.21 239.36L205.855 238.455L210.66 238.08L215.405 228.195L216.27 228.76Z" fill="white"/>
</g>
<path d="M208.415 234.53C208.46 234.59 208.795 234.385 209.255 234.39C209.715 234.395 210.05 234.575 210.095 234.515C210.14 234.455 209.81 234.12 209.255 234.13C208.7 234.14 208.36 234.5 208.415 234.53Z" fill="#263238"/>
<path d="M208.5 233.12C208.56 233.16 208.815 232.805 209.285 232.7C209.755 232.595 210.135 232.805 210.17 232.745C210.205 232.685 210.12 232.62 209.955 232.53C209.728 232.422 209.472 232.394 209.227 232.449C208.983 232.504 208.763 232.64 208.605 232.835C208.47 233 208.45 233.1 208.5 233.12Z" fill="#263238"/>
<path d="M208.4 231.31C208.465 231.34 208.66 230.995 209.07 230.845C209.48 230.695 209.85 230.82 209.88 230.75C209.91 230.68 209.815 230.64 209.65 230.585C209.43 230.51 209.191 230.514 208.974 230.596C208.757 230.678 208.575 230.834 208.46 231.035C208.375 231.185 208.37 231.3 208.4 231.31Z" fill="#263238"/>
<path d="M207.965 231.305C208.04 231.305 207.995 230.915 208.17 230.515C208.345 230.115 208.635 229.885 208.6 229.82C208.565 229.755 208.14 229.92 207.93 230.415C207.72 230.91 207.9 231.34 207.965 231.305Z" fill="#263238"/>
<path d="M207.265 230.64C207.353 230.384 207.4 230.116 207.405 229.845C207.43 229.56 207.455 229.275 207.485 228.98C207.51 228.798 207.51 228.612 207.485 228.43C207.454 228.309 207.379 228.204 207.275 228.135C207.215 228.096 207.145 228.075 207.073 228.075C207.001 228.075 206.93 228.096 206.87 228.135C206.71 228.274 206.594 228.456 206.535 228.66C206.475 228.832 206.439 229.013 206.43 229.195C206.412 229.501 206.465 229.808 206.585 230.09C206.795 230.59 207.085 230.745 207.085 230.725C206.955 230.499 206.838 230.265 206.735 230.025C206.651 229.764 206.621 229.488 206.645 229.215C206.663 229.056 206.7 228.9 206.755 228.75C206.799 228.598 206.882 228.461 206.995 228.35C207.013 228.337 207.035 228.329 207.058 228.329C207.08 228.329 207.102 228.337 207.12 228.35C207.169 228.381 207.205 228.429 207.22 228.485C207.238 228.641 207.238 228.799 207.22 228.955C207.22 229.25 207.22 229.54 207.195 229.825C207.175 230.099 207.198 230.374 207.265 230.64Z" fill="#263238"/>
<path d="M207.17 230.9C207.195 230.9 207.02 230.625 206.565 230.475C206.258 230.382 205.929 230.39 205.626 230.498C205.324 230.606 205.064 230.808 204.885 231.075C204.872 231.113 204.867 231.153 204.872 231.193C204.876 231.233 204.889 231.271 204.91 231.305C204.947 231.362 205.001 231.406 205.065 231.43C205.155 231.462 205.25 231.481 205.345 231.485C205.511 231.501 205.679 231.501 205.845 231.485C206.114 231.461 206.378 231.393 206.625 231.285C207.05 231.1 207.245 230.885 207.225 230.865C207.205 230.845 206.975 230.985 206.565 231.115C206.325 231.192 206.077 231.235 205.825 231.245C205.68 231.257 205.535 231.257 205.39 231.245C205.322 231.24 205.255 231.226 205.19 231.205C205.14 231.175 205.155 231.18 205.155 231.165C205.182 231.11 205.222 231.062 205.27 231.025C205.324 230.973 205.382 230.926 205.445 230.885C205.561 230.803 205.689 230.741 205.825 230.7C206.057 230.63 206.303 230.617 206.54 230.665C206.755 230.728 206.966 230.806 207.17 230.9Z" fill="#263238"/>
<g opacity="0.6">
<path d="M211.55 228.69C211.552 228.782 211.572 228.873 211.609 228.957C211.646 229.041 211.699 229.117 211.766 229.181C211.832 229.244 211.91 229.294 211.996 229.327C212.082 229.361 212.173 229.377 212.265 229.375C212.357 229.373 212.448 229.353 212.532 229.316C212.616 229.279 212.692 229.226 212.756 229.159C212.819 229.093 212.869 229.015 212.902 228.929C212.936 228.843 212.952 228.752 212.95 228.66C212.948 228.568 212.928 228.477 212.891 228.393C212.854 228.309 212.801 228.233 212.734 228.169C212.668 228.106 212.59 228.056 212.504 228.023C212.418 227.989 212.327 227.973 212.235 227.975C212.143 227.977 212.052 227.997 211.968 228.034C211.884 228.071 211.808 228.124 211.744 228.191C211.681 228.257 211.631 228.335 211.598 228.421C211.564 228.507 211.548 228.598 211.55 228.69Z" fill="white"/>
</g>
<path d="M172.27 227L172.35 234.74C172.35 234.74 164.505 237.425 164.38 238.855L179.38 239.24L179.75 227.17L172.27 227Z" fill="#FC9338"/>
<g opacity="0.6">
<path d="M177 234.21C177.143 234.258 177.263 234.357 177.338 234.488C177.412 234.619 177.436 234.772 177.405 234.92C177.362 235.064 177.266 235.187 177.136 235.263C177.006 235.339 176.852 235.363 176.705 235.33C176.553 235.278 176.426 235.173 176.347 235.034C176.268 234.895 176.242 234.732 176.275 234.575C176.335 234.428 176.45 234.31 176.596 234.245C176.741 234.181 176.906 234.175 177.055 234.23" fill="white"/>
</g>
<g opacity="0.6">
<path d="M179.4 239.24V238.02L165.005 238.11C165.005 238.11 164.325 238.38 164.39 238.855L179.4 239.24Z" fill="white"/>
</g>
<path d="M172.105 234.66C172.105 234.73 172.475 234.775 172.83 235.02C173.185 235.265 173.365 235.58 173.435 235.55C173.505 235.52 173.405 235.095 172.97 234.81C172.535 234.525 172.095 234.59 172.105 234.66Z" fill="#263238"/>
<path d="M170.5 235.27C170.5 235.34 170.795 235.475 171.035 235.77C171.275 236.065 171.34 236.415 171.415 236.415C171.49 236.415 171.545 236 171.24 235.61C170.935 235.22 170.5 235.2 170.5 235.27Z" fill="#263238"/>
<path d="M169.57 237.13C169.64 237.13 169.75 236.785 169.57 236.38C169.39 235.975 169.07 235.805 169.02 235.88C168.97 235.955 169.195 236.16 169.34 236.495C169.485 236.83 169.5 237.125 169.57 237.13Z" fill="#263238"/>
<path d="M172.285 232.89C172.315 232.96 172.65 232.89 173.065 232.89C173.48 232.89 173.8 233.07 173.84 233.005C173.88 232.94 173.575 232.675 173.085 232.635C172.595 232.595 172.25 232.835 172.285 232.89Z" fill="#263238"/>
<g opacity="0.3">
<path d="M172.285 228.53L172.3 229.91L179.68 230.035L179.72 228.79L172.285 228.53Z" fill="black"/>
</g>
<path d="M172.295 231.33C172.542 231.399 172.803 231.399 173.05 231.33C173.322 231.289 173.587 231.216 173.84 231.11C173.992 231.047 174.139 230.973 174.28 230.89C174.366 230.847 174.444 230.79 174.51 230.72C174.56 230.669 174.591 230.603 174.6 230.533C174.608 230.462 174.592 230.391 174.555 230.33C174.519 230.279 174.473 230.236 174.418 230.206C174.363 230.176 174.303 230.158 174.24 230.155C174.144 230.153 174.049 230.163 173.955 230.185C173.794 230.22 173.637 230.27 173.485 230.335C173.229 230.442 172.991 230.589 172.78 230.77C172.42 231.085 172.28 231.355 172.32 231.37C172.36 231.385 172.53 231.17 172.89 230.915C173.1 230.765 173.328 230.644 173.57 230.555C173.712 230.502 173.857 230.46 174.005 230.43C174.165 230.395 174.3 230.395 174.34 230.47C174.38 230.545 174.34 230.505 174.34 230.55C174.291 230.601 174.234 230.644 174.17 230.675C174.035 230.76 173.9 230.83 173.77 230.895C173.533 231.002 173.287 231.089 173.035 231.155C172.784 231.193 172.537 231.252 172.295 231.33Z" fill="#263238"/>
<path d="M172.39 231.44C172.535 231.226 172.61 230.973 172.605 230.715C172.627 230.437 172.6 230.158 172.525 229.89C172.483 229.73 172.422 229.576 172.345 229.43C172.307 229.329 172.244 229.24 172.162 229.171C172.08 229.102 171.981 229.055 171.875 229.035C171.808 229.035 171.742 229.054 171.685 229.09C171.628 229.127 171.583 229.179 171.555 229.24C171.515 229.326 171.487 229.417 171.47 229.51C171.446 229.676 171.446 229.844 171.47 230.01C171.501 230.293 171.605 230.563 171.77 230.795C172.055 231.19 172.355 231.295 172.365 231.26C172.375 231.225 172.135 231.075 171.92 230.695C171.797 230.476 171.722 230.234 171.7 229.985C171.689 229.839 171.697 229.693 171.725 229.55C171.755 229.39 171.815 229.265 171.875 229.28C171.935 229.295 172.075 229.405 172.135 229.535C172.204 229.667 172.262 229.804 172.31 229.945C172.386 230.19 172.428 230.444 172.435 230.7C172.435 231.155 172.35 231.425 172.39 231.44Z" fill="#263238"/>
<path d="M207.18 223.055L189.885 216.625L208.065 214.07L208.98 205.215L174.985 208.18L170.185 215.095L171.445 223.765L204.57 232.185L207.18 223.055Z" fill="#263238"/>
<path d="M170.5 229.25L168.845 197.6C168.89 196.084 169.322 194.605 170.099 193.303C170.876 192.001 171.973 190.919 173.285 190.16C174.376 189.528 175.588 189.134 176.843 189.006C178.097 188.877 179.364 189.017 180.56 189.415L202.615 196.77L214.72 199.885C214.72 199.885 216.785 204.97 215.57 208.92C214.385 212.79 210.145 215.365 206.415 214.26C201.78 212.885 180.51 203.76 180.51 203.76V229.5L170.5 229.25Z" fill="#263238"/>
<path d="M206.105 214.34L205.975 214.3L205.595 214.155L204.15 213.575L198.845 211.41L181.37 204.2L180.48 203.83L180.625 203.735C180.625 210.9 180.6 217.335 180.59 222C180.59 224.315 180.59 226.19 180.56 227.5C180.56 228.135 180.56 228.635 180.56 229C180.56 229.16 180.56 229.29 180.56 229.385C180.568 229.43 180.568 229.475 180.56 229.52C180.556 229.475 180.556 229.43 180.56 229.385V229C180.56 228.645 180.56 228.145 180.56 227.5C180.56 226.19 180.56 224.315 180.53 222C180.53 217.335 180.53 210.9 180.5 203.735V203.585L180.64 203.64L181.53 204.01L198.98 211.275L204.18 213.5L205.61 214.115L205.98 214.28L206.105 214.34Z" fill="#455A64"/>
<path d="M185.735 214.38C187.335 214.66 188.794 215.468 189.88 216.675C189.835 216.72 189.05 215.99 187.88 215.355C186.71 214.72 185.715 214.44 185.735 214.38Z" fill="#455A64"/>
<path d="M178.6 199.455C179.075 200.119 179.468 200.837 179.77 201.595C180.131 202.326 180.406 203.096 180.59 203.89C180.535 203.89 180.13 202.89 179.59 201.68C179.05 200.47 178.55 199.5 178.6 199.455Z" fill="#455A64"/>
<path d="M178.65 185.51L174.75 184.78L170.655 188.96L171.41 191.625L176.185 189.865L178.65 185.51Z" fill="#FFBE9D"/>
<path d="M142.615 175.97L147.05 174.97L154.19 176.085L153.915 180.64C153.915 180.64 151.7 180.96 150.915 180.7C150.442 180.545 149.934 180.534 149.455 180.67C149.455 180.67 149.89 181.565 149.14 181.71C148.39 181.855 147.165 182.17 146.935 181.11C146.747 181.122 146.56 181.067 146.408 180.956C146.255 180.844 146.146 180.683 146.1 180.5C146.1 180.5 145.52 180.71 145.26 179.695C145 178.68 145.15 177.155 147.155 176.67C147.26 176.645 147.31 176.405 147.11 176.415L143.94 177.01C143.94 177.01 141.81 177.105 142.615 175.97Z" fill="#FFBE9D"/>
<path d="M146.39 179.145C146.635 179.069 146.889 179.024 147.145 179.01C147.423 178.968 147.704 178.943 147.985 178.935C148.08 178.937 148.174 178.959 148.26 178.999C148.346 179.04 148.423 179.098 148.485 179.17C148.547 179.259 148.582 179.363 148.588 179.471C148.593 179.579 148.568 179.686 148.515 179.78C148.411 179.93 148.276 180.057 148.121 180.152C147.965 180.248 147.791 180.31 147.61 180.335C147.341 180.412 147.067 180.472 146.79 180.515C146.536 180.565 146.274 180.565 146.02 180.515C146.265 180.449 146.514 180.397 146.765 180.36C146.995 180.31 147.265 180.24 147.56 180.145C147.71 180.108 147.857 180.059 148 180C148.143 179.931 148.263 179.822 148.345 179.685C148.382 179.624 148.402 179.554 148.402 179.483C148.402 179.411 148.382 179.341 148.345 179.28C148.251 179.176 148.12 179.113 147.98 179.105C147.695 179.105 147.4 179.135 147.165 179.14C146.908 179.174 146.648 179.176 146.39 179.145Z" fill="#EB996E"/>
<path d="M147.15 178.165C147.15 178.22 146.93 178.335 146.76 178.6C146.59 178.865 146.565 179.125 146.51 179.13C146.455 179.135 146.385 178.81 146.6 178.49C146.815 178.17 147.15 178.115 147.15 178.165Z" fill="#EB996E"/>
<path d="M148.37 179.79C148.37 179.79 148.415 179.79 148.485 179.79C148.555 179.79 148.635 179.935 148.695 180.03C148.742 180.103 148.773 180.186 148.786 180.272C148.799 180.358 148.794 180.446 148.77 180.53C148.735 180.63 148.674 180.719 148.593 180.787C148.512 180.856 148.414 180.901 148.31 180.92C147.992 181.019 147.666 181.093 147.335 181.14C147.08 181.165 146.92 181.14 146.92 181.115C146.92 181.09 147.075 181.065 147.315 181.005C147.555 180.945 147.885 180.84 148.255 180.74C148.331 180.728 148.402 180.698 148.463 180.651C148.524 180.605 148.573 180.545 148.605 180.475C148.654 180.355 148.654 180.22 148.605 180.1C148.545 179.975 148.525 179.895 148.475 179.855C148.425 179.815 148.36 179.8 148.37 179.79Z" fill="#EB996E"/>
<path d="M148.665 180.565C148.665 180.565 148.715 180.475 148.855 180.455C149.031 180.443 149.207 180.489 149.355 180.585C149.431 180.638 149.494 180.708 149.538 180.79C149.582 180.871 149.607 180.962 149.61 181.055C149.61 181.185 149.61 181.265 149.565 181.265C149.52 181.265 149.515 181.19 149.475 181.08C149.44 180.949 149.363 180.833 149.255 180.75C149.135 180.671 149.001 180.617 148.86 180.59C148.75 180.57 148.68 180.59 148.665 180.565Z" fill="#EB996E"/>
<path d="M150.875 177.025L148.875 177.82L147 179.15C147 179.15 147 179.61 148.065 179.44C148.735 179.328 149.375 179.079 149.945 178.71C149.945 178.71 151.34 179.59 152.575 179.385" fill="#FFBE9D"/>
<path d="M152.555 179.385C152.555 179.385 152.49 179.41 152.36 179.435C152.171 179.456 151.979 179.456 151.79 179.435C151.114 179.352 150.463 179.127 149.88 178.775H149.97C149.271 179.247 148.457 179.52 147.615 179.565C147.473 179.57 147.33 179.549 147.195 179.505C147.114 179.481 147.042 179.434 146.987 179.37C146.932 179.307 146.897 179.228 146.885 179.145V179.1L146.925 179.07L148.825 177.75C149.44 177.515 149.945 177.325 150.3 177.2C150.48 177.123 150.668 177.064 150.86 177.025C150.692 177.128 150.514 177.215 150.33 177.285C149.985 177.435 149.49 177.645 148.88 177.895L147 179.24L147.04 179.16C147.04 179.22 147.125 179.305 147.225 179.34C147.339 179.378 147.46 179.395 147.58 179.39C148.385 179.344 149.164 179.089 149.84 178.65L149.89 178.62H149.935C150.495 178.969 151.116 179.209 151.765 179.325C152.027 179.364 152.291 179.384 152.555 179.385Z" fill="#EB996E"/>
<path d="M147.965 176.925C147.965 176.98 147.73 176.975 147.5 176.835C147.27 176.695 147.155 176.49 147.195 176.46C147.235 176.43 147.395 176.55 147.595 176.67C147.795 176.79 148 176.875 147.965 176.925Z" fill="#EB996E"/>
<path d="M153.805 181.845L170.735 184.305C172.417 184.836 174.24 184.684 175.81 183.88L190.89 176.145L186.39 166.19C185.808 166.389 185.24 166.628 184.69 166.905L172.285 175.845L154.285 175.215L153.805 181.845Z" fill="#FC9338"/>
<path d="M214.395 199.81L213.315 197.915L201.775 195.025L203.135 197.375L214.395 199.81Z" fill="#FFBE9D"/>
<path d="M186.375 166.19C186.375 166.59 184.68 179.12 184.68 181.69C184.68 184.26 189.58 187.025 189.58 187.025L194.945 198.42H214.06L207.525 186.15L204.57 176.32C203.45 172.6 203.57 170.675 200.795 167.95L195.45 164.35L186.375 166.19Z" fill="#FC9338"/>
<path d="M191.925 176.08L195.135 189.55L178.945 185L176.185 189.88L197.25 199.47C198.509 200.043 199.93 200.156 201.264 199.791C202.599 199.426 203.763 198.604 204.555 197.47C205.045 196.77 205.377 195.972 205.53 195.132C205.683 194.291 205.652 193.427 205.44 192.6L200.725 174.175C200.572 173.574 200.297 173.011 199.917 172.522C199.536 172.032 199.059 171.627 198.514 171.331C197.97 171.034 197.37 170.854 196.752 170.8C196.134 170.747 195.512 170.822 194.925 171.02C193.901 171.363 193.035 172.063 192.484 172.992C191.933 173.921 191.735 175.017 191.925 176.08Z" fill="#FC9338"/>
<path d="M189.88 187.65C189.741 187.394 189.573 187.154 189.38 186.935C189.26 186.875 189.09 186.785 188.88 186.66C188.261 186.311 187.668 185.919 187.105 185.485C186.242 184.856 185.529 184.046 185.015 183.11C184.515 181.99 184.515 180.61 184.72 179.26C184.925 177.91 185.22 176.63 185.36 175.455C185.5 174.28 185.665 173.225 185.73 172.335C185.795 171.445 185.81 170.72 185.81 170.22C185.81 169.72 185.81 169.44 185.81 169.44C185.831 169.505 185.842 169.572 185.845 169.64C185.845 169.77 185.875 169.965 185.89 170.215C185.927 170.924 185.927 171.635 185.89 172.345C185.845 173.24 185.735 174.31 185.565 175.485C185.395 176.66 185.135 177.94 184.94 179.29C184.745 180.64 184.72 181.965 185.2 183.03C185.693 183.943 186.375 184.741 187.2 185.37C187.752 185.81 188.328 186.219 188.925 186.595C189.302 186.889 189.625 187.246 189.88 187.65Z" fill="#263238"/>
<path d="M196.32 165.24C196.237 165.362 196.137 165.473 196.025 165.57C195.83 165.77 195.525 166.07 195.17 166.395C194.435 167.08 193.39 168 192.17 168.96C190.95 169.92 189.85 170.74 189.02 171.31C188.605 171.595 188.265 171.81 188.02 171.965C187.901 172.052 187.772 172.124 187.635 172.18C187.739 172.076 187.853 171.982 187.975 171.9L188.93 171.19C189.735 170.595 190.845 169.76 192.04 168.8C193.235 167.84 194.29 166.945 195.04 166.3L195.94 165.52C196.055 165.412 196.183 165.318 196.32 165.24Z" fill="#263238"/>
<path d="M191.925 176.08C191.96 176.164 191.987 176.251 192.005 176.34C192.055 176.527 192.12 176.777 192.2 177.09C192.37 177.765 192.605 178.715 192.9 179.9C193.485 182.31 194.3 185.67 195.23 189.525L195.27 189.69L195.11 189.645L191 188.5L178.945 185.075L179.03 185.04L176.985 188.59L176.415 189.55L176.265 189.795C176.23 189.855 176.21 189.88 176.205 189.88C176.215 189.847 176.228 189.815 176.245 189.785L176.38 189.53L176.91 188.53L178.91 184.945L178.94 184.895H178.995L191.065 188.265L195.195 189.435L195.07 189.55C194.165 185.69 193.375 182.325 192.805 179.91C192.535 178.72 192.305 177.76 192.165 177.085C192.095 176.765 192.04 176.515 192 176.325C191.969 176.245 191.944 176.164 191.925 176.08Z" fill="#263238"/>
<path d="M200.795 175.24C200.832 175.314 200.859 175.393 200.875 175.475C200.925 175.65 200.985 175.87 201.065 176.145L201.715 178.645C202.25 180.765 202.985 183.645 203.79 186.85C204.185 188.455 204.575 189.98 204.905 191.38C205.233 192.618 205.337 193.905 205.21 195.18C205.108 196.042 204.799 196.867 204.31 197.585C204.134 197.849 203.915 198.081 203.66 198.27C203.869 198.04 204.063 197.796 204.24 197.54C204.699 196.822 204.983 196.007 205.07 195.16C205.171 193.902 205.053 192.637 204.72 191.42C204.37 190.03 203.99 188.505 203.59 186.92L201.59 178.7L201 176.2L200.85 175.52C200.824 175.428 200.805 175.335 200.795 175.24Z" fill="#263238"/>
<g opacity="0.3">
<path d="M203.735 198.41C206.105 198.625 207.48 197.275 207.735 195.41C207.791 194.382 207.61 193.356 207.205 192.41C205.75 188.15 204.28 183.855 201.975 179.985C202.845 183.855 203.975 187.57 204.83 191.44C205.106 192.516 205.229 193.625 205.195 194.735C205.141 196.089 204.626 197.384 203.735 198.405" fill="black"/>
</g>
<path d="M184.3 179C183.936 178.691 183.613 178.336 183.34 177.945C182.642 177.033 182.047 176.047 181.565 175.005C181.082 173.961 180.718 172.865 180.48 171.74C180.361 171.278 180.3 170.802 180.3 170.325C180.445 170.775 180.565 171.232 180.66 171.695C180.947 172.793 181.328 173.863 181.8 174.895C182.275 175.923 182.841 176.907 183.49 177.835C184 178.57 184.33 179 184.3 179Z" fill="#FAFAFA"/>
<path d="M179.66 181.765C179.37 181.431 179.115 181.067 178.9 180.68C178.46 179.99 177.9 179.02 177.29 177.925C176.68 176.83 176.19 175.82 175.85 175.08C175.641 174.69 175.473 174.28 175.35 173.855C175.602 174.215 175.82 174.599 176 175L177.5 177.8C178.075 178.85 178.6 179.8 179.035 180.585C179.278 180.959 179.487 181.354 179.66 181.765Z" fill="#FAFAFA"/>
<path d="M173.275 184.255C172.931 182.939 172.671 181.603 172.495 180.255C172.235 178.919 172.06 177.568 171.97 176.21C172.314 177.526 172.575 178.862 172.75 180.21C173.013 181.545 173.188 182.897 173.275 184.255Z" fill="#FAFAFA"/>
<path d="M167.595 183.87C167.504 183.497 167.461 183.114 167.465 182.73C167.42 182.02 167.395 181.04 167.42 179.955C167.445 178.87 167.52 177.895 167.595 177.19C167.61 176.805 167.672 176.424 167.78 176.055C167.821 176.435 167.821 176.819 167.78 177.2C167.75 177.91 167.71 178.885 167.68 179.96C167.65 181.035 167.65 182.015 167.65 182.725C167.675 183.107 167.657 183.492 167.595 183.87Z" fill="#FAFAFA"/>
<path d="M161.91 175.6C161.999 175.946 162.046 176.302 162.05 176.66C162.1 177.32 162.13 178.235 162.115 179.245C162.1 180.255 162.03 181.17 161.955 181.825C161.943 182.185 161.882 182.541 161.775 182.885C161.7 182.885 161.82 181.25 161.85 179.24C161.88 177.23 161.83 175.605 161.91 175.6Z" fill="#FAFAFA"/>
<path d="M157.24 176.2C157.276 177.219 157.228 178.239 157.095 179.25C157.049 180.268 156.914 181.28 156.69 182.275C156.7 180.238 156.884 178.206 157.24 176.2Z" fill="#FAFAFA"/>
<path d="M185.385 171.575C185.31 171.575 185.01 170.765 184.5 169.815C183.99 168.865 183.5 168.145 183.54 168.1C184.498 169.041 185.142 170.254 185.385 171.575Z" fill="#FAFAFA"/>
<path d="M194.185 185.18C194.059 185.219 193.927 185.235 193.795 185.225C193.437 185.24 193.078 185.231 192.72 185.2C191.538 185.109 190.374 184.85 189.265 184.43C188.153 184.017 187.104 183.45 186.15 182.745C185.861 182.532 185.586 182.301 185.325 182.055C185.14 181.88 185.045 181.78 185.06 181.765C185.075 181.75 185.515 182.095 186.255 182.595C188.201 183.904 190.428 184.735 192.755 185.02C193.625 185.13 194.185 185.135 194.185 185.18Z" fill="#FAFAFA"/>
<path d="M192.36 178.795C192.01 178.81 191.659 178.772 191.32 178.68C190.49 178.523 189.673 178.306 188.875 178.03C188.075 177.757 187.298 177.423 186.55 177.03C186.227 176.89 185.926 176.705 185.655 176.48C185.695 176.41 187.105 177.145 188.96 177.78C190.815 178.415 192.375 178.72 192.36 178.795Z" fill="#FAFAFA"/>
<path d="M191.3 174.205C190.397 174.262 189.492 174.117 188.651 173.78C187.81 173.444 187.055 172.925 186.44 172.26C187.871 173.307 189.542 173.975 191.3 174.205Z" fill="#FAFAFA"/>
<path d="M198.785 170.935C198.76 170.975 198.37 170.71 197.66 170.51C196.735 170.253 195.753 170.29 194.85 170.615C193.953 170.958 193.186 171.576 192.66 172.38C192.25 172.995 192.13 173.45 192.085 173.435C192.129 173.022 192.271 172.626 192.5 172.28C193.009 171.401 193.807 170.726 194.759 170.371C195.71 170.016 196.755 170.004 197.715 170.335C198.114 170.447 198.481 170.653 198.785 170.935Z" fill="#FAFAFA"/>
<path d="M199.67 177.075C199.416 177.287 199.129 177.456 198.82 177.575C197.376 178.202 195.814 178.512 194.24 178.485C193.915 178.504 193.588 178.467 193.275 178.375C193.275 178.295 194.775 178.375 196.525 178.02C198.275 177.665 199.635 177 199.67 177.075Z" fill="#FAFAFA"/>
<path d="M202.23 184.78C201.077 185.023 199.907 185.182 198.73 185.255C197.557 185.412 196.374 185.484 195.19 185.47C196.343 185.224 197.513 185.066 198.69 184.995C199.863 184.838 201.047 184.766 202.23 184.78Z" fill="#FAFAFA"/>
<path d="M204.5 195.455C204.363 195.45 204.228 195.423 204.1 195.375C203.745 195.277 203.396 195.158 203.055 195.02C201.924 194.565 200.843 193.994 199.83 193.315C198.822 192.638 197.851 191.909 196.92 191.13C196.516 190.832 196.142 190.497 195.8 190.13C196.224 190.386 196.625 190.677 197 191C197.745 191.555 198.77 192.33 199.945 193.11C200.948 193.776 202.001 194.363 203.095 194.865C203.95 195.23 204.5 195.415 204.5 195.455Z" fill="#FAFAFA"/>
<path d="M192.365 197.08C192.282 196.708 192.255 196.325 192.285 195.945C192.324 194.104 192.765 192.293 193.575 190.64C193.721 190.288 193.92 189.961 194.165 189.67C193.663 190.846 193.239 192.053 192.895 193.285C192.638 194.537 192.461 195.805 192.365 197.08Z" fill="#FAFAFA"/>
<path d="M186.27 193.815C186.076 191.717 186.718 189.628 188.055 188C187.586 188.91 187.178 189.85 186.835 190.815C186.577 191.801 186.388 192.803 186.27 193.815Z" fill="#FAFAFA"/>
<path d="M182.87 185.835C182.167 186.671 181.544 187.572 181.01 188.525C180.554 189.518 180.194 190.553 179.935 191.615C179.901 191.28 179.926 190.941 180.01 190.615C180.16 189.838 180.417 189.086 180.775 188.38C181.133 187.674 181.589 187.023 182.13 186.445C182.341 186.202 182.591 185.995 182.87 185.835Z" fill="#FAFAFA"/>
<path d="M205.33 178.85C204.956 179.317 204.466 179.679 203.909 179.9C203.353 180.121 202.748 180.193 202.155 180.11C202.155 180.03 202.935 180.01 203.81 179.655C204.685 179.3 205.275 178.795 205.33 178.85Z" fill="#FAFAFA"/>
<path d="M203.04 171.835C202.868 172.337 202.541 172.771 202.105 173.075C201.722 173.445 201.229 173.68 200.7 173.745C200.7 173.675 201.3 173.4 201.94 172.87C202.58 172.34 203 171.79 203.04 171.835Z" fill="#FAFAFA"/>
<path d="M194.875 167.165C195.319 167.428 195.668 167.823 195.875 168.295C196.158 168.729 196.303 169.238 196.29 169.755C196.215 169.755 196.035 169.13 195.645 168.42C195.255 167.71 194.825 167.215 194.875 167.165Z" fill="#FAFAFA"/>
<path d="M207 185.455C206.564 185.845 206.03 186.108 205.455 186.215C204.902 186.401 204.309 186.431 203.74 186.3C203.74 186.225 204.5 186.195 205.39 185.96C206.28 185.725 206.97 185.39 207 185.455Z" fill="#FAFAFA"/>
<path d="M210.5 191.61C208.697 191.936 206.867 192.091 205.035 192.07C205.928 191.864 206.839 191.744 207.755 191.71C208.665 191.586 209.584 191.553 210.5 191.61Z" fill="#FAFAFA"/>
<path d="M212.93 196.56C210.247 196.667 207.56 196.6 204.885 196.36C207.568 196.253 210.255 196.32 212.93 196.56Z" fill="#FAFAFA"/>
<path d="M195.235 146.94C195.57 148.635 198.005 149.31 198.235 151.02C198.335 151.75 197.985 152.48 198.015 153.22C198.045 154.22 198.74 155.055 199.09 155.985C199.82 157.905 199 160.18 197.455 161.535C195.91 162.89 193.8 163.44 191.75 163.48" fill="#263238"/>
<path d="M181.445 148.69C181.66 149.595 181.185 150.505 180.685 151.29C180.185 152.075 179.62 152.895 179.63 153.82C179.63 155.47 181.46 156.715 181.39 158.36C181.35 159.24 180.76 160.035 180.77 160.92C180.813 161.346 180.946 161.757 181.16 162.127C181.375 162.497 181.667 162.817 182.015 163.065C182.665 163.615 183.295 163.42 183.895 164.03C184.587 164.711 185.413 165.24 186.32 165.585C188.235 166.27 190.135 164.535 190.95 164.15" fill="#263238"/>
<path d="M195.735 147.865C195.625 147.03 194.735 146.51 193.935 146.33C193.135 146.15 192.24 146.17 191.475 145.83C190.84 145.446 190.244 145 189.695 144.5C188.956 143.954 188.085 143.614 187.172 143.516C186.259 143.418 185.335 143.565 184.497 143.942C183.66 144.319 182.937 144.912 182.404 145.66C181.871 146.408 181.547 147.285 181.465 148.2C181.355 149.43 181.78 150.795 182.835 151.435C184.06 152.175 185.635 151.72 186.975 151.215C188.315 150.71 189.84 150.185 191.125 150.815C191.86 151.274 192.489 151.884 192.97 152.605C193.51 153.275 194.165 153.945 195.015 154.105C195.865 154.265 196.885 153.605 196.785 152.745" fill="#263238"/>
<path d="M196.025 165.57L194.025 149.375C193.977 149.026 193.8 148.708 193.529 148.483C193.258 148.258 192.912 148.143 192.56 148.16L184.9 147.445C182.5 147.565 181.4 150.715 181.6 153.11C181.845 155.765 182.245 159.005 182.865 160.92C184.105 164.77 187.21 164.8 187.21 164.8C187.21 164.8 187.77 170.5 188 171.9" fill="#FFBE9D"/>
<path d="M182.63 156.065C182.638 156.131 182.659 156.195 182.693 156.253C182.726 156.312 182.77 156.362 182.823 156.403C182.876 156.443 182.937 156.473 183.002 156.49C183.067 156.506 183.134 156.51 183.2 156.5C183.331 156.487 183.452 156.423 183.536 156.322C183.62 156.221 183.661 156.091 183.65 155.96C183.642 155.894 183.621 155.83 183.588 155.771C183.555 155.713 183.51 155.663 183.457 155.622C183.404 155.582 183.343 155.552 183.278 155.535C183.214 155.519 183.146 155.515 183.08 155.525C182.949 155.538 182.829 155.601 182.744 155.703C182.66 155.804 182.619 155.934 182.63 156.065Z" fill="#263238"/>
<path d="M182.5 155.065C182.575 155.125 182.915 154.78 183.46 154.695C184.005 154.61 184.46 154.825 184.495 154.745C184.53 154.665 184.435 154.605 184.245 154.505C183.983 154.377 183.688 154.333 183.4 154.38C183.116 154.423 182.853 154.556 182.65 154.76C182.5 154.915 182.45 155.04 182.5 155.065Z" fill="#263238"/>
<path d="M188.125 155.26C188.133 155.326 188.154 155.389 188.187 155.447C188.22 155.505 188.264 155.555 188.317 155.596C188.369 155.636 188.429 155.666 188.493 155.683C188.558 155.7 188.624 155.704 188.69 155.695C188.82 155.682 188.94 155.619 189.024 155.519C189.108 155.419 189.15 155.29 189.14 155.16C189.132 155.094 189.111 155.03 189.078 154.973C189.045 154.915 189.001 154.865 188.949 154.824C188.896 154.784 188.836 154.754 188.772 154.737C188.708 154.72 188.641 154.716 188.575 154.725C188.445 154.738 188.325 154.801 188.241 154.901C188.157 155.001 188.115 155.13 188.125 155.26Z" fill="#263238"/>
<path d="M187.86 154.335C187.935 154.39 188.275 154.045 188.82 153.965C189.365 153.885 189.82 154.09 189.855 154.015C189.89 153.94 189.795 153.87 189.6 153.77C189.339 153.643 189.046 153.601 188.76 153.65C188.477 153.694 188.215 153.825 188.01 154.025C187.865 154.18 187.825 154.31 187.86 154.335Z" fill="#263238"/>
<path d="M186.5 158.685C186.198 158.649 185.892 158.649 185.59 158.685C185.45 158.685 185.315 158.685 185.275 158.59C185.239 158.449 185.25 158.3 185.305 158.165C185.38 157.81 185.465 157.435 185.55 157.04C185.794 156.083 185.961 155.108 186.05 154.125C185.73 155.061 185.486 156.02 185.32 156.995C185.24 157.392 185.165 157.767 185.095 158.12C185.03 158.301 185.03 158.499 185.095 158.68C185.123 158.726 185.16 158.766 185.205 158.795C185.25 158.824 185.302 158.843 185.355 158.85C185.437 158.858 185.519 158.858 185.6 158.85C185.906 158.835 186.209 158.779 186.5 158.685Z" fill="#263238"/>
<path d="M187.19 164.8C189.042 164.579 190.789 163.825 192.22 162.63C191.8 163.586 191.112 164.401 190.239 164.974C189.366 165.547 188.345 165.855 187.3 165.86L187.19 164.8Z" fill="#EB996E"/>
<path d="M186.945 159.965C187.029 159.819 187.149 159.696 187.293 159.609C187.437 159.521 187.601 159.472 187.77 159.465C187.892 159.457 188.014 159.474 188.129 159.515C188.244 159.555 188.35 159.618 188.44 159.7C188.527 159.78 188.587 159.884 188.613 160C188.639 160.115 188.629 160.235 188.585 160.345C188.513 160.456 188.409 160.544 188.287 160.596C188.165 160.647 188.03 160.661 187.9 160.635C187.627 160.586 187.367 160.482 187.135 160.33C187.069 160.293 187.008 160.248 186.955 160.195C186.931 160.167 186.916 160.133 186.911 160.097C186.905 160.06 186.91 160.023 186.925 159.99" fill="#EB996E"/>
<path d="M188.175 158.815C188.085 158.815 188.175 159.415 187.735 159.91C187.295 160.405 186.655 160.445 186.66 160.525C186.665 160.605 186.82 160.62 187.09 160.585C187.44 160.53 187.759 160.353 187.99 160.085C188.212 159.833 188.33 159.506 188.32 159.17C188.305 158.94 188.215 158.805 188.175 158.815Z" fill="#263238"/>
<path d="M187.37 152.85C187.45 152.99 187.985 152.85 188.635 152.81C189.285 152.77 189.83 152.88 189.895 152.735C189.96 152.59 189.81 152.54 189.58 152.43C189.275 152.297 188.943 152.235 188.61 152.25C188.278 152.265 187.953 152.355 187.66 152.515C187.44 152.645 187.34 152.78 187.37 152.85Z" fill="#263238"/>
<path d="M182.44 153.46C182.555 153.565 182.91 153.38 183.36 153.305C183.81 153.23 184.21 153.255 184.275 153.115C184.34 152.975 184.225 152.93 184.04 152.84C183.795 152.73 183.523 152.701 183.26 152.755C182.995 152.799 182.75 152.925 182.56 153.115C182.42 153.27 182.39 153.405 182.44 153.46Z" fill="#263238"/>
<path d="M196.245 161.5C195.195 161.89 195.01 161.355 194.08 160.725C193.616 160.407 193.234 159.985 192.962 159.493C192.69 159 192.537 158.452 192.515 157.89C192.485 156.89 192.85 155.83 192.37 154.965C191.73 153.825 189.97 153.72 189.33 152.58C188.955 151.915 189.06 151.055 188.655 150.415C188.434 150.134 188.158 149.901 187.844 149.729C187.531 149.557 187.186 149.45 186.83 149.415C186.116 149.345 185.418 149.165 184.76 148.88C184.135 148.535 183.66 147.77 183.925 147.105C186.93 146.994 189.938 147.241 192.885 147.84C193.582 147.916 194.237 148.208 194.76 148.675C195.199 149.273 195.438 149.993 195.445 150.735C195.842 154.305 196.235 157.877 196.625 161.45" fill="#263238"/>
<path d="M197.455 153.05C197.416 152.384 197.595 151.724 197.964 151.168C198.334 150.613 198.874 150.193 199.503 149.973C200.132 149.752 200.817 149.742 201.452 149.944C202.087 150.147 202.64 150.551 203.025 151.095C203.354 151.634 203.561 152.237 203.633 152.864C203.704 153.491 203.639 154.126 203.44 154.725C203.045 156.17 201.995 157.595 200.505 157.76C199.11 157.915 197.8 156.875 197.19 155.605C196.58 154.335 196.515 152.885 196.46 151.48" fill="#263238"/>
<path d="M199.085 158.34C199.159 158.264 199.217 158.174 199.255 158.075C199.371 157.812 199.429 157.527 199.425 157.24C199.417 156.815 199.338 156.394 199.19 155.995C199.04 155.545 198.805 155.085 198.61 154.585C198.408 154.128 198.3 153.635 198.29 153.135C198.29 152.685 198.45 152.28 198.49 151.915C198.534 151.628 198.496 151.336 198.38 151.07C198.285 150.885 198.185 150.815 198.18 150.825C198.175 150.835 198.245 150.915 198.315 151.095C198.4 151.355 198.417 151.632 198.365 151.9C198.261 152.305 198.183 152.715 198.13 153.13C198.131 153.646 198.238 154.157 198.445 154.63C198.645 155.13 198.885 155.595 199.04 156.03C199.186 156.411 199.274 156.812 199.3 157.22C199.314 157.605 199.24 157.988 199.085 158.34Z" fill="#455A64"/>
<path d="M198.395 153.585C198.584 153.804 198.822 153.976 199.09 154.085C199.722 154.399 200.434 154.514 201.133 154.416C201.831 154.318 202.484 154.011 203.005 153.535C203.232 153.355 203.415 153.126 203.54 152.865C203.515 152.865 203.33 153.115 202.925 153.44C202.402 153.864 201.776 154.14 201.11 154.24C200.443 154.329 199.764 154.236 199.145 153.97C198.665 153.77 198.41 153.56 198.395 153.585Z" fill="#455A64"/>
<path d="M198.685 154.175C198.793 154.389 198.94 154.581 199.12 154.74C199.529 155.153 200.02 155.476 200.56 155.69C201.096 155.91 201.671 156.019 202.25 156.01C202.49 156.023 202.73 155.988 202.955 155.905C202.722 155.891 202.488 155.891 202.255 155.905C201.127 155.855 200.05 155.419 199.205 154.67C199.042 154.494 198.869 154.329 198.685 154.175Z" fill="#455A64"/>
<path d="M198.55 159.775C198.55 159.775 198.55 159.775 198.59 159.72C198.62 159.663 198.647 159.605 198.67 159.545C198.766 159.313 198.819 159.066 198.825 158.815C198.837 158.415 198.751 158.019 198.575 157.66C198.345 157.174 197.95 156.786 197.46 156.565C196.872 156.375 196.319 156.087 195.825 155.715C195.706 155.599 195.613 155.459 195.551 155.305C195.489 155.151 195.46 154.986 195.465 154.82C195.485 154.454 195.546 154.092 195.645 153.74C195.741 153.34 195.752 152.925 195.679 152.52C195.606 152.116 195.45 151.731 195.22 151.39C194.978 151.026 194.65 150.727 194.265 150.52C193.86 150.328 193.419 150.222 192.97 150.21C192.53 150.18 192.095 150.21 191.68 150.135C191.273 150.095 190.881 149.956 190.54 149.73C190.232 149.487 190.015 149.147 189.925 148.765C189.827 148.384 189.704 148.009 189.555 147.645C189.268 146.963 188.797 146.375 188.195 145.945C187.664 145.576 187.032 145.379 186.385 145.38C185.848 145.371 185.322 145.536 184.885 145.85C184.56 146.083 184.299 146.394 184.125 146.755C184.015 146.981 183.946 147.225 183.92 147.475C183.908 147.561 183.908 147.649 183.92 147.735C183.942 147.404 184.03 147.081 184.18 146.785C184.39 146.389 184.706 146.059 185.093 145.832C185.48 145.605 185.922 145.49 186.37 145.5C186.989 145.508 187.591 145.705 188.095 146.065C188.671 146.484 189.121 147.053 189.395 147.71C189.534 148.071 189.653 148.44 189.75 148.815C189.85 149.231 190.088 149.601 190.425 149.865C190.787 150.112 191.204 150.265 191.64 150.31C192.075 150.37 192.51 150.355 192.945 150.385C193.368 150.396 193.784 150.497 194.165 150.68C194.528 150.869 194.837 151.146 195.065 151.485C195.282 151.808 195.43 152.172 195.5 152.555C195.569 152.938 195.559 153.331 195.47 153.71C195.372 154.073 195.313 154.445 195.295 154.82C195.29 155.006 195.323 155.191 195.394 155.363C195.465 155.536 195.571 155.691 195.705 155.82C196.214 156.204 196.786 156.497 197.395 156.685C197.86 156.881 198.241 157.236 198.47 157.685C198.647 158.03 198.739 158.412 198.74 158.8C198.742 159.134 198.677 159.466 198.55 159.775Z" fill="#455A64"/>
<path d="M196.545 148.795C196.56 148.733 196.56 148.667 196.545 148.605C196.53 148.42 196.457 148.245 196.335 148.105C196.14 147.88 195.876 147.726 195.585 147.665C195.199 147.603 194.804 147.652 194.445 147.805C194.045 147.95 193.64 148.18 193.185 148.345C192.956 148.45 192.707 148.505 192.455 148.505C192.203 148.505 191.954 148.45 191.725 148.345C191.259 148.018 190.888 147.573 190.65 147.055C190.346 146.495 189.953 145.988 189.485 145.555C188.579 144.715 187.42 144.2 186.19 144.09C185.65 144.054 185.11 144.155 184.62 144.385C184.193 144.589 183.832 144.909 183.58 145.31C183.375 145.646 183.28 146.038 183.31 146.43C183.329 146.723 183.42 147.006 183.575 147.255C183.67 147.412 183.793 147.55 183.94 147.66C183.992 147.696 184.047 147.728 184.105 147.755C183.918 147.604 183.758 147.423 183.63 147.22C183.495 146.974 183.418 146.7 183.405 146.42C183.389 146.051 183.487 145.687 183.685 145.375C183.931 145 184.277 144.702 184.685 144.515C185.154 144.301 185.671 144.211 186.185 144.255C187.375 144.368 188.495 144.87 189.37 145.685C189.824 146.101 190.209 146.587 190.51 147.125C190.761 147.667 191.155 148.13 191.65 148.465C191.903 148.599 192.189 148.658 192.475 148.635C192.737 148.615 192.995 148.556 193.24 148.46C193.715 148.28 194.11 148.045 194.495 147.895C194.832 147.743 195.204 147.688 195.57 147.735C195.844 147.785 196.095 147.921 196.285 148.125C196.409 148.252 196.49 148.415 196.515 148.59C196.55 148.725 196.535 148.795 196.545 148.795Z" fill="#455A64"/>
</svg>
